M48
; DRILL file {KiCad (7.0.0)} date Mon Jun 19 20:12:00 2023
; FORMAT={-:-/ absolute / metric / decimal}
; #@! TF.CreationDate,2023-06-19T20:12:00-07:00
; #@! TF.GenerationSoftware,Kicad,Pcbnew,(7.0.0)
; #@! TF.FileFunction,MixedPlating,1,2
FMAT,2
METRIC
; #@! TA.AperFunction,Plated,PTH,ComponentDrill
T1C0.200
; #@! TA.AperFunction,Plated,PTH,ViaDrill
T2C0.700
; #@! TA.AperFunction,Plated,PTH,ComponentDrill
T3C0.800
; #@! TA.AperFunction,Plated,PTH,ComponentDrill
T4C0.920
; #@! TA.AperFunction,Plated,PTH,ComponentDrill
T5C1.000
; #@! TA.AperFunction,Plated,PTH,ComponentDrill
T6C1.020
; #@! TA.AperFunction,Plated,PTH,ComponentDrill
T7C1.100
; #@! TA.AperFunction,Plated,PTH,ComponentDrill
T8C1.200
; #@! TA.AperFunction,Plated,PTH,ComponentDrill
T9C1.400
; #@! TA.AperFunction,Plated,PTH,ViaDrill
T10C1.500
; #@! TA.AperFunction,Plated,PTH,ComponentDrill
T11C2.300
; #@! TA.AperFunction,NonPlated,NPTH,ComponentDrill
T12C3.200
; #@! TA.AperFunction,NonPlated,NPTH,ComponentDrill
T13C3.500
%
G90
G05
T1
X116.46Y-58.0
X116.46Y-59.0
X116.46Y-60.0
X117.76Y-58.0
X117.76Y-59.0
X117.76Y-60.0
T2
X103.84Y-57.5
X114.5Y-55.5
X124.0Y-54.5
X127.5Y-41.0
X165.2Y-41.0
T4
X137.5Y-46.26
X137.5Y-48.88
X140.0Y-46.26
X140.0Y-48.88
X142.0Y-46.26
X142.0Y-48.88
X144.5Y-46.26
X144.5Y-48.88
T5
X95.92Y-81.0
X98.46Y-81.0
X101.0Y-81.0
X172.92Y-81.0
X175.46Y-81.0
X178.0Y-81.0
T6
X143.52Y-58.11
X143.52Y-75.89
X146.06Y-58.11
X146.06Y-75.89
X148.6Y-58.11
X148.6Y-75.89
X151.14Y-58.11
X151.14Y-75.89
X153.68Y-58.11
X153.68Y-75.89
X156.22Y-58.11
X156.22Y-75.89
X158.76Y-58.11
X158.76Y-75.89
X161.3Y-58.11
X161.3Y-75.89
X163.84Y-58.11
X163.84Y-75.89
X166.38Y-58.11
X166.38Y-75.89
X168.92Y-58.11
X168.92Y-75.89
X171.46Y-58.11
X171.46Y-75.89
X174.0Y-58.11
X174.0Y-75.89
X176.54Y-58.11
X176.54Y-75.89
X179.08Y-58.11
X179.08Y-75.89
X181.62Y-58.11
X181.62Y-75.89
X184.16Y-58.11
X184.16Y-75.89
X186.7Y-58.11
X186.7Y-75.89
X189.24Y-58.11
X189.24Y-75.89
X191.78Y-58.11
X191.78Y-75.89
T7
X95.92Y-55.0
X98.46Y-55.0
X101.0Y-55.0
T8
X120.0Y-41.0
X125.0Y-41.0
X130.0Y-41.0
X152.0Y-41.0
X157.0Y-41.0
X162.0Y-41.0
T9
X108.46Y-43.777
X113.54Y-43.777
T10
X88.0Y-44.5
X103.0Y-41.5
X104.5Y-80.5
X108.0Y-66.5
X131.0Y-49.5
X131.0Y-67.5
X151.0Y-48.0
X175.5Y-73.0
X180.5Y-81.0
X186.5Y-73.0
T11
X134.43Y-43.55
X134.43Y-49.23
X147.57Y-43.55
X147.57Y-49.23
T12
X89.0Y-52.0
X89.0Y-82.0
X189.0Y-52.0
X189.0Y-82.0
T13
X98.46Y-71.66
T3
G00X91.835Y-43.4
M15
G01X91.835Y-45.6
M16
G05
G00X97.735Y-41.0
M15
G01X95.535Y-41.0
M16
G05
G00X97.985Y-47.0
M15
G01X95.285Y-47.0
M16
G05
T0
M30
