%TF.GenerationSoftware,KiCad,Pcbnew,(7.0.0)*%
%TF.CreationDate,2023-06-19T20:16:09-07:00*%
%TF.ProjectId,main_board,6d61696e-5f62-46f6-9172-642e6b696361,B*%
%TF.SameCoordinates,Original*%
%TF.FileFunction,Copper,L2,Bot*%
%TF.FilePolarity,Positive*%
%FSLAX46Y46*%
G04 Gerber Fmt 4.6, Leading zero omitted, Abs format (unit mm)*
G04 Created by KiCad (PCBNEW (7.0.0)) date 2023-06-19 20:16:09*
%MOMM*%
%LPD*%
G01*
G04 APERTURE LIST*
G04 Aperture macros list*
%AMRoundRect*
0 Rectangle with rounded corners*
0 $1 Rounding radius*
0 $2 $3 $4 $5 $6 $7 $8 $9 X,Y pos of 4 corners*
0 Add a 4 corners polygon primitive as box body*
4,1,4,$2,$3,$4,$5,$6,$7,$8,$9,$2,$3,0*
0 Add four circle primitives for the rounded corners*
1,1,$1+$1,$2,$3*
1,1,$1+$1,$4,$5*
1,1,$1+$1,$6,$7*
1,1,$1+$1,$8,$9*
0 Add four rect primitives between the rounded corners*
20,1,$1+$1,$2,$3,$4,$5,0*
20,1,$1+$1,$4,$5,$6,$7,0*
20,1,$1+$1,$6,$7,$8,$9,0*
20,1,$1+$1,$8,$9,$2,$3,0*%
G04 Aperture macros list end*
%ADD10C,0.300000*%
%TA.AperFunction,NonConductor*%
%ADD11C,0.300000*%
%TD*%
%TA.AperFunction,ComponentPad*%
%ADD12R,1.700000X1.700000*%
%TD*%
%TA.AperFunction,ComponentPad*%
%ADD13O,1.700000X1.700000*%
%TD*%
%TA.AperFunction,ComponentPad*%
%ADD14R,4.000000X2.000000*%
%TD*%
%TA.AperFunction,ComponentPad*%
%ADD15R,2.000000X4.000000*%
%TD*%
%TA.AperFunction,ComponentPad*%
%ADD16R,1.905000X2.000000*%
%TD*%
%TA.AperFunction,ComponentPad*%
%ADD17O,1.905000X2.000000*%
%TD*%
%TA.AperFunction,ComponentPad*%
%ADD18R,1.500000X1.500000*%
%TD*%
%TA.AperFunction,ComponentPad*%
%ADD19C,1.500000*%
%TD*%
%TA.AperFunction,ComponentPad*%
%ADD20C,3.000000*%
%TD*%
%TA.AperFunction,ComponentPad*%
%ADD21RoundRect,0.249999X0.790001X1.550001X-0.790001X1.550001X-0.790001X-1.550001X0.790001X-1.550001X0*%
%TD*%
%TA.AperFunction,ComponentPad*%
%ADD22O,2.080000X3.600000*%
%TD*%
%TA.AperFunction,SMDPad,CuDef*%
%ADD23R,2.000000X2.000000*%
%TD*%
%TA.AperFunction,SMDPad,CuDef*%
%ADD24RoundRect,0.250000X-0.325000X-1.100000X0.325000X-1.100000X0.325000X1.100000X-0.325000X1.100000X0*%
%TD*%
%TA.AperFunction,SMDPad,CuDef*%
%ADD25RoundRect,0.200000X0.275000X-0.200000X0.275000X0.200000X-0.275000X0.200000X-0.275000X-0.200000X0*%
%TD*%
%TA.AperFunction,SMDPad,CuDef*%
%ADD26RoundRect,0.250000X-1.100000X0.325000X-1.100000X-0.325000X1.100000X-0.325000X1.100000X0.325000X0*%
%TD*%
%TA.AperFunction,SMDPad,CuDef*%
%ADD27RoundRect,0.250000X-0.400000X-0.600000X0.400000X-0.600000X0.400000X0.600000X-0.400000X0.600000X0*%
%TD*%
%TA.AperFunction,SMDPad,CuDef*%
%ADD28R,2.350000X3.500000*%
%TD*%
%TA.AperFunction,ComponentPad*%
%ADD29R,3.000000X3.000000*%
%TD*%
%TA.AperFunction,SMDPad,CuDef*%
%ADD30RoundRect,0.250000X1.100000X-0.325000X1.100000X0.325000X-1.100000X0.325000X-1.100000X-0.325000X0*%
%TD*%
%TA.AperFunction,SMDPad,CuDef*%
%ADD31RoundRect,0.225000X-0.250000X0.225000X-0.250000X-0.225000X0.250000X-0.225000X0.250000X0.225000X0*%
%TD*%
%TA.AperFunction,SMDPad,CuDef*%
%ADD32RoundRect,0.200000X-0.200000X-0.275000X0.200000X-0.275000X0.200000X0.275000X-0.200000X0.275000X0*%
%TD*%
%TA.AperFunction,SMDPad,CuDef*%
%ADD33RoundRect,0.218750X0.218750X0.256250X-0.218750X0.256250X-0.218750X-0.256250X0.218750X-0.256250X0*%
%TD*%
%TA.AperFunction,SMDPad,CuDef*%
%ADD34RoundRect,0.250000X-0.650000X1.000000X-0.650000X-1.000000X0.650000X-1.000000X0.650000X1.000000X0*%
%TD*%
%TA.AperFunction,SMDPad,CuDef*%
%ADD35RoundRect,0.225000X0.250000X-0.225000X0.250000X0.225000X-0.250000X0.225000X-0.250000X-0.225000X0*%
%TD*%
%TA.AperFunction,SMDPad,CuDef*%
%ADD36RoundRect,0.150000X-0.825000X-0.150000X0.825000X-0.150000X0.825000X0.150000X-0.825000X0.150000X0*%
%TD*%
%TA.AperFunction,ComponentPad*%
%ADD37C,0.500000*%
%TD*%
%TA.AperFunction,SMDPad,CuDef*%
%ADD38R,2.290000X3.000000*%
%TD*%
%TA.AperFunction,ViaPad*%
%ADD39C,2.200000*%
%TD*%
%TA.AperFunction,ViaPad*%
%ADD40C,0.900000*%
%TD*%
%TA.AperFunction,Conductor*%
%ADD41C,0.400000*%
%TD*%
%TA.AperFunction,Conductor*%
%ADD42C,0.800000*%
%TD*%
G04 APERTURE END LIST*
D10*
G36*
X157088196Y-68285374D02*
G01*
X157121428Y-68351838D01*
X157121428Y-68423875D01*
X157088195Y-68490339D01*
X157021733Y-68523571D01*
X156735410Y-68523571D01*
X156707143Y-68509438D01*
X156707143Y-68255837D01*
X156716782Y-68257572D01*
X156729874Y-68252142D01*
X157021732Y-68252142D01*
X157088196Y-68285374D01*
G37*
G36*
X152721428Y-68523571D02*
G01*
X152335409Y-68523571D01*
X152245996Y-68478864D01*
X152208990Y-68441859D01*
X152164285Y-68352447D01*
X152164285Y-68208981D01*
X152208991Y-68119567D01*
X152238169Y-68090389D01*
X152382539Y-68042266D01*
X152388209Y-68043287D01*
X152401301Y-68037857D01*
X152721428Y-68037857D01*
X152721428Y-68523571D01*
G37*
G36*
X152721428Y-67737857D02*
G01*
X152406838Y-67737857D01*
X152317425Y-67693150D01*
X152280420Y-67656145D01*
X152235713Y-67566731D01*
X152235713Y-67494696D01*
X152280420Y-67405281D01*
X152317424Y-67368277D01*
X152406838Y-67323571D01*
X152721428Y-67323571D01*
X152721428Y-67737857D01*
G37*
G36*
X151211146Y-67868278D02*
G01*
X151248149Y-67905281D01*
X151292856Y-67994695D01*
X151292856Y-68352447D01*
X151248148Y-68441861D01*
X151211146Y-68478863D01*
X151121732Y-68523571D01*
X150978266Y-68523571D01*
X150888855Y-68478865D01*
X150851848Y-68441859D01*
X150807142Y-68352447D01*
X150807142Y-67994696D01*
X150851849Y-67905282D01*
X150888853Y-67868277D01*
X150978266Y-67823571D01*
X151121731Y-67823571D01*
X151211146Y-67868278D01*
G37*
G36*
X149902481Y-68285374D02*
G01*
X149935713Y-68351838D01*
X149935713Y-68423875D01*
X149902480Y-68490339D01*
X149836018Y-68523571D01*
X149549695Y-68523571D01*
X149521428Y-68509438D01*
X149521428Y-68255837D01*
X149531067Y-68257572D01*
X149544159Y-68252142D01*
X149836017Y-68252142D01*
X149902481Y-68285374D01*
G37*
G36*
X147568289Y-67868278D02*
G01*
X147605292Y-67905281D01*
X147649999Y-67994695D01*
X147649999Y-68352447D01*
X147605291Y-68441861D01*
X147568289Y-68478863D01*
X147478875Y-68523571D01*
X147263981Y-68523571D01*
X147235714Y-68509438D01*
X147235714Y-67837704D01*
X147263981Y-67823571D01*
X147478874Y-67823571D01*
X147568289Y-67868278D01*
G37*
G36*
X155031053Y-65426803D02*
G01*
X155064285Y-65493267D01*
X155064285Y-65560601D01*
X154657055Y-65479154D01*
X154683231Y-65426802D01*
X154749695Y-65393571D01*
X154964589Y-65393571D01*
X155031053Y-65426803D01*
G37*
G36*
X148916767Y-65855374D02*
G01*
X148949999Y-65921838D01*
X148949999Y-65993875D01*
X148916766Y-66060339D01*
X148850304Y-66093571D01*
X148563981Y-66093571D01*
X148535714Y-66079438D01*
X148535714Y-65825837D01*
X148545353Y-65827572D01*
X148558445Y-65822142D01*
X148850303Y-65822142D01*
X148916767Y-65855374D01*
G37*
G36*
X145559624Y-65426803D02*
G01*
X145592856Y-65493267D01*
X145592856Y-65560601D01*
X145185626Y-65479154D01*
X145211802Y-65426802D01*
X145278266Y-65393571D01*
X145493160Y-65393571D01*
X145559624Y-65426803D01*
G37*
G36*
X143345339Y-65855374D02*
G01*
X143378571Y-65921838D01*
X143378571Y-65993875D01*
X143345338Y-66060339D01*
X143278876Y-66093571D01*
X142992553Y-66093571D01*
X142964286Y-66079438D01*
X142964286Y-65825837D01*
X142973925Y-65827572D01*
X142987017Y-65822142D01*
X143278875Y-65822142D01*
X143345339Y-65855374D01*
G37*
G36*
X163035713Y-66093571D02*
G01*
X162852913Y-66093571D01*
X162695311Y-66041037D01*
X162594705Y-65940431D01*
X162541526Y-65834075D01*
X162478570Y-65582250D01*
X162478570Y-65404892D01*
X162541524Y-65153071D01*
X162594705Y-65046711D01*
X162695311Y-64946104D01*
X162852911Y-64893571D01*
X163035713Y-64893571D01*
X163035713Y-66093571D01*
G37*
G36*
X157421428Y-65379285D02*
G01*
X157035409Y-65379285D01*
X156945995Y-65334578D01*
X156908990Y-65297573D01*
X156864285Y-65208161D01*
X156864285Y-65064695D01*
X156908991Y-64975281D01*
X156945995Y-64938277D01*
X157035409Y-64893571D01*
X157421428Y-64893571D01*
X157421428Y-65379285D01*
G37*
G36*
X164432143Y-69664286D02*
G01*
X141567858Y-69664286D01*
X141567858Y-67750510D01*
X146929479Y-67750510D01*
X146935714Y-67769272D01*
X146935714Y-68599478D01*
X146934254Y-68640872D01*
X146935714Y-68643330D01*
X146935714Y-68695139D01*
X146954198Y-68758091D01*
X147020771Y-68815776D01*
X147107963Y-68828313D01*
X147157034Y-68805902D01*
X147184527Y-68823571D01*
X147215180Y-68823571D01*
X147245352Y-68829001D01*
X147258444Y-68823571D01*
X147506210Y-68823571D01*
X147541973Y-68827432D01*
X147569387Y-68813724D01*
X147598805Y-68805087D01*
X147608087Y-68794374D01*
X147707401Y-68744716D01*
X147732063Y-68739352D01*
X147761277Y-68710137D01*
X147791555Y-68681975D01*
X147792281Y-68679134D01*
X147821337Y-68650079D01*
X147843038Y-68637190D01*
X147861517Y-68600231D01*
X147881331Y-68563946D01*
X147881121Y-68561021D01*
X147930551Y-68462162D01*
X147949999Y-68431901D01*
X147949999Y-68401249D01*
X147955429Y-68371075D01*
X147949999Y-68357983D01*
X147949999Y-67967361D01*
X147953860Y-67931598D01*
X147940152Y-67904183D01*
X147931515Y-67874765D01*
X147920803Y-67865483D01*
X147871145Y-67766165D01*
X147865780Y-67741505D01*
X147836572Y-67712297D01*
X147821245Y-67695820D01*
X148073828Y-67695820D01*
X148110421Y-67775947D01*
X148184526Y-67823571D01*
X148336017Y-67823571D01*
X148425431Y-67868278D01*
X148462435Y-67905282D01*
X148507142Y-67994695D01*
X148507142Y-68695139D01*
X148525626Y-68758091D01*
X148592199Y-68815776D01*
X148679391Y-68828313D01*
X148759518Y-68791720D01*
X148807142Y-68717615D01*
X148807142Y-67967360D01*
X148811003Y-67931596D01*
X148807142Y-67923874D01*
X148807142Y-67904639D01*
X149215998Y-67904639D01*
X149221428Y-67917731D01*
X149221428Y-68028037D01*
X149219968Y-68069444D01*
X149221428Y-68071902D01*
X149221428Y-68599478D01*
X149219968Y-68640872D01*
X149221428Y-68643330D01*
X149221428Y-68695139D01*
X149239912Y-68758091D01*
X149306485Y-68815776D01*
X149393677Y-68828313D01*
X149442748Y-68805902D01*
X149470241Y-68823571D01*
X149500894Y-68823571D01*
X149531066Y-68829001D01*
X149544158Y-68823571D01*
X149863353Y-68823571D01*
X149899116Y-68827432D01*
X149926530Y-68813724D01*
X149955948Y-68805087D01*
X149965230Y-68794374D01*
X150047185Y-68753396D01*
X150053015Y-68753602D01*
X150086228Y-68733874D01*
X150100658Y-68726660D01*
X150104689Y-68722909D01*
X150128752Y-68708618D01*
X150136313Y-68693494D01*
X150148698Y-68681975D01*
X150155631Y-68654858D01*
X150216265Y-68533590D01*
X150235713Y-68503329D01*
X150235713Y-68472677D01*
X150241143Y-68442503D01*
X150235713Y-68429411D01*
X150235713Y-68324504D01*
X150239574Y-68288741D01*
X150225866Y-68261326D01*
X150217229Y-68231908D01*
X150206517Y-68222626D01*
X150165539Y-68140669D01*
X150165745Y-68134841D01*
X150146022Y-68101636D01*
X150138804Y-68087198D01*
X150135051Y-68083163D01*
X150120761Y-68059104D01*
X150105637Y-68051542D01*
X150094118Y-68039158D01*
X150067001Y-68032224D01*
X149954685Y-67976066D01*
X150501712Y-67976066D01*
X150507142Y-67989158D01*
X150507142Y-68379782D01*
X150503281Y-68415545D01*
X150516988Y-68442959D01*
X150525626Y-68472377D01*
X150536338Y-68481659D01*
X150585995Y-68580972D01*
X150591361Y-68605636D01*
X150620581Y-68634856D01*
X150648738Y-68665127D01*
X150651578Y-68665853D01*
X150680632Y-68694907D01*
X150693522Y-68716609D01*
X150730488Y-68735092D01*
X150766767Y-68754902D01*
X150769689Y-68754692D01*
X150868550Y-68804123D01*
X150898812Y-68823571D01*
X150929465Y-68823571D01*
X150959637Y-68829001D01*
X150972729Y-68823571D01*
X151149067Y-68823571D01*
X151184830Y-68827432D01*
X151212244Y-68813724D01*
X151241662Y-68805087D01*
X151250944Y-68794374D01*
X151350258Y-68744716D01*
X151374920Y-68739352D01*
X151404134Y-68710137D01*
X151434412Y-68681975D01*
X151435138Y-68679134D01*
X151464194Y-68650079D01*
X151485895Y-68637190D01*
X151504374Y-68600231D01*
X151524188Y-68563946D01*
X151523978Y-68561021D01*
X151573408Y-68462162D01*
X151592856Y-68431901D01*
X151592856Y-68401249D01*
X151598286Y-68371075D01*
X151592856Y-68357983D01*
X151592856Y-68190353D01*
X151858855Y-68190353D01*
X151864285Y-68203445D01*
X151864285Y-68379781D01*
X151860424Y-68415544D01*
X151874131Y-68442958D01*
X151882769Y-68472377D01*
X151893480Y-68481658D01*
X151943138Y-68580976D01*
X151948504Y-68605637D01*
X151977708Y-68634840D01*
X152005880Y-68665127D01*
X152008721Y-68665853D01*
X152037775Y-68694906D01*
X152050665Y-68716609D01*
X152087639Y-68735096D01*
X152123912Y-68754903D01*
X152126834Y-68754693D01*
X152225693Y-68804123D01*
X152255955Y-68823571D01*
X152286608Y-68823571D01*
X152316780Y-68829001D01*
X152329872Y-68823571D01*
X152860697Y-68823571D01*
X152893677Y-68828313D01*
X152923983Y-68814472D01*
X152955948Y-68805087D01*
X152963422Y-68796461D01*
X152973804Y-68791720D01*
X152991816Y-68763692D01*
X153013633Y-68738514D01*
X153015257Y-68727216D01*
X153021428Y-68717615D01*
X153021428Y-68684302D01*
X153026170Y-68651322D01*
X153021428Y-68640939D01*
X153021428Y-67904639D01*
X154330284Y-67904639D01*
X154335714Y-67917731D01*
X154335714Y-68695139D01*
X154354198Y-68758091D01*
X154420771Y-68815776D01*
X154507963Y-68828313D01*
X154588090Y-68791720D01*
X154635714Y-68717615D01*
X154635714Y-67923267D01*
X154668945Y-67856802D01*
X154735409Y-67823571D01*
X154878874Y-67823571D01*
X154968289Y-67868278D01*
X154978571Y-67878560D01*
X154978571Y-68695139D01*
X154997055Y-68758091D01*
X155063628Y-68815776D01*
X155150820Y-68828313D01*
X155230947Y-68791720D01*
X155278571Y-68717615D01*
X155278571Y-68695139D01*
X155692857Y-68695139D01*
X155711341Y-68758091D01*
X155777914Y-68815776D01*
X155865106Y-68828313D01*
X155945233Y-68791720D01*
X155992857Y-68717615D01*
X155992857Y-67904639D01*
X156401713Y-67904639D01*
X156407143Y-67917731D01*
X156407143Y-68028037D01*
X156405683Y-68069444D01*
X156407143Y-68071902D01*
X156407143Y-68599478D01*
X156405683Y-68640872D01*
X156407143Y-68643330D01*
X156407143Y-68695139D01*
X156425627Y-68758091D01*
X156492200Y-68815776D01*
X156579392Y-68828313D01*
X156628463Y-68805902D01*
X156655956Y-68823571D01*
X156686609Y-68823571D01*
X156716781Y-68829001D01*
X156729873Y-68823571D01*
X157049068Y-68823571D01*
X157084831Y-68827432D01*
X157112245Y-68813724D01*
X157141663Y-68805087D01*
X157150945Y-68794374D01*
X157232900Y-68753396D01*
X157238730Y-68753602D01*
X157271943Y-68733874D01*
X157286373Y-68726660D01*
X157290404Y-68722909D01*
X157314467Y-68708618D01*
X157322028Y-68693494D01*
X157334413Y-68681975D01*
X157341346Y-68654858D01*
X157401980Y-68533590D01*
X157421428Y-68503329D01*
X157421428Y-68472677D01*
X157426858Y-68442503D01*
X157421428Y-68429411D01*
X157421428Y-68324504D01*
X157425289Y-68288741D01*
X157411581Y-68261326D01*
X157402944Y-68231908D01*
X157392232Y-68222626D01*
X157351254Y-68140669D01*
X157351460Y-68134841D01*
X157331737Y-68101636D01*
X157324519Y-68087198D01*
X157320766Y-68083163D01*
X157306476Y-68059104D01*
X157291352Y-68051542D01*
X157279833Y-68039158D01*
X157252716Y-68032224D01*
X157131452Y-67971592D01*
X157101187Y-67952142D01*
X157070534Y-67952142D01*
X157040362Y-67946712D01*
X157027270Y-67952142D01*
X156735410Y-67952142D01*
X156707143Y-67938009D01*
X156707143Y-67923267D01*
X156740374Y-67856802D01*
X156806838Y-67823571D01*
X157021732Y-67823571D01*
X157152208Y-67888809D01*
X157216781Y-67900430D01*
X157298148Y-67866683D01*
X157348355Y-67794303D01*
X157351460Y-67706270D01*
X157306476Y-67630533D01*
X157131452Y-67543021D01*
X157101187Y-67523571D01*
X157070534Y-67523571D01*
X157040362Y-67518141D01*
X157027270Y-67523571D01*
X156779503Y-67523571D01*
X156743739Y-67519710D01*
X156716323Y-67533418D01*
X156686908Y-67542055D01*
X156677626Y-67552766D01*
X156595670Y-67593745D01*
X156589841Y-67593540D01*
X156556627Y-67613267D01*
X156542198Y-67620482D01*
X156538166Y-67624232D01*
X156514104Y-67638524D01*
X156506542Y-67653647D01*
X156494158Y-67665167D01*
X156487224Y-67692282D01*
X156426588Y-67813554D01*
X156407143Y-67843813D01*
X156407143Y-67874464D01*
X156401713Y-67904639D01*
X155992857Y-67904639D01*
X155992857Y-67652003D01*
X155974373Y-67589051D01*
X155907800Y-67531366D01*
X155820608Y-67518829D01*
X155740481Y-67555422D01*
X155692857Y-67629527D01*
X155692857Y-68695139D01*
X155278571Y-68695139D01*
X155278571Y-67843493D01*
X155284506Y-67827580D01*
X155278571Y-67800299D01*
X155278571Y-67652003D01*
X155260087Y-67589051D01*
X155193514Y-67531366D01*
X155106322Y-67518829D01*
X155026195Y-67555422D01*
X155023082Y-67560265D01*
X154988594Y-67543021D01*
X154958329Y-67523571D01*
X154927676Y-67523571D01*
X154897504Y-67518141D01*
X154884412Y-67523571D01*
X154708074Y-67523571D01*
X154672310Y-67519710D01*
X154644894Y-67533418D01*
X154615479Y-67542055D01*
X154606197Y-67552766D01*
X154524241Y-67593745D01*
X154518412Y-67593540D01*
X154485198Y-67613267D01*
X154470769Y-67620482D01*
X154466737Y-67624232D01*
X154442675Y-67638524D01*
X154435113Y-67653647D01*
X154422729Y-67665167D01*
X154415795Y-67692282D01*
X154355159Y-67813554D01*
X154335714Y-67843813D01*
X154335714Y-67874464D01*
X154330284Y-67904639D01*
X153021428Y-67904639D01*
X153021428Y-67898588D01*
X153026170Y-67865608D01*
X153021428Y-67855225D01*
X153021428Y-67233848D01*
X155615493Y-67233848D01*
X155622574Y-67266400D01*
X155624952Y-67299632D01*
X155631792Y-67308770D01*
X155634219Y-67319923D01*
X155657771Y-67343475D01*
X155677741Y-67370152D01*
X155688438Y-67374142D01*
X155709718Y-67395420D01*
X155711341Y-67400948D01*
X155732438Y-67419229D01*
X155749170Y-67441580D01*
X155765083Y-67447515D01*
X155777914Y-67458633D01*
X155794721Y-67461049D01*
X155809627Y-67469189D01*
X155821010Y-67468374D01*
X155831704Y-67472363D01*
X155848297Y-67468753D01*
X155865106Y-67471170D01*
X155880555Y-67464114D01*
X155897490Y-67462903D01*
X155906625Y-67456064D01*
X155917779Y-67453638D01*
X155929785Y-67441631D01*
X155945233Y-67434577D01*
X155954414Y-67420290D01*
X155968009Y-67410114D01*
X155971997Y-67399419D01*
X156012764Y-67358652D01*
X156039436Y-67338687D01*
X156051079Y-67307470D01*
X156067045Y-67278232D01*
X156066230Y-67266849D01*
X156070220Y-67256154D01*
X156063136Y-67223593D01*
X156061241Y-67197092D01*
X157759733Y-67197092D01*
X157764286Y-67206848D01*
X157764286Y-68695139D01*
X157782770Y-68758091D01*
X157849343Y-68815776D01*
X157936535Y-68828313D01*
X158016662Y-68791720D01*
X158064286Y-68717615D01*
X158064286Y-67849707D01*
X158277840Y-68307324D01*
X158295299Y-68346400D01*
X158315157Y-68359394D01*
X158330851Y-68377207D01*
X158351258Y-68383017D01*
X158369010Y-68394633D01*
X158392743Y-68394828D01*
X158415572Y-68401328D01*
X158435879Y-68395183D01*
X158457094Y-68395358D01*
X158477165Y-68382690D01*
X158499886Y-68375816D01*
X158513648Y-68359666D01*
X158531588Y-68348345D01*
X158541623Y-68326839D01*
X158557021Y-68308772D01*
X158559867Y-68287745D01*
X158764286Y-67849706D01*
X158764286Y-68695139D01*
X158782770Y-68758091D01*
X158849343Y-68815776D01*
X158936535Y-68828313D01*
X159016662Y-68791720D01*
X159064286Y-68717615D01*
X159064286Y-67184922D01*
X159069206Y-67152596D01*
X159055362Y-67121610D01*
X159045802Y-67089051D01*
X159037665Y-67082000D01*
X159033273Y-67072170D01*
X159004872Y-67053585D01*
X158979229Y-67031366D01*
X158968574Y-67029834D01*
X158959563Y-67023937D01*
X158925621Y-67023658D01*
X158892037Y-67018829D01*
X158882243Y-67023301D01*
X158871478Y-67023213D01*
X158842781Y-67041323D01*
X158811910Y-67055422D01*
X158806088Y-67064479D01*
X158796984Y-67070226D01*
X158782632Y-67100978D01*
X158764286Y-67129527D01*
X158764286Y-67140293D01*
X158414286Y-67890294D01*
X158055013Y-67120424D01*
X158045802Y-67089051D01*
X158020155Y-67066828D01*
X157997721Y-67041364D01*
X157987364Y-67038415D01*
X157979229Y-67031366D01*
X157945638Y-67026536D01*
X157913000Y-67017244D01*
X157902696Y-67020361D01*
X157892037Y-67018829D01*
X157861165Y-67032927D01*
X157828686Y-67042755D01*
X157821702Y-67050949D01*
X157811910Y-67055422D01*
X157793564Y-67083967D01*
X157771551Y-67109800D01*
X157770106Y-67120470D01*
X157764286Y-67129527D01*
X157764286Y-67163462D01*
X157759733Y-67197092D01*
X156061241Y-67197092D01*
X156060760Y-67190368D01*
X156053921Y-67181232D01*
X156051495Y-67170079D01*
X156027936Y-67146519D01*
X156007971Y-67119849D01*
X155997277Y-67115860D01*
X155975996Y-67094578D01*
X155974373Y-67089051D01*
X155953275Y-67070770D01*
X155936544Y-67048419D01*
X155920630Y-67042483D01*
X155907800Y-67031366D01*
X155890992Y-67028949D01*
X155876089Y-67020811D01*
X155864705Y-67021625D01*
X155854010Y-67017636D01*
X155837416Y-67021245D01*
X155820608Y-67018829D01*
X155805160Y-67025883D01*
X155788226Y-67027095D01*
X155779089Y-67033934D01*
X155767935Y-67036361D01*
X155755928Y-67048367D01*
X155740481Y-67055422D01*
X155731301Y-67069706D01*
X155717706Y-67079883D01*
X155713716Y-67090579D01*
X155672949Y-67131346D01*
X155646276Y-67151314D01*
X155634633Y-67182529D01*
X155618667Y-67211769D01*
X155619481Y-67223154D01*
X155615493Y-67233848D01*
X153021428Y-67233848D01*
X153021428Y-67184302D01*
X153026170Y-67151322D01*
X153012329Y-67121015D01*
X153002944Y-67089051D01*
X152994318Y-67081576D01*
X152989577Y-67071195D01*
X152961549Y-67053182D01*
X152936371Y-67031366D01*
X152925073Y-67029741D01*
X152915472Y-67023571D01*
X152882159Y-67023571D01*
X152849179Y-67018829D01*
X152838796Y-67023571D01*
X152379503Y-67023571D01*
X152343739Y-67019710D01*
X152316323Y-67033418D01*
X152286908Y-67042055D01*
X152277626Y-67052766D01*
X152178311Y-67102425D01*
X152153650Y-67107790D01*
X152124435Y-67137004D01*
X152094158Y-67165167D01*
X152093431Y-67168007D01*
X152064375Y-67197062D01*
X152042675Y-67209952D01*
X152024194Y-67246912D01*
X152004382Y-67283196D01*
X152004591Y-67286119D01*
X151955163Y-67384975D01*
X151935713Y-67415241D01*
X151935713Y-67445894D01*
X151930283Y-67476066D01*
X151935713Y-67489158D01*
X151935713Y-67594066D01*
X151931852Y-67629830D01*
X151945559Y-67657245D01*
X151954197Y-67686662D01*
X151964908Y-67695943D01*
X152014568Y-67795263D01*
X152019933Y-67819923D01*
X152049137Y-67849126D01*
X152050578Y-67850676D01*
X152035371Y-67861245D01*
X152029952Y-67874342D01*
X151992945Y-67911349D01*
X151971246Y-67924238D01*
X151952770Y-67961189D01*
X151932952Y-67997483D01*
X151933161Y-68000407D01*
X151883730Y-68099268D01*
X151864285Y-68129527D01*
X151864285Y-68160178D01*
X151858855Y-68190353D01*
X151592856Y-68190353D01*
X151592856Y-67967361D01*
X151596717Y-67931598D01*
X151583009Y-67904183D01*
X151574372Y-67874765D01*
X151563660Y-67865483D01*
X151514002Y-67766165D01*
X151508637Y-67741505D01*
X151479429Y-67712297D01*
X151451261Y-67682015D01*
X151448420Y-67681288D01*
X151419362Y-67652231D01*
X151406475Y-67630533D01*
X151369525Y-67612058D01*
X151333229Y-67592239D01*
X151330305Y-67592448D01*
X151231451Y-67543021D01*
X151201186Y-67523571D01*
X151170533Y-67523571D01*
X151140361Y-67518141D01*
X151127269Y-67523571D01*
X150950931Y-67523571D01*
X150915167Y-67519710D01*
X150887751Y-67533418D01*
X150858336Y-67542055D01*
X150849054Y-67552766D01*
X150749739Y-67602424D01*
X150725076Y-67607790D01*
X150695845Y-67637020D01*
X150665586Y-67665167D01*
X150664859Y-67668006D01*
X150635802Y-67697064D01*
X150614104Y-67709952D01*
X150595628Y-67746903D01*
X150575810Y-67783197D01*
X150576019Y-67786121D01*
X150526592Y-67884975D01*
X150507142Y-67915241D01*
X150507142Y-67945894D01*
X150501712Y-67976066D01*
X149954685Y-67976066D01*
X149945737Y-67971592D01*
X149915472Y-67952142D01*
X149884819Y-67952142D01*
X149854647Y-67946712D01*
X149841555Y-67952142D01*
X149549695Y-67952142D01*
X149521428Y-67938009D01*
X149521428Y-67923267D01*
X149554659Y-67856802D01*
X149621123Y-67823571D01*
X149836017Y-67823571D01*
X149966493Y-67888809D01*
X150031066Y-67900430D01*
X150112433Y-67866683D01*
X150162640Y-67794303D01*
X150165745Y-67706270D01*
X150120761Y-67630533D01*
X149945737Y-67543021D01*
X149915472Y-67523571D01*
X149884819Y-67523571D01*
X149854647Y-67518141D01*
X149841555Y-67523571D01*
X149593788Y-67523571D01*
X149558024Y-67519710D01*
X149530608Y-67533418D01*
X149501193Y-67542055D01*
X149491911Y-67552766D01*
X149409955Y-67593745D01*
X149404126Y-67593540D01*
X149370912Y-67613267D01*
X149356483Y-67620482D01*
X149352451Y-67624232D01*
X149328389Y-67638524D01*
X149320827Y-67653647D01*
X149308443Y-67665167D01*
X149301509Y-67692282D01*
X149240873Y-67813554D01*
X149221428Y-67843813D01*
X149221428Y-67874464D01*
X149215998Y-67904639D01*
X148807142Y-67904639D01*
X148807142Y-67652003D01*
X148788658Y-67589051D01*
X148722085Y-67531366D01*
X148634893Y-67518829D01*
X148554766Y-67555422D01*
X148534283Y-67587293D01*
X148445729Y-67543016D01*
X148415471Y-67523571D01*
X148384820Y-67523571D01*
X148354646Y-67518141D01*
X148341554Y-67523571D01*
X148207002Y-67523571D01*
X148144050Y-67542055D01*
X148086365Y-67608628D01*
X148073828Y-67695820D01*
X147821245Y-67695820D01*
X147808404Y-67682015D01*
X147805563Y-67681288D01*
X147776505Y-67652231D01*
X147763618Y-67630533D01*
X147726668Y-67612058D01*
X147690372Y-67592239D01*
X147687448Y-67592448D01*
X147588594Y-67543021D01*
X147558329Y-67523571D01*
X147527676Y-67523571D01*
X147497504Y-67518141D01*
X147484412Y-67523571D01*
X147236646Y-67523571D01*
X147235714Y-67523470D01*
X147235714Y-67152003D01*
X147217230Y-67089051D01*
X147150657Y-67031366D01*
X147063465Y-67018829D01*
X146983338Y-67055422D01*
X146935714Y-67129527D01*
X146935714Y-67726126D01*
X146929479Y-67750510D01*
X141567858Y-67750510D01*
X141567858Y-65474639D01*
X142658856Y-65474639D01*
X142664286Y-65487731D01*
X142664286Y-65598037D01*
X142662826Y-65639444D01*
X142664286Y-65641902D01*
X142664286Y-66169478D01*
X142662826Y-66210872D01*
X142664286Y-66213330D01*
X142664286Y-66265139D01*
X142682770Y-66328091D01*
X142749343Y-66385776D01*
X142836535Y-66398313D01*
X142885606Y-66375902D01*
X142913099Y-66393571D01*
X142943752Y-66393571D01*
X142973924Y-66399001D01*
X142987016Y-66393571D01*
X143306211Y-66393571D01*
X143341974Y-66397432D01*
X143369388Y-66383724D01*
X143398806Y-66375087D01*
X143408088Y-66364374D01*
X143490043Y-66323396D01*
X143495873Y-66323602D01*
X143529086Y-66303874D01*
X143543516Y-66296660D01*
X143547547Y-66292909D01*
X143571610Y-66278618D01*
X143579171Y-66263494D01*
X143591556Y-66251975D01*
X143598489Y-66224858D01*
X143659123Y-66103590D01*
X143678571Y-66073329D01*
X143678571Y-66042677D01*
X143684001Y-66012503D01*
X143678571Y-65999411D01*
X143678571Y-65894504D01*
X143682432Y-65858741D01*
X143668724Y-65831326D01*
X143660087Y-65801908D01*
X143649375Y-65792626D01*
X143608397Y-65710669D01*
X143608603Y-65704841D01*
X143588880Y-65671636D01*
X143581662Y-65657198D01*
X143577909Y-65653163D01*
X143563619Y-65629104D01*
X143548495Y-65621542D01*
X143536976Y-65609158D01*
X143509859Y-65602224D01*
X143388595Y-65541592D01*
X143358330Y-65522142D01*
X143327677Y-65522142D01*
X143297505Y-65516712D01*
X143284413Y-65522142D01*
X142992553Y-65522142D01*
X142964286Y-65508009D01*
X142964286Y-65493267D01*
X142997517Y-65426802D01*
X143063981Y-65393571D01*
X143278875Y-65393571D01*
X143409351Y-65458809D01*
X143473924Y-65470430D01*
X143555291Y-65436683D01*
X143605498Y-65364303D01*
X143608603Y-65276270D01*
X143602396Y-65265820D01*
X143802400Y-65265820D01*
X143838993Y-65345947D01*
X143913098Y-65393571D01*
X144064589Y-65393571D01*
X144154003Y-65438278D01*
X144191007Y-65475282D01*
X144235714Y-65564695D01*
X144235714Y-66265139D01*
X144254198Y-66328091D01*
X144320771Y-66385776D01*
X144407963Y-66398313D01*
X144488090Y-66361720D01*
X144535714Y-66287615D01*
X144535714Y-65592184D01*
X144872471Y-65592184D01*
X144878571Y-65618119D01*
X144878571Y-65622282D01*
X144883492Y-65639043D01*
X144892639Y-65677931D01*
X144895811Y-65680998D01*
X144897055Y-65685234D01*
X144927252Y-65711399D01*
X144955965Y-65739163D01*
X144960292Y-65740028D01*
X144963628Y-65742919D01*
X145003180Y-65748606D01*
X145592856Y-65866542D01*
X145592856Y-65993875D01*
X145559623Y-66060339D01*
X145493161Y-66093571D01*
X145278266Y-66093571D01*
X145147790Y-66028333D01*
X145083218Y-66016712D01*
X145001851Y-66050459D01*
X144951644Y-66122839D01*
X144948539Y-66210872D01*
X144993522Y-66286609D01*
X145168550Y-66374123D01*
X145198812Y-66393571D01*
X145229465Y-66393571D01*
X145259637Y-66399001D01*
X145272729Y-66393571D01*
X145520496Y-66393571D01*
X145556259Y-66397432D01*
X145583673Y-66383724D01*
X145613091Y-66375087D01*
X145622373Y-66364374D01*
X145704328Y-66323396D01*
X145710158Y-66323602D01*
X145743371Y-66303874D01*
X145757801Y-66296660D01*
X145761832Y-66292909D01*
X145785895Y-66278618D01*
X145793456Y-66263494D01*
X145805841Y-66251975D01*
X145812774Y-66224858D01*
X145873408Y-66103590D01*
X145892856Y-66073329D01*
X145892856Y-66042677D01*
X145898286Y-66012503D01*
X145892856Y-65999411D01*
X145892856Y-65769338D01*
X145898957Y-65752102D01*
X145892856Y-65726162D01*
X145892856Y-65474638D01*
X146230283Y-65474638D01*
X146235713Y-65487730D01*
X146235713Y-66265139D01*
X146254197Y-66328091D01*
X146320770Y-66385776D01*
X146407962Y-66398313D01*
X146488089Y-66361720D01*
X146535713Y-66287615D01*
X146535713Y-65493268D01*
X146568945Y-65426802D01*
X146635409Y-65393571D01*
X146778874Y-65393571D01*
X146845339Y-65426803D01*
X146878571Y-65493267D01*
X146878571Y-66265139D01*
X146897055Y-66328091D01*
X146963628Y-66385776D01*
X147050820Y-66398313D01*
X147130947Y-66361720D01*
X147178571Y-66287615D01*
X147178571Y-65493267D01*
X147211802Y-65426802D01*
X147278266Y-65393571D01*
X147421731Y-65393571D01*
X147511146Y-65438278D01*
X147521428Y-65448560D01*
X147521428Y-66265139D01*
X147539912Y-66328091D01*
X147606485Y-66385776D01*
X147693677Y-66398313D01*
X147773804Y-66361720D01*
X147821428Y-66287615D01*
X147821428Y-65474639D01*
X148230284Y-65474639D01*
X148235714Y-65487731D01*
X148235714Y-65598037D01*
X148234254Y-65639444D01*
X148235714Y-65641902D01*
X148235714Y-66169478D01*
X148234254Y-66210872D01*
X148235714Y-66213330D01*
X148235714Y-66265139D01*
X148254198Y-66328091D01*
X148320771Y-66385776D01*
X148407963Y-66398313D01*
X148457034Y-66375902D01*
X148484527Y-66393571D01*
X148515180Y-66393571D01*
X148545352Y-66399001D01*
X148558444Y-66393571D01*
X148877639Y-66393571D01*
X148913402Y-66397432D01*
X148940816Y-66383724D01*
X148970234Y-66375087D01*
X148979516Y-66364374D01*
X149061471Y-66323396D01*
X149067301Y-66323602D01*
X149100514Y-66303874D01*
X149114944Y-66296660D01*
X149118975Y-66292909D01*
X149143038Y-66278618D01*
X149150599Y-66263494D01*
X149162984Y-66251975D01*
X149169917Y-66224858D01*
X149230551Y-66103590D01*
X149239567Y-66089561D01*
X149515493Y-66089561D01*
X149534218Y-66175636D01*
X149631081Y-66272499D01*
X149653638Y-66300516D01*
X149682715Y-66310208D01*
X149709624Y-66324902D01*
X149723761Y-66323890D01*
X149891867Y-66379926D01*
X149913098Y-66393571D01*
X149954410Y-66393571D01*
X149995735Y-66395066D01*
X149998257Y-66393571D01*
X150081193Y-66393571D01*
X150105650Y-66399801D01*
X150144841Y-66386737D01*
X150184519Y-66375087D01*
X150186438Y-66372871D01*
X150354054Y-66316999D01*
X150389207Y-66309352D01*
X150410883Y-66287675D01*
X150436056Y-66270181D01*
X150441473Y-66257085D01*
X150549907Y-66148651D01*
X150571609Y-66135762D01*
X150590094Y-66098791D01*
X150609902Y-66062516D01*
X150609693Y-66059593D01*
X150650786Y-65977406D01*
X150653730Y-65974638D01*
X151915998Y-65974638D01*
X151921428Y-65987730D01*
X151921428Y-66021210D01*
X151917567Y-66056973D01*
X151931274Y-66084387D01*
X151939912Y-66113805D01*
X151950624Y-66123087D01*
X151991602Y-66205042D01*
X151991397Y-66210872D01*
X152011126Y-66244090D01*
X152018339Y-66258515D01*
X152022087Y-66262544D01*
X152036380Y-66286609D01*
X152051505Y-66294171D01*
X152063024Y-66306555D01*
X152090137Y-66313487D01*
X152211408Y-66374123D01*
X152241670Y-66393571D01*
X152272323Y-66393571D01*
X152302495Y-66399001D01*
X152315587Y-66393571D01*
X152563353Y-66393571D01*
X152599116Y-66397432D01*
X152626530Y-66383724D01*
X152655948Y-66375087D01*
X152665230Y-66364374D01*
X152800658Y-66296660D01*
X152848698Y-66251975D01*
X152870520Y-66166632D01*
X152842740Y-66083039D01*
X152774176Y-66027736D01*
X152686596Y-66018281D01*
X152536018Y-66093571D01*
X152321124Y-66093571D01*
X152254660Y-66060339D01*
X152221428Y-65993875D01*
X152221428Y-65993268D01*
X152230743Y-65974638D01*
X153130284Y-65974638D01*
X153135714Y-65987730D01*
X153135714Y-66021210D01*
X153131853Y-66056973D01*
X153145560Y-66084387D01*
X153154198Y-66113805D01*
X153164910Y-66123087D01*
X153205888Y-66205042D01*
X153205683Y-66210872D01*
X153225412Y-66244090D01*
X153232625Y-66258515D01*
X153236373Y-66262544D01*
X153250666Y-66286609D01*
X153265791Y-66294171D01*
X153277310Y-66306555D01*
X153304423Y-66313487D01*
X153425694Y-66374123D01*
X153455956Y-66393571D01*
X153486609Y-66393571D01*
X153516781Y-66399001D01*
X153529873Y-66393571D01*
X153777639Y-66393571D01*
X153813402Y-66397432D01*
X153840816Y-66383724D01*
X153870234Y-66375087D01*
X153879516Y-66364374D01*
X154014944Y-66296660D01*
X154062984Y-66251975D01*
X154084806Y-66166632D01*
X154057026Y-66083039D01*
X153988462Y-66027736D01*
X153900882Y-66018281D01*
X153750304Y-66093571D01*
X153535410Y-66093571D01*
X153468946Y-66060339D01*
X153435714Y-65993875D01*
X153435714Y-65993268D01*
X153468946Y-65926802D01*
X153535410Y-65893571D01*
X153706211Y-65893571D01*
X153741974Y-65897432D01*
X153769388Y-65883724D01*
X153798806Y-65875087D01*
X153808088Y-65864374D01*
X153890043Y-65823396D01*
X153895873Y-65823602D01*
X153929086Y-65803874D01*
X153943516Y-65796660D01*
X153947547Y-65792909D01*
X153971610Y-65778618D01*
X153979171Y-65763494D01*
X153991556Y-65751975D01*
X153998489Y-65724858D01*
X154059123Y-65603590D01*
X154066453Y-65592184D01*
X154343900Y-65592184D01*
X154350000Y-65618119D01*
X154350000Y-65622282D01*
X154354921Y-65639043D01*
X154364068Y-65677931D01*
X154367240Y-65680998D01*
X154368484Y-65685234D01*
X154398681Y-65711399D01*
X154427394Y-65739163D01*
X154431721Y-65740028D01*
X154435057Y-65742919D01*
X154474609Y-65748606D01*
X155064285Y-65866542D01*
X155064285Y-65993875D01*
X155031052Y-66060339D01*
X154964590Y-66093571D01*
X154749695Y-66093571D01*
X154619219Y-66028333D01*
X154554647Y-66016712D01*
X154473280Y-66050459D01*
X154423073Y-66122839D01*
X154419968Y-66210872D01*
X154464951Y-66286609D01*
X154639979Y-66374123D01*
X154670241Y-66393571D01*
X154700894Y-66393571D01*
X154731066Y-66399001D01*
X154744158Y-66393571D01*
X154991925Y-66393571D01*
X155027688Y-66397432D01*
X155055102Y-66383724D01*
X155084520Y-66375087D01*
X155093802Y-66364374D01*
X155175757Y-66323396D01*
X155181587Y-66323602D01*
X155214800Y-66303874D01*
X155229230Y-66296660D01*
X155233261Y-66292909D01*
X155257324Y-66278618D01*
X155264885Y-66263494D01*
X155277270Y-66251975D01*
X155284203Y-66224858D01*
X155344837Y-66103590D01*
X155364285Y-66073329D01*
X155364285Y-66042677D01*
X155369715Y-66012503D01*
X155364285Y-65999411D01*
X155364285Y-65769338D01*
X155370386Y-65752102D01*
X155364285Y-65726162D01*
X155364285Y-65465933D01*
X155368146Y-65430170D01*
X155354438Y-65402755D01*
X155345801Y-65373337D01*
X155335089Y-65364055D01*
X155294111Y-65282098D01*
X155294317Y-65276270D01*
X155288110Y-65265820D01*
X155488114Y-65265820D01*
X155524707Y-65345947D01*
X155598812Y-65393571D01*
X155750303Y-65393571D01*
X155839717Y-65438278D01*
X155876721Y-65475282D01*
X155921428Y-65564695D01*
X155921428Y-66265139D01*
X155939912Y-66328091D01*
X156006485Y-66385776D01*
X156093677Y-66398313D01*
X156173804Y-66361720D01*
X156221428Y-66287615D01*
X156221428Y-65537360D01*
X156225289Y-65501596D01*
X156221428Y-65493874D01*
X156221428Y-65222003D01*
X156202944Y-65159051D01*
X156136371Y-65101366D01*
X156049179Y-65088829D01*
X155969052Y-65125422D01*
X155948569Y-65157293D01*
X155860015Y-65113016D01*
X155829757Y-65093571D01*
X155799106Y-65093571D01*
X155768932Y-65088141D01*
X155755840Y-65093571D01*
X155621288Y-65093571D01*
X155558336Y-65112055D01*
X155500651Y-65178628D01*
X155488114Y-65265820D01*
X155288110Y-65265820D01*
X155274594Y-65243065D01*
X155267376Y-65228627D01*
X155263623Y-65224592D01*
X155249333Y-65200533D01*
X155234209Y-65192971D01*
X155222690Y-65180587D01*
X155195573Y-65173653D01*
X155074309Y-65113021D01*
X155044044Y-65093571D01*
X155013391Y-65093571D01*
X154983219Y-65088141D01*
X154970127Y-65093571D01*
X154722360Y-65093571D01*
X154686596Y-65089710D01*
X154659180Y-65103418D01*
X154629765Y-65112055D01*
X154620483Y-65122766D01*
X154538527Y-65163745D01*
X154532698Y-65163540D01*
X154499484Y-65183267D01*
X154485055Y-65190482D01*
X154481023Y-65194232D01*
X154456961Y-65208524D01*
X154449399Y-65223647D01*
X154437015Y-65235167D01*
X154430081Y-65262282D01*
X154369445Y-65383554D01*
X154350000Y-65413813D01*
X154350000Y-65444464D01*
X154344570Y-65474639D01*
X154350000Y-65487731D01*
X154350000Y-65574950D01*
X154343900Y-65592184D01*
X154066453Y-65592184D01*
X154078571Y-65573329D01*
X154078571Y-65542677D01*
X154084001Y-65512503D01*
X154078571Y-65499411D01*
X154078571Y-65465933D01*
X154082432Y-65430170D01*
X154068724Y-65402755D01*
X154060087Y-65373337D01*
X154049375Y-65364055D01*
X154008397Y-65282098D01*
X154008603Y-65276270D01*
X153988880Y-65243065D01*
X153981662Y-65228627D01*
X153977909Y-65224592D01*
X153963619Y-65200533D01*
X153948495Y-65192971D01*
X153936976Y-65180587D01*
X153909859Y-65173653D01*
X153788595Y-65113021D01*
X153758330Y-65093571D01*
X153727677Y-65093571D01*
X153697505Y-65088141D01*
X153684413Y-65093571D01*
X153508075Y-65093571D01*
X153472311Y-65089710D01*
X153444895Y-65103418D01*
X153415480Y-65112055D01*
X153406198Y-65122766D01*
X153270770Y-65190482D01*
X153222730Y-65235167D01*
X153200908Y-65320510D01*
X153228688Y-65404103D01*
X153297252Y-65459406D01*
X153384831Y-65468861D01*
X153535410Y-65393571D01*
X153678875Y-65393571D01*
X153745339Y-65426803D01*
X153778571Y-65493267D01*
X153778571Y-65493875D01*
X153745338Y-65560339D01*
X153678876Y-65593571D01*
X153508075Y-65593571D01*
X153472311Y-65589710D01*
X153444895Y-65603418D01*
X153415480Y-65612055D01*
X153406198Y-65622766D01*
X153324242Y-65663745D01*
X153318413Y-65663540D01*
X153285199Y-65683267D01*
X153270770Y-65690482D01*
X153266738Y-65694232D01*
X153242676Y-65708524D01*
X153235114Y-65723647D01*
X153222730Y-65735167D01*
X153215796Y-65762282D01*
X153155164Y-65883547D01*
X153135714Y-65913813D01*
X153135714Y-65944466D01*
X153130284Y-65974638D01*
X152230743Y-65974638D01*
X152254660Y-65926802D01*
X152321124Y-65893571D01*
X152491925Y-65893571D01*
X152527688Y-65897432D01*
X152555102Y-65883724D01*
X152584520Y-65875087D01*
X152593802Y-65864374D01*
X152675757Y-65823396D01*
X152681587Y-65823602D01*
X152714800Y-65803874D01*
X152729230Y-65796660D01*
X152733261Y-65792909D01*
X152757324Y-65778618D01*
X152764885Y-65763494D01*
X152777270Y-65751975D01*
X152784203Y-65724858D01*
X152844837Y-65603590D01*
X152864285Y-65573329D01*
X152864285Y-65542677D01*
X152869715Y-65512503D01*
X152864285Y-65499411D01*
X152864285Y-65465933D01*
X152868146Y-65430170D01*
X152854438Y-65402755D01*
X152845801Y-65373337D01*
X152835089Y-65364055D01*
X152794111Y-65282098D01*
X152794317Y-65276270D01*
X152774594Y-65243065D01*
X152767376Y-65228627D01*
X152763623Y-65224592D01*
X152749333Y-65200533D01*
X152734209Y-65192971D01*
X152722690Y-65180587D01*
X152695573Y-65173653D01*
X152574309Y-65113021D01*
X152544044Y-65093571D01*
X152513391Y-65093571D01*
X152483219Y-65088141D01*
X152470127Y-65093571D01*
X152293789Y-65093571D01*
X152258025Y-65089710D01*
X152230609Y-65103418D01*
X152201194Y-65112055D01*
X152191912Y-65122766D01*
X152056484Y-65190482D01*
X152008444Y-65235167D01*
X151986622Y-65320510D01*
X152014402Y-65404103D01*
X152082966Y-65459406D01*
X152170545Y-65468861D01*
X152321124Y-65393571D01*
X152464589Y-65393571D01*
X152531053Y-65426803D01*
X152564285Y-65493267D01*
X152564285Y-65493875D01*
X152531052Y-65560339D01*
X152464590Y-65593571D01*
X152293789Y-65593571D01*
X152258025Y-65589710D01*
X152230609Y-65603418D01*
X152201194Y-65612055D01*
X152191912Y-65622766D01*
X152109956Y-65663745D01*
X152104127Y-65663540D01*
X152070913Y-65683267D01*
X152056484Y-65690482D01*
X152052452Y-65694232D01*
X152028390Y-65708524D01*
X152020828Y-65723647D01*
X152008444Y-65735167D01*
X152001510Y-65762282D01*
X151940878Y-65883547D01*
X151921428Y-65913813D01*
X151921428Y-65944466D01*
X151915998Y-65974638D01*
X150653730Y-65974638D01*
X150663410Y-65965537D01*
X150670098Y-65938783D01*
X150672380Y-65934220D01*
X150675311Y-65917929D01*
X150739532Y-65661044D01*
X150749999Y-65644758D01*
X150749999Y-65619178D01*
X150750751Y-65616170D01*
X150749999Y-65597665D01*
X150749999Y-65411115D01*
X150756203Y-65392777D01*
X150749999Y-65367961D01*
X150749999Y-65364860D01*
X150744780Y-65347086D01*
X150680571Y-65090253D01*
X150682432Y-65073025D01*
X150670097Y-65048356D01*
X150669525Y-65046067D01*
X156558855Y-65046067D01*
X156564285Y-65059159D01*
X156564285Y-65235495D01*
X156560424Y-65271258D01*
X156574131Y-65298672D01*
X156582769Y-65328091D01*
X156593480Y-65337372D01*
X156643138Y-65436688D01*
X156648503Y-65461350D01*
X156677708Y-65490555D01*
X156705880Y-65520841D01*
X156708720Y-65521567D01*
X156737777Y-65550624D01*
X156750666Y-65572324D01*
X156787615Y-65590798D01*
X156823911Y-65610618D01*
X156826835Y-65610408D01*
X156925693Y-65659837D01*
X156955955Y-65679285D01*
X156986607Y-65679285D01*
X157016781Y-65684715D01*
X157029873Y-65679285D01*
X157421428Y-65679285D01*
X157421428Y-66265139D01*
X157439912Y-66328091D01*
X157506485Y-66385776D01*
X157593677Y-66398313D01*
X157673804Y-66361720D01*
X157721428Y-66287615D01*
X157721428Y-66249081D01*
X158886621Y-66249081D01*
X158914401Y-66332674D01*
X158982965Y-66387977D01*
X159070544Y-66397432D01*
X159218613Y-66323396D01*
X159224443Y-66323602D01*
X159257661Y-66303872D01*
X159272086Y-66296660D01*
X159276115Y-66292911D01*
X159300180Y-66278619D01*
X159307742Y-66263493D01*
X159320126Y-66251975D01*
X159320866Y-66249081D01*
X159672335Y-66249081D01*
X159700115Y-66332674D01*
X159768679Y-66387977D01*
X159856258Y-66397432D01*
X160004327Y-66323396D01*
X160010157Y-66323602D01*
X160043375Y-66303872D01*
X160057800Y-66296660D01*
X160061829Y-66292911D01*
X160085894Y-66278619D01*
X160092633Y-66265139D01*
X160607142Y-66265139D01*
X160625626Y-66328091D01*
X160692199Y-66385776D01*
X160779391Y-66398313D01*
X160859518Y-66361720D01*
X160907142Y-66287615D01*
X160907142Y-65265820D01*
X161102399Y-65265820D01*
X161138992Y-65345947D01*
X161213097Y-65393571D01*
X161364588Y-65393571D01*
X161454002Y-65438278D01*
X161491006Y-65475282D01*
X161535713Y-65564695D01*
X161535713Y-66265139D01*
X161554197Y-66328091D01*
X161620770Y-66385776D01*
X161707962Y-66398313D01*
X161788089Y-66361720D01*
X161835713Y-66287615D01*
X161835713Y-65594365D01*
X162172366Y-65594365D01*
X162178570Y-65619181D01*
X162178570Y-65622282D01*
X162183788Y-65640055D01*
X162247996Y-65896887D01*
X162246137Y-65914116D01*
X162258470Y-65938783D01*
X162259708Y-65943732D01*
X162268081Y-65958004D01*
X162328851Y-66079543D01*
X162334217Y-66104207D01*
X162363437Y-66133427D01*
X162391594Y-66163698D01*
X162394434Y-66164424D01*
X162502509Y-66272499D01*
X162525066Y-66300516D01*
X162554144Y-66310208D01*
X162581053Y-66324902D01*
X162595189Y-66323890D01*
X162763295Y-66379926D01*
X162784526Y-66393571D01*
X162825838Y-66393571D01*
X162867163Y-66395066D01*
X162869685Y-66393571D01*
X163174982Y-66393571D01*
X163207962Y-66398313D01*
X163238268Y-66384472D01*
X163270233Y-66375087D01*
X163277707Y-66366461D01*
X163288089Y-66361720D01*
X163306101Y-66333692D01*
X163327918Y-66308514D01*
X163329542Y-66297216D01*
X163335713Y-66287615D01*
X163335713Y-66254302D01*
X163340455Y-66221322D01*
X163335713Y-66210939D01*
X163335713Y-64754302D01*
X163340455Y-64721322D01*
X163326614Y-64691015D01*
X163317229Y-64659051D01*
X163308603Y-64651576D01*
X163303862Y-64641195D01*
X163275834Y-64623182D01*
X163250656Y-64601366D01*
X163239358Y-64599741D01*
X163229757Y-64593571D01*
X163196444Y-64593571D01*
X163163464Y-64588829D01*
X163153081Y-64593571D01*
X162847374Y-64593571D01*
X162822919Y-64587341D01*
X162783726Y-64600405D01*
X162744050Y-64612055D01*
X162742130Y-64614270D01*
X162574511Y-64670143D01*
X162539362Y-64677790D01*
X162517687Y-64699464D01*
X162492512Y-64716961D01*
X162487094Y-64730057D01*
X162378659Y-64838492D01*
X162356960Y-64851381D01*
X162338484Y-64888332D01*
X162318666Y-64924626D01*
X162318875Y-64927550D01*
X162277783Y-65009734D01*
X162265159Y-65021605D01*
X162258470Y-65048360D01*
X162256189Y-65052923D01*
X162253257Y-65069210D01*
X162189036Y-65326097D01*
X162178570Y-65342384D01*
X162178570Y-65367964D01*
X162177818Y-65370972D01*
X162178570Y-65389477D01*
X162178570Y-65576026D01*
X162172366Y-65594365D01*
X161835713Y-65594365D01*
X161835713Y-65537360D01*
X161839574Y-65501596D01*
X161835713Y-65493874D01*
X161835713Y-65222003D01*
X161817229Y-65159051D01*
X161750656Y-65101366D01*
X161663464Y-65088829D01*
X161583337Y-65125422D01*
X161562854Y-65157293D01*
X161474300Y-65113016D01*
X161444042Y-65093571D01*
X161413391Y-65093571D01*
X161383217Y-65088141D01*
X161370125Y-65093571D01*
X161235573Y-65093571D01*
X161172621Y-65112055D01*
X161114936Y-65178628D01*
X161102399Y-65265820D01*
X160907142Y-65265820D01*
X160907142Y-65222003D01*
X160888658Y-65159051D01*
X160822085Y-65101366D01*
X160734893Y-65088829D01*
X160654766Y-65125422D01*
X160607142Y-65199527D01*
X160607142Y-66265139D01*
X160092633Y-66265139D01*
X160093456Y-66263493D01*
X160105840Y-66251975D01*
X160112772Y-66224861D01*
X160173408Y-66103590D01*
X160192856Y-66073329D01*
X160192856Y-66042676D01*
X160198286Y-66012504D01*
X160192856Y-65999412D01*
X160192856Y-64803848D01*
X160529778Y-64803848D01*
X160536859Y-64836400D01*
X160539237Y-64869632D01*
X160546077Y-64878770D01*
X160548504Y-64889923D01*
X160572056Y-64913475D01*
X160592026Y-64940152D01*
X160602723Y-64944142D01*
X160624003Y-64965420D01*
X160625626Y-64970948D01*
X160646723Y-64989229D01*
X160663455Y-65011580D01*
X160679368Y-65017515D01*
X160692199Y-65028633D01*
X160709006Y-65031049D01*
X160723912Y-65039189D01*
X160735295Y-65038374D01*
X160745989Y-65042363D01*
X160762582Y-65038753D01*
X160779391Y-65041170D01*
X160794840Y-65034114D01*
X160811775Y-65032903D01*
X160820910Y-65026064D01*
X160832064Y-65023638D01*
X160844070Y-65011631D01*
X160859518Y-65004577D01*
X160868699Y-64990290D01*
X160882294Y-64980114D01*
X160886282Y-64969419D01*
X160927049Y-64928652D01*
X160953721Y-64908687D01*
X160965364Y-64877470D01*
X160981330Y-64848232D01*
X160980515Y-64836849D01*
X160984505Y-64826154D01*
X160977421Y-64793593D01*
X160975045Y-64760368D01*
X160968206Y-64751232D01*
X160965780Y-64740079D01*
X160942221Y-64716519D01*
X160922256Y-64689849D01*
X160911562Y-64685860D01*
X160890281Y-64664578D01*
X160888658Y-64659051D01*
X160867560Y-64640770D01*
X160850829Y-64618419D01*
X160834915Y-64612483D01*
X160822085Y-64601366D01*
X160805277Y-64598949D01*
X160790374Y-64590811D01*
X160778990Y-64591625D01*
X160768295Y-64587636D01*
X160751701Y-64591245D01*
X160734893Y-64588829D01*
X160719445Y-64595883D01*
X160702511Y-64597095D01*
X160693374Y-64603934D01*
X160682220Y-64606361D01*
X160670213Y-64618367D01*
X160654766Y-64625422D01*
X160645586Y-64639706D01*
X160631991Y-64649883D01*
X160628001Y-64660579D01*
X160587234Y-64701346D01*
X160560561Y-64721314D01*
X160548918Y-64752529D01*
X160532952Y-64781769D01*
X160533766Y-64793154D01*
X160529778Y-64803848D01*
X160192856Y-64803848D01*
X160192856Y-64722003D01*
X160174372Y-64659051D01*
X160107799Y-64601366D01*
X160020607Y-64588829D01*
X159940480Y-64625422D01*
X159892856Y-64699527D01*
X159892856Y-65993875D01*
X159859624Y-66060338D01*
X159742197Y-66119053D01*
X159694157Y-66163738D01*
X159672335Y-66249081D01*
X159320866Y-66249081D01*
X159327058Y-66224861D01*
X159387694Y-66103590D01*
X159407142Y-66073329D01*
X159407142Y-66042676D01*
X159412572Y-66012504D01*
X159407142Y-65999412D01*
X159407142Y-64722003D01*
X159388658Y-64659051D01*
X159322085Y-64601366D01*
X159234893Y-64588829D01*
X159154766Y-64625422D01*
X159107142Y-64699527D01*
X159107142Y-65993875D01*
X159073910Y-66060338D01*
X158956483Y-66119053D01*
X158908443Y-66163738D01*
X158886621Y-66249081D01*
X157721428Y-66249081D01*
X157721428Y-65540016D01*
X157726170Y-65507036D01*
X157721428Y-65496653D01*
X157721428Y-64754302D01*
X157726170Y-64721322D01*
X157712329Y-64691015D01*
X157702944Y-64659051D01*
X157694318Y-64651576D01*
X157689577Y-64641195D01*
X157661549Y-64623182D01*
X157636371Y-64601366D01*
X157625073Y-64599741D01*
X157615472Y-64593571D01*
X157582159Y-64593571D01*
X157549179Y-64588829D01*
X157538796Y-64593571D01*
X157008074Y-64593571D01*
X156972310Y-64589710D01*
X156944894Y-64603418D01*
X156915479Y-64612055D01*
X156906197Y-64622766D01*
X156806882Y-64672425D01*
X156782221Y-64677790D01*
X156753006Y-64707004D01*
X156722729Y-64735167D01*
X156722002Y-64738007D01*
X156692946Y-64767062D01*
X156671246Y-64779952D01*
X156652765Y-64816912D01*
X156632953Y-64853196D01*
X156633162Y-64856119D01*
X156583730Y-64954982D01*
X156564285Y-64985241D01*
X156564285Y-65015892D01*
X156558855Y-65046067D01*
X150669525Y-65046067D01*
X150668861Y-65043410D01*
X150660489Y-65029140D01*
X150599717Y-64907597D01*
X150594352Y-64882935D01*
X150565131Y-64853714D01*
X150536975Y-64823444D01*
X150534134Y-64822717D01*
X150426061Y-64714644D01*
X150403503Y-64686625D01*
X150374422Y-64676931D01*
X150347516Y-64662239D01*
X150333378Y-64663250D01*
X150165274Y-64607215D01*
X150144043Y-64593571D01*
X150102730Y-64593571D01*
X150061406Y-64592076D01*
X150058884Y-64593571D01*
X149975946Y-64593571D01*
X149951491Y-64587341D01*
X149912298Y-64600405D01*
X149872622Y-64612055D01*
X149870702Y-64614270D01*
X149703081Y-64670144D01*
X149667933Y-64677790D01*
X149646257Y-64699466D01*
X149621084Y-64716961D01*
X149615666Y-64730056D01*
X149550111Y-64795613D01*
X149518667Y-64853197D01*
X149524952Y-64941060D01*
X149577741Y-65011580D01*
X149660275Y-65042363D01*
X149746350Y-65023638D01*
X149823883Y-64946104D01*
X149981483Y-64893571D01*
X150075658Y-64893571D01*
X150233258Y-64946105D01*
X150333864Y-65046711D01*
X150387042Y-65153065D01*
X150449999Y-65404892D01*
X150449999Y-65582250D01*
X150387043Y-65834072D01*
X150333865Y-65940430D01*
X150233257Y-66041037D01*
X150075657Y-66093571D01*
X149981485Y-66093571D01*
X149823883Y-66041037D01*
X149762243Y-65979397D01*
X149704659Y-65947953D01*
X149616796Y-65954238D01*
X149546276Y-66007027D01*
X149515493Y-66089561D01*
X149239567Y-66089561D01*
X149249999Y-66073329D01*
X149249999Y-66042677D01*
X149255429Y-66012503D01*
X149249999Y-65999411D01*
X149249999Y-65894504D01*
X149253860Y-65858741D01*
X149240152Y-65831326D01*
X149231515Y-65801908D01*
X149220803Y-65792626D01*
X149179825Y-65710669D01*
X149180031Y-65704841D01*
X149160308Y-65671636D01*
X149153090Y-65657198D01*
X149149337Y-65653163D01*
X149135047Y-65629104D01*
X149119923Y-65621542D01*
X149108404Y-65609158D01*
X149081287Y-65602224D01*
X148960023Y-65541592D01*
X148929758Y-65522142D01*
X148899105Y-65522142D01*
X148868933Y-65516712D01*
X148855841Y-65522142D01*
X148563981Y-65522142D01*
X148535714Y-65508009D01*
X148535714Y-65493267D01*
X148568945Y-65426802D01*
X148635409Y-65393571D01*
X148850303Y-65393571D01*
X148980779Y-65458809D01*
X149045352Y-65470430D01*
X149126719Y-65436683D01*
X149176926Y-65364303D01*
X149180031Y-65276270D01*
X149135047Y-65200533D01*
X148960023Y-65113021D01*
X148929758Y-65093571D01*
X148899105Y-65093571D01*
X148868933Y-65088141D01*
X148855841Y-65093571D01*
X148608074Y-65093571D01*
X148572310Y-65089710D01*
X148544894Y-65103418D01*
X148515479Y-65112055D01*
X148506197Y-65122766D01*
X148424241Y-65163745D01*
X148418412Y-65163540D01*
X148385198Y-65183267D01*
X148370769Y-65190482D01*
X148366737Y-65194232D01*
X148342675Y-65208524D01*
X148335113Y-65223647D01*
X148322729Y-65235167D01*
X148315795Y-65262282D01*
X148255159Y-65383554D01*
X148235714Y-65413813D01*
X148235714Y-65444464D01*
X148230284Y-65474639D01*
X147821428Y-65474639D01*
X147821428Y-65413493D01*
X147827363Y-65397580D01*
X147821428Y-65370299D01*
X147821428Y-65222003D01*
X147802944Y-65159051D01*
X147736371Y-65101366D01*
X147649179Y-65088829D01*
X147569052Y-65125422D01*
X147565939Y-65130265D01*
X147531451Y-65113021D01*
X147501186Y-65093571D01*
X147470533Y-65093571D01*
X147440361Y-65088141D01*
X147427269Y-65093571D01*
X147250931Y-65093571D01*
X147215167Y-65089710D01*
X147187751Y-65103418D01*
X147158336Y-65112055D01*
X147149054Y-65122766D01*
X147067098Y-65163745D01*
X147061269Y-65163540D01*
X147033894Y-65179799D01*
X147009859Y-65173653D01*
X146888594Y-65113021D01*
X146858329Y-65093571D01*
X146827676Y-65093571D01*
X146797504Y-65088141D01*
X146784412Y-65093571D01*
X146608074Y-65093571D01*
X146572310Y-65089710D01*
X146544894Y-65103418D01*
X146515479Y-65112055D01*
X146506197Y-65122766D01*
X146424241Y-65163745D01*
X146418412Y-65163540D01*
X146385198Y-65183267D01*
X146370769Y-65190482D01*
X146366737Y-65194232D01*
X146342675Y-65208524D01*
X146335113Y-65223647D01*
X146322729Y-65235167D01*
X146315795Y-65262282D01*
X146255163Y-65383547D01*
X146235713Y-65413813D01*
X146235713Y-65444466D01*
X146230283Y-65474638D01*
X145892856Y-65474638D01*
X145892856Y-65465933D01*
X145896717Y-65430170D01*
X145883009Y-65402755D01*
X145874372Y-65373337D01*
X145863660Y-65364055D01*
X145822682Y-65282098D01*
X145822888Y-65276270D01*
X145803165Y-65243065D01*
X145795947Y-65228627D01*
X145792194Y-65224592D01*
X145777904Y-65200533D01*
X145762780Y-65192971D01*
X145751261Y-65180587D01*
X145724144Y-65173653D01*
X145602880Y-65113021D01*
X145572615Y-65093571D01*
X145541962Y-65093571D01*
X145511790Y-65088141D01*
X145498698Y-65093571D01*
X145250931Y-65093571D01*
X145215167Y-65089710D01*
X145187751Y-65103418D01*
X145158336Y-65112055D01*
X145149054Y-65122766D01*
X145067098Y-65163745D01*
X145061269Y-65163540D01*
X145028055Y-65183267D01*
X145013626Y-65190482D01*
X145009594Y-65194232D01*
X144985532Y-65208524D01*
X144977970Y-65223647D01*
X144965586Y-65235167D01*
X144958652Y-65262282D01*
X144898016Y-65383554D01*
X144878571Y-65413813D01*
X144878571Y-65444464D01*
X144873141Y-65474639D01*
X144878571Y-65487731D01*
X144878571Y-65574950D01*
X144872471Y-65592184D01*
X144535714Y-65592184D01*
X144535714Y-65537360D01*
X144539575Y-65501596D01*
X144535714Y-65493874D01*
X144535714Y-65222003D01*
X144517230Y-65159051D01*
X144450657Y-65101366D01*
X144363465Y-65088829D01*
X144283338Y-65125422D01*
X144262855Y-65157293D01*
X144174301Y-65113016D01*
X144144043Y-65093571D01*
X144113392Y-65093571D01*
X144083218Y-65088141D01*
X144070126Y-65093571D01*
X143935574Y-65093571D01*
X143872622Y-65112055D01*
X143814937Y-65178628D01*
X143802400Y-65265820D01*
X143602396Y-65265820D01*
X143563619Y-65200533D01*
X143388595Y-65113021D01*
X143358330Y-65093571D01*
X143327677Y-65093571D01*
X143297505Y-65088141D01*
X143284413Y-65093571D01*
X143036646Y-65093571D01*
X143000882Y-65089710D01*
X142973466Y-65103418D01*
X142944051Y-65112055D01*
X142934769Y-65122766D01*
X142852813Y-65163745D01*
X142846984Y-65163540D01*
X142813770Y-65183267D01*
X142799341Y-65190482D01*
X142795309Y-65194232D01*
X142771247Y-65208524D01*
X142763685Y-65223647D01*
X142751301Y-65235167D01*
X142744367Y-65262282D01*
X142683731Y-65383554D01*
X142664286Y-65413813D01*
X142664286Y-65444464D01*
X142658856Y-65474639D01*
X141567858Y-65474639D01*
X141567858Y-63655714D01*
X164432143Y-63655714D01*
X164432143Y-69664286D01*
G37*
%TO.C,PCB1*%
D11*
X88098928Y-74692857D02*
X89098928Y-74692857D01*
X88956071Y-74692857D02*
X89027500Y-74621428D01*
X89027500Y-74621428D02*
X89098928Y-74478571D01*
X89098928Y-74478571D02*
X89098928Y-74264285D01*
X89098928Y-74264285D02*
X89027500Y-74121428D01*
X89027500Y-74121428D02*
X88884642Y-74050000D01*
X88884642Y-74050000D02*
X88098928Y-74050000D01*
X88884642Y-74050000D02*
X89027500Y-73978571D01*
X89027500Y-73978571D02*
X89098928Y-73835714D01*
X89098928Y-73835714D02*
X89098928Y-73621428D01*
X89098928Y-73621428D02*
X89027500Y-73478571D01*
X89027500Y-73478571D02*
X88884642Y-73407142D01*
X88884642Y-73407142D02*
X88098928Y-73407142D01*
X88098928Y-72050000D02*
X88884642Y-72050000D01*
X88884642Y-72050000D02*
X89027500Y-72121428D01*
X89027500Y-72121428D02*
X89098928Y-72264285D01*
X89098928Y-72264285D02*
X89098928Y-72550000D01*
X89098928Y-72550000D02*
X89027500Y-72692857D01*
X88170357Y-72050000D02*
X88098928Y-72192857D01*
X88098928Y-72192857D02*
X88098928Y-72550000D01*
X88098928Y-72550000D02*
X88170357Y-72692857D01*
X88170357Y-72692857D02*
X88313214Y-72764285D01*
X88313214Y-72764285D02*
X88456071Y-72764285D01*
X88456071Y-72764285D02*
X88598928Y-72692857D01*
X88598928Y-72692857D02*
X88670357Y-72550000D01*
X88670357Y-72550000D02*
X88670357Y-72192857D01*
X88670357Y-72192857D02*
X88741785Y-72050000D01*
X88098928Y-71335714D02*
X89098928Y-71335714D01*
X89598928Y-71335714D02*
X89527500Y-71407142D01*
X89527500Y-71407142D02*
X89456071Y-71335714D01*
X89456071Y-71335714D02*
X89527500Y-71264285D01*
X89527500Y-71264285D02*
X89598928Y-71335714D01*
X89598928Y-71335714D02*
X89456071Y-71335714D01*
X89098928Y-70621428D02*
X88098928Y-70621428D01*
X88956071Y-70621428D02*
X89027500Y-70549999D01*
X89027500Y-70549999D02*
X89098928Y-70407142D01*
X89098928Y-70407142D02*
X89098928Y-70192856D01*
X89098928Y-70192856D02*
X89027500Y-70049999D01*
X89027500Y-70049999D02*
X88884642Y-69978571D01*
X88884642Y-69978571D02*
X88098928Y-69978571D01*
X87956071Y-69621428D02*
X87956071Y-68478570D01*
X88098928Y-68121428D02*
X89598928Y-68121428D01*
X89027500Y-68121428D02*
X89098928Y-67978571D01*
X89098928Y-67978571D02*
X89098928Y-67692856D01*
X89098928Y-67692856D02*
X89027500Y-67549999D01*
X89027500Y-67549999D02*
X88956071Y-67478571D01*
X88956071Y-67478571D02*
X88813214Y-67407142D01*
X88813214Y-67407142D02*
X88384642Y-67407142D01*
X88384642Y-67407142D02*
X88241785Y-67478571D01*
X88241785Y-67478571D02*
X88170357Y-67549999D01*
X88170357Y-67549999D02*
X88098928Y-67692856D01*
X88098928Y-67692856D02*
X88098928Y-67978571D01*
X88098928Y-67978571D02*
X88170357Y-68121428D01*
X88098928Y-66549999D02*
X88170357Y-66692856D01*
X88170357Y-66692856D02*
X88241785Y-66764285D01*
X88241785Y-66764285D02*
X88384642Y-66835713D01*
X88384642Y-66835713D02*
X88813214Y-66835713D01*
X88813214Y-66835713D02*
X88956071Y-66764285D01*
X88956071Y-66764285D02*
X89027500Y-66692856D01*
X89027500Y-66692856D02*
X89098928Y-66549999D01*
X89098928Y-66549999D02*
X89098928Y-66335713D01*
X89098928Y-66335713D02*
X89027500Y-66192856D01*
X89027500Y-66192856D02*
X88956071Y-66121428D01*
X88956071Y-66121428D02*
X88813214Y-66049999D01*
X88813214Y-66049999D02*
X88384642Y-66049999D01*
X88384642Y-66049999D02*
X88241785Y-66121428D01*
X88241785Y-66121428D02*
X88170357Y-66192856D01*
X88170357Y-66192856D02*
X88098928Y-66335713D01*
X88098928Y-66335713D02*
X88098928Y-66549999D01*
X88098928Y-64764285D02*
X88884642Y-64764285D01*
X88884642Y-64764285D02*
X89027500Y-64835713D01*
X89027500Y-64835713D02*
X89098928Y-64978570D01*
X89098928Y-64978570D02*
X89098928Y-65264285D01*
X89098928Y-65264285D02*
X89027500Y-65407142D01*
X88170357Y-64764285D02*
X88098928Y-64907142D01*
X88098928Y-64907142D02*
X88098928Y-65264285D01*
X88098928Y-65264285D02*
X88170357Y-65407142D01*
X88170357Y-65407142D02*
X88313214Y-65478570D01*
X88313214Y-65478570D02*
X88456071Y-65478570D01*
X88456071Y-65478570D02*
X88598928Y-65407142D01*
X88598928Y-65407142D02*
X88670357Y-65264285D01*
X88670357Y-65264285D02*
X88670357Y-64907142D01*
X88670357Y-64907142D02*
X88741785Y-64764285D01*
X88098928Y-64049999D02*
X89098928Y-64049999D01*
X88813214Y-64049999D02*
X88956071Y-63978570D01*
X88956071Y-63978570D02*
X89027500Y-63907142D01*
X89027500Y-63907142D02*
X89098928Y-63764284D01*
X89098928Y-63764284D02*
X89098928Y-63621427D01*
X88098928Y-62478571D02*
X89598928Y-62478571D01*
X88170357Y-62478571D02*
X88098928Y-62621428D01*
X88098928Y-62621428D02*
X88098928Y-62907142D01*
X88098928Y-62907142D02*
X88170357Y-63049999D01*
X88170357Y-63049999D02*
X88241785Y-63121428D01*
X88241785Y-63121428D02*
X88384642Y-63192856D01*
X88384642Y-63192856D02*
X88813214Y-63192856D01*
X88813214Y-63192856D02*
X88956071Y-63121428D01*
X88956071Y-63121428D02*
X89027500Y-63049999D01*
X89027500Y-63049999D02*
X89098928Y-62907142D01*
X89098928Y-62907142D02*
X89098928Y-62621428D01*
X89098928Y-62621428D02*
X89027500Y-62478571D01*
D10*
D11*
X85798928Y-73835714D02*
X86513214Y-74335714D01*
X85798928Y-74692857D02*
X87298928Y-74692857D01*
X87298928Y-74692857D02*
X87298928Y-74121428D01*
X87298928Y-74121428D02*
X87227500Y-73978571D01*
X87227500Y-73978571D02*
X87156071Y-73907142D01*
X87156071Y-73907142D02*
X87013214Y-73835714D01*
X87013214Y-73835714D02*
X86798928Y-73835714D01*
X86798928Y-73835714D02*
X86656071Y-73907142D01*
X86656071Y-73907142D02*
X86584642Y-73978571D01*
X86584642Y-73978571D02*
X86513214Y-74121428D01*
X86513214Y-74121428D02*
X86513214Y-74692857D01*
X86584642Y-73192857D02*
X86584642Y-72692857D01*
X85798928Y-72478571D02*
X85798928Y-73192857D01*
X85798928Y-73192857D02*
X87298928Y-73192857D01*
X87298928Y-73192857D02*
X87298928Y-72478571D01*
X87298928Y-72049999D02*
X85798928Y-71549999D01*
X85798928Y-71549999D02*
X87298928Y-71049999D01*
X86584642Y-69150000D02*
X86513214Y-68935714D01*
X86513214Y-68935714D02*
X86441785Y-68864285D01*
X86441785Y-68864285D02*
X86298928Y-68792857D01*
X86298928Y-68792857D02*
X86084642Y-68792857D01*
X86084642Y-68792857D02*
X85941785Y-68864285D01*
X85941785Y-68864285D02*
X85870357Y-68935714D01*
X85870357Y-68935714D02*
X85798928Y-69078571D01*
X85798928Y-69078571D02*
X85798928Y-69650000D01*
X85798928Y-69650000D02*
X87298928Y-69650000D01*
X87298928Y-69650000D02*
X87298928Y-69150000D01*
X87298928Y-69150000D02*
X87227500Y-69007143D01*
X87227500Y-69007143D02*
X87156071Y-68935714D01*
X87156071Y-68935714D02*
X87013214Y-68864285D01*
X87013214Y-68864285D02*
X86870357Y-68864285D01*
X86870357Y-68864285D02*
X86727500Y-68935714D01*
X86727500Y-68935714D02*
X86656071Y-69007143D01*
X86656071Y-69007143D02*
X86584642Y-69150000D01*
X86584642Y-69150000D02*
X86584642Y-69650000D01*
%TD*%
D12*
%TO.P,J5,1,Pin_1*%
%TO.N,GND*%
X100999999Y-80999999D03*
D13*
%TO.P,J5,2,Pin_2*%
%TO.N,/LED_RIGHT_DATA*%
X98459999Y-80999999D03*
%TO.P,J5,3,Pin_3*%
%TO.N,+5V*%
X95919999Y-80999999D03*
%TD*%
D14*
%TO.P,J1,1*%
%TO.N,Net-(Q1-D)*%
X96634999Y-46999999D03*
%TO.P,J1,2*%
%TO.N,GND*%
X96634999Y-40999999D03*
D15*
X91834999Y-44499999D03*
%TD*%
D16*
%TO.P,Q1,1,G*%
%TO.N,Net-(D1-A)*%
X100999999Y-54999999D03*
D17*
%TO.P,Q1,2,D*%
%TO.N,Net-(Q1-D)*%
X98459999Y-54999999D03*
%TO.P,Q1,3,S*%
%TO.N,+12V*%
X95919999Y-54999999D03*
%TD*%
D12*
%TO.P,J4,1,Pin_1*%
%TO.N,GND*%
X177999999Y-80999999D03*
D13*
%TO.P,J4,2,Pin_2*%
%TO.N,/LED_LEFT_DATA*%
X175459999Y-80999999D03*
%TO.P,J4,3,Pin_3*%
%TO.N,+5V*%
X172919999Y-80999999D03*
%TD*%
%TO.P,U2,1,GPIO0*%
%TO.N,unconnected-(U2-GPIO0-Pad1)*%
X191779999Y-58109999D03*
%TO.P,U2,2,GPIO1*%
%TO.N,unconnected-(U2-GPIO1-Pad2)*%
X189239999Y-58109999D03*
D12*
%TO.P,U2,3,GND*%
%TO.N,GND*%
X186699999Y-58109999D03*
D13*
%TO.P,U2,4,GPIO2*%
%TO.N,unconnected-(U2-GPIO2-Pad4)*%
X184159999Y-58109999D03*
%TO.P,U2,5,GPIO3*%
%TO.N,unconnected-(U2-GPIO3-Pad5)*%
X181619999Y-58109999D03*
%TO.P,U2,6,GPIO4*%
%TO.N,unconnected-(U2-GPIO4-Pad6)*%
X179079999Y-58109999D03*
%TO.P,U2,7,GPIO5*%
%TO.N,unconnected-(U2-GPIO5-Pad7)*%
X176539999Y-58109999D03*
D12*
%TO.P,U2,8,GND*%
%TO.N,GND*%
X173999999Y-58109999D03*
D13*
%TO.P,U2,9,GPIO6*%
%TO.N,unconnected-(U2-GPIO6-Pad9)*%
X171459999Y-58109999D03*
%TO.P,U2,10,GPIO7*%
%TO.N,unconnected-(U2-GPIO7-Pad10)*%
X168919999Y-58109999D03*
%TO.P,U2,11,GPIO8*%
%TO.N,unconnected-(U2-GPIO8-Pad11)*%
X166379999Y-58109999D03*
%TO.P,U2,12,GPIO9*%
%TO.N,unconnected-(U2-GPIO9-Pad12)*%
X163839999Y-58109999D03*
D12*
%TO.P,U2,13,GND*%
%TO.N,GND*%
X161299999Y-58109999D03*
D13*
%TO.P,U2,14,GPIO10*%
%TO.N,unconnected-(U2-GPIO10-Pad14)*%
X158759999Y-58109999D03*
%TO.P,U2,15,GPIO11*%
%TO.N,unconnected-(U2-GPIO11-Pad15)*%
X156219999Y-58109999D03*
%TO.P,U2,16,GPIO12*%
%TO.N,unconnected-(U2-GPIO12-Pad16)*%
X153679999Y-58109999D03*
%TO.P,U2,17,GPIO13*%
%TO.N,unconnected-(U2-GPIO13-Pad17)*%
X151139999Y-58109999D03*
D12*
%TO.P,U2,18,GND*%
%TO.N,GND*%
X148599999Y-58109999D03*
D13*
%TO.P,U2,19,GPIO14*%
%TO.N,unconnected-(U2-GPIO14-Pad19)*%
X146059999Y-58109999D03*
%TO.P,U2,20,GPIO15*%
%TO.N,unconnected-(U2-GPIO15-Pad20)*%
X143519999Y-58109999D03*
%TO.P,U2,21,GPIO16*%
%TO.N,/LED_RIGHT_DATA*%
X143519999Y-75889999D03*
%TO.P,U2,22,GPIO17*%
%TO.N,/LED_LEFT_DATA*%
X146059999Y-75889999D03*
D12*
%TO.P,U2,23,GND*%
%TO.N,GND*%
X148599999Y-75889999D03*
D13*
%TO.P,U2,24,GPIO18*%
%TO.N,unconnected-(U2-GPIO18-Pad24)*%
X151139999Y-75889999D03*
%TO.P,U2,25,GPIO19*%
%TO.N,unconnected-(U2-GPIO19-Pad25)*%
X153679999Y-75889999D03*
%TO.P,U2,26,GPIO20*%
%TO.N,unconnected-(U2-GPIO20-Pad26)*%
X156219999Y-75889999D03*
%TO.P,U2,27,GPIO21*%
%TO.N,unconnected-(U2-GPIO21-Pad27)*%
X158759999Y-75889999D03*
D12*
%TO.P,U2,28,GND*%
%TO.N,GND*%
X161299999Y-75889999D03*
D13*
%TO.P,U2,29,GPIO22*%
%TO.N,unconnected-(U2-GPIO22-Pad29)*%
X163839999Y-75889999D03*
%TO.P,U2,30,RUN*%
%TO.N,unconnected-(U2-RUN-Pad30)*%
X166379999Y-75889999D03*
%TO.P,U2,31,GPIO26_ADC0*%
%TO.N,/BRIGHTNESS_CTRL*%
X168919999Y-75889999D03*
%TO.P,U2,32,GPIO27_ADC1*%
%TO.N,/COLOR_CTRL*%
X171459999Y-75889999D03*
D12*
%TO.P,U2,33,AGND*%
%TO.N,GND*%
X173999999Y-75889999D03*
D13*
%TO.P,U2,34,GPIO28_ADC2*%
%TO.N,unconnected-(U2-GPIO28_ADC2-Pad34)*%
X176539999Y-75889999D03*
%TO.P,U2,35,ADC_VREF*%
%TO.N,unconnected-(U2-ADC_VREF-Pad35)*%
X179079999Y-75889999D03*
%TO.P,U2,36,3V3*%
%TO.N,+3V3*%
X181619999Y-75889999D03*
%TO.P,U2,37,3V3_EN*%
%TO.N,unconnected-(U2-3V3_EN-Pad37)*%
X184159999Y-75889999D03*
D12*
%TO.P,U2,38,GND*%
%TO.N,GND*%
X186699999Y-75889999D03*
D13*
%TO.P,U2,39,VSYS*%
%TO.N,+5V*%
X189239999Y-75889999D03*
%TO.P,U2,40,VBUS*%
%TO.N,unconnected-(U2-VBUS-Pad40)*%
X191779999Y-75889999D03*
%TD*%
D18*
%TO.P,J3,1,VBUS1*%
%TO.N,+5V*%
X144499999Y-48879999D03*
D19*
%TO.P,J3,2,D1-*%
%TO.N,unconnected-(J3-D1--Pad2)*%
X142000000Y-48880000D03*
%TO.P,J3,3,D1+*%
%TO.N,unconnected-(J3-D1+-Pad3)*%
X140000000Y-48880000D03*
%TO.P,J3,4,GND1*%
%TO.N,GND*%
X137500000Y-48880000D03*
%TO.P,J3,5,VBUS2*%
%TO.N,+5V*%
X144500000Y-46260000D03*
%TO.P,J3,6,D2-*%
%TO.N,unconnected-(J3-D2--Pad6)*%
X142000000Y-46260000D03*
%TO.P,J3,7,D2+*%
%TO.N,unconnected-(J3-D2+-Pad7)*%
X140000000Y-46260000D03*
%TO.P,J3,8,GND2*%
%TO.N,GND*%
X137500000Y-46260000D03*
D20*
%TO.P,J3,9,Shield*%
X147570000Y-49230000D03*
X147570000Y-43550000D03*
X134430000Y-49230000D03*
X134430000Y-43550000D03*
%TD*%
D21*
%TO.P,J2,1,Pin_1*%
%TO.N,Net-(D2-K)*%
X113540000Y-43777500D03*
D22*
%TO.P,J2,2,Pin_2*%
%TO.N,GND*%
X108459999Y-43777499D03*
%TD*%
D23*
%TO.P,TP6,1,1*%
%TO.N,/COLOR_CTRL*%
X175499999Y-52999999D03*
%TD*%
D24*
%TO.P,C6,1*%
%TO.N,+5V*%
X125235106Y-63560091D03*
%TO.P,C6,2*%
%TO.N,GND*%
X128185106Y-63560091D03*
%TD*%
D23*
%TO.P,TP1,1,1*%
%TO.N,GND*%
X111210105Y-65999999D03*
%TD*%
D25*
%TO.P,R2,1*%
%TO.N,+5V*%
X125010106Y-60985091D03*
%TO.P,R2,2*%
%TO.N,/BUCK_FB*%
X125010106Y-59335091D03*
%TD*%
D23*
%TO.P,TP10,1,1*%
%TO.N,/BUCK_FB*%
X128999999Y-56999999D03*
%TD*%
D26*
%TO.P,C7,1*%
%TO.N,+12V*%
X111410106Y-60285091D03*
%TO.P,C7,2*%
%TO.N,GND*%
X111410106Y-63235091D03*
%TD*%
D25*
%TO.P,R7,1*%
%TO.N,Net-(D3-K)*%
X130000000Y-73500000D03*
%TO.P,R7,2*%
%TO.N,GND*%
X130000000Y-71850000D03*
%TD*%
%TO.P,R1,1*%
%TO.N,Net-(U1-COMP)*%
X123340000Y-57810091D03*
%TO.P,R1,2*%
%TO.N,Net-(C2-Pad1)*%
X123340000Y-56160091D03*
%TD*%
%TO.P,R3,1*%
%TO.N,/BUCK_FB*%
X126685106Y-57825000D03*
%TO.P,R3,2*%
%TO.N,GND*%
X126685106Y-56175000D03*
%TD*%
D27*
%TO.P,D1,1,K*%
%TO.N,+12V*%
X95250000Y-57500000D03*
%TO.P,D1,2,A*%
%TO.N,Net-(D1-A)*%
X98750000Y-57500000D03*
%TD*%
D28*
%TO.P,L1,1,1*%
%TO.N,Net-(U1-LX)*%
X116385105Y-65760090D03*
%TO.P,L1,2,2*%
%TO.N,+5V*%
X122435105Y-65760090D03*
%TD*%
D29*
%TO.P,RV1,1,1*%
%TO.N,+3V3*%
X119999999Y-40999999D03*
D20*
%TO.P,RV1,2,2*%
%TO.N,/BRIGHTNESS_CTRL*%
X125000000Y-41000000D03*
%TO.P,RV1,3,3*%
%TO.N,GND*%
X130000000Y-41000000D03*
%TD*%
D30*
%TO.P,C12,1*%
%TO.N,+5V*%
X109600000Y-71475000D03*
%TO.P,C12,2*%
%TO.N,GND*%
X109600000Y-68525000D03*
%TD*%
D25*
%TO.P,R4,1*%
%TO.N,Net-(U1-BST)*%
X120039999Y-55475000D03*
%TO.P,R4,2*%
%TO.N,Net-(C4-Pad1)*%
X120039999Y-53825000D03*
%TD*%
D23*
%TO.P,TP5,1,1*%
%TO.N,/LED_RIGHT_DATA*%
X137999999Y-75999999D03*
%TD*%
D24*
%TO.P,C9,1*%
%TO.N,+5V*%
X125235104Y-67260090D03*
%TO.P,C9,2*%
%TO.N,GND*%
X128185104Y-67260090D03*
%TD*%
D31*
%TO.P,C4,1*%
%TO.N,Net-(C4-Pad1)*%
X118000000Y-53874999D03*
%TO.P,C4,2*%
%TO.N,Net-(U1-LX)*%
X118000000Y-55424999D03*
%TD*%
D26*
%TO.P,C1,1*%
%TO.N,+12V*%
X108010106Y-60285091D03*
%TO.P,C1,2*%
%TO.N,GND*%
X108010106Y-63235091D03*
%TD*%
D32*
%TO.P,R5,1*%
%TO.N,Net-(D1-A)*%
X100475000Y-57500000D03*
%TO.P,R5,2*%
%TO.N,GND*%
X102125000Y-57500000D03*
%TD*%
D26*
%TO.P,C11,1*%
%TO.N,+5V*%
X113000000Y-68525000D03*
%TO.P,C11,2*%
%TO.N,GND*%
X113000000Y-71475000D03*
%TD*%
D33*
%TO.P,D3,1,K*%
%TO.N,Net-(D3-K)*%
X126459999Y-74000000D03*
%TO.P,D3,2,A*%
%TO.N,+5V*%
X124884999Y-74000000D03*
%TD*%
D34*
%TO.P,D2,1,K*%
%TO.N,Net-(D2-K)*%
X108110106Y-53760091D03*
%TO.P,D2,2,A*%
%TO.N,+12V*%
X108110106Y-57760091D03*
%TD*%
D35*
%TO.P,C10,1*%
%TO.N,+5V*%
X123010104Y-60935089D03*
%TO.P,C10,2*%
%TO.N,/BUCK_FB*%
X123010104Y-59385089D03*
%TD*%
D30*
%TO.P,C13,1*%
%TO.N,+5V*%
X106200000Y-71475000D03*
%TO.P,C13,2*%
%TO.N,GND*%
X106200000Y-68525000D03*
%TD*%
D23*
%TO.P,TP4,1,1*%
%TO.N,/LED_LEFT_DATA*%
X158499999Y-78999999D03*
%TD*%
D24*
%TO.P,C8,1*%
%TO.N,+5V*%
X125235106Y-70560091D03*
%TO.P,C8,2*%
%TO.N,GND*%
X128185106Y-70560091D03*
%TD*%
D36*
%TO.P,U1,1,SS*%
%TO.N,Net-(U1-SS)*%
X114635000Y-60905000D03*
%TO.P,U1,2,EN*%
%TO.N,+12V*%
X114635000Y-59635000D03*
%TO.P,U1,3,VIN*%
X114635000Y-58365000D03*
%TO.P,U1,4,GND*%
%TO.N,GND*%
X114635000Y-57095000D03*
%TO.P,U1,5,BST*%
%TO.N,Net-(U1-BST)*%
X119585000Y-57095000D03*
%TO.P,U1,6,VCC*%
%TO.N,Net-(U1-VCC)*%
X119585000Y-58365000D03*
%TO.P,U1,7,COMP*%
%TO.N,Net-(U1-COMP)*%
X119585000Y-59635000D03*
%TO.P,U1,8,FB*%
%TO.N,/BUCK_FB*%
X119585000Y-60905000D03*
D37*
%TO.P,U1,9,LX*%
%TO.N,Net-(U1-LX)*%
X116460000Y-58000000D03*
X116460000Y-59000000D03*
X116460000Y-60000000D03*
D38*
X117109999Y-58999999D03*
D37*
X117760000Y-58000000D03*
X117760000Y-59000000D03*
X117760000Y-60000000D03*
%TD*%
D23*
%TO.P,TP3,1,1*%
%TO.N,+3V3*%
X119999999Y-49999999D03*
%TD*%
%TO.P,TP7,1,1*%
%TO.N,/BRIGHTNESS_CTRL*%
X165499999Y-50499999D03*
%TD*%
%TO.P,TP11,1,1*%
%TO.N,+12V*%
X96499999Y-63999999D03*
%TD*%
%TO.P,TP9,1,1*%
%TO.N,+5V*%
X121459999Y-71999999D03*
%TD*%
D35*
%TO.P,C5,1*%
%TO.N,Net-(U1-VCC)*%
X121740000Y-57760091D03*
%TO.P,C5,2*%
%TO.N,GND*%
X121740000Y-56210091D03*
%TD*%
D29*
%TO.P,RV2,1,1*%
%TO.N,+3V3*%
X151999999Y-40999999D03*
D20*
%TO.P,RV2,2,2*%
%TO.N,/COLOR_CTRL*%
X157000000Y-41000000D03*
%TO.P,RV2,3,3*%
%TO.N,GND*%
X162000000Y-41000000D03*
%TD*%
D31*
%TO.P,C3,1*%
%TO.N,Net-(U1-SS)*%
X114010106Y-62685091D03*
%TO.P,C3,2*%
%TO.N,GND*%
X114010106Y-64235091D03*
%TD*%
D35*
%TO.P,C2,1*%
%TO.N,Net-(C2-Pad1)*%
X124939999Y-57760091D03*
%TO.P,C2,2*%
%TO.N,GND*%
X124939999Y-56210091D03*
%TD*%
D39*
%TO.N,GND*%
X186500000Y-73000000D03*
D40*
X165200000Y-41000000D03*
D39*
X151000000Y-48000000D03*
X131000000Y-49500000D03*
D40*
X103840000Y-57499999D03*
X114500000Y-55500000D03*
D39*
X108000000Y-66500000D03*
X180500000Y-81000000D03*
X104500000Y-80500000D03*
X131000000Y-67500000D03*
D40*
X127500000Y-41000000D03*
X124000000Y-54500000D03*
D39*
X88000000Y-44500000D03*
X175500000Y-73000000D03*
X103000000Y-41500000D03*
%TD*%
D41*
%TO.N,+12V*%
X96500000Y-64000000D02*
X96500000Y-60500000D01*
D42*
%TO.N,GND*%
X174000000Y-75890000D02*
X174000000Y-74500000D01*
X186700000Y-73200000D02*
X186500000Y-73000000D01*
D41*
X102125000Y-57499999D02*
X103840000Y-57499999D01*
X114635000Y-57095000D02*
X114635000Y-55635000D01*
D42*
X180500000Y-81000000D02*
X178000000Y-81000000D01*
X104500000Y-80500000D02*
X104000000Y-81000000D01*
X174000000Y-74500000D02*
X175500000Y-73000000D01*
D41*
X127500000Y-41000000D02*
X130000000Y-41000000D01*
D42*
X104000000Y-81000000D02*
X101000000Y-81000000D01*
D41*
X121740000Y-56210091D02*
X121789909Y-56210091D01*
D42*
X186700000Y-75890000D02*
X186700000Y-73200000D01*
D41*
X114635000Y-55635000D02*
X114500000Y-55500000D01*
X162000000Y-41000000D02*
X165200000Y-41000000D01*
X124939999Y-56210091D02*
X124939999Y-55939999D01*
%TO.N,Net-(C2-Pad1)*%
X124939999Y-57760090D02*
X123340000Y-56160091D01*
X124939999Y-57760091D02*
X124939999Y-57760090D01*
%TO.N,Net-(C4-Pad1)*%
X119990000Y-53874999D02*
X120039999Y-53825000D01*
X118000000Y-53874999D02*
X119990000Y-53874999D01*
%TO.N,Net-(U1-VCC)*%
X121135091Y-58365000D02*
X121740000Y-57760091D01*
X119585000Y-58365000D02*
X121135091Y-58365000D01*
%TO.N,/BUCK_FB*%
X121674264Y-59674264D02*
X122720929Y-59674264D01*
X125010106Y-59335091D02*
X123060102Y-59335091D01*
X126685106Y-57825000D02*
X128175000Y-57825000D01*
X123060102Y-59335091D02*
X123010104Y-59385089D01*
X120443528Y-60905000D02*
X121674264Y-59674264D01*
X125175015Y-59335091D02*
X126685106Y-57825000D01*
X128175000Y-57825000D02*
X129000000Y-57000000D01*
X119585000Y-60905000D02*
X120443528Y-60905000D01*
X125010106Y-59335091D02*
X125175015Y-59335091D01*
X122720929Y-59674264D02*
X123010104Y-59385089D01*
%TO.N,Net-(D1-A)*%
X98750000Y-57500000D02*
X100475000Y-57500000D01*
X100475000Y-55525000D02*
X101000000Y-55000000D01*
X100475000Y-57500000D02*
X100475000Y-55525000D01*
%TO.N,Net-(D3-K)*%
X129500000Y-74000000D02*
X130000000Y-73500000D01*
X126459999Y-74000000D02*
X129500000Y-74000000D01*
%TO.N,/LED_LEFT_DATA*%
X149170000Y-79000000D02*
X146060000Y-75890000D01*
X172000000Y-79000000D02*
X158500000Y-79000000D01*
X175460000Y-81000000D02*
X173460000Y-79000000D01*
X173460000Y-79000000D02*
X172000000Y-79000000D01*
X158500000Y-79000000D02*
X149170000Y-79000000D01*
%TO.N,/LED_RIGHT_DATA*%
X134000000Y-78500000D02*
X136500000Y-76000000D01*
X136500000Y-76000000D02*
X138000000Y-76000000D01*
X98460000Y-81000000D02*
X100960000Y-78500000D01*
X143520000Y-75890000D02*
X138110000Y-75890000D01*
X100960000Y-78500000D02*
X134000000Y-78500000D01*
X138110000Y-75890000D02*
X138000000Y-76000000D01*
%TO.N,+3V3*%
X178600000Y-39100000D02*
X182870000Y-43370000D01*
X152000000Y-41000000D02*
X152000000Y-39100000D01*
X182870000Y-74640000D02*
X181620000Y-75890000D01*
X120000000Y-41000000D02*
X121900000Y-39100000D01*
X152000000Y-39100000D02*
X178600000Y-39100000D01*
X121900000Y-39100000D02*
X147500000Y-39100000D01*
X182870000Y-43370000D02*
X182870000Y-74640000D01*
X120000000Y-50000000D02*
X120000000Y-41000000D01*
X147500000Y-39100000D02*
X152000000Y-39100000D01*
%TO.N,Net-(U1-COMP)*%
X121789909Y-58610091D02*
X122248883Y-58610091D01*
X123048883Y-57810091D02*
X123340000Y-57810091D01*
X122248883Y-58610091D02*
X123048883Y-57810091D01*
X120765000Y-59635000D02*
X121789909Y-58610091D01*
X119585000Y-59635000D02*
X120765000Y-59635000D01*
%TO.N,Net-(U1-BST)*%
X120039999Y-55475000D02*
X120039999Y-56640001D01*
X120039999Y-56640001D02*
X119585000Y-57095000D01*
%TO.N,/BRIGHTNESS_CTRL*%
X157500000Y-50500000D02*
X165500000Y-50500000D01*
X125000000Y-41000000D02*
X125000000Y-41650000D01*
X126700000Y-43350000D02*
X131250000Y-43350000D01*
X131250000Y-43350000D02*
X134600000Y-40000000D01*
X147900000Y-40000000D02*
X149500000Y-41600000D01*
X170170000Y-55170000D02*
X170170000Y-74640000D01*
X165500000Y-50500000D02*
X170170000Y-55170000D01*
X149500000Y-41600000D02*
X149500000Y-42500000D01*
X134600000Y-40000000D02*
X147900000Y-40000000D01*
X149500000Y-42500000D02*
X157500000Y-50500000D01*
X125000000Y-41650000D02*
X126700000Y-43350000D01*
X170170000Y-74640000D02*
X168920000Y-75890000D01*
%TO.N,/COLOR_CTRL*%
X175500000Y-53000000D02*
X172750000Y-53000000D01*
X157000000Y-43500000D02*
X159000000Y-45500000D01*
X172750000Y-74600000D02*
X171460000Y-75890000D01*
X159000000Y-45500000D02*
X167000000Y-45500000D01*
X157000000Y-41000000D02*
X157000000Y-43500000D01*
X172750000Y-51250000D02*
X172750000Y-53000000D01*
X172750000Y-53000000D02*
X172750000Y-74600000D01*
X167000000Y-45500000D02*
X172750000Y-51250000D01*
%TD*%
%TA.AperFunction,Conductor*%
%TO.N,GND*%
G36*
X138450500Y-44013263D02*
G01*
X138486737Y-44049500D01*
X138500000Y-44099000D01*
X138500000Y-51401000D01*
X138486737Y-51450500D01*
X138450500Y-51486737D01*
X138401000Y-51500000D01*
X129599000Y-51500000D01*
X129549500Y-51486737D01*
X129513263Y-51450500D01*
X129500000Y-51401000D01*
X129500000Y-47599000D01*
X129513263Y-47549500D01*
X129549500Y-47513263D01*
X129599000Y-47500000D01*
X131986967Y-47500000D01*
X132000000Y-47500000D01*
X132000000Y-44099000D01*
X132013263Y-44049500D01*
X132049500Y-44013263D01*
X132099000Y-44000000D01*
X138401000Y-44000000D01*
X138450500Y-44013263D01*
G37*
%TD.AperFunction*%
%TD*%
%TA.AperFunction,Conductor*%
%TO.N,Net-(U1-LX)*%
G36*
X118450500Y-55013263D02*
G01*
X118486737Y-55049500D01*
X118500000Y-55099000D01*
X118500000Y-56668311D01*
X118492464Y-56706197D01*
X118479905Y-56724992D01*
X118481370Y-56726038D01*
X118476598Y-56732720D01*
X118470802Y-56738517D01*
X118467202Y-56745880D01*
X118467199Y-56745885D01*
X118422802Y-56836701D01*
X118422800Y-56836707D01*
X118419427Y-56843607D01*
X118418320Y-56851204D01*
X118418318Y-56851211D01*
X118410015Y-56908202D01*
X118409500Y-56911740D01*
X118409500Y-57278260D01*
X118410014Y-57281792D01*
X118410015Y-57281797D01*
X118418318Y-57338788D01*
X118418319Y-57338793D01*
X118419427Y-57346393D01*
X118422800Y-57353294D01*
X118422802Y-57353298D01*
X118467199Y-57444114D01*
X118467200Y-57444116D01*
X118470802Y-57451483D01*
X118476599Y-57457280D01*
X118481370Y-57463962D01*
X118479905Y-57465007D01*
X118492464Y-57483803D01*
X118500000Y-57521689D01*
X118500000Y-57938311D01*
X118492464Y-57976197D01*
X118479905Y-57994992D01*
X118481370Y-57996038D01*
X118476598Y-58002720D01*
X118470802Y-58008517D01*
X118467202Y-58015880D01*
X118467199Y-58015885D01*
X118422802Y-58106701D01*
X118422800Y-58106707D01*
X118419427Y-58113607D01*
X118418320Y-58121204D01*
X118418318Y-58121211D01*
X118410015Y-58178202D01*
X118409500Y-58181740D01*
X118409500Y-58548260D01*
X118410014Y-58551792D01*
X118410015Y-58551797D01*
X118418318Y-58608788D01*
X118418319Y-58608793D01*
X118419427Y-58616393D01*
X118422800Y-58623294D01*
X118422802Y-58623298D01*
X118467199Y-58714114D01*
X118467200Y-58714116D01*
X118470802Y-58721483D01*
X118476599Y-58727280D01*
X118481370Y-58733962D01*
X118479905Y-58735007D01*
X118492464Y-58753803D01*
X118500000Y-58791689D01*
X118500000Y-59208311D01*
X118492464Y-59246197D01*
X118479905Y-59264992D01*
X118481370Y-59266038D01*
X118476598Y-59272720D01*
X118470802Y-59278517D01*
X118467202Y-59285880D01*
X118467199Y-59285885D01*
X118422802Y-59376701D01*
X118422800Y-59376707D01*
X118419427Y-59383607D01*
X118418320Y-59391204D01*
X118418318Y-59391211D01*
X118410015Y-59448202D01*
X118409500Y-59451740D01*
X118409500Y-59818260D01*
X118410014Y-59821792D01*
X118410015Y-59821797D01*
X118418318Y-59878788D01*
X118418319Y-59878793D01*
X118419427Y-59886393D01*
X118422800Y-59893294D01*
X118422802Y-59893298D01*
X118467199Y-59984114D01*
X118467200Y-59984116D01*
X118470802Y-59991483D01*
X118476599Y-59997280D01*
X118481370Y-60003962D01*
X118479905Y-60005007D01*
X118492464Y-60023803D01*
X118500000Y-60061689D01*
X118500000Y-60478311D01*
X118492464Y-60516197D01*
X118479905Y-60534992D01*
X118481370Y-60536038D01*
X118476598Y-60542720D01*
X118470802Y-60548517D01*
X118467202Y-60555880D01*
X118467199Y-60555885D01*
X118422802Y-60646701D01*
X118422800Y-60646707D01*
X118419427Y-60653607D01*
X118418320Y-60661204D01*
X118418318Y-60661211D01*
X118410015Y-60718202D01*
X118409500Y-60721740D01*
X118409500Y-61088260D01*
X118410014Y-61091792D01*
X118410015Y-61091797D01*
X118418318Y-61148788D01*
X118418319Y-61148793D01*
X118419427Y-61156393D01*
X118422800Y-61163294D01*
X118422802Y-61163298D01*
X118467199Y-61254114D01*
X118467200Y-61254116D01*
X118470802Y-61261483D01*
X118476599Y-61267280D01*
X118481370Y-61273962D01*
X118479905Y-61275007D01*
X118492464Y-61293803D01*
X118500000Y-61331689D01*
X118500000Y-62000000D01*
X119401000Y-62000000D01*
X119450500Y-62013263D01*
X119486737Y-62049500D01*
X119500000Y-62099000D01*
X119500000Y-68901000D01*
X119486737Y-68950500D01*
X119450500Y-68986737D01*
X119401000Y-69000000D01*
X115099000Y-69000000D01*
X115049500Y-68986737D01*
X115013263Y-68950500D01*
X115000000Y-68901000D01*
X115000000Y-67789887D01*
X115011690Y-67743219D01*
X115043999Y-67707571D01*
X115089297Y-67691364D01*
X115136886Y-67698423D01*
X115141632Y-67700389D01*
X115185644Y-67709143D01*
X115195266Y-67710091D01*
X116172073Y-67710091D01*
X116182351Y-67707336D01*
X116185106Y-67697058D01*
X116585106Y-67697058D01*
X116587860Y-67707336D01*
X116598139Y-67710091D01*
X117574946Y-67710091D01*
X117584567Y-67709143D01*
X117628579Y-67700389D01*
X117646248Y-67693070D01*
X117696188Y-67659701D01*
X117709716Y-67646173D01*
X117743085Y-67596233D01*
X117750404Y-67578564D01*
X117759158Y-67534552D01*
X117760106Y-67524931D01*
X117760106Y-65973124D01*
X117757351Y-65962845D01*
X117747073Y-65960091D01*
X116598139Y-65960091D01*
X116587860Y-65962845D01*
X116585106Y-65973124D01*
X116585106Y-67697058D01*
X116185106Y-67697058D01*
X116185106Y-65547058D01*
X116585106Y-65547058D01*
X116587860Y-65557336D01*
X116598139Y-65560091D01*
X117747073Y-65560091D01*
X117757351Y-65557336D01*
X117760106Y-65547058D01*
X117760106Y-63995251D01*
X117759158Y-63985629D01*
X117750404Y-63941617D01*
X117743085Y-63923948D01*
X117709716Y-63874008D01*
X117696188Y-63860480D01*
X117646248Y-63827111D01*
X117628579Y-63819792D01*
X117584567Y-63811038D01*
X117574946Y-63810091D01*
X116598139Y-63810091D01*
X116587860Y-63812845D01*
X116585106Y-63823124D01*
X116585106Y-65547058D01*
X116185106Y-65547058D01*
X116185106Y-63823124D01*
X116182351Y-63812845D01*
X116172073Y-63810091D01*
X115195266Y-63810091D01*
X115185644Y-63811038D01*
X115141632Y-63819792D01*
X115136886Y-63821759D01*
X115089297Y-63828818D01*
X115043999Y-63812611D01*
X115011690Y-63776963D01*
X115000000Y-63730295D01*
X115000000Y-62099000D01*
X115013263Y-62049500D01*
X115049500Y-62013263D01*
X115099000Y-62000000D01*
X115986967Y-62000000D01*
X116000000Y-62000000D01*
X116000000Y-55099000D01*
X116013263Y-55049500D01*
X116049500Y-55013263D01*
X116099000Y-55000000D01*
X118401000Y-55000000D01*
X118450500Y-55013263D01*
G37*
%TD.AperFunction*%
%TD*%
%TA.AperFunction,Conductor*%
%TO.N,GND*%
G36*
X132450500Y-62013263D02*
G01*
X132486737Y-62049500D01*
X132500000Y-62099000D01*
X132500000Y-72401000D01*
X132486737Y-72450500D01*
X132450500Y-72486737D01*
X132401000Y-72500000D01*
X130629694Y-72500000D01*
X130574693Y-72483315D01*
X130538230Y-72438886D01*
X130532596Y-72381686D01*
X130559690Y-72330996D01*
X130597134Y-72293551D01*
X130606176Y-72281105D01*
X130656628Y-72182088D01*
X130661383Y-72167453D01*
X130674390Y-72085327D01*
X130675000Y-72077588D01*
X130675000Y-72063033D01*
X130672245Y-72052754D01*
X130661967Y-72050000D01*
X129338034Y-72050000D01*
X129327755Y-72052754D01*
X129325001Y-72063033D01*
X129325001Y-72077585D01*
X129325610Y-72085329D01*
X129338615Y-72167448D01*
X129343372Y-72182091D01*
X129393823Y-72281105D01*
X129402865Y-72293551D01*
X129440310Y-72330996D01*
X129467404Y-72381686D01*
X129461770Y-72438886D01*
X129425307Y-72483315D01*
X129370306Y-72500000D01*
X127599000Y-72500000D01*
X127549500Y-72486737D01*
X127513263Y-72450500D01*
X127500000Y-72401000D01*
X127500000Y-72147551D01*
X127512804Y-72098855D01*
X127547906Y-72062755D01*
X127596223Y-72048590D01*
X127645260Y-72060024D01*
X127654460Y-72064886D01*
X127769815Y-72105250D01*
X127781498Y-72107802D01*
X127803606Y-72109875D01*
X127808214Y-72110091D01*
X127972073Y-72110091D01*
X127982351Y-72107336D01*
X127985106Y-72097058D01*
X127985106Y-72097057D01*
X128385106Y-72097057D01*
X128387860Y-72107335D01*
X128398139Y-72110090D01*
X128561994Y-72110090D01*
X128566610Y-72109874D01*
X128588714Y-72107802D01*
X128600394Y-72105251D01*
X128715748Y-72064887D01*
X128728723Y-72058029D01*
X128825923Y-71986292D01*
X128836307Y-71975908D01*
X128908044Y-71878708D01*
X128914902Y-71865733D01*
X128955265Y-71750381D01*
X128957817Y-71738698D01*
X128959890Y-71716590D01*
X128960106Y-71711983D01*
X128960106Y-71636967D01*
X129325000Y-71636967D01*
X129327754Y-71647245D01*
X129338033Y-71650000D01*
X129786967Y-71650000D01*
X129797245Y-71647245D01*
X129800000Y-71636967D01*
X130200000Y-71636967D01*
X130202754Y-71647245D01*
X130213033Y-71650000D01*
X130661966Y-71650000D01*
X130672244Y-71647245D01*
X130674999Y-71636967D01*
X130674999Y-71622415D01*
X130674389Y-71614670D01*
X130661384Y-71532551D01*
X130656627Y-71517908D01*
X130606176Y-71418894D01*
X130597134Y-71406448D01*
X130518551Y-71327865D01*
X130506105Y-71318823D01*
X130407088Y-71268371D01*
X130392453Y-71263616D01*
X130310327Y-71250609D01*
X130302588Y-71250000D01*
X130213033Y-71250000D01*
X130202754Y-71252754D01*
X130200000Y-71263033D01*
X130200000Y-71636967D01*
X129800000Y-71636967D01*
X129800000Y-71263034D01*
X129797245Y-71252755D01*
X129786967Y-71250001D01*
X129697415Y-71250001D01*
X129689670Y-71250610D01*
X129607551Y-71263615D01*
X129592908Y-71268372D01*
X129493894Y-71318823D01*
X129481448Y-71327865D01*
X129402865Y-71406448D01*
X129393823Y-71418894D01*
X129343371Y-71517911D01*
X129338616Y-71532546D01*
X129325609Y-71614672D01*
X129325000Y-71622412D01*
X129325000Y-71636967D01*
X128960106Y-71636967D01*
X128960106Y-70773124D01*
X128957351Y-70762845D01*
X128947073Y-70760091D01*
X128398139Y-70760091D01*
X128387860Y-70762845D01*
X128385106Y-70773124D01*
X128385106Y-72097057D01*
X127985106Y-72097057D01*
X127985106Y-70347058D01*
X128385106Y-70347058D01*
X128387860Y-70357336D01*
X128398139Y-70360091D01*
X128947072Y-70360091D01*
X128957350Y-70357336D01*
X128960105Y-70347058D01*
X128960105Y-69408203D01*
X128959889Y-69403586D01*
X128957817Y-69381482D01*
X128955266Y-69369802D01*
X128914902Y-69254448D01*
X128908044Y-69241473D01*
X128836307Y-69144273D01*
X128825923Y-69133889D01*
X128728723Y-69062152D01*
X128715748Y-69055294D01*
X128600396Y-69014931D01*
X128588713Y-69012379D01*
X128566605Y-69010306D01*
X128561998Y-69010091D01*
X128398139Y-69010091D01*
X128387860Y-69012845D01*
X128385106Y-69023124D01*
X128385106Y-70347058D01*
X127985106Y-70347058D01*
X127985106Y-69023125D01*
X127982351Y-69012846D01*
X127972073Y-69010092D01*
X127808218Y-69010092D01*
X127803601Y-69010307D01*
X127781497Y-69012379D01*
X127769817Y-69014930D01*
X127654460Y-69055295D01*
X127645260Y-69060158D01*
X127596223Y-69071592D01*
X127547906Y-69057427D01*
X127512804Y-69021327D01*
X127500000Y-68972631D01*
X127500000Y-68847551D01*
X127512804Y-68798855D01*
X127547906Y-68762755D01*
X127596224Y-68748590D01*
X127645260Y-68760024D01*
X127654458Y-68764885D01*
X127769813Y-68805249D01*
X127781496Y-68807801D01*
X127803604Y-68809874D01*
X127808212Y-68810090D01*
X127972071Y-68810090D01*
X127982349Y-68807335D01*
X127985104Y-68797057D01*
X127985104Y-68797056D01*
X128385104Y-68797056D01*
X128387858Y-68807334D01*
X128398137Y-68810089D01*
X128561992Y-68810089D01*
X128566608Y-68809873D01*
X128588712Y-68807801D01*
X128600392Y-68805250D01*
X128715746Y-68764886D01*
X128728721Y-68758028D01*
X128825921Y-68686291D01*
X128836305Y-68675907D01*
X128908042Y-68578707D01*
X128914900Y-68565732D01*
X128955263Y-68450380D01*
X128957815Y-68438697D01*
X128959888Y-68416589D01*
X128960104Y-68411982D01*
X128960104Y-67473123D01*
X128957349Y-67462844D01*
X128947071Y-67460090D01*
X128398137Y-67460090D01*
X128387858Y-67462844D01*
X128385104Y-67473123D01*
X128385104Y-68797056D01*
X127985104Y-68797056D01*
X127985104Y-67047057D01*
X128385104Y-67047057D01*
X128387858Y-67057335D01*
X128398137Y-67060090D01*
X128947070Y-67060090D01*
X128957348Y-67057335D01*
X128960103Y-67047057D01*
X128960103Y-66108202D01*
X128959887Y-66103585D01*
X128957815Y-66081481D01*
X128955264Y-66069801D01*
X128914900Y-65954447D01*
X128908042Y-65941472D01*
X128836305Y-65844272D01*
X128825921Y-65833888D01*
X128728721Y-65762151D01*
X128715746Y-65755293D01*
X128600394Y-65714930D01*
X128588711Y-65712378D01*
X128566603Y-65710305D01*
X128561996Y-65710090D01*
X128398137Y-65710090D01*
X128387858Y-65712844D01*
X128385104Y-65723123D01*
X128385104Y-67047057D01*
X127985104Y-67047057D01*
X127985104Y-65723124D01*
X127982349Y-65712845D01*
X127972071Y-65710091D01*
X127808216Y-65710091D01*
X127803599Y-65710306D01*
X127781495Y-65712378D01*
X127769815Y-65714929D01*
X127654458Y-65755294D01*
X127645260Y-65760156D01*
X127596224Y-65771590D01*
X127547906Y-65757425D01*
X127512804Y-65721325D01*
X127500000Y-65672629D01*
X127500000Y-65147551D01*
X127512804Y-65098855D01*
X127547906Y-65062755D01*
X127596223Y-65048590D01*
X127645260Y-65060024D01*
X127654460Y-65064886D01*
X127769815Y-65105250D01*
X127781498Y-65107802D01*
X127803606Y-65109875D01*
X127808214Y-65110091D01*
X127972073Y-65110091D01*
X127982351Y-65107336D01*
X127985106Y-65097058D01*
X127985106Y-65097057D01*
X128385106Y-65097057D01*
X128387860Y-65107335D01*
X128398139Y-65110090D01*
X128561994Y-65110090D01*
X128566610Y-65109874D01*
X128588714Y-65107802D01*
X128600394Y-65105251D01*
X128715748Y-65064887D01*
X128728723Y-65058029D01*
X128825923Y-64986292D01*
X128836307Y-64975908D01*
X128908044Y-64878708D01*
X128914902Y-64865733D01*
X128955265Y-64750381D01*
X128957817Y-64738698D01*
X128959890Y-64716590D01*
X128960106Y-64711983D01*
X128960106Y-63773124D01*
X128957351Y-63762845D01*
X128947073Y-63760091D01*
X128398139Y-63760091D01*
X128387860Y-63762845D01*
X128385106Y-63773124D01*
X128385106Y-65097057D01*
X127985106Y-65097057D01*
X127985106Y-63459091D01*
X127998369Y-63409591D01*
X128034606Y-63373354D01*
X128084106Y-63360091D01*
X128947072Y-63360091D01*
X128957350Y-63357336D01*
X128960105Y-63347058D01*
X128960105Y-62408203D01*
X128959889Y-62403586D01*
X128957817Y-62381482D01*
X128955266Y-62369802D01*
X128914902Y-62254448D01*
X128908044Y-62241473D01*
X128846282Y-62157788D01*
X128827287Y-62107321D01*
X128837560Y-62054385D01*
X128874052Y-62014686D01*
X128925937Y-62000000D01*
X132401000Y-62000000D01*
X132450500Y-62013263D01*
G37*
%TD.AperFunction*%
%TD*%
%TA.AperFunction,Conductor*%
%TO.N,Net-(D2-K)*%
G36*
X115450500Y-41013263D02*
G01*
X115486737Y-41049500D01*
X115500000Y-41099000D01*
X115500000Y-47471607D01*
X115484952Y-47524077D01*
X110529081Y-55453470D01*
X110493121Y-55487590D01*
X110445129Y-55500000D01*
X106099000Y-55500000D01*
X106049500Y-55486737D01*
X106013263Y-55450500D01*
X106000000Y-55401000D01*
X106000000Y-54811979D01*
X107010107Y-54811979D01*
X107010322Y-54816595D01*
X107012394Y-54838699D01*
X107014945Y-54850379D01*
X107055309Y-54965733D01*
X107062167Y-54978708D01*
X107133904Y-55075908D01*
X107144288Y-55086292D01*
X107241488Y-55158029D01*
X107254463Y-55164887D01*
X107369815Y-55205250D01*
X107381498Y-55207802D01*
X107403606Y-55209875D01*
X107408214Y-55210091D01*
X107897073Y-55210091D01*
X107907351Y-55207336D01*
X107910106Y-55197058D01*
X107910106Y-55197057D01*
X108310106Y-55197057D01*
X108312860Y-55207335D01*
X108323139Y-55210090D01*
X108811994Y-55210090D01*
X108816610Y-55209874D01*
X108838714Y-55207802D01*
X108850394Y-55205251D01*
X108965748Y-55164887D01*
X108978723Y-55158029D01*
X109075923Y-55086292D01*
X109086307Y-55075908D01*
X109158044Y-54978708D01*
X109164902Y-54965733D01*
X109205265Y-54850381D01*
X109207817Y-54838698D01*
X109209890Y-54816590D01*
X109210106Y-54811983D01*
X109210106Y-53973124D01*
X109207351Y-53962845D01*
X109197073Y-53960091D01*
X108323139Y-53960091D01*
X108312860Y-53962845D01*
X108310106Y-53973124D01*
X108310106Y-55197057D01*
X107910106Y-55197057D01*
X107910106Y-53973124D01*
X107907351Y-53962845D01*
X107897073Y-53960091D01*
X107023140Y-53960091D01*
X107012861Y-53962845D01*
X107010107Y-53973124D01*
X107010107Y-54811979D01*
X106000000Y-54811979D01*
X106000000Y-53547058D01*
X107010106Y-53547058D01*
X107012860Y-53557336D01*
X107023139Y-53560091D01*
X107897073Y-53560091D01*
X107907351Y-53557336D01*
X107910106Y-53547058D01*
X108310106Y-53547058D01*
X108312860Y-53557336D01*
X108323139Y-53560091D01*
X109197072Y-53560091D01*
X109207350Y-53557336D01*
X109210105Y-53547058D01*
X109210105Y-52708203D01*
X109209889Y-52703586D01*
X109207817Y-52681482D01*
X109205266Y-52669802D01*
X109164902Y-52554448D01*
X109158044Y-52541473D01*
X109086307Y-52444273D01*
X109075923Y-52433889D01*
X108978723Y-52362152D01*
X108965748Y-52355294D01*
X108850396Y-52314931D01*
X108838713Y-52312379D01*
X108816605Y-52310306D01*
X108811998Y-52310091D01*
X108323139Y-52310091D01*
X108312860Y-52312845D01*
X108310106Y-52323124D01*
X108310106Y-53547058D01*
X107910106Y-53547058D01*
X107910106Y-52323125D01*
X107907351Y-52312846D01*
X107897073Y-52310092D01*
X107408218Y-52310092D01*
X107403601Y-52310307D01*
X107381497Y-52312379D01*
X107369817Y-52314930D01*
X107254463Y-52355294D01*
X107241488Y-52362152D01*
X107144288Y-52433889D01*
X107133904Y-52444273D01*
X107062167Y-52541473D01*
X107055309Y-52554448D01*
X107014946Y-52669800D01*
X107012394Y-52681483D01*
X107010321Y-52703591D01*
X107010106Y-52708199D01*
X107010106Y-53547058D01*
X106000000Y-53547058D01*
X106000000Y-51599000D01*
X106013263Y-51549500D01*
X106049500Y-51513263D01*
X106099000Y-51500000D01*
X108487776Y-51500000D01*
X108500000Y-51500000D01*
X111500000Y-47000000D01*
X111500000Y-45379393D01*
X112300000Y-45379393D01*
X112300215Y-45384000D01*
X112302288Y-45406108D01*
X112304840Y-45417791D01*
X112345203Y-45533143D01*
X112352061Y-45546118D01*
X112423798Y-45643319D01*
X112434180Y-45653701D01*
X112531381Y-45725438D01*
X112544356Y-45732296D01*
X112659708Y-45772659D01*
X112671391Y-45775211D01*
X112693499Y-45777284D01*
X112698107Y-45777500D01*
X113326967Y-45777500D01*
X113337245Y-45774745D01*
X113340000Y-45764467D01*
X113740000Y-45764467D01*
X113742754Y-45774745D01*
X113753033Y-45777500D01*
X114381893Y-45777500D01*
X114386500Y-45777284D01*
X114408608Y-45775211D01*
X114420291Y-45772659D01*
X114535643Y-45732296D01*
X114548618Y-45725438D01*
X114645819Y-45653701D01*
X114656201Y-45643319D01*
X114727938Y-45546118D01*
X114734796Y-45533143D01*
X114775159Y-45417791D01*
X114777711Y-45406108D01*
X114779784Y-45384000D01*
X114780000Y-45379393D01*
X114780000Y-43990533D01*
X114777245Y-43980254D01*
X114766967Y-43977500D01*
X113753033Y-43977500D01*
X113742754Y-43980254D01*
X113740000Y-43990533D01*
X113740000Y-45764467D01*
X113340000Y-45764467D01*
X113340000Y-43990533D01*
X113337245Y-43980254D01*
X113326967Y-43977500D01*
X112313033Y-43977500D01*
X112302754Y-43980254D01*
X112300000Y-43990533D01*
X112300000Y-45379393D01*
X111500000Y-45379393D01*
X111500000Y-43564467D01*
X112300000Y-43564467D01*
X112302754Y-43574745D01*
X112313033Y-43577500D01*
X113326967Y-43577500D01*
X113337245Y-43574745D01*
X113340000Y-43564467D01*
X113740000Y-43564467D01*
X113742754Y-43574745D01*
X113753033Y-43577500D01*
X114766967Y-43577500D01*
X114777245Y-43574745D01*
X114780000Y-43564467D01*
X114780000Y-42175607D01*
X114779784Y-42170999D01*
X114777711Y-42148891D01*
X114775159Y-42137208D01*
X114734796Y-42021856D01*
X114727938Y-42008881D01*
X114656201Y-41911680D01*
X114645819Y-41901298D01*
X114548618Y-41829561D01*
X114535643Y-41822703D01*
X114420291Y-41782340D01*
X114408608Y-41779788D01*
X114386500Y-41777715D01*
X114381893Y-41777500D01*
X113753033Y-41777500D01*
X113742754Y-41780254D01*
X113740000Y-41790533D01*
X113740000Y-43564467D01*
X113340000Y-43564467D01*
X113340000Y-41790533D01*
X113337245Y-41780254D01*
X113326967Y-41777500D01*
X112698107Y-41777500D01*
X112693499Y-41777715D01*
X112671391Y-41779788D01*
X112659708Y-41782340D01*
X112544356Y-41822703D01*
X112531381Y-41829561D01*
X112434180Y-41901298D01*
X112423798Y-41911680D01*
X112352061Y-42008881D01*
X112345203Y-42021856D01*
X112304840Y-42137208D01*
X112302288Y-42148891D01*
X112300215Y-42170999D01*
X112300000Y-42175607D01*
X112300000Y-43564467D01*
X111500000Y-43564467D01*
X111500000Y-41099000D01*
X111513263Y-41049500D01*
X111549500Y-41013263D01*
X111599000Y-41000000D01*
X115401000Y-41000000D01*
X115450500Y-41013263D01*
G37*
%TD.AperFunction*%
%TD*%
%TA.AperFunction,Conductor*%
%TO.N,+5V*%
G36*
X145950500Y-44513263D02*
G01*
X145986737Y-44549500D01*
X146000000Y-44599000D01*
X146000000Y-48557009D01*
X145993156Y-48593178D01*
X145941844Y-48723916D01*
X145941840Y-48723926D01*
X145940492Y-48727363D01*
X145939669Y-48730965D01*
X145939669Y-48730968D01*
X145884602Y-48972229D01*
X145884600Y-48972240D01*
X145883778Y-48975843D01*
X145883501Y-48979529D01*
X145883500Y-48979541D01*
X145875766Y-49082754D01*
X145864732Y-49230000D01*
X145865009Y-49233696D01*
X145883500Y-49480458D01*
X145883501Y-49480468D01*
X145883778Y-49484157D01*
X145884600Y-49487761D01*
X145884602Y-49487770D01*
X145932694Y-49698473D01*
X145940492Y-49732637D01*
X145941842Y-49736077D01*
X145941844Y-49736083D01*
X145993156Y-49866822D01*
X146000000Y-49902991D01*
X146000000Y-55401000D01*
X145986737Y-55450500D01*
X145950500Y-55486737D01*
X145901000Y-55500000D01*
X138500000Y-55500000D01*
X138493084Y-55509220D01*
X138493084Y-55509221D01*
X134029700Y-61460400D01*
X133994774Y-61489548D01*
X133950500Y-61500000D01*
X127000000Y-61500000D01*
X127000000Y-61513033D01*
X127000000Y-72401000D01*
X126986737Y-72450500D01*
X126950500Y-72486737D01*
X126901000Y-72500000D01*
X125500000Y-72500000D01*
X125500000Y-72513033D01*
X125500000Y-73314795D01*
X125485413Y-73366520D01*
X125445949Y-73403002D01*
X125393240Y-73413490D01*
X125353861Y-73398966D01*
X125352952Y-73400751D01*
X125241703Y-73344067D01*
X125227068Y-73339312D01*
X125140551Y-73325609D01*
X125132813Y-73325000D01*
X125098032Y-73325000D01*
X125087753Y-73327754D01*
X125084999Y-73338033D01*
X125084999Y-74661966D01*
X125087753Y-74672244D01*
X125098032Y-74674999D01*
X125132811Y-74674999D01*
X125140553Y-74674389D01*
X125227069Y-74660687D01*
X125241702Y-74655933D01*
X125352952Y-74599249D01*
X125353861Y-74601033D01*
X125393240Y-74586510D01*
X125445949Y-74596998D01*
X125485413Y-74633480D01*
X125500000Y-74685205D01*
X125500000Y-74901000D01*
X125486737Y-74950500D01*
X125450500Y-74986737D01*
X125401000Y-75000000D01*
X121000000Y-75000000D01*
X121000000Y-74285312D01*
X124247500Y-74285312D01*
X124248109Y-74293054D01*
X124261811Y-74379570D01*
X124266565Y-74394203D01*
X124319714Y-74498513D01*
X124328756Y-74510959D01*
X124411539Y-74593742D01*
X124423985Y-74602784D01*
X124528294Y-74655932D01*
X124542929Y-74660687D01*
X124629446Y-74674390D01*
X124637185Y-74675000D01*
X124671966Y-74675000D01*
X124682244Y-74672245D01*
X124684999Y-74661967D01*
X124684999Y-74213033D01*
X124682244Y-74202754D01*
X124671966Y-74200000D01*
X124260533Y-74200000D01*
X124250254Y-74202754D01*
X124247500Y-74213033D01*
X124247500Y-74285312D01*
X121000000Y-74285312D01*
X121000000Y-73786967D01*
X124247499Y-73786967D01*
X124250253Y-73797245D01*
X124260532Y-73800000D01*
X124671966Y-73800000D01*
X124682244Y-73797245D01*
X124684999Y-73786967D01*
X124684999Y-73338034D01*
X124682244Y-73327755D01*
X124671966Y-73325001D01*
X124637187Y-73325001D01*
X124629444Y-73325610D01*
X124542928Y-73339312D01*
X124528295Y-73344066D01*
X124423985Y-73397215D01*
X124411539Y-73406257D01*
X124328756Y-73489040D01*
X124319714Y-73501486D01*
X124266566Y-73605795D01*
X124261811Y-73620430D01*
X124248108Y-73706947D01*
X124247499Y-73714686D01*
X124247499Y-73786967D01*
X121000000Y-73786967D01*
X121000000Y-73200000D01*
X121246967Y-73200000D01*
X121257245Y-73197245D01*
X121260000Y-73186967D01*
X121660000Y-73186967D01*
X121662754Y-73197245D01*
X121673033Y-73200000D01*
X122474840Y-73200000D01*
X122484461Y-73199052D01*
X122528473Y-73190298D01*
X122546142Y-73182979D01*
X122596082Y-73149610D01*
X122609610Y-73136082D01*
X122642979Y-73086142D01*
X122650298Y-73068473D01*
X122659052Y-73024461D01*
X122660000Y-73014840D01*
X122660000Y-72213033D01*
X122657245Y-72202754D01*
X122646967Y-72200000D01*
X121673033Y-72200000D01*
X121662754Y-72202754D01*
X121660000Y-72213033D01*
X121660000Y-73186967D01*
X121260000Y-73186967D01*
X121260000Y-72213033D01*
X121257245Y-72202754D01*
X121246967Y-72200000D01*
X121000000Y-72200000D01*
X121000000Y-71800000D01*
X121246967Y-71800000D01*
X121257245Y-71797245D01*
X121260000Y-71786967D01*
X121660000Y-71786967D01*
X121662754Y-71797245D01*
X121673033Y-71800000D01*
X122646967Y-71800000D01*
X122657245Y-71797245D01*
X122660000Y-71786967D01*
X122660000Y-71711979D01*
X124460107Y-71711979D01*
X124460322Y-71716595D01*
X124462394Y-71738699D01*
X124464945Y-71750379D01*
X124505309Y-71865733D01*
X124512167Y-71878708D01*
X124583904Y-71975908D01*
X124594288Y-71986292D01*
X124691488Y-72058029D01*
X124704463Y-72064887D01*
X124819815Y-72105250D01*
X124831498Y-72107802D01*
X124853606Y-72109875D01*
X124858214Y-72110091D01*
X125022073Y-72110091D01*
X125032351Y-72107336D01*
X125035106Y-72097058D01*
X125035106Y-72097057D01*
X125435106Y-72097057D01*
X125437860Y-72107335D01*
X125448139Y-72110090D01*
X125611994Y-72110090D01*
X125616610Y-72109874D01*
X125638714Y-72107802D01*
X125650394Y-72105251D01*
X125765748Y-72064887D01*
X125778723Y-72058029D01*
X125875923Y-71986292D01*
X125886307Y-71975908D01*
X125958044Y-71878708D01*
X125964902Y-71865733D01*
X126005265Y-71750381D01*
X126007817Y-71738698D01*
X126009890Y-71716590D01*
X126010106Y-71711983D01*
X126010106Y-70773124D01*
X126007351Y-70762845D01*
X125997073Y-70760091D01*
X125448139Y-70760091D01*
X125437860Y-70762845D01*
X125435106Y-70773124D01*
X125435106Y-72097057D01*
X125035106Y-72097057D01*
X125035106Y-70773124D01*
X125032351Y-70762845D01*
X125022073Y-70760091D01*
X124473140Y-70760091D01*
X124462861Y-70762845D01*
X124460107Y-70773124D01*
X124460107Y-71711979D01*
X122660000Y-71711979D01*
X122660000Y-70985160D01*
X122659052Y-70975538D01*
X122650298Y-70931526D01*
X122642979Y-70913857D01*
X122609610Y-70863917D01*
X122596082Y-70850389D01*
X122546142Y-70817020D01*
X122528473Y-70809701D01*
X122484461Y-70800947D01*
X122474840Y-70800000D01*
X121673033Y-70800000D01*
X121662754Y-70802754D01*
X121660000Y-70813033D01*
X121660000Y-71786967D01*
X121260000Y-71786967D01*
X121260000Y-70813033D01*
X121257245Y-70802754D01*
X121246967Y-70800000D01*
X121000000Y-70800000D01*
X121000000Y-70347058D01*
X124460106Y-70347058D01*
X124462860Y-70357336D01*
X124473139Y-70360091D01*
X125022073Y-70360091D01*
X125032351Y-70357336D01*
X125035106Y-70347058D01*
X125435106Y-70347058D01*
X125437860Y-70357336D01*
X125448139Y-70360091D01*
X125997072Y-70360091D01*
X126007350Y-70357336D01*
X126010105Y-70347058D01*
X126010105Y-69408203D01*
X126009889Y-69403586D01*
X126007817Y-69381482D01*
X126005266Y-69369802D01*
X125964902Y-69254448D01*
X125958044Y-69241473D01*
X125886307Y-69144273D01*
X125875923Y-69133889D01*
X125778723Y-69062152D01*
X125765748Y-69055294D01*
X125650396Y-69014931D01*
X125638713Y-69012379D01*
X125616605Y-69010306D01*
X125611998Y-69010091D01*
X125448139Y-69010091D01*
X125437860Y-69012845D01*
X125435106Y-69023124D01*
X125435106Y-70347058D01*
X125035106Y-70347058D01*
X125035106Y-69023125D01*
X125032351Y-69012846D01*
X125022073Y-69010092D01*
X124858218Y-69010092D01*
X124853601Y-69010307D01*
X124831497Y-69012379D01*
X124819817Y-69014930D01*
X124704463Y-69055294D01*
X124691488Y-69062152D01*
X124594288Y-69133889D01*
X124583904Y-69144273D01*
X124512167Y-69241473D01*
X124505309Y-69254448D01*
X124464946Y-69369800D01*
X124462394Y-69381483D01*
X124460321Y-69403591D01*
X124460106Y-69408199D01*
X124460106Y-70347058D01*
X121000000Y-70347058D01*
X121000000Y-70000000D01*
X120000000Y-70000000D01*
X120000000Y-68411978D01*
X124460105Y-68411978D01*
X124460320Y-68416594D01*
X124462392Y-68438698D01*
X124464943Y-68450378D01*
X124505307Y-68565732D01*
X124512165Y-68578707D01*
X124583902Y-68675907D01*
X124594286Y-68686291D01*
X124691486Y-68758028D01*
X124704461Y-68764886D01*
X124819813Y-68805249D01*
X124831496Y-68807801D01*
X124853604Y-68809874D01*
X124858212Y-68810090D01*
X125022071Y-68810090D01*
X125032349Y-68807335D01*
X125035104Y-68797057D01*
X125035104Y-68797056D01*
X125435104Y-68797056D01*
X125437858Y-68807334D01*
X125448137Y-68810089D01*
X125611992Y-68810089D01*
X125616608Y-68809873D01*
X125638712Y-68807801D01*
X125650392Y-68805250D01*
X125765746Y-68764886D01*
X125778721Y-68758028D01*
X125875921Y-68686291D01*
X125886305Y-68675907D01*
X125958042Y-68578707D01*
X125964900Y-68565732D01*
X126005263Y-68450380D01*
X126007815Y-68438697D01*
X126009888Y-68416589D01*
X126010104Y-68411982D01*
X126010104Y-67473123D01*
X126007349Y-67462844D01*
X125997071Y-67460090D01*
X125448137Y-67460090D01*
X125437858Y-67462844D01*
X125435104Y-67473123D01*
X125435104Y-68797056D01*
X125035104Y-68797056D01*
X125035104Y-67473123D01*
X125032349Y-67462844D01*
X125022071Y-67460090D01*
X124473138Y-67460090D01*
X124462859Y-67462844D01*
X124460105Y-67473123D01*
X124460105Y-68411978D01*
X120000000Y-68411978D01*
X120000000Y-67524931D01*
X121060106Y-67524931D01*
X121061053Y-67534552D01*
X121069807Y-67578564D01*
X121077126Y-67596233D01*
X121110495Y-67646173D01*
X121124023Y-67659701D01*
X121173963Y-67693070D01*
X121191632Y-67700389D01*
X121235644Y-67709143D01*
X121245266Y-67710091D01*
X122222073Y-67710091D01*
X122232351Y-67707336D01*
X122235106Y-67697058D01*
X122635106Y-67697058D01*
X122637860Y-67707336D01*
X122648139Y-67710091D01*
X123624946Y-67710091D01*
X123634567Y-67709143D01*
X123678579Y-67700389D01*
X123696248Y-67693070D01*
X123746188Y-67659701D01*
X123759716Y-67646173D01*
X123793085Y-67596233D01*
X123800404Y-67578564D01*
X123809158Y-67534552D01*
X123810106Y-67524931D01*
X123810106Y-67047057D01*
X124460104Y-67047057D01*
X124462858Y-67057335D01*
X124473137Y-67060090D01*
X125022071Y-67060090D01*
X125032349Y-67057335D01*
X125035104Y-67047057D01*
X125435104Y-67047057D01*
X125437858Y-67057335D01*
X125448137Y-67060090D01*
X125997070Y-67060090D01*
X126007348Y-67057335D01*
X126010103Y-67047057D01*
X126010103Y-66108202D01*
X126009887Y-66103585D01*
X126007815Y-66081481D01*
X126005264Y-66069801D01*
X125964900Y-65954447D01*
X125958042Y-65941472D01*
X125886305Y-65844272D01*
X125875921Y-65833888D01*
X125778721Y-65762151D01*
X125765746Y-65755293D01*
X125650394Y-65714930D01*
X125638711Y-65712378D01*
X125616603Y-65710305D01*
X125611996Y-65710090D01*
X125448137Y-65710090D01*
X125437858Y-65712844D01*
X125435104Y-65723123D01*
X125435104Y-67047057D01*
X125035104Y-67047057D01*
X125035104Y-65723124D01*
X125032349Y-65712845D01*
X125022071Y-65710091D01*
X124858216Y-65710091D01*
X124853599Y-65710306D01*
X124831495Y-65712378D01*
X124819815Y-65714929D01*
X124704461Y-65755293D01*
X124691486Y-65762151D01*
X124594286Y-65833888D01*
X124583902Y-65844272D01*
X124512165Y-65941472D01*
X124505307Y-65954447D01*
X124464944Y-66069799D01*
X124462392Y-66081482D01*
X124460319Y-66103590D01*
X124460104Y-66108198D01*
X124460104Y-67047057D01*
X123810106Y-67047057D01*
X123810106Y-65973124D01*
X123807351Y-65962845D01*
X123797073Y-65960091D01*
X122648139Y-65960091D01*
X122637860Y-65962845D01*
X122635106Y-65973124D01*
X122635106Y-67697058D01*
X122235106Y-67697058D01*
X122235106Y-65973124D01*
X122232351Y-65962845D01*
X122222073Y-65960091D01*
X121073139Y-65960091D01*
X121062860Y-65962845D01*
X121060106Y-65973124D01*
X121060106Y-67524931D01*
X120000000Y-67524931D01*
X120000000Y-65547058D01*
X121060106Y-65547058D01*
X121062860Y-65557336D01*
X121073139Y-65560091D01*
X122222073Y-65560091D01*
X122232351Y-65557336D01*
X122235106Y-65547058D01*
X122635106Y-65547058D01*
X122637860Y-65557336D01*
X122648139Y-65560091D01*
X123797073Y-65560091D01*
X123807351Y-65557336D01*
X123810106Y-65547058D01*
X123810106Y-64711979D01*
X124460107Y-64711979D01*
X124460322Y-64716595D01*
X124462394Y-64738699D01*
X124464945Y-64750379D01*
X124505309Y-64865733D01*
X124512167Y-64878708D01*
X124583904Y-64975908D01*
X124594288Y-64986292D01*
X124691488Y-65058029D01*
X124704463Y-65064887D01*
X124819815Y-65105250D01*
X124831498Y-65107802D01*
X124853606Y-65109875D01*
X124858214Y-65110091D01*
X125022073Y-65110091D01*
X125032351Y-65107336D01*
X125035106Y-65097058D01*
X125035106Y-65097057D01*
X125435106Y-65097057D01*
X125437860Y-65107335D01*
X125448139Y-65110090D01*
X125611994Y-65110090D01*
X125616610Y-65109874D01*
X125638714Y-65107802D01*
X125650394Y-65105251D01*
X125765748Y-65064887D01*
X125778723Y-65058029D01*
X125875923Y-64986292D01*
X125886307Y-64975908D01*
X125958044Y-64878708D01*
X125964902Y-64865733D01*
X126005265Y-64750381D01*
X126007817Y-64738698D01*
X126009890Y-64716590D01*
X126010106Y-64711983D01*
X126010106Y-63773124D01*
X126007351Y-63762845D01*
X125997073Y-63760091D01*
X125448139Y-63760091D01*
X125437860Y-63762845D01*
X125435106Y-63773124D01*
X125435106Y-65097057D01*
X125035106Y-65097057D01*
X125035106Y-63773124D01*
X125032351Y-63762845D01*
X125022073Y-63760091D01*
X124473140Y-63760091D01*
X124462861Y-63762845D01*
X124460107Y-63773124D01*
X124460107Y-64711979D01*
X123810106Y-64711979D01*
X123810106Y-63995251D01*
X123809158Y-63985629D01*
X123800404Y-63941617D01*
X123793085Y-63923948D01*
X123759716Y-63874008D01*
X123746188Y-63860480D01*
X123696248Y-63827111D01*
X123678579Y-63819792D01*
X123634567Y-63811038D01*
X123624946Y-63810091D01*
X122648139Y-63810091D01*
X122637860Y-63812845D01*
X122635106Y-63823124D01*
X122635106Y-65547058D01*
X122235106Y-65547058D01*
X122235106Y-63823124D01*
X122232351Y-63812845D01*
X122222073Y-63810091D01*
X121245266Y-63810091D01*
X121235644Y-63811038D01*
X121191632Y-63819792D01*
X121173963Y-63827111D01*
X121124023Y-63860480D01*
X121110495Y-63874008D01*
X121077126Y-63923948D01*
X121069807Y-63941617D01*
X121061053Y-63985629D01*
X121060106Y-63995251D01*
X121060106Y-65547058D01*
X120000000Y-65547058D01*
X120000000Y-63347058D01*
X124460106Y-63347058D01*
X124462860Y-63357336D01*
X124473139Y-63360091D01*
X125022073Y-63360091D01*
X125032351Y-63357336D01*
X125035106Y-63347058D01*
X125435106Y-63347058D01*
X125437860Y-63357336D01*
X125448139Y-63360091D01*
X125997072Y-63360091D01*
X126007350Y-63357336D01*
X126010105Y-63347058D01*
X126010105Y-62408203D01*
X126009889Y-62403586D01*
X126007817Y-62381482D01*
X126005266Y-62369802D01*
X125964902Y-62254448D01*
X125958044Y-62241473D01*
X125886307Y-62144273D01*
X125875923Y-62133889D01*
X125778723Y-62062152D01*
X125765748Y-62055294D01*
X125650396Y-62014931D01*
X125638713Y-62012379D01*
X125616605Y-62010306D01*
X125611998Y-62010091D01*
X125448139Y-62010091D01*
X125437860Y-62012845D01*
X125435106Y-62023124D01*
X125435106Y-63347058D01*
X125035106Y-63347058D01*
X125035106Y-62023125D01*
X125032351Y-62012846D01*
X125022073Y-62010092D01*
X124858218Y-62010092D01*
X124853601Y-62010307D01*
X124831497Y-62012379D01*
X124819817Y-62014930D01*
X124704463Y-62055294D01*
X124691488Y-62062152D01*
X124594288Y-62133889D01*
X124583904Y-62144273D01*
X124512167Y-62241473D01*
X124505309Y-62254448D01*
X124464946Y-62369800D01*
X124462394Y-62381483D01*
X124460321Y-62403591D01*
X124460106Y-62408199D01*
X124460106Y-63347058D01*
X120000000Y-63347058D01*
X120000000Y-62099000D01*
X120013263Y-62049500D01*
X120049500Y-62013263D01*
X120099000Y-62000000D01*
X121486967Y-62000000D01*
X121500000Y-62000000D01*
X121500000Y-61189645D01*
X122335105Y-61189645D01*
X122335714Y-61197387D01*
X122349647Y-61285364D01*
X122354401Y-61299996D01*
X122408450Y-61406072D01*
X122417492Y-61418518D01*
X122501674Y-61502700D01*
X122514120Y-61511742D01*
X122620194Y-61565790D01*
X122634829Y-61570545D01*
X122722806Y-61584479D01*
X122730546Y-61585089D01*
X122797071Y-61585089D01*
X122807349Y-61582334D01*
X122810104Y-61572056D01*
X122810104Y-61572055D01*
X123210104Y-61572055D01*
X123212858Y-61582333D01*
X123223137Y-61585088D01*
X123289660Y-61585088D01*
X123297402Y-61584478D01*
X123385379Y-61570545D01*
X123400011Y-61565791D01*
X123506087Y-61511742D01*
X123518533Y-61502700D01*
X123602715Y-61418518D01*
X123611757Y-61406072D01*
X123665805Y-61299998D01*
X123670560Y-61285363D01*
X123682072Y-61212676D01*
X124335107Y-61212676D01*
X124335716Y-61220420D01*
X124348721Y-61302539D01*
X124353478Y-61317182D01*
X124403929Y-61416196D01*
X124412971Y-61428642D01*
X124491554Y-61507225D01*
X124504000Y-61516267D01*
X124603017Y-61566719D01*
X124617652Y-61571474D01*
X124699778Y-61584481D01*
X124707518Y-61585091D01*
X124797073Y-61585091D01*
X124807351Y-61582336D01*
X124810106Y-61572058D01*
X124810106Y-61572057D01*
X125210106Y-61572057D01*
X125212860Y-61582335D01*
X125223139Y-61585090D01*
X125312691Y-61585090D01*
X125320435Y-61584480D01*
X125402554Y-61571475D01*
X125417197Y-61566718D01*
X125516211Y-61516267D01*
X125528657Y-61507225D01*
X125607240Y-61428642D01*
X125616282Y-61416196D01*
X125666734Y-61317179D01*
X125671489Y-61302544D01*
X125684496Y-61220418D01*
X125685106Y-61212679D01*
X125685106Y-61198124D01*
X125682351Y-61187845D01*
X125672073Y-61185091D01*
X125223139Y-61185091D01*
X125212860Y-61187845D01*
X125210106Y-61198124D01*
X125210106Y-61572057D01*
X124810106Y-61572057D01*
X124810106Y-61198124D01*
X124807351Y-61187845D01*
X124797073Y-61185091D01*
X124348140Y-61185091D01*
X124337861Y-61187845D01*
X124335107Y-61198124D01*
X124335107Y-61212676D01*
X123682072Y-61212676D01*
X123684494Y-61197386D01*
X123685104Y-61189647D01*
X123685104Y-61148122D01*
X123682349Y-61137843D01*
X123672071Y-61135089D01*
X123223137Y-61135089D01*
X123212858Y-61137843D01*
X123210104Y-61148122D01*
X123210104Y-61572055D01*
X122810104Y-61572055D01*
X122810104Y-61148122D01*
X122807349Y-61137843D01*
X122797071Y-61135089D01*
X122348138Y-61135089D01*
X122337859Y-61137843D01*
X122335105Y-61148122D01*
X122335105Y-61189645D01*
X121500000Y-61189645D01*
X121500000Y-60772058D01*
X124335106Y-60772058D01*
X124337860Y-60782336D01*
X124348139Y-60785091D01*
X124797073Y-60785091D01*
X124807351Y-60782336D01*
X124810106Y-60772058D01*
X125210106Y-60772058D01*
X125212860Y-60782336D01*
X125223139Y-60785091D01*
X125672072Y-60785091D01*
X125682350Y-60782336D01*
X125685105Y-60772058D01*
X125685105Y-60757506D01*
X125684495Y-60749761D01*
X125671490Y-60667642D01*
X125666733Y-60652999D01*
X125616282Y-60553985D01*
X125607240Y-60541539D01*
X125528657Y-60462956D01*
X125516211Y-60453914D01*
X125417194Y-60403462D01*
X125402559Y-60398707D01*
X125320433Y-60385700D01*
X125312694Y-60385091D01*
X125223139Y-60385091D01*
X125212860Y-60387845D01*
X125210106Y-60398124D01*
X125210106Y-60772058D01*
X124810106Y-60772058D01*
X124810106Y-60398125D01*
X124807351Y-60387846D01*
X124797073Y-60385092D01*
X124707521Y-60385092D01*
X124699776Y-60385701D01*
X124617657Y-60398706D01*
X124603014Y-60403463D01*
X124504000Y-60453914D01*
X124491554Y-60462956D01*
X124412971Y-60541539D01*
X124403929Y-60553985D01*
X124353477Y-60653002D01*
X124348722Y-60667637D01*
X124335715Y-60749763D01*
X124335106Y-60757503D01*
X124335106Y-60772058D01*
X121500000Y-60772058D01*
X121500000Y-60722056D01*
X122335104Y-60722056D01*
X122337858Y-60732334D01*
X122348137Y-60735089D01*
X122797071Y-60735089D01*
X122807349Y-60732334D01*
X122810104Y-60722056D01*
X123210104Y-60722056D01*
X123212858Y-60732334D01*
X123223137Y-60735089D01*
X123672070Y-60735089D01*
X123682348Y-60732334D01*
X123685103Y-60722056D01*
X123685103Y-60680533D01*
X123684493Y-60672790D01*
X123670560Y-60584813D01*
X123665806Y-60570181D01*
X123611757Y-60464105D01*
X123602715Y-60451659D01*
X123518533Y-60367477D01*
X123506087Y-60358435D01*
X123400013Y-60304387D01*
X123385378Y-60299632D01*
X123297401Y-60285698D01*
X123289662Y-60285089D01*
X123223137Y-60285089D01*
X123212858Y-60287843D01*
X123210104Y-60298122D01*
X123210104Y-60722056D01*
X122810104Y-60722056D01*
X122810104Y-60298123D01*
X122807349Y-60287844D01*
X122797071Y-60285090D01*
X122730548Y-60285090D01*
X122722805Y-60285699D01*
X122634828Y-60299632D01*
X122620196Y-60304386D01*
X122514120Y-60358435D01*
X122501674Y-60367477D01*
X122417492Y-60451659D01*
X122408450Y-60464105D01*
X122354402Y-60570179D01*
X122349647Y-60584814D01*
X122335713Y-60672791D01*
X122335104Y-60680531D01*
X122335104Y-60722056D01*
X121500000Y-60722056D01*
X121500000Y-60455929D01*
X121507536Y-60418043D01*
X121528996Y-60385925D01*
X121811161Y-60103760D01*
X121843279Y-60082300D01*
X121881165Y-60074764D01*
X122776570Y-60074764D01*
X122784362Y-60074764D01*
X122807314Y-60067306D01*
X122822397Y-60063684D01*
X122846233Y-60059910D01*
X122867730Y-60048955D01*
X122882078Y-60043013D01*
X122888142Y-60041042D01*
X122890030Y-60040430D01*
X122920610Y-60035589D01*
X123289699Y-60035589D01*
X123293592Y-60035589D01*
X123393230Y-60019808D01*
X123410930Y-60010789D01*
X123455872Y-60000000D01*
X125986967Y-60000000D01*
X126000000Y-60000000D01*
X126000000Y-59117506D01*
X126007536Y-59079620D01*
X126028996Y-59047502D01*
X126547501Y-58528996D01*
X126579619Y-58507536D01*
X126617505Y-58500000D01*
X130988625Y-58500000D01*
X131000000Y-58500000D01*
X135970277Y-52038639D01*
X136005015Y-52010183D01*
X136048748Y-52000000D01*
X142986967Y-52000000D01*
X143000000Y-52000000D01*
X143000000Y-49644840D01*
X143550000Y-49644840D01*
X143550947Y-49654461D01*
X143559701Y-49698473D01*
X143567020Y-49716142D01*
X143600389Y-49766082D01*
X143613917Y-49779610D01*
X143663857Y-49812979D01*
X143681526Y-49820298D01*
X143725538Y-49829052D01*
X143735160Y-49830000D01*
X144286967Y-49830000D01*
X144297245Y-49827245D01*
X144300000Y-49816967D01*
X144700000Y-49816967D01*
X144702754Y-49827245D01*
X144713033Y-49830000D01*
X145264840Y-49830000D01*
X145274461Y-49829052D01*
X145318473Y-49820298D01*
X145336142Y-49812979D01*
X145386082Y-49779610D01*
X145399610Y-49766082D01*
X145432979Y-49716142D01*
X145440298Y-49698473D01*
X145449052Y-49654461D01*
X145450000Y-49644840D01*
X145450000Y-49093033D01*
X145447245Y-49082754D01*
X145436967Y-49080000D01*
X144713033Y-49080000D01*
X144702754Y-49082754D01*
X144700000Y-49093033D01*
X144700000Y-49816967D01*
X144300000Y-49816967D01*
X144300000Y-49093033D01*
X144297245Y-49082754D01*
X144286967Y-49080000D01*
X143563033Y-49080000D01*
X143552754Y-49082754D01*
X143550000Y-49093033D01*
X143550000Y-49644840D01*
X143000000Y-49644840D01*
X143000000Y-48666967D01*
X143550000Y-48666967D01*
X143552754Y-48677245D01*
X143563033Y-48680000D01*
X144286967Y-48680000D01*
X144297245Y-48677245D01*
X144300000Y-48666967D01*
X144700000Y-48666967D01*
X144702754Y-48677245D01*
X144713033Y-48680000D01*
X145436967Y-48680000D01*
X145447245Y-48677245D01*
X145450000Y-48666967D01*
X145450000Y-48115160D01*
X145449052Y-48105538D01*
X145440298Y-48061526D01*
X145432979Y-48043857D01*
X145399610Y-47993917D01*
X145386082Y-47980389D01*
X145336142Y-47947020D01*
X145318473Y-47939701D01*
X145274461Y-47930947D01*
X145264840Y-47930000D01*
X144713033Y-47930000D01*
X144702754Y-47932754D01*
X144700000Y-47943033D01*
X144700000Y-48666967D01*
X144300000Y-48666967D01*
X144300000Y-47943033D01*
X144297245Y-47932754D01*
X144286967Y-47930000D01*
X143735160Y-47930000D01*
X143725538Y-47930947D01*
X143681526Y-47939701D01*
X143663857Y-47947020D01*
X143613917Y-47980389D01*
X143600389Y-47993917D01*
X143567020Y-48043857D01*
X143559701Y-48061526D01*
X143550947Y-48105538D01*
X143550000Y-48115160D01*
X143550000Y-48666967D01*
X143000000Y-48666967D01*
X143000000Y-47059642D01*
X143988116Y-47059642D01*
X143996024Y-47067813D01*
X144130399Y-47139638D01*
X144139348Y-47143345D01*
X144309110Y-47194842D01*
X144318609Y-47196731D01*
X144495157Y-47214120D01*
X144504843Y-47214120D01*
X144681390Y-47196731D01*
X144690889Y-47194842D01*
X144860646Y-47143346D01*
X144869602Y-47139637D01*
X145003976Y-47067812D01*
X145011882Y-47059643D01*
X145006688Y-47049531D01*
X144509214Y-46552057D01*
X144500000Y-46546737D01*
X144490785Y-46552057D01*
X143993310Y-47049531D01*
X143988116Y-47059642D01*
X143000000Y-47059642D01*
X143000000Y-46264843D01*
X143545880Y-46264843D01*
X143563268Y-46441390D01*
X143565157Y-46450889D01*
X143616654Y-46620651D01*
X143620361Y-46629600D01*
X143692185Y-46763974D01*
X143700356Y-46771882D01*
X143710467Y-46766688D01*
X144207942Y-46269214D01*
X144213262Y-46259999D01*
X144786737Y-46259999D01*
X144792057Y-46269214D01*
X145289531Y-46766688D01*
X145299643Y-46771882D01*
X145307812Y-46763976D01*
X145379637Y-46629602D01*
X145383346Y-46620646D01*
X145434842Y-46450889D01*
X145436731Y-46441390D01*
X145454120Y-46264843D01*
X145454120Y-46255157D01*
X145436731Y-46078609D01*
X145434842Y-46069110D01*
X145383345Y-45899348D01*
X145379638Y-45890399D01*
X145307813Y-45756024D01*
X145299642Y-45748116D01*
X145289531Y-45753310D01*
X144792057Y-46250785D01*
X144786737Y-46259999D01*
X144213262Y-46259999D01*
X144207942Y-46250785D01*
X143710467Y-45753310D01*
X143700356Y-45748116D01*
X143692185Y-45756023D01*
X143620361Y-45890399D01*
X143616654Y-45899348D01*
X143565157Y-46069110D01*
X143563268Y-46078609D01*
X143545880Y-46255157D01*
X143545880Y-46264843D01*
X143000000Y-46264843D01*
X143000000Y-45460356D01*
X143988116Y-45460356D01*
X143993310Y-45470467D01*
X144490785Y-45967942D01*
X144500000Y-45973262D01*
X144509214Y-45967942D01*
X145006688Y-45470467D01*
X145011882Y-45460356D01*
X145003974Y-45452185D01*
X144869600Y-45380361D01*
X144860651Y-45376654D01*
X144690889Y-45325157D01*
X144681390Y-45323268D01*
X144504843Y-45305880D01*
X144495157Y-45305880D01*
X144318609Y-45323268D01*
X144309110Y-45325157D01*
X144139348Y-45376654D01*
X144130399Y-45380361D01*
X143996023Y-45452185D01*
X143988116Y-45460356D01*
X143000000Y-45460356D01*
X143000000Y-44599000D01*
X143013263Y-44549500D01*
X143049500Y-44513263D01*
X143099000Y-44500000D01*
X145901000Y-44500000D01*
X145950500Y-44513263D01*
G37*
%TD.AperFunction*%
%TD*%
%TA.AperFunction,Conductor*%
%TO.N,GND*%
G36*
X110450500Y-39013263D02*
G01*
X110486737Y-39049500D01*
X110500000Y-39099000D01*
X110500000Y-46901000D01*
X110486737Y-46950500D01*
X110450500Y-46986737D01*
X110401000Y-47000000D01*
X100099000Y-47000000D01*
X100049500Y-46986737D01*
X100013263Y-46950500D01*
X100000000Y-46901000D01*
X100000000Y-44590964D01*
X107220000Y-44590964D01*
X107220199Y-44595406D01*
X107234597Y-44755371D01*
X107236180Y-44764095D01*
X107293191Y-44970674D01*
X107296305Y-44978973D01*
X107389291Y-45172058D01*
X107393834Y-45179663D01*
X107519806Y-45353048D01*
X107525628Y-45359712D01*
X107680535Y-45507818D01*
X107687456Y-45513338D01*
X107866315Y-45631401D01*
X107874119Y-45635600D01*
X108071176Y-45719827D01*
X108079610Y-45722567D01*
X108245452Y-45760419D01*
X108256681Y-45759578D01*
X108260000Y-45748818D01*
X108260000Y-45747566D01*
X108660000Y-45747566D01*
X108663102Y-45758183D01*
X108674035Y-45759831D01*
X108732640Y-45751893D01*
X108741261Y-45749925D01*
X108945098Y-45683695D01*
X108953233Y-45680217D01*
X109141955Y-45578662D01*
X109149351Y-45573779D01*
X109316905Y-45440159D01*
X109323306Y-45434039D01*
X109464311Y-45272647D01*
X109469514Y-45265486D01*
X109579436Y-45081507D01*
X109583280Y-45073522D01*
X109658581Y-44872884D01*
X109660939Y-44864342D01*
X109699206Y-44653472D01*
X109700000Y-44644660D01*
X109700000Y-43990533D01*
X109697245Y-43980254D01*
X109686967Y-43977500D01*
X108673033Y-43977500D01*
X108662754Y-43980254D01*
X108660000Y-43990533D01*
X108660000Y-45747566D01*
X108260000Y-45747566D01*
X108260000Y-43990533D01*
X108257245Y-43980254D01*
X108246967Y-43977500D01*
X107233033Y-43977500D01*
X107222754Y-43980254D01*
X107220000Y-43990533D01*
X107220000Y-44590964D01*
X100000000Y-44590964D01*
X100000000Y-44513033D01*
X100000000Y-44500000D01*
X99986967Y-44500000D01*
X93513033Y-44500000D01*
X93500000Y-44500000D01*
X93500000Y-44513033D01*
X93500000Y-47401000D01*
X93486737Y-47450500D01*
X93450500Y-47486737D01*
X93401000Y-47500000D01*
X85099000Y-47500000D01*
X85049500Y-47486737D01*
X85013263Y-47450500D01*
X85000000Y-47401000D01*
X85000000Y-46514840D01*
X90635000Y-46514840D01*
X90635947Y-46524461D01*
X90644701Y-46568473D01*
X90652020Y-46586142D01*
X90685389Y-46636082D01*
X90698917Y-46649610D01*
X90748857Y-46682979D01*
X90766526Y-46690298D01*
X90810538Y-46699052D01*
X90820160Y-46700000D01*
X91621967Y-46700000D01*
X91632245Y-46697245D01*
X91635000Y-46686967D01*
X92035000Y-46686967D01*
X92037754Y-46697245D01*
X92048033Y-46700000D01*
X92849840Y-46700000D01*
X92859461Y-46699052D01*
X92903473Y-46690298D01*
X92921142Y-46682979D01*
X92971082Y-46649610D01*
X92984610Y-46636082D01*
X93017979Y-46586142D01*
X93025298Y-46568473D01*
X93034052Y-46524461D01*
X93035000Y-46514840D01*
X93035000Y-44713033D01*
X93032245Y-44702754D01*
X93021967Y-44700000D01*
X92048033Y-44700000D01*
X92037754Y-44702754D01*
X92035000Y-44713033D01*
X92035000Y-46686967D01*
X91635000Y-46686967D01*
X91635000Y-44713033D01*
X91632245Y-44702754D01*
X91621967Y-44700000D01*
X90648033Y-44700000D01*
X90637754Y-44702754D01*
X90635000Y-44713033D01*
X90635000Y-46514840D01*
X85000000Y-46514840D01*
X85000000Y-44286967D01*
X90635000Y-44286967D01*
X90637754Y-44297245D01*
X90648033Y-44300000D01*
X91621967Y-44300000D01*
X91632245Y-44297245D01*
X91635000Y-44286967D01*
X92035000Y-44286967D01*
X92037754Y-44297245D01*
X92048033Y-44300000D01*
X93021967Y-44300000D01*
X93032245Y-44297245D01*
X93035000Y-44286967D01*
X93035000Y-43564467D01*
X107220000Y-43564467D01*
X107222754Y-43574745D01*
X107233033Y-43577500D01*
X108246967Y-43577500D01*
X108257245Y-43574745D01*
X108260000Y-43564467D01*
X108660000Y-43564467D01*
X108662754Y-43574745D01*
X108673033Y-43577500D01*
X109686967Y-43577500D01*
X109697245Y-43574745D01*
X109700000Y-43564467D01*
X109700000Y-42964036D01*
X109699800Y-42959593D01*
X109685402Y-42799628D01*
X109683819Y-42790904D01*
X109626808Y-42584325D01*
X109623694Y-42576026D01*
X109530708Y-42382941D01*
X109526165Y-42375336D01*
X109400193Y-42201951D01*
X109394371Y-42195287D01*
X109239464Y-42047181D01*
X109232543Y-42041661D01*
X109053684Y-41923598D01*
X109045880Y-41919399D01*
X108848823Y-41835172D01*
X108840389Y-41832432D01*
X108674547Y-41794580D01*
X108663318Y-41795421D01*
X108660000Y-41806182D01*
X108660000Y-43564467D01*
X108260000Y-43564467D01*
X108260000Y-41807434D01*
X108256897Y-41796816D01*
X108245964Y-41795168D01*
X108187359Y-41803106D01*
X108178738Y-41805074D01*
X107974901Y-41871304D01*
X107966766Y-41874782D01*
X107778044Y-41976337D01*
X107770648Y-41981220D01*
X107603094Y-42114840D01*
X107596693Y-42120960D01*
X107455688Y-42282352D01*
X107450485Y-42289513D01*
X107340563Y-42473492D01*
X107336719Y-42481477D01*
X107261418Y-42682115D01*
X107259060Y-42690657D01*
X107220793Y-42901527D01*
X107220000Y-42910340D01*
X107220000Y-43564467D01*
X93035000Y-43564467D01*
X93035000Y-42485160D01*
X93034052Y-42475538D01*
X93025298Y-42431526D01*
X93017979Y-42413857D01*
X92984610Y-42363917D01*
X92971082Y-42350389D01*
X92921142Y-42317020D01*
X92903473Y-42309701D01*
X92859461Y-42300947D01*
X92849840Y-42300000D01*
X92048033Y-42300000D01*
X92037754Y-42302754D01*
X92035000Y-42313033D01*
X92035000Y-44286967D01*
X91635000Y-44286967D01*
X91635000Y-42313033D01*
X91632245Y-42302754D01*
X91621967Y-42300000D01*
X90820160Y-42300000D01*
X90810538Y-42300947D01*
X90766526Y-42309701D01*
X90748857Y-42317020D01*
X90698917Y-42350389D01*
X90685389Y-42363917D01*
X90652020Y-42413857D01*
X90644701Y-42431526D01*
X90635947Y-42475538D01*
X90635000Y-42485160D01*
X90635000Y-44286967D01*
X85000000Y-44286967D01*
X85000000Y-43541008D01*
X85007536Y-43503122D01*
X85028996Y-43471004D01*
X86485160Y-42014840D01*
X94435000Y-42014840D01*
X94435947Y-42024461D01*
X94444701Y-42068473D01*
X94452020Y-42086142D01*
X94485389Y-42136082D01*
X94498917Y-42149610D01*
X94548857Y-42182979D01*
X94566526Y-42190298D01*
X94610538Y-42199052D01*
X94620160Y-42200000D01*
X96421967Y-42200000D01*
X96432245Y-42197245D01*
X96435000Y-42186967D01*
X96835000Y-42186967D01*
X96837754Y-42197245D01*
X96848033Y-42200000D01*
X98649840Y-42200000D01*
X98659461Y-42199052D01*
X98703473Y-42190298D01*
X98721142Y-42182979D01*
X98771082Y-42149610D01*
X98784610Y-42136082D01*
X98817979Y-42086142D01*
X98825298Y-42068473D01*
X98834052Y-42024461D01*
X98835000Y-42014840D01*
X98835000Y-41213033D01*
X98832245Y-41202754D01*
X98821967Y-41200000D01*
X96848033Y-41200000D01*
X96837754Y-41202754D01*
X96835000Y-41213033D01*
X96835000Y-42186967D01*
X96435000Y-42186967D01*
X96435000Y-41213033D01*
X96432245Y-41202754D01*
X96421967Y-41200000D01*
X94448033Y-41200000D01*
X94437754Y-41202754D01*
X94435000Y-41213033D01*
X94435000Y-42014840D01*
X86485160Y-42014840D01*
X87713033Y-40786967D01*
X94435000Y-40786967D01*
X94437754Y-40797245D01*
X94448033Y-40800000D01*
X96421967Y-40800000D01*
X96432245Y-40797245D01*
X96435000Y-40786967D01*
X96835000Y-40786967D01*
X96837754Y-40797245D01*
X96848033Y-40800000D01*
X98821967Y-40800000D01*
X98832245Y-40797245D01*
X98835000Y-40786967D01*
X98835000Y-39985160D01*
X98834052Y-39975538D01*
X98825298Y-39931526D01*
X98817979Y-39913857D01*
X98784610Y-39863917D01*
X98771082Y-39850389D01*
X98721142Y-39817020D01*
X98703473Y-39809701D01*
X98659461Y-39800947D01*
X98649840Y-39800000D01*
X96848033Y-39800000D01*
X96837754Y-39802754D01*
X96835000Y-39813033D01*
X96835000Y-40786967D01*
X96435000Y-40786967D01*
X96435000Y-39813033D01*
X96432245Y-39802754D01*
X96421967Y-39800000D01*
X94620160Y-39800000D01*
X94610538Y-39800947D01*
X94566526Y-39809701D01*
X94548857Y-39817020D01*
X94498917Y-39850389D01*
X94485389Y-39863917D01*
X94452020Y-39913857D01*
X94444701Y-39931526D01*
X94435947Y-39975538D01*
X94435000Y-39985160D01*
X94435000Y-40786967D01*
X87713033Y-40786967D01*
X89471004Y-39028996D01*
X89503122Y-39007536D01*
X89541008Y-39000000D01*
X110401000Y-39000000D01*
X110450500Y-39013263D01*
G37*
%TD.AperFunction*%
%TD*%
%TA.AperFunction,Conductor*%
%TO.N,GND*%
G36*
X112950500Y-62013263D02*
G01*
X112986737Y-62049500D01*
X113000000Y-62099000D01*
X113000000Y-62518958D01*
X112983315Y-62573959D01*
X112938886Y-62610422D01*
X112881686Y-62616056D01*
X112830996Y-62588962D01*
X112825923Y-62583889D01*
X112728723Y-62512152D01*
X112715748Y-62505294D01*
X112600396Y-62464931D01*
X112588713Y-62462379D01*
X112566605Y-62460306D01*
X112561998Y-62460091D01*
X111623139Y-62460091D01*
X111612860Y-62462845D01*
X111610106Y-62473124D01*
X111610106Y-63997057D01*
X111612860Y-64007335D01*
X111623139Y-64010090D01*
X112561994Y-64010090D01*
X112566610Y-64009874D01*
X112588714Y-64007802D01*
X112600394Y-64005251D01*
X112715748Y-63964887D01*
X112728723Y-63958029D01*
X112825923Y-63886292D01*
X112836307Y-63875908D01*
X112908044Y-63778708D01*
X112914902Y-63765733D01*
X112955265Y-63650381D01*
X112957817Y-63638698D01*
X112959890Y-63616590D01*
X112960106Y-63611983D01*
X112960106Y-63599000D01*
X112973369Y-63549500D01*
X113009606Y-63513263D01*
X113059106Y-63500000D01*
X113430148Y-63500000D01*
X113485149Y-63516685D01*
X113521612Y-63561114D01*
X113527246Y-63618314D01*
X113500152Y-63669004D01*
X113417494Y-63751661D01*
X113408452Y-63764107D01*
X113354404Y-63870181D01*
X113349649Y-63884816D01*
X113335715Y-63972793D01*
X113335106Y-63980533D01*
X113335106Y-64022058D01*
X113337860Y-64032336D01*
X113348139Y-64035091D01*
X114111106Y-64035091D01*
X114160606Y-64048354D01*
X114196843Y-64084591D01*
X114210106Y-64134091D01*
X114210106Y-64872057D01*
X114212860Y-64882335D01*
X114223139Y-64885090D01*
X114289662Y-64885090D01*
X114297404Y-64884480D01*
X114385514Y-64870526D01*
X114441267Y-64877866D01*
X114484029Y-64914388D01*
X114500000Y-64968307D01*
X114500000Y-67739198D01*
X114485315Y-67791083D01*
X114445615Y-67827575D01*
X114392680Y-67837848D01*
X114342213Y-67818854D01*
X114336538Y-67814665D01*
X114312882Y-67797207D01*
X114305882Y-67794757D01*
X114305879Y-67794756D01*
X114190387Y-67754344D01*
X114190384Y-67754343D01*
X114184699Y-67752354D01*
X114178706Y-67751792D01*
X114178702Y-67751791D01*
X114156561Y-67749715D01*
X114156556Y-67749714D01*
X114154266Y-67749500D01*
X111845734Y-67749500D01*
X111843444Y-67749714D01*
X111843438Y-67749715D01*
X111821297Y-67751791D01*
X111821291Y-67751792D01*
X111815301Y-67752354D01*
X111809617Y-67754342D01*
X111809612Y-67754344D01*
X111694120Y-67794756D01*
X111694114Y-67794758D01*
X111687118Y-67797207D01*
X111681152Y-67801609D01*
X111681148Y-67801612D01*
X111583823Y-67873441D01*
X111583820Y-67873443D01*
X111577850Y-67877850D01*
X111573443Y-67883820D01*
X111573441Y-67883823D01*
X111501612Y-67981148D01*
X111501609Y-67981152D01*
X111497207Y-67987118D01*
X111494758Y-67994114D01*
X111494756Y-67994120D01*
X111454344Y-68109612D01*
X111454342Y-68109617D01*
X111452354Y-68115301D01*
X111451792Y-68121291D01*
X111451791Y-68121297D01*
X111449715Y-68143438D01*
X111449500Y-68145734D01*
X111449500Y-68148045D01*
X111449500Y-68901000D01*
X111436237Y-68950500D01*
X111400000Y-68986737D01*
X111350500Y-69000000D01*
X111249000Y-69000000D01*
X111199500Y-68986737D01*
X111163263Y-68950500D01*
X111150000Y-68901000D01*
X111150000Y-68738033D01*
X111147245Y-68727754D01*
X111136967Y-68725000D01*
X108063034Y-68725000D01*
X108052755Y-68727754D01*
X108050001Y-68738033D01*
X108050001Y-68901000D01*
X108036738Y-68950500D01*
X108000501Y-68986737D01*
X107951001Y-69000000D01*
X107849000Y-69000000D01*
X107799500Y-68986737D01*
X107763263Y-68950500D01*
X107750000Y-68901000D01*
X107750000Y-68738033D01*
X107747245Y-68727754D01*
X107736967Y-68725000D01*
X104663034Y-68725000D01*
X104652755Y-68727754D01*
X104650001Y-68738033D01*
X104650001Y-68901000D01*
X104636738Y-68950500D01*
X104600501Y-68986737D01*
X104551001Y-69000000D01*
X104099000Y-69000000D01*
X104049500Y-68986737D01*
X104013263Y-68950500D01*
X104000000Y-68901000D01*
X104000000Y-68311967D01*
X104650000Y-68311967D01*
X104652754Y-68322245D01*
X104663033Y-68325000D01*
X105986967Y-68325000D01*
X105997245Y-68322245D01*
X106000000Y-68311967D01*
X106400000Y-68311967D01*
X106402754Y-68322245D01*
X106413033Y-68325000D01*
X107736966Y-68325000D01*
X107747244Y-68322245D01*
X107749999Y-68311967D01*
X108050000Y-68311967D01*
X108052754Y-68322245D01*
X108063033Y-68325000D01*
X109386967Y-68325000D01*
X109397245Y-68322245D01*
X109400000Y-68311967D01*
X109800000Y-68311967D01*
X109802754Y-68322245D01*
X109813033Y-68325000D01*
X111136966Y-68325000D01*
X111147244Y-68322245D01*
X111149999Y-68311967D01*
X111149999Y-68148112D01*
X111149783Y-68143495D01*
X111147711Y-68121391D01*
X111145160Y-68109711D01*
X111104796Y-67994357D01*
X111097938Y-67981382D01*
X111026201Y-67884182D01*
X111015817Y-67873798D01*
X110918617Y-67802061D01*
X110905642Y-67795203D01*
X110790290Y-67754840D01*
X110778607Y-67752288D01*
X110756499Y-67750215D01*
X110751892Y-67750000D01*
X109813033Y-67750000D01*
X109802754Y-67752754D01*
X109800000Y-67763033D01*
X109800000Y-68311967D01*
X109400000Y-68311967D01*
X109400000Y-67763034D01*
X109397245Y-67752755D01*
X109386967Y-67750001D01*
X108448112Y-67750001D01*
X108443495Y-67750216D01*
X108421391Y-67752288D01*
X108409711Y-67754839D01*
X108294357Y-67795203D01*
X108281382Y-67802061D01*
X108184182Y-67873798D01*
X108173798Y-67884182D01*
X108102061Y-67981382D01*
X108095203Y-67994357D01*
X108054840Y-68109709D01*
X108052288Y-68121392D01*
X108050215Y-68143500D01*
X108050000Y-68148108D01*
X108050000Y-68311967D01*
X107749999Y-68311967D01*
X107749999Y-68148112D01*
X107749783Y-68143495D01*
X107747711Y-68121391D01*
X107745160Y-68109711D01*
X107704796Y-67994357D01*
X107697938Y-67981382D01*
X107626201Y-67884182D01*
X107615817Y-67873798D01*
X107518617Y-67802061D01*
X107505642Y-67795203D01*
X107390290Y-67754840D01*
X107378607Y-67752288D01*
X107356499Y-67750215D01*
X107351892Y-67750000D01*
X106413033Y-67750000D01*
X106402754Y-67752754D01*
X106400000Y-67763033D01*
X106400000Y-68311967D01*
X106000000Y-68311967D01*
X106000000Y-67763034D01*
X105997245Y-67752755D01*
X105986967Y-67750001D01*
X105048112Y-67750001D01*
X105043495Y-67750216D01*
X105021391Y-67752288D01*
X105009711Y-67754839D01*
X104894357Y-67795203D01*
X104881382Y-67802061D01*
X104784182Y-67873798D01*
X104773798Y-67884182D01*
X104702061Y-67981382D01*
X104695203Y-67994357D01*
X104654840Y-68109709D01*
X104652288Y-68121392D01*
X104650215Y-68143500D01*
X104650000Y-68148108D01*
X104650000Y-68311967D01*
X104000000Y-68311967D01*
X104000000Y-67014840D01*
X110010106Y-67014840D01*
X110011053Y-67024461D01*
X110019807Y-67068473D01*
X110027126Y-67086142D01*
X110060495Y-67136082D01*
X110074023Y-67149610D01*
X110123963Y-67182979D01*
X110141632Y-67190298D01*
X110185644Y-67199052D01*
X110195266Y-67200000D01*
X110997073Y-67200000D01*
X111007351Y-67197245D01*
X111010106Y-67186967D01*
X111410106Y-67186967D01*
X111412860Y-67197245D01*
X111423139Y-67200000D01*
X112224946Y-67200000D01*
X112234567Y-67199052D01*
X112278579Y-67190298D01*
X112296248Y-67182979D01*
X112346188Y-67149610D01*
X112359716Y-67136082D01*
X112393085Y-67086142D01*
X112400404Y-67068473D01*
X112409158Y-67024461D01*
X112410106Y-67014840D01*
X112410106Y-66213033D01*
X112407351Y-66202754D01*
X112397073Y-66200000D01*
X111423139Y-66200000D01*
X111412860Y-66202754D01*
X111410106Y-66213033D01*
X111410106Y-67186967D01*
X111010106Y-67186967D01*
X111010106Y-66213033D01*
X111007351Y-66202754D01*
X110997073Y-66200000D01*
X110023139Y-66200000D01*
X110012860Y-66202754D01*
X110010106Y-66213033D01*
X110010106Y-67014840D01*
X104000000Y-67014840D01*
X104000000Y-65786967D01*
X110010106Y-65786967D01*
X110012860Y-65797245D01*
X110023139Y-65800000D01*
X110997073Y-65800000D01*
X111007351Y-65797245D01*
X111010106Y-65786967D01*
X111410106Y-65786967D01*
X111412860Y-65797245D01*
X111423139Y-65800000D01*
X112397073Y-65800000D01*
X112407351Y-65797245D01*
X112410106Y-65786967D01*
X112410106Y-64985160D01*
X112409158Y-64975538D01*
X112400404Y-64931526D01*
X112393085Y-64913857D01*
X112359716Y-64863917D01*
X112346188Y-64850389D01*
X112296248Y-64817020D01*
X112278579Y-64809701D01*
X112234567Y-64800947D01*
X112224946Y-64800000D01*
X111423139Y-64800000D01*
X111412860Y-64802754D01*
X111410106Y-64813033D01*
X111410106Y-65786967D01*
X111010106Y-65786967D01*
X111010106Y-64813033D01*
X111007351Y-64802754D01*
X110997073Y-64800000D01*
X110195266Y-64800000D01*
X110185644Y-64800947D01*
X110141632Y-64809701D01*
X110123963Y-64817020D01*
X110074023Y-64850389D01*
X110060495Y-64863917D01*
X110027126Y-64913857D01*
X110019807Y-64931526D01*
X110011053Y-64975538D01*
X110010106Y-64985160D01*
X110010106Y-65786967D01*
X104000000Y-65786967D01*
X104000000Y-64489647D01*
X113335107Y-64489647D01*
X113335716Y-64497389D01*
X113349649Y-64585366D01*
X113354403Y-64599998D01*
X113408452Y-64706074D01*
X113417494Y-64718520D01*
X113501676Y-64802702D01*
X113514122Y-64811744D01*
X113620196Y-64865792D01*
X113634831Y-64870547D01*
X113722808Y-64884481D01*
X113730548Y-64885091D01*
X113797073Y-64885091D01*
X113807351Y-64882336D01*
X113810106Y-64872058D01*
X113810106Y-64448124D01*
X113807351Y-64437845D01*
X113797073Y-64435091D01*
X113348140Y-64435091D01*
X113337861Y-64437845D01*
X113335107Y-64448124D01*
X113335107Y-64489647D01*
X104000000Y-64489647D01*
X104000000Y-63611979D01*
X106460107Y-63611979D01*
X106460322Y-63616595D01*
X106462394Y-63638699D01*
X106464945Y-63650379D01*
X106505309Y-63765733D01*
X106512167Y-63778708D01*
X106583904Y-63875908D01*
X106594288Y-63886292D01*
X106691488Y-63958029D01*
X106704463Y-63964887D01*
X106819815Y-64005250D01*
X106831498Y-64007802D01*
X106853606Y-64009875D01*
X106858214Y-64010091D01*
X107797073Y-64010091D01*
X107807351Y-64007336D01*
X107810106Y-63997058D01*
X107810106Y-63997057D01*
X108210106Y-63997057D01*
X108212860Y-64007335D01*
X108223139Y-64010090D01*
X109161994Y-64010090D01*
X109166610Y-64009874D01*
X109188714Y-64007802D01*
X109200394Y-64005251D01*
X109315748Y-63964887D01*
X109328723Y-63958029D01*
X109425923Y-63886292D01*
X109436307Y-63875908D01*
X109508044Y-63778708D01*
X109514902Y-63765733D01*
X109555265Y-63650381D01*
X109557817Y-63638698D01*
X109559890Y-63616590D01*
X109560106Y-63611983D01*
X109560106Y-63611979D01*
X109860107Y-63611979D01*
X109860322Y-63616595D01*
X109862394Y-63638699D01*
X109864945Y-63650379D01*
X109905309Y-63765733D01*
X109912167Y-63778708D01*
X109983904Y-63875908D01*
X109994288Y-63886292D01*
X110091488Y-63958029D01*
X110104463Y-63964887D01*
X110219815Y-64005250D01*
X110231498Y-64007802D01*
X110253606Y-64009875D01*
X110258214Y-64010091D01*
X111197073Y-64010091D01*
X111207351Y-64007336D01*
X111210106Y-63997058D01*
X111210106Y-63448124D01*
X111207351Y-63437845D01*
X111197073Y-63435091D01*
X109873140Y-63435091D01*
X109862861Y-63437845D01*
X109860107Y-63448124D01*
X109860107Y-63611979D01*
X109560106Y-63611979D01*
X109560106Y-63448124D01*
X109557351Y-63437845D01*
X109547073Y-63435091D01*
X108223139Y-63435091D01*
X108212860Y-63437845D01*
X108210106Y-63448124D01*
X108210106Y-63997057D01*
X107810106Y-63997057D01*
X107810106Y-63448124D01*
X107807351Y-63437845D01*
X107797073Y-63435091D01*
X106473140Y-63435091D01*
X106462861Y-63437845D01*
X106460107Y-63448124D01*
X106460107Y-63611979D01*
X104000000Y-63611979D01*
X104000000Y-63022058D01*
X106460106Y-63022058D01*
X106462860Y-63032336D01*
X106473139Y-63035091D01*
X107797073Y-63035091D01*
X107807351Y-63032336D01*
X107810106Y-63022058D01*
X108210106Y-63022058D01*
X108212860Y-63032336D01*
X108223139Y-63035091D01*
X109547072Y-63035091D01*
X109557350Y-63032336D01*
X109560105Y-63022058D01*
X109860106Y-63022058D01*
X109862860Y-63032336D01*
X109873139Y-63035091D01*
X111197073Y-63035091D01*
X111207351Y-63032336D01*
X111210106Y-63022058D01*
X111210106Y-62473125D01*
X111207351Y-62462846D01*
X111197073Y-62460092D01*
X110258218Y-62460092D01*
X110253601Y-62460307D01*
X110231497Y-62462379D01*
X110219817Y-62464930D01*
X110104463Y-62505294D01*
X110091488Y-62512152D01*
X109994288Y-62583889D01*
X109983904Y-62594273D01*
X109912167Y-62691473D01*
X109905309Y-62704448D01*
X109864946Y-62819800D01*
X109862394Y-62831483D01*
X109860321Y-62853591D01*
X109860106Y-62858199D01*
X109860106Y-63022058D01*
X109560105Y-63022058D01*
X109560105Y-62858203D01*
X109559889Y-62853586D01*
X109557817Y-62831482D01*
X109555266Y-62819802D01*
X109514902Y-62704448D01*
X109508044Y-62691473D01*
X109436307Y-62594273D01*
X109425923Y-62583889D01*
X109328723Y-62512152D01*
X109315748Y-62505294D01*
X109200396Y-62464931D01*
X109188713Y-62462379D01*
X109166605Y-62460306D01*
X109161998Y-62460091D01*
X108223139Y-62460091D01*
X108212860Y-62462845D01*
X108210106Y-62473124D01*
X108210106Y-63022058D01*
X107810106Y-63022058D01*
X107810106Y-62473125D01*
X107807351Y-62462846D01*
X107797073Y-62460092D01*
X106858218Y-62460092D01*
X106853601Y-62460307D01*
X106831497Y-62462379D01*
X106819817Y-62464930D01*
X106704463Y-62505294D01*
X106691488Y-62512152D01*
X106594288Y-62583889D01*
X106583904Y-62594273D01*
X106512167Y-62691473D01*
X106505309Y-62704448D01*
X106464946Y-62819800D01*
X106462394Y-62831483D01*
X106460321Y-62853591D01*
X106460106Y-62858199D01*
X106460106Y-63022058D01*
X104000000Y-63022058D01*
X104000000Y-62099000D01*
X104013263Y-62049500D01*
X104049500Y-62013263D01*
X104099000Y-62000000D01*
X112901000Y-62000000D01*
X112950500Y-62013263D01*
G37*
%TD.AperFunction*%
%TD*%
%TA.AperFunction,Conductor*%
%TO.N,GND*%
G36*
X148996878Y-43007536D02*
G01*
X149028996Y-43028996D01*
X152471004Y-46471004D01*
X152492464Y-46503122D01*
X152500000Y-46541008D01*
X152500000Y-51401000D01*
X152486737Y-51450500D01*
X152450500Y-51486737D01*
X152401000Y-51500000D01*
X146599000Y-51500000D01*
X146549500Y-51486737D01*
X146513263Y-51450500D01*
X146500000Y-51401000D01*
X146500000Y-43099000D01*
X146513263Y-43049500D01*
X146549500Y-43013263D01*
X146599000Y-43000000D01*
X148958992Y-43000000D01*
X148996878Y-43007536D01*
G37*
%TD.AperFunction*%
%TD*%
%TA.AperFunction,Conductor*%
%TO.N,Net-(U1-SS)*%
G36*
X115450500Y-60513263D02*
G01*
X115486737Y-60549500D01*
X115500000Y-60599000D01*
X115500000Y-61401000D01*
X115486737Y-61450500D01*
X115450500Y-61486737D01*
X115401000Y-61500000D01*
X114500000Y-61500000D01*
X114500000Y-61513033D01*
X114500000Y-62901000D01*
X114486737Y-62950500D01*
X114450500Y-62986737D01*
X114401000Y-63000000D01*
X113599000Y-63000000D01*
X113549500Y-62986737D01*
X113513263Y-62950500D01*
X113500000Y-62901000D01*
X113500000Y-60599000D01*
X113513263Y-60549500D01*
X113549500Y-60513263D01*
X113599000Y-60500000D01*
X115401000Y-60500000D01*
X115450500Y-60513263D01*
G37*
%TD.AperFunction*%
%TD*%
%TA.AperFunction,Conductor*%
%TO.N,Net-(Q1-D)*%
G36*
X99450500Y-45013263D02*
G01*
X99486737Y-45049500D01*
X99500000Y-45099000D01*
X99500000Y-55901000D01*
X99486737Y-55950500D01*
X99450500Y-55986737D01*
X99401000Y-56000000D01*
X97599000Y-56000000D01*
X97549500Y-55986737D01*
X97513263Y-55950500D01*
X97500000Y-55901000D01*
X97500000Y-49013033D01*
X97500000Y-49000000D01*
X97486967Y-49000000D01*
X94099000Y-49000000D01*
X94049500Y-48986737D01*
X94013263Y-48950500D01*
X94000000Y-48901000D01*
X94000000Y-48014840D01*
X94435000Y-48014840D01*
X94435947Y-48024461D01*
X94444701Y-48068473D01*
X94452020Y-48086142D01*
X94485389Y-48136082D01*
X94498917Y-48149610D01*
X94548857Y-48182979D01*
X94566526Y-48190298D01*
X94610538Y-48199052D01*
X94620160Y-48200000D01*
X96421967Y-48200000D01*
X96432245Y-48197245D01*
X96435000Y-48186967D01*
X96835000Y-48186967D01*
X96837754Y-48197245D01*
X96848033Y-48200000D01*
X98649840Y-48200000D01*
X98659461Y-48199052D01*
X98703473Y-48190298D01*
X98721142Y-48182979D01*
X98771082Y-48149610D01*
X98784610Y-48136082D01*
X98817979Y-48086142D01*
X98825298Y-48068473D01*
X98834052Y-48024461D01*
X98835000Y-48014840D01*
X98835000Y-47213033D01*
X98832245Y-47202754D01*
X98821967Y-47200000D01*
X96848033Y-47200000D01*
X96837754Y-47202754D01*
X96835000Y-47213033D01*
X96835000Y-48186967D01*
X96435000Y-48186967D01*
X96435000Y-47213033D01*
X96432245Y-47202754D01*
X96421967Y-47200000D01*
X94448033Y-47200000D01*
X94437754Y-47202754D01*
X94435000Y-47213033D01*
X94435000Y-48014840D01*
X94000000Y-48014840D01*
X94000000Y-46786967D01*
X94435000Y-46786967D01*
X94437754Y-46797245D01*
X94448033Y-46800000D01*
X96421967Y-46800000D01*
X96432245Y-46797245D01*
X96435000Y-46786967D01*
X96835000Y-46786967D01*
X96837754Y-46797245D01*
X96848033Y-46800000D01*
X98821967Y-46800000D01*
X98832245Y-46797245D01*
X98835000Y-46786967D01*
X98835000Y-45985160D01*
X98834052Y-45975538D01*
X98825298Y-45931526D01*
X98817979Y-45913857D01*
X98784610Y-45863917D01*
X98771082Y-45850389D01*
X98721142Y-45817020D01*
X98703473Y-45809701D01*
X98659461Y-45800947D01*
X98649840Y-45800000D01*
X96848033Y-45800000D01*
X96837754Y-45802754D01*
X96835000Y-45813033D01*
X96835000Y-46786967D01*
X96435000Y-46786967D01*
X96435000Y-45813033D01*
X96432245Y-45802754D01*
X96421967Y-45800000D01*
X94620160Y-45800000D01*
X94610538Y-45800947D01*
X94566526Y-45809701D01*
X94548857Y-45817020D01*
X94498917Y-45850389D01*
X94485389Y-45863917D01*
X94452020Y-45913857D01*
X94444701Y-45931526D01*
X94435947Y-45975538D01*
X94435000Y-45985160D01*
X94435000Y-46786967D01*
X94000000Y-46786967D01*
X94000000Y-45099000D01*
X94013263Y-45049500D01*
X94049500Y-45013263D01*
X94099000Y-45000000D01*
X99401000Y-45000000D01*
X99450500Y-45013263D01*
G37*
%TD.AperFunction*%
%TD*%
%TA.AperFunction,Conductor*%
%TO.N,GND*%
G36*
X127450500Y-53513263D02*
G01*
X127486737Y-53549500D01*
X127500000Y-53599000D01*
X127500000Y-55741160D01*
X127486213Y-55791555D01*
X127448694Y-55827914D01*
X127397890Y-55840111D01*
X127347953Y-55824748D01*
X127312790Y-55786105D01*
X127291282Y-55743894D01*
X127282240Y-55731448D01*
X127203657Y-55652865D01*
X127191211Y-55643823D01*
X127092194Y-55593371D01*
X127077559Y-55588616D01*
X126995433Y-55575609D01*
X126987694Y-55575000D01*
X126898139Y-55575000D01*
X126887860Y-55577754D01*
X126885106Y-55588033D01*
X126885106Y-56761966D01*
X126887860Y-56772244D01*
X126898139Y-56774999D01*
X126987691Y-56774999D01*
X126995435Y-56774389D01*
X127077554Y-56761384D01*
X127092197Y-56756627D01*
X127191211Y-56706176D01*
X127203657Y-56697134D01*
X127282240Y-56618551D01*
X127291282Y-56606105D01*
X127312790Y-56563895D01*
X127347953Y-56525252D01*
X127397890Y-56509889D01*
X127448694Y-56522086D01*
X127486213Y-56558445D01*
X127500000Y-56608840D01*
X127500000Y-56901000D01*
X127486737Y-56950500D01*
X127450500Y-56986737D01*
X127401000Y-57000000D01*
X125429811Y-57000000D01*
X125379416Y-56986213D01*
X125343057Y-56948694D01*
X125330860Y-56897890D01*
X125346223Y-56847953D01*
X125384866Y-56812790D01*
X125435982Y-56786744D01*
X125448428Y-56777702D01*
X125532610Y-56693520D01*
X125541652Y-56681074D01*
X125595700Y-56575000D01*
X125600455Y-56560365D01*
X125614389Y-56472388D01*
X125614999Y-56464649D01*
X125614999Y-56423124D01*
X125612244Y-56412845D01*
X125601966Y-56410091D01*
X124278033Y-56410091D01*
X124244426Y-56419095D01*
X124238705Y-56422399D01*
X124187459Y-56422399D01*
X124153140Y-56402585D01*
X126010107Y-56402585D01*
X126010716Y-56410329D01*
X126023721Y-56492448D01*
X126028478Y-56507091D01*
X126078929Y-56606105D01*
X126087971Y-56618551D01*
X126166554Y-56697134D01*
X126179000Y-56706176D01*
X126278017Y-56756628D01*
X126292652Y-56761383D01*
X126374778Y-56774390D01*
X126382518Y-56775000D01*
X126472073Y-56775000D01*
X126482351Y-56772245D01*
X126485106Y-56761967D01*
X126485106Y-56388033D01*
X126482351Y-56377754D01*
X126472073Y-56375000D01*
X126023140Y-56375000D01*
X126012861Y-56377754D01*
X126010107Y-56388033D01*
X126010107Y-56402585D01*
X124153140Y-56402585D01*
X124143078Y-56396776D01*
X124044495Y-56298193D01*
X124023035Y-56266075D01*
X124015499Y-56228189D01*
X124015499Y-55997058D01*
X124264999Y-55997058D01*
X124267753Y-56007336D01*
X124278032Y-56010091D01*
X124726966Y-56010091D01*
X124737244Y-56007336D01*
X124739999Y-55997058D01*
X125139999Y-55997058D01*
X125142753Y-56007336D01*
X125153032Y-56010091D01*
X125601965Y-56010091D01*
X125612243Y-56007336D01*
X125614998Y-55997058D01*
X125614998Y-55961967D01*
X126010106Y-55961967D01*
X126012860Y-55972245D01*
X126023139Y-55975000D01*
X126472073Y-55975000D01*
X126482351Y-55972245D01*
X126485106Y-55961967D01*
X126485106Y-55588034D01*
X126482351Y-55577755D01*
X126472073Y-55575001D01*
X126382521Y-55575001D01*
X126374776Y-55575610D01*
X126292657Y-55588615D01*
X126278014Y-55593372D01*
X126179000Y-55643823D01*
X126166554Y-55652865D01*
X126087971Y-55731448D01*
X126078929Y-55743894D01*
X126028477Y-55842911D01*
X126023722Y-55857546D01*
X126010715Y-55939672D01*
X126010106Y-55947412D01*
X126010106Y-55961967D01*
X125614998Y-55961967D01*
X125614998Y-55955535D01*
X125614388Y-55947792D01*
X125600455Y-55859815D01*
X125595701Y-55845183D01*
X125541652Y-55739107D01*
X125532610Y-55726661D01*
X125448428Y-55642479D01*
X125435982Y-55633437D01*
X125329908Y-55579389D01*
X125315273Y-55574634D01*
X125227296Y-55560700D01*
X125219557Y-55560091D01*
X125153032Y-55560091D01*
X125142753Y-55562845D01*
X125139999Y-55573124D01*
X125139999Y-55997058D01*
X124739999Y-55997058D01*
X124739999Y-55573125D01*
X124737244Y-55562846D01*
X124726966Y-55560092D01*
X124660443Y-55560092D01*
X124652700Y-55560701D01*
X124564723Y-55574634D01*
X124550091Y-55579388D01*
X124444015Y-55633437D01*
X124431569Y-55642479D01*
X124347387Y-55726661D01*
X124338345Y-55739107D01*
X124284297Y-55845181D01*
X124279542Y-55859816D01*
X124265608Y-55947793D01*
X124264999Y-55955533D01*
X124264999Y-55997058D01*
X124015499Y-55997058D01*
X124015499Y-55932466D01*
X124015499Y-55928573D01*
X124011427Y-55902865D01*
X124010215Y-55886500D01*
X124013761Y-55500000D01*
X124000652Y-55500000D01*
X122513033Y-55500000D01*
X122500000Y-55500000D01*
X122500000Y-55513033D01*
X122500000Y-55655042D01*
X122483315Y-55710043D01*
X122438886Y-55746506D01*
X122381686Y-55752140D01*
X122330996Y-55725046D01*
X122248429Y-55642479D01*
X122235983Y-55633437D01*
X122129909Y-55579389D01*
X122115274Y-55574634D01*
X122027297Y-55560700D01*
X122019558Y-55560091D01*
X121953033Y-55560091D01*
X121942754Y-55562845D01*
X121940000Y-55573124D01*
X121940000Y-56311091D01*
X121926737Y-56360591D01*
X121890500Y-56396828D01*
X121841000Y-56410091D01*
X121639000Y-56410091D01*
X121589500Y-56396828D01*
X121553263Y-56360591D01*
X121540000Y-56311091D01*
X121540000Y-55573125D01*
X121537245Y-55562846D01*
X121526967Y-55560092D01*
X121460444Y-55560092D01*
X121452701Y-55560701D01*
X121364724Y-55574634D01*
X121350092Y-55579388D01*
X121244016Y-55633437D01*
X121231570Y-55642479D01*
X121169004Y-55705046D01*
X121118314Y-55732140D01*
X121061114Y-55726506D01*
X121016685Y-55690043D01*
X121000000Y-55635042D01*
X121000000Y-53599000D01*
X121013263Y-53549500D01*
X121049500Y-53513263D01*
X121099000Y-53500000D01*
X127401000Y-53500000D01*
X127450500Y-53513263D01*
G37*
%TD.AperFunction*%
%TD*%
%TA.AperFunction,Conductor*%
%TO.N,+5V*%
G36*
X121000000Y-75000000D02*
G01*
X106500000Y-75000000D01*
X106493032Y-75008360D01*
X106493031Y-75008362D01*
X104029685Y-77964378D01*
X103995622Y-77990653D01*
X103953631Y-78000000D01*
X97000000Y-78000000D01*
X97000000Y-82500000D01*
X97013033Y-82500000D01*
X170986967Y-82500000D01*
X171000000Y-82500000D01*
X171000000Y-80099000D01*
X171013263Y-80049500D01*
X171049500Y-80013263D01*
X171099000Y-80000000D01*
X173852599Y-80000000D01*
X173890485Y-80007536D01*
X173922603Y-80028996D01*
X173971004Y-80077397D01*
X173992464Y-80109515D01*
X174000000Y-80147401D01*
X174000000Y-82500000D01*
X174013033Y-82500000D01*
X181986967Y-82500000D01*
X182000000Y-82500000D01*
X182000000Y-77599000D01*
X182013263Y-77549500D01*
X182049500Y-77513263D01*
X182099000Y-77500000D01*
X187986967Y-77500000D01*
X188000000Y-77500000D01*
X188000000Y-74099000D01*
X188013263Y-74049500D01*
X188049500Y-74013263D01*
X188099000Y-74000000D01*
X190401000Y-74000000D01*
X190450500Y-74013263D01*
X190486737Y-74049500D01*
X190500000Y-74099000D01*
X190500000Y-78401000D01*
X190486737Y-78450500D01*
X190450500Y-78486737D01*
X190401000Y-78500000D01*
X185500000Y-78500000D01*
X185500000Y-78513033D01*
X185500000Y-84901000D01*
X185486737Y-84950500D01*
X185450500Y-84986737D01*
X185401000Y-85000000D01*
X93099000Y-85000000D01*
X93049500Y-84986737D01*
X93013263Y-84950500D01*
X93000000Y-84901000D01*
X93000000Y-75099000D01*
X93013263Y-75049500D01*
X93049500Y-75013263D01*
X93099000Y-75000000D01*
X98988867Y-75000000D01*
X99000000Y-75000000D01*
X101516587Y-71854266D01*
X111449500Y-71854266D01*
X111449714Y-71856556D01*
X111449715Y-71856561D01*
X111451791Y-71878702D01*
X111451792Y-71878706D01*
X111452354Y-71884699D01*
X111454343Y-71890384D01*
X111454344Y-71890387D01*
X111494756Y-72005879D01*
X111494757Y-72005882D01*
X111497207Y-72012882D01*
X111577850Y-72122150D01*
X111687118Y-72202793D01*
X111815301Y-72247646D01*
X111845734Y-72250500D01*
X114151955Y-72250500D01*
X114154266Y-72250500D01*
X114184699Y-72247646D01*
X114312882Y-72202793D01*
X114422150Y-72122150D01*
X114502793Y-72012882D01*
X114547646Y-71884699D01*
X114550500Y-71854266D01*
X114550500Y-71095734D01*
X114547646Y-71065301D01*
X114502793Y-70937118D01*
X114422150Y-70827850D01*
X114312882Y-70747207D01*
X114305882Y-70744757D01*
X114305879Y-70744756D01*
X114190387Y-70704344D01*
X114190384Y-70704343D01*
X114184699Y-70702354D01*
X114178706Y-70701792D01*
X114178702Y-70701791D01*
X114156561Y-70699715D01*
X114156556Y-70699714D01*
X114154266Y-70699500D01*
X111845734Y-70699500D01*
X111843444Y-70699714D01*
X111843438Y-70699715D01*
X111821297Y-70701791D01*
X111821291Y-70701792D01*
X111815301Y-70702354D01*
X111809617Y-70704342D01*
X111809612Y-70704344D01*
X111694120Y-70744756D01*
X111694114Y-70744758D01*
X111687118Y-70747207D01*
X111681152Y-70751609D01*
X111681148Y-70751612D01*
X111583823Y-70823441D01*
X111583820Y-70823443D01*
X111577850Y-70827850D01*
X111573443Y-70833820D01*
X111573441Y-70833823D01*
X111501612Y-70931148D01*
X111501609Y-70931152D01*
X111497207Y-70937118D01*
X111494758Y-70944114D01*
X111494756Y-70944120D01*
X111454344Y-71059612D01*
X111454342Y-71059617D01*
X111452354Y-71065301D01*
X111451792Y-71071291D01*
X111451791Y-71071297D01*
X111449715Y-71093438D01*
X111449500Y-71095734D01*
X111449500Y-71854266D01*
X101516587Y-71854266D01*
X102970275Y-70037155D01*
X103004696Y-70009771D01*
X103047582Y-70000000D01*
X119986967Y-70000000D01*
X120000000Y-70000000D01*
X121000000Y-70000000D01*
X121000000Y-75000000D01*
G37*
%TD.AperFunction*%
%TD*%
%TA.AperFunction,Conductor*%
%TO.N,+12V*%
G36*
X96950500Y-53513263D02*
G01*
X96986737Y-53549500D01*
X97000000Y-53599000D01*
X97000000Y-54174840D01*
X96981361Y-54232660D01*
X96932461Y-54268708D01*
X96871715Y-54269410D01*
X96821996Y-54234501D01*
X96778108Y-54176385D01*
X96771979Y-54169662D01*
X96620893Y-54031927D01*
X96613623Y-54026437D01*
X96439803Y-53918813D01*
X96431646Y-53914751D01*
X96241017Y-53840900D01*
X96232244Y-53838405D01*
X96134338Y-53820103D01*
X96123224Y-53821305D01*
X96120000Y-53832009D01*
X96120000Y-56167991D01*
X96123224Y-56178694D01*
X96134338Y-56179896D01*
X96232244Y-56161594D01*
X96241017Y-56159099D01*
X96431646Y-56085248D01*
X96439803Y-56081186D01*
X96613623Y-55973562D01*
X96620893Y-55968072D01*
X96771979Y-55830337D01*
X96778108Y-55823614D01*
X96821996Y-55765499D01*
X96871715Y-55730590D01*
X96932461Y-55731292D01*
X96981361Y-55767340D01*
X97000000Y-55825160D01*
X97000000Y-59000000D01*
X97013033Y-59000000D01*
X104986967Y-59000000D01*
X105000000Y-59000000D01*
X105000000Y-58811979D01*
X107010107Y-58811979D01*
X107010322Y-58816595D01*
X107012394Y-58838699D01*
X107014945Y-58850379D01*
X107055309Y-58965733D01*
X107062167Y-58978708D01*
X107133904Y-59075908D01*
X107144288Y-59086292D01*
X107241488Y-59158029D01*
X107254463Y-59164887D01*
X107369815Y-59205250D01*
X107381498Y-59207802D01*
X107403606Y-59209875D01*
X107408214Y-59210091D01*
X107897073Y-59210091D01*
X107907351Y-59207336D01*
X107910106Y-59197058D01*
X107910106Y-59197057D01*
X108310106Y-59197057D01*
X108312860Y-59207335D01*
X108323139Y-59210090D01*
X108811994Y-59210090D01*
X108816610Y-59209874D01*
X108838714Y-59207802D01*
X108850394Y-59205251D01*
X108965748Y-59164887D01*
X108978723Y-59158029D01*
X109075923Y-59086292D01*
X109086307Y-59075908D01*
X109158044Y-58978708D01*
X109164902Y-58965733D01*
X109205265Y-58850381D01*
X109207817Y-58838698D01*
X109209890Y-58816590D01*
X109210106Y-58811983D01*
X109210106Y-58579099D01*
X113464500Y-58579099D01*
X113468803Y-58608637D01*
X113473290Y-58623158D01*
X113517611Y-58713820D01*
X113527012Y-58726987D01*
X113598012Y-58797987D01*
X113611179Y-58807388D01*
X113701845Y-58851712D01*
X113716355Y-58856196D01*
X113773243Y-58864484D01*
X113780359Y-58865000D01*
X114421967Y-58865000D01*
X114432245Y-58862245D01*
X114435000Y-58851967D01*
X114435000Y-58578033D01*
X114432245Y-58567754D01*
X114421967Y-58565000D01*
X113476695Y-58565000D01*
X113466060Y-58568126D01*
X113464500Y-58579099D01*
X109210106Y-58579099D01*
X109210106Y-57973124D01*
X109207351Y-57962845D01*
X109197073Y-57960091D01*
X108323139Y-57960091D01*
X108312860Y-57962845D01*
X108310106Y-57973124D01*
X108310106Y-59197057D01*
X107910106Y-59197057D01*
X107910106Y-57973124D01*
X107907351Y-57962845D01*
X107897073Y-57960091D01*
X107023140Y-57960091D01*
X107012861Y-57962845D01*
X107010107Y-57973124D01*
X107010107Y-58811979D01*
X105000000Y-58811979D01*
X105000000Y-57547058D01*
X107010106Y-57547058D01*
X107012860Y-57557336D01*
X107023139Y-57560091D01*
X107897073Y-57560091D01*
X107907351Y-57557336D01*
X107910106Y-57547058D01*
X108310106Y-57547058D01*
X108312860Y-57557336D01*
X108323139Y-57560091D01*
X109197072Y-57560091D01*
X109207350Y-57557336D01*
X109210105Y-57547058D01*
X109210105Y-56708203D01*
X109209889Y-56703586D01*
X109207817Y-56681482D01*
X109205266Y-56669802D01*
X109164902Y-56554448D01*
X109158044Y-56541473D01*
X109086307Y-56444273D01*
X109075923Y-56433889D01*
X108978723Y-56362152D01*
X108965748Y-56355294D01*
X108850396Y-56314931D01*
X108838713Y-56312379D01*
X108816605Y-56310306D01*
X108811998Y-56310091D01*
X108323139Y-56310091D01*
X108312860Y-56312845D01*
X108310106Y-56323124D01*
X108310106Y-57547058D01*
X107910106Y-57547058D01*
X107910106Y-56323125D01*
X107907351Y-56312846D01*
X107897073Y-56310092D01*
X107408218Y-56310092D01*
X107403601Y-56310307D01*
X107381497Y-56312379D01*
X107369817Y-56314930D01*
X107254463Y-56355294D01*
X107241488Y-56362152D01*
X107144288Y-56433889D01*
X107133904Y-56444273D01*
X107062167Y-56541473D01*
X107055309Y-56554448D01*
X107014946Y-56669800D01*
X107012394Y-56681483D01*
X107010321Y-56703591D01*
X107010106Y-56708199D01*
X107010106Y-57547058D01*
X105000000Y-57547058D01*
X105000000Y-56099000D01*
X105013263Y-56049500D01*
X105049500Y-56013263D01*
X105099000Y-56000000D01*
X112901000Y-56000000D01*
X112950500Y-56013263D01*
X112986737Y-56049500D01*
X113000000Y-56099000D01*
X113000000Y-58000000D01*
X113372093Y-58000000D01*
X113429877Y-58018613D01*
X113465932Y-58067454D01*
X113466512Y-58113255D01*
X113469912Y-58113751D01*
X113464499Y-58150900D01*
X113466059Y-58161873D01*
X113476696Y-58165000D01*
X114736000Y-58165000D01*
X114785500Y-58178263D01*
X114821737Y-58214500D01*
X114835000Y-58264000D01*
X114835000Y-58851966D01*
X114837754Y-58862244D01*
X114848033Y-58864999D01*
X115401000Y-58864999D01*
X115450500Y-58878262D01*
X115486737Y-58914499D01*
X115500000Y-58963999D01*
X115500000Y-59036000D01*
X115486737Y-59085500D01*
X115450500Y-59121737D01*
X115401000Y-59135000D01*
X114848033Y-59135000D01*
X114837754Y-59137754D01*
X114835000Y-59148033D01*
X114835000Y-59736000D01*
X114821737Y-59785500D01*
X114785500Y-59821737D01*
X114736000Y-59835000D01*
X113476695Y-59835000D01*
X113466060Y-59838126D01*
X113464500Y-59849099D01*
X113469912Y-59886249D01*
X113466501Y-59886745D01*
X113465949Y-59932501D01*
X113429897Y-59981373D01*
X113372094Y-60000000D01*
X113058876Y-60000000D01*
X113010714Y-59987495D01*
X112974719Y-59953140D01*
X112959984Y-59905614D01*
X112959889Y-59903591D01*
X112957817Y-59881482D01*
X112955266Y-59869802D01*
X112914902Y-59754448D01*
X112908044Y-59741473D01*
X112836307Y-59644273D01*
X112825923Y-59633889D01*
X112728723Y-59562152D01*
X112715748Y-59555294D01*
X112600396Y-59514931D01*
X112588713Y-59512379D01*
X112566605Y-59510306D01*
X112561998Y-59510091D01*
X111623139Y-59510091D01*
X111612860Y-59512845D01*
X111610106Y-59523124D01*
X111610106Y-61047057D01*
X111612860Y-61057335D01*
X111623139Y-61060090D01*
X112561994Y-61060090D01*
X112566610Y-61059874D01*
X112588714Y-61057802D01*
X112600394Y-61055251D01*
X112715748Y-61014887D01*
X112728723Y-61008029D01*
X112825923Y-60936292D01*
X112830996Y-60931220D01*
X112881686Y-60904126D01*
X112938886Y-60909760D01*
X112983315Y-60946223D01*
X113000000Y-61001224D01*
X113000000Y-61401000D01*
X112986737Y-61450500D01*
X112950500Y-61486737D01*
X112901000Y-61500000D01*
X94099000Y-61500000D01*
X94049500Y-61486737D01*
X94013263Y-61450500D01*
X94000000Y-61401000D01*
X94000000Y-60661979D01*
X106460107Y-60661979D01*
X106460322Y-60666595D01*
X106462394Y-60688699D01*
X106464945Y-60700379D01*
X106505309Y-60815733D01*
X106512167Y-60828708D01*
X106583904Y-60925908D01*
X106594288Y-60936292D01*
X106691488Y-61008029D01*
X106704463Y-61014887D01*
X106819815Y-61055250D01*
X106831498Y-61057802D01*
X106853606Y-61059875D01*
X106858214Y-61060091D01*
X107797073Y-61060091D01*
X107807351Y-61057336D01*
X107810106Y-61047058D01*
X107810106Y-61047057D01*
X108210106Y-61047057D01*
X108212860Y-61057335D01*
X108223139Y-61060090D01*
X109161994Y-61060090D01*
X109166610Y-61059874D01*
X109188714Y-61057802D01*
X109200394Y-61055251D01*
X109315748Y-61014887D01*
X109328723Y-61008029D01*
X109425923Y-60936292D01*
X109436307Y-60925908D01*
X109508044Y-60828708D01*
X109514902Y-60815733D01*
X109555265Y-60700381D01*
X109557817Y-60688698D01*
X109559890Y-60666590D01*
X109560106Y-60661983D01*
X109560106Y-60661979D01*
X109860107Y-60661979D01*
X109860322Y-60666595D01*
X109862394Y-60688699D01*
X109864945Y-60700379D01*
X109905309Y-60815733D01*
X109912167Y-60828708D01*
X109983904Y-60925908D01*
X109994288Y-60936292D01*
X110091488Y-61008029D01*
X110104463Y-61014887D01*
X110219815Y-61055250D01*
X110231498Y-61057802D01*
X110253606Y-61059875D01*
X110258214Y-61060091D01*
X111197073Y-61060091D01*
X111207351Y-61057336D01*
X111210106Y-61047058D01*
X111210106Y-60498124D01*
X111207351Y-60487845D01*
X111197073Y-60485091D01*
X109873140Y-60485091D01*
X109862861Y-60487845D01*
X109860107Y-60498124D01*
X109860107Y-60661979D01*
X109560106Y-60661979D01*
X109560106Y-60498124D01*
X109557351Y-60487845D01*
X109547073Y-60485091D01*
X108223139Y-60485091D01*
X108212860Y-60487845D01*
X108210106Y-60498124D01*
X108210106Y-61047057D01*
X107810106Y-61047057D01*
X107810106Y-60498124D01*
X107807351Y-60487845D01*
X107797073Y-60485091D01*
X106473140Y-60485091D01*
X106462861Y-60487845D01*
X106460107Y-60498124D01*
X106460107Y-60661979D01*
X94000000Y-60661979D01*
X94000000Y-60072058D01*
X106460106Y-60072058D01*
X106462860Y-60082336D01*
X106473139Y-60085091D01*
X107797073Y-60085091D01*
X107807351Y-60082336D01*
X107810106Y-60072058D01*
X108210106Y-60072058D01*
X108212860Y-60082336D01*
X108223139Y-60085091D01*
X109547072Y-60085091D01*
X109557350Y-60082336D01*
X109560105Y-60072058D01*
X109860106Y-60072058D01*
X109862860Y-60082336D01*
X109873139Y-60085091D01*
X111197073Y-60085091D01*
X111207351Y-60082336D01*
X111210106Y-60072058D01*
X111210106Y-59523125D01*
X111207351Y-59512846D01*
X111197073Y-59510092D01*
X110258218Y-59510092D01*
X110253601Y-59510307D01*
X110231497Y-59512379D01*
X110219817Y-59514930D01*
X110104463Y-59555294D01*
X110091488Y-59562152D01*
X109994288Y-59633889D01*
X109983904Y-59644273D01*
X109912167Y-59741473D01*
X109905309Y-59754448D01*
X109864946Y-59869800D01*
X109862394Y-59881483D01*
X109860321Y-59903591D01*
X109860106Y-59908199D01*
X109860106Y-60072058D01*
X109560105Y-60072058D01*
X109560105Y-59908203D01*
X109559889Y-59903586D01*
X109557817Y-59881482D01*
X109555266Y-59869802D01*
X109514902Y-59754448D01*
X109508044Y-59741473D01*
X109436307Y-59644273D01*
X109425923Y-59633889D01*
X109328723Y-59562152D01*
X109315748Y-59555294D01*
X109200396Y-59514931D01*
X109188713Y-59512379D01*
X109166605Y-59510306D01*
X109161998Y-59510091D01*
X108223139Y-59510091D01*
X108212860Y-59512845D01*
X108210106Y-59523124D01*
X108210106Y-60072058D01*
X107810106Y-60072058D01*
X107810106Y-59523125D01*
X107807351Y-59512846D01*
X107797073Y-59510092D01*
X106858218Y-59510092D01*
X106853601Y-59510307D01*
X106831497Y-59512379D01*
X106819817Y-59514930D01*
X106704463Y-59555294D01*
X106691488Y-59562152D01*
X106594288Y-59633889D01*
X106583904Y-59644273D01*
X106512167Y-59741473D01*
X106505309Y-59754448D01*
X106464946Y-59869800D01*
X106462394Y-59881483D01*
X106460321Y-59903591D01*
X106460106Y-59908199D01*
X106460106Y-60072058D01*
X94000000Y-60072058D01*
X94000000Y-59420900D01*
X113464499Y-59420900D01*
X113466059Y-59431873D01*
X113476696Y-59435000D01*
X114421967Y-59435000D01*
X114432245Y-59432245D01*
X114435000Y-59421967D01*
X114435000Y-59148034D01*
X114432245Y-59137755D01*
X114421967Y-59135001D01*
X113780361Y-59135001D01*
X113773241Y-59135516D01*
X113716362Y-59143803D01*
X113701841Y-59148290D01*
X113611179Y-59192611D01*
X113598012Y-59202012D01*
X113527012Y-59273012D01*
X113517611Y-59286179D01*
X113473287Y-59376845D01*
X113468803Y-59391355D01*
X113464499Y-59420900D01*
X94000000Y-59420900D01*
X94000000Y-58151888D01*
X94400001Y-58151888D01*
X94400216Y-58156504D01*
X94402288Y-58178608D01*
X94404839Y-58190288D01*
X94445203Y-58305642D01*
X94452061Y-58318617D01*
X94523798Y-58415817D01*
X94534182Y-58426201D01*
X94631382Y-58497938D01*
X94644357Y-58504796D01*
X94759709Y-58545159D01*
X94771392Y-58547711D01*
X94793500Y-58549784D01*
X94798108Y-58550000D01*
X95036967Y-58550000D01*
X95047245Y-58547245D01*
X95050000Y-58536967D01*
X95050000Y-58536966D01*
X95450000Y-58536966D01*
X95452754Y-58547244D01*
X95463033Y-58549999D01*
X95701888Y-58549999D01*
X95706504Y-58549783D01*
X95728608Y-58547711D01*
X95740288Y-58545160D01*
X95855642Y-58504796D01*
X95868617Y-58497938D01*
X95965817Y-58426201D01*
X95976201Y-58415817D01*
X96047938Y-58318617D01*
X96054796Y-58305642D01*
X96095159Y-58190290D01*
X96097711Y-58178607D01*
X96099784Y-58156499D01*
X96100000Y-58151892D01*
X96100000Y-57713033D01*
X96097245Y-57702754D01*
X96086967Y-57700000D01*
X95463033Y-57700000D01*
X95452754Y-57702754D01*
X95450000Y-57713033D01*
X95450000Y-58536966D01*
X95050000Y-58536966D01*
X95050000Y-57713033D01*
X95047245Y-57702754D01*
X95036967Y-57700000D01*
X94413034Y-57700000D01*
X94402755Y-57702754D01*
X94400001Y-57713033D01*
X94400001Y-58151888D01*
X94000000Y-58151888D01*
X94000000Y-57286967D01*
X94400000Y-57286967D01*
X94402754Y-57297245D01*
X94413033Y-57300000D01*
X95036967Y-57300000D01*
X95047245Y-57297245D01*
X95050000Y-57286967D01*
X95450000Y-57286967D01*
X95452754Y-57297245D01*
X95463033Y-57300000D01*
X96086966Y-57300000D01*
X96097244Y-57297245D01*
X96099999Y-57286967D01*
X96099999Y-56848112D01*
X96099783Y-56843495D01*
X96097711Y-56821391D01*
X96095160Y-56809711D01*
X96054796Y-56694357D01*
X96047938Y-56681382D01*
X95976201Y-56584182D01*
X95965817Y-56573798D01*
X95868617Y-56502061D01*
X95855642Y-56495203D01*
X95740290Y-56454840D01*
X95728607Y-56452288D01*
X95706499Y-56450215D01*
X95701892Y-56450000D01*
X95463033Y-56450000D01*
X95452754Y-56452754D01*
X95450000Y-56463033D01*
X95450000Y-57286967D01*
X95050000Y-57286967D01*
X95050000Y-56463034D01*
X95047245Y-56452755D01*
X95036967Y-56450001D01*
X94798112Y-56450001D01*
X94793495Y-56450216D01*
X94771391Y-56452288D01*
X94759711Y-56454839D01*
X94644357Y-56495203D01*
X94631382Y-56502061D01*
X94534182Y-56573798D01*
X94523798Y-56584182D01*
X94452061Y-56681382D01*
X94445203Y-56694357D01*
X94404840Y-56809709D01*
X94402288Y-56821392D01*
X94400215Y-56843500D01*
X94400000Y-56848108D01*
X94400000Y-57286967D01*
X94000000Y-57286967D01*
X94000000Y-55213749D01*
X94777969Y-55213749D01*
X94781849Y-55255624D01*
X94783522Y-55264576D01*
X94839470Y-55461214D01*
X94842761Y-55469709D01*
X94933887Y-55652716D01*
X94938682Y-55660461D01*
X95061891Y-55823614D01*
X95068020Y-55830337D01*
X95219106Y-55968072D01*
X95226376Y-55973562D01*
X95400196Y-56081186D01*
X95408353Y-56085248D01*
X95598982Y-56159099D01*
X95607755Y-56161594D01*
X95705661Y-56179896D01*
X95716775Y-56178694D01*
X95720000Y-56167991D01*
X95720000Y-55213033D01*
X95717245Y-55202754D01*
X95706967Y-55200000D01*
X94790505Y-55200000D01*
X94779979Y-55202994D01*
X94777969Y-55213749D01*
X94000000Y-55213749D01*
X94000000Y-54786250D01*
X94777969Y-54786250D01*
X94779979Y-54797005D01*
X94790505Y-54800000D01*
X95706967Y-54800000D01*
X95717245Y-54797245D01*
X95720000Y-54786967D01*
X95720000Y-53832009D01*
X95716775Y-53821305D01*
X95705661Y-53820103D01*
X95607755Y-53838405D01*
X95598982Y-53840900D01*
X95408353Y-53914751D01*
X95400196Y-53918813D01*
X95226376Y-54026437D01*
X95219106Y-54031927D01*
X95068020Y-54169662D01*
X95061891Y-54176385D01*
X94938682Y-54339538D01*
X94933887Y-54347283D01*
X94842761Y-54530290D01*
X94839470Y-54538785D01*
X94783522Y-54735423D01*
X94781849Y-54744375D01*
X94777969Y-54786250D01*
X94000000Y-54786250D01*
X94000000Y-53599000D01*
X94013263Y-53549500D01*
X94049500Y-53513263D01*
X94099000Y-53500000D01*
X96901000Y-53500000D01*
X96950500Y-53513263D01*
G37*
%TD.AperFunction*%
%TD*%
M02*
