%TF.GenerationSoftware,KiCad,Pcbnew,(7.0.0)*%
%TF.CreationDate,2023-06-19T20:16:09-07:00*%
%TF.ProjectId,main_board,6d61696e-5f62-46f6-9172-642e6b696361,B*%
%TF.SameCoordinates,Original*%
%TF.FileFunction,Paste,Bot*%
%TF.FilePolarity,Positive*%
%FSLAX46Y46*%
G04 Gerber Fmt 4.6, Leading zero omitted, Abs format (unit mm)*
G04 Created by KiCad (PCBNEW (7.0.0)) date 2023-06-19 20:16:09*
%MOMM*%
%LPD*%
G01*
G04 APERTURE LIST*
G04 Aperture macros list*
%AMRoundRect*
0 Rectangle with rounded corners*
0 $1 Rounding radius*
0 $2 $3 $4 $5 $6 $7 $8 $9 X,Y pos of 4 corners*
0 Add a 4 corners polygon primitive as box body*
4,1,4,$2,$3,$4,$5,$6,$7,$8,$9,$2,$3,0*
0 Add four circle primitives for the rounded corners*
1,1,$1+$1,$2,$3*
1,1,$1+$1,$4,$5*
1,1,$1+$1,$6,$7*
1,1,$1+$1,$8,$9*
0 Add four rect primitives between the rounded corners*
20,1,$1+$1,$2,$3,$4,$5,0*
20,1,$1+$1,$4,$5,$6,$7,0*
20,1,$1+$1,$6,$7,$8,$9,0*
20,1,$1+$1,$8,$9,$2,$3,0*%
G04 Aperture macros list end*
%ADD10RoundRect,0.250000X-0.325000X-1.100000X0.325000X-1.100000X0.325000X1.100000X-0.325000X1.100000X0*%
%ADD11RoundRect,0.200000X0.275000X-0.200000X0.275000X0.200000X-0.275000X0.200000X-0.275000X-0.200000X0*%
%ADD12RoundRect,0.250000X-1.100000X0.325000X-1.100000X-0.325000X1.100000X-0.325000X1.100000X0.325000X0*%
%ADD13RoundRect,0.250000X-0.400000X-0.600000X0.400000X-0.600000X0.400000X0.600000X-0.400000X0.600000X0*%
%ADD14R,2.350000X3.500000*%
%ADD15RoundRect,0.250000X1.100000X-0.325000X1.100000X0.325000X-1.100000X0.325000X-1.100000X-0.325000X0*%
%ADD16RoundRect,0.225000X-0.250000X0.225000X-0.250000X-0.225000X0.250000X-0.225000X0.250000X0.225000X0*%
%ADD17RoundRect,0.200000X-0.200000X-0.275000X0.200000X-0.275000X0.200000X0.275000X-0.200000X0.275000X0*%
%ADD18RoundRect,0.218750X0.218750X0.256250X-0.218750X0.256250X-0.218750X-0.256250X0.218750X-0.256250X0*%
%ADD19RoundRect,0.250000X-0.650000X1.000000X-0.650000X-1.000000X0.650000X-1.000000X0.650000X1.000000X0*%
%ADD20RoundRect,0.225000X0.250000X-0.225000X0.250000X0.225000X-0.250000X0.225000X-0.250000X-0.225000X0*%
%ADD21RoundRect,0.240000X-0.240000X-0.385000X0.240000X-0.385000X0.240000X0.385000X-0.240000X0.385000X0*%
%ADD22RoundRect,0.150000X-0.825000X-0.150000X0.825000X-0.150000X0.825000X0.150000X-0.825000X0.150000X0*%
G04 APERTURE END LIST*
D10*
%TO.C,C6*%
X125235106Y-63560091D03*
X128185106Y-63560091D03*
%TD*%
D11*
%TO.C,R2*%
X125010106Y-60985091D03*
X125010106Y-59335091D03*
%TD*%
D12*
%TO.C,C7*%
X111410106Y-60285091D03*
X111410106Y-63235091D03*
%TD*%
D11*
%TO.C,R7*%
X130000000Y-73500000D03*
X130000000Y-71850000D03*
%TD*%
%TO.C,R1*%
X123340000Y-57810091D03*
X123340000Y-56160091D03*
%TD*%
%TO.C,R3*%
X126685106Y-57825000D03*
X126685106Y-56175000D03*
%TD*%
D13*
%TO.C,D1*%
X95250000Y-57500000D03*
X98750000Y-57500000D03*
%TD*%
D14*
%TO.C,L1*%
X116385105Y-65760090D03*
X122435105Y-65760090D03*
%TD*%
D15*
%TO.C,C12*%
X109600000Y-71475000D03*
X109600000Y-68525000D03*
%TD*%
D11*
%TO.C,R4*%
X120039999Y-55475000D03*
X120039999Y-53825000D03*
%TD*%
D10*
%TO.C,C9*%
X125235104Y-67260090D03*
X128185104Y-67260090D03*
%TD*%
D16*
%TO.C,C4*%
X118000000Y-53874999D03*
X118000000Y-55424999D03*
%TD*%
D12*
%TO.C,C1*%
X108010106Y-60285091D03*
X108010106Y-63235091D03*
%TD*%
D17*
%TO.C,R5*%
X100475000Y-57500000D03*
X102125000Y-57500000D03*
%TD*%
D12*
%TO.C,C11*%
X113000000Y-68525000D03*
X113000000Y-71475000D03*
%TD*%
D18*
%TO.C,D3*%
X126459999Y-74000000D03*
X124884999Y-74000000D03*
%TD*%
D19*
%TO.C,D2*%
X108110106Y-53760091D03*
X108110106Y-57760091D03*
%TD*%
D20*
%TO.C,C10*%
X123010104Y-60935089D03*
X123010104Y-59385089D03*
%TD*%
D15*
%TO.C,C13*%
X106200000Y-71475000D03*
X106200000Y-68525000D03*
%TD*%
D10*
%TO.C,C8*%
X125235106Y-70560091D03*
X128185106Y-70560091D03*
%TD*%
D21*
%TO.C,U1*%
X116540000Y-58250000D03*
X116540000Y-59750000D03*
X117680000Y-58250000D03*
X117680000Y-59750000D03*
D22*
X114635000Y-60905000D03*
X114635000Y-59635000D03*
X114635000Y-58365000D03*
X114635000Y-57095000D03*
X119585000Y-57095000D03*
X119585000Y-58365000D03*
X119585000Y-59635000D03*
X119585000Y-60905000D03*
%TD*%
D20*
%TO.C,C5*%
X121740000Y-57760091D03*
X121740000Y-56210091D03*
%TD*%
D16*
%TO.C,C3*%
X114010106Y-62685091D03*
X114010106Y-64235091D03*
%TD*%
D20*
%TO.C,C2*%
X124939999Y-57760091D03*
X124939999Y-56210091D03*
%TD*%
M02*
