%TF.GenerationSoftware,KiCad,Pcbnew,(7.0.0)*%
%TF.CreationDate,2023-06-19T20:16:09-07:00*%
%TF.ProjectId,main_board,6d61696e-5f62-46f6-9172-642e6b696361,B*%
%TF.SameCoordinates,Original*%
%TF.FileFunction,Copper,L1,Top*%
%TF.FilePolarity,Positive*%
%FSLAX46Y46*%
G04 Gerber Fmt 4.6, Leading zero omitted, Abs format (unit mm)*
G04 Created by KiCad (PCBNEW (7.0.0)) date 2023-06-19 20:16:09*
%MOMM*%
%LPD*%
G01*
G04 APERTURE LIST*
G04 Aperture macros list*
%AMRoundRect*
0 Rectangle with rounded corners*
0 $1 Rounding radius*
0 $2 $3 $4 $5 $6 $7 $8 $9 X,Y pos of 4 corners*
0 Add a 4 corners polygon primitive as box body*
4,1,4,$2,$3,$4,$5,$6,$7,$8,$9,$2,$3,0*
0 Add four circle primitives for the rounded corners*
1,1,$1+$1,$2,$3*
1,1,$1+$1,$4,$5*
1,1,$1+$1,$6,$7*
1,1,$1+$1,$8,$9*
0 Add four rect primitives between the rounded corners*
20,1,$1+$1,$2,$3,$4,$5,0*
20,1,$1+$1,$4,$5,$6,$7,0*
20,1,$1+$1,$6,$7,$8,$9,0*
20,1,$1+$1,$8,$9,$2,$3,0*%
G04 Aperture macros list end*
%TA.AperFunction,ComponentPad*%
%ADD10R,1.700000X1.700000*%
%TD*%
%TA.AperFunction,ComponentPad*%
%ADD11O,1.700000X1.700000*%
%TD*%
%TA.AperFunction,ComponentPad*%
%ADD12R,4.000000X2.000000*%
%TD*%
%TA.AperFunction,ComponentPad*%
%ADD13R,2.000000X4.000000*%
%TD*%
%TA.AperFunction,ComponentPad*%
%ADD14R,1.905000X2.000000*%
%TD*%
%TA.AperFunction,ComponentPad*%
%ADD15O,1.905000X2.000000*%
%TD*%
%TA.AperFunction,ComponentPad*%
%ADD16R,1.500000X1.500000*%
%TD*%
%TA.AperFunction,ComponentPad*%
%ADD17C,1.500000*%
%TD*%
%TA.AperFunction,ComponentPad*%
%ADD18C,3.000000*%
%TD*%
%TA.AperFunction,ComponentPad*%
%ADD19RoundRect,0.249999X0.790001X1.550001X-0.790001X1.550001X-0.790001X-1.550001X0.790001X-1.550001X0*%
%TD*%
%TA.AperFunction,ComponentPad*%
%ADD20O,2.080000X3.600000*%
%TD*%
%TA.AperFunction,ComponentPad*%
%ADD21R,3.000000X3.000000*%
%TD*%
%TA.AperFunction,ComponentPad*%
%ADD22C,0.500000*%
%TD*%
%TA.AperFunction,SMDPad,CuDef*%
%ADD23R,1.800000X2.500000*%
%TD*%
%TA.AperFunction,ViaPad*%
%ADD24C,2.200000*%
%TD*%
%TA.AperFunction,ViaPad*%
%ADD25C,0.900000*%
%TD*%
G04 APERTURE END LIST*
D10*
%TO.P,J5,1,Pin_1*%
%TO.N,GND*%
X100999999Y-80999999D03*
D11*
%TO.P,J5,2,Pin_2*%
%TO.N,/LED_RIGHT_DATA*%
X98459999Y-80999999D03*
%TO.P,J5,3,Pin_3*%
%TO.N,+5V*%
X95919999Y-80999999D03*
%TD*%
D12*
%TO.P,J1,1*%
%TO.N,Net-(Q1-D)*%
X96634999Y-46999999D03*
%TO.P,J1,2*%
%TO.N,GND*%
X96634999Y-40999999D03*
D13*
X91834999Y-44499999D03*
%TD*%
D14*
%TO.P,Q1,1,G*%
%TO.N,Net-(D1-A)*%
X100999999Y-54999999D03*
D15*
%TO.P,Q1,2,D*%
%TO.N,Net-(Q1-D)*%
X98459999Y-54999999D03*
%TO.P,Q1,3,S*%
%TO.N,+12V*%
X95919999Y-54999999D03*
%TD*%
D10*
%TO.P,J4,1,Pin_1*%
%TO.N,GND*%
X177999999Y-80999999D03*
D11*
%TO.P,J4,2,Pin_2*%
%TO.N,/LED_LEFT_DATA*%
X175459999Y-80999999D03*
%TO.P,J4,3,Pin_3*%
%TO.N,+5V*%
X172919999Y-80999999D03*
%TD*%
%TO.P,U2,1,GPIO0*%
%TO.N,unconnected-(U2-GPIO0-Pad1)*%
X191779999Y-58109999D03*
%TO.P,U2,2,GPIO1*%
%TO.N,unconnected-(U2-GPIO1-Pad2)*%
X189239999Y-58109999D03*
D10*
%TO.P,U2,3,GND*%
%TO.N,GND*%
X186699999Y-58109999D03*
D11*
%TO.P,U2,4,GPIO2*%
%TO.N,unconnected-(U2-GPIO2-Pad4)*%
X184159999Y-58109999D03*
%TO.P,U2,5,GPIO3*%
%TO.N,unconnected-(U2-GPIO3-Pad5)*%
X181619999Y-58109999D03*
%TO.P,U2,6,GPIO4*%
%TO.N,unconnected-(U2-GPIO4-Pad6)*%
X179079999Y-58109999D03*
%TO.P,U2,7,GPIO5*%
%TO.N,unconnected-(U2-GPIO5-Pad7)*%
X176539999Y-58109999D03*
D10*
%TO.P,U2,8,GND*%
%TO.N,GND*%
X173999999Y-58109999D03*
D11*
%TO.P,U2,9,GPIO6*%
%TO.N,unconnected-(U2-GPIO6-Pad9)*%
X171459999Y-58109999D03*
%TO.P,U2,10,GPIO7*%
%TO.N,unconnected-(U2-GPIO7-Pad10)*%
X168919999Y-58109999D03*
%TO.P,U2,11,GPIO8*%
%TO.N,unconnected-(U2-GPIO8-Pad11)*%
X166379999Y-58109999D03*
%TO.P,U2,12,GPIO9*%
%TO.N,unconnected-(U2-GPIO9-Pad12)*%
X163839999Y-58109999D03*
D10*
%TO.P,U2,13,GND*%
%TO.N,GND*%
X161299999Y-58109999D03*
D11*
%TO.P,U2,14,GPIO10*%
%TO.N,unconnected-(U2-GPIO10-Pad14)*%
X158759999Y-58109999D03*
%TO.P,U2,15,GPIO11*%
%TO.N,unconnected-(U2-GPIO11-Pad15)*%
X156219999Y-58109999D03*
%TO.P,U2,16,GPIO12*%
%TO.N,unconnected-(U2-GPIO12-Pad16)*%
X153679999Y-58109999D03*
%TO.P,U2,17,GPIO13*%
%TO.N,unconnected-(U2-GPIO13-Pad17)*%
X151139999Y-58109999D03*
D10*
%TO.P,U2,18,GND*%
%TO.N,GND*%
X148599999Y-58109999D03*
D11*
%TO.P,U2,19,GPIO14*%
%TO.N,unconnected-(U2-GPIO14-Pad19)*%
X146059999Y-58109999D03*
%TO.P,U2,20,GPIO15*%
%TO.N,unconnected-(U2-GPIO15-Pad20)*%
X143519999Y-58109999D03*
%TO.P,U2,21,GPIO16*%
%TO.N,/LED_RIGHT_DATA*%
X143519999Y-75889999D03*
%TO.P,U2,22,GPIO17*%
%TO.N,/LED_LEFT_DATA*%
X146059999Y-75889999D03*
D10*
%TO.P,U2,23,GND*%
%TO.N,GND*%
X148599999Y-75889999D03*
D11*
%TO.P,U2,24,GPIO18*%
%TO.N,unconnected-(U2-GPIO18-Pad24)*%
X151139999Y-75889999D03*
%TO.P,U2,25,GPIO19*%
%TO.N,unconnected-(U2-GPIO19-Pad25)*%
X153679999Y-75889999D03*
%TO.P,U2,26,GPIO20*%
%TO.N,unconnected-(U2-GPIO20-Pad26)*%
X156219999Y-75889999D03*
%TO.P,U2,27,GPIO21*%
%TO.N,unconnected-(U2-GPIO21-Pad27)*%
X158759999Y-75889999D03*
D10*
%TO.P,U2,28,GND*%
%TO.N,GND*%
X161299999Y-75889999D03*
D11*
%TO.P,U2,29,GPIO22*%
%TO.N,unconnected-(U2-GPIO22-Pad29)*%
X163839999Y-75889999D03*
%TO.P,U2,30,RUN*%
%TO.N,unconnected-(U2-RUN-Pad30)*%
X166379999Y-75889999D03*
%TO.P,U2,31,GPIO26_ADC0*%
%TO.N,/BRIGHTNESS_CTRL*%
X168919999Y-75889999D03*
%TO.P,U2,32,GPIO27_ADC1*%
%TO.N,/COLOR_CTRL*%
X171459999Y-75889999D03*
D10*
%TO.P,U2,33,AGND*%
%TO.N,GND*%
X173999999Y-75889999D03*
D11*
%TO.P,U2,34,GPIO28_ADC2*%
%TO.N,unconnected-(U2-GPIO28_ADC2-Pad34)*%
X176539999Y-75889999D03*
%TO.P,U2,35,ADC_VREF*%
%TO.N,unconnected-(U2-ADC_VREF-Pad35)*%
X179079999Y-75889999D03*
%TO.P,U2,36,3V3*%
%TO.N,+3V3*%
X181619999Y-75889999D03*
%TO.P,U2,37,3V3_EN*%
%TO.N,unconnected-(U2-3V3_EN-Pad37)*%
X184159999Y-75889999D03*
D10*
%TO.P,U2,38,GND*%
%TO.N,GND*%
X186699999Y-75889999D03*
D11*
%TO.P,U2,39,VSYS*%
%TO.N,+5V*%
X189239999Y-75889999D03*
%TO.P,U2,40,VBUS*%
%TO.N,unconnected-(U2-VBUS-Pad40)*%
X191779999Y-75889999D03*
%TD*%
D16*
%TO.P,J3,1,VBUS1*%
%TO.N,+5V*%
X144499999Y-48879999D03*
D17*
%TO.P,J3,2,D1-*%
%TO.N,unconnected-(J3-D1--Pad2)*%
X142000000Y-48880000D03*
%TO.P,J3,3,D1+*%
%TO.N,unconnected-(J3-D1+-Pad3)*%
X140000000Y-48880000D03*
%TO.P,J3,4,GND1*%
%TO.N,GND*%
X137500000Y-48880000D03*
%TO.P,J3,5,VBUS2*%
%TO.N,+5V*%
X144500000Y-46260000D03*
%TO.P,J3,6,D2-*%
%TO.N,unconnected-(J3-D2--Pad6)*%
X142000000Y-46260000D03*
%TO.P,J3,7,D2+*%
%TO.N,unconnected-(J3-D2+-Pad7)*%
X140000000Y-46260000D03*
%TO.P,J3,8,GND2*%
%TO.N,GND*%
X137500000Y-46260000D03*
D18*
%TO.P,J3,9,Shield*%
X147570000Y-49230000D03*
X147570000Y-43550000D03*
X134430000Y-49230000D03*
X134430000Y-43550000D03*
%TD*%
D19*
%TO.P,J2,1,Pin_1*%
%TO.N,Net-(D2-K)*%
X113540000Y-43777500D03*
D20*
%TO.P,J2,2,Pin_2*%
%TO.N,GND*%
X108459999Y-43777499D03*
%TD*%
D21*
%TO.P,RV1,1,1*%
%TO.N,+3V3*%
X119999999Y-40999999D03*
D18*
%TO.P,RV1,2,2*%
%TO.N,/BRIGHTNESS_CTRL*%
X125000000Y-41000000D03*
%TO.P,RV1,3,3*%
%TO.N,GND*%
X130000000Y-41000000D03*
%TD*%
D22*
%TO.P,U1,9,LX*%
%TO.N,Net-(U1-LX)*%
X116460000Y-58000000D03*
X116460000Y-59000000D03*
X116460000Y-60000000D03*
D23*
X117109999Y-58999999D03*
D22*
X117760000Y-58000000D03*
X117760000Y-59000000D03*
X117760000Y-60000000D03*
%TD*%
D21*
%TO.P,RV2,1,1*%
%TO.N,+3V3*%
X151999999Y-40999999D03*
D18*
%TO.P,RV2,2,2*%
%TO.N,/COLOR_CTRL*%
X157000000Y-41000000D03*
%TO.P,RV2,3,3*%
%TO.N,GND*%
X162000000Y-41000000D03*
%TD*%
D24*
%TO.N,GND*%
X186500000Y-73000000D03*
D25*
X165200000Y-41000000D03*
D24*
X151000000Y-48000000D03*
X131000000Y-49500000D03*
D25*
X103840000Y-57499999D03*
X114500000Y-55500000D03*
D24*
X108000000Y-66500000D03*
X180500000Y-81000000D03*
X104500000Y-80500000D03*
X131000000Y-67500000D03*
D25*
X127500000Y-41000000D03*
X124000000Y-54500000D03*
D24*
X88000000Y-44500000D03*
X175500000Y-73000000D03*
X103000000Y-41500000D03*
%TD*%
%TA.AperFunction,Conductor*%
%TO.N,GND*%
G36*
X188995883Y-38009939D02*
G01*
X189036111Y-38036819D01*
X193963181Y-42963888D01*
X193990061Y-43004116D01*
X193999500Y-43051569D01*
X193999500Y-85875500D01*
X193982887Y-85937500D01*
X193937500Y-85982887D01*
X193875500Y-85999500D01*
X84124500Y-85999500D01*
X84062500Y-85982887D01*
X84017113Y-85937500D01*
X84000500Y-85875500D01*
X84000500Y-82067765D01*
X87145788Y-82067765D01*
X87146282Y-82072262D01*
X87146283Y-82072267D01*
X87174917Y-82332506D01*
X87174918Y-82332513D01*
X87175414Y-82337018D01*
X87176559Y-82341398D01*
X87176561Y-82341408D01*
X87180287Y-82355659D01*
X87243928Y-82599088D01*
X87245693Y-82603242D01*
X87245696Y-82603250D01*
X87348099Y-82844223D01*
X87349870Y-82848390D01*
X87352226Y-82852251D01*
X87352229Y-82852256D01*
X87488618Y-83075737D01*
X87490982Y-83079610D01*
X87664255Y-83287820D01*
X87667630Y-83290844D01*
X87667631Y-83290845D01*
X87772330Y-83384656D01*
X87865998Y-83468582D01*
X88091910Y-83618044D01*
X88337176Y-83733020D01*
X88596569Y-83811060D01*
X88864561Y-83850500D01*
X89065369Y-83850500D01*
X89067631Y-83850500D01*
X89270156Y-83835677D01*
X89534553Y-83776780D01*
X89787558Y-83680014D01*
X90023777Y-83547441D01*
X90238177Y-83381888D01*
X90426186Y-83186881D01*
X90583799Y-82966579D01*
X90707656Y-82725675D01*
X90795118Y-82469305D01*
X90844319Y-82202933D01*
X90854212Y-81932235D01*
X90824586Y-81662982D01*
X90756072Y-81400912D01*
X90650130Y-81151610D01*
X90557603Y-81000000D01*
X94564341Y-81000000D01*
X94564813Y-81005395D01*
X94567617Y-81037450D01*
X94584937Y-81235408D01*
X94586336Y-81240630D01*
X94586337Y-81240634D01*
X94644694Y-81458430D01*
X94644697Y-81458438D01*
X94646097Y-81463663D01*
X94648385Y-81468570D01*
X94648386Y-81468572D01*
X94743678Y-81672927D01*
X94743681Y-81672933D01*
X94745965Y-81677830D01*
X94749064Y-81682257D01*
X94749066Y-81682259D01*
X94878399Y-81866966D01*
X94878402Y-81866970D01*
X94881505Y-81871401D01*
X95048599Y-82038495D01*
X95242170Y-82174035D01*
X95456337Y-82273903D01*
X95684592Y-82335063D01*
X95920000Y-82355659D01*
X96155408Y-82335063D01*
X96383663Y-82273903D01*
X96597830Y-82174035D01*
X96791401Y-82038495D01*
X96958495Y-81871401D01*
X97088424Y-81685842D01*
X97132743Y-81646976D01*
X97190000Y-81632965D01*
X97247257Y-81646976D01*
X97291575Y-81685842D01*
X97418395Y-81866961D01*
X97418401Y-81866968D01*
X97421505Y-81871401D01*
X97588599Y-82038495D01*
X97782170Y-82174035D01*
X97996337Y-82273903D01*
X98224592Y-82335063D01*
X98460000Y-82355659D01*
X98695408Y-82335063D01*
X98923663Y-82273903D01*
X99137830Y-82174035D01*
X99331401Y-82038495D01*
X99453717Y-81916178D01*
X99506460Y-81884885D01*
X99567753Y-81882696D01*
X99622597Y-81910149D01*
X99657577Y-81960528D01*
X99703548Y-82083779D01*
X99711962Y-82099189D01*
X99787498Y-82200092D01*
X99799907Y-82212501D01*
X99900810Y-82288037D01*
X99916222Y-82296452D01*
X100035358Y-82340888D01*
X100050332Y-82344426D01*
X100098885Y-82349646D01*
X100105482Y-82350000D01*
X100733674Y-82350000D01*
X100746549Y-82346549D01*
X100750000Y-82333674D01*
X101250000Y-82333674D01*
X101253450Y-82346549D01*
X101266326Y-82350000D01*
X101894518Y-82350000D01*
X101901114Y-82349646D01*
X101949667Y-82344426D01*
X101964641Y-82340888D01*
X102083777Y-82296452D01*
X102099189Y-82288037D01*
X102200092Y-82212501D01*
X102212501Y-82200092D01*
X102288037Y-82099189D01*
X102296452Y-82083777D01*
X102340888Y-81964641D01*
X102344426Y-81949667D01*
X102349646Y-81901114D01*
X102350000Y-81894518D01*
X102350000Y-81266326D01*
X102346549Y-81253450D01*
X102333674Y-81250000D01*
X101266326Y-81250000D01*
X101253450Y-81253450D01*
X101250000Y-81266326D01*
X101250000Y-82333674D01*
X100750000Y-82333674D01*
X100750000Y-81000000D01*
X171564341Y-81000000D01*
X171564813Y-81005395D01*
X171567617Y-81037450D01*
X171584937Y-81235408D01*
X171586336Y-81240630D01*
X171586337Y-81240634D01*
X171644694Y-81458430D01*
X171644697Y-81458438D01*
X171646097Y-81463663D01*
X171648385Y-81468570D01*
X171648386Y-81468572D01*
X171743678Y-81672927D01*
X171743681Y-81672933D01*
X171745965Y-81677830D01*
X171749064Y-81682257D01*
X171749066Y-81682259D01*
X171878399Y-81866966D01*
X171878402Y-81866970D01*
X171881505Y-81871401D01*
X172048599Y-82038495D01*
X172242170Y-82174035D01*
X172456337Y-82273903D01*
X172684592Y-82335063D01*
X172920000Y-82355659D01*
X173155408Y-82335063D01*
X173383663Y-82273903D01*
X173597830Y-82174035D01*
X173791401Y-82038495D01*
X173958495Y-81871401D01*
X174088424Y-81685842D01*
X174132743Y-81646976D01*
X174190000Y-81632965D01*
X174247257Y-81646976D01*
X174291575Y-81685842D01*
X174418395Y-81866961D01*
X174418401Y-81866968D01*
X174421505Y-81871401D01*
X174588599Y-82038495D01*
X174782170Y-82174035D01*
X174996337Y-82273903D01*
X175224592Y-82335063D01*
X175460000Y-82355659D01*
X175695408Y-82335063D01*
X175923663Y-82273903D01*
X176137830Y-82174035D01*
X176331401Y-82038495D01*
X176453717Y-81916178D01*
X176506460Y-81884885D01*
X176567753Y-81882696D01*
X176622597Y-81910149D01*
X176657577Y-81960528D01*
X176703548Y-82083779D01*
X176711962Y-82099189D01*
X176787498Y-82200092D01*
X176799907Y-82212501D01*
X176900810Y-82288037D01*
X176916222Y-82296452D01*
X177035358Y-82340888D01*
X177050332Y-82344426D01*
X177098885Y-82349646D01*
X177105482Y-82350000D01*
X177733674Y-82350000D01*
X177746549Y-82346549D01*
X177750000Y-82333674D01*
X178250000Y-82333674D01*
X178253450Y-82346549D01*
X178266326Y-82350000D01*
X178894518Y-82350000D01*
X178901114Y-82349646D01*
X178949667Y-82344426D01*
X178964641Y-82340888D01*
X179083777Y-82296452D01*
X179099189Y-82288037D01*
X179200092Y-82212501D01*
X179212501Y-82200092D01*
X179288037Y-82099189D01*
X179296452Y-82083777D01*
X179302424Y-82067765D01*
X187145788Y-82067765D01*
X187146282Y-82072262D01*
X187146283Y-82072267D01*
X187174917Y-82332506D01*
X187174918Y-82332513D01*
X187175414Y-82337018D01*
X187176559Y-82341398D01*
X187176561Y-82341408D01*
X187180287Y-82355659D01*
X187243928Y-82599088D01*
X187245693Y-82603242D01*
X187245696Y-82603250D01*
X187348099Y-82844223D01*
X187349870Y-82848390D01*
X187352226Y-82852251D01*
X187352229Y-82852256D01*
X187488618Y-83075737D01*
X187490982Y-83079610D01*
X187664255Y-83287820D01*
X187667630Y-83290844D01*
X187667631Y-83290845D01*
X187772330Y-83384656D01*
X187865998Y-83468582D01*
X188091910Y-83618044D01*
X188337176Y-83733020D01*
X188596569Y-83811060D01*
X188864561Y-83850500D01*
X189065369Y-83850500D01*
X189067631Y-83850500D01*
X189270156Y-83835677D01*
X189534553Y-83776780D01*
X189787558Y-83680014D01*
X190023777Y-83547441D01*
X190238177Y-83381888D01*
X190426186Y-83186881D01*
X190583799Y-82966579D01*
X190707656Y-82725675D01*
X190795118Y-82469305D01*
X190844319Y-82202933D01*
X190854212Y-81932235D01*
X190824586Y-81662982D01*
X190756072Y-81400912D01*
X190650130Y-81151610D01*
X190509018Y-80920390D01*
X190335745Y-80712180D01*
X190230759Y-80618112D01*
X190137382Y-80534446D01*
X190137378Y-80534442D01*
X190134002Y-80531418D01*
X189908090Y-80381956D01*
X189903996Y-80380036D01*
X189903991Y-80380034D01*
X189666929Y-80268904D01*
X189666925Y-80268902D01*
X189662824Y-80266980D01*
X189658477Y-80265672D01*
X189658474Y-80265671D01*
X189407772Y-80190246D01*
X189407771Y-80190245D01*
X189403431Y-80188940D01*
X189398957Y-80188281D01*
X189398950Y-80188280D01*
X189139913Y-80150158D01*
X189139907Y-80150157D01*
X189135439Y-80149500D01*
X188932369Y-80149500D01*
X188930120Y-80149664D01*
X188930109Y-80149665D01*
X188734363Y-80163992D01*
X188734359Y-80163992D01*
X188729844Y-80164323D01*
X188725426Y-80165307D01*
X188725420Y-80165308D01*
X188469877Y-80222232D01*
X188469861Y-80222236D01*
X188465447Y-80223220D01*
X188461216Y-80224838D01*
X188461210Y-80224840D01*
X188216673Y-80318367D01*
X188216663Y-80318371D01*
X188212442Y-80319986D01*
X188208494Y-80322201D01*
X188208489Y-80322204D01*
X187980176Y-80450340D01*
X187980171Y-80450343D01*
X187976223Y-80452559D01*
X187972639Y-80455325D01*
X187972635Y-80455329D01*
X187765407Y-80615343D01*
X187765394Y-80615354D01*
X187761823Y-80618112D01*
X187758685Y-80621366D01*
X187758678Y-80621373D01*
X187576958Y-80809857D01*
X187576952Y-80809864D01*
X187573814Y-80813119D01*
X187571189Y-80816787D01*
X187571179Y-80816800D01*
X187418834Y-81029740D01*
X187418830Y-81029745D01*
X187416201Y-81033421D01*
X187414132Y-81037444D01*
X187414129Y-81037450D01*
X187294416Y-81270293D01*
X187294411Y-81270304D01*
X187292344Y-81274325D01*
X187290884Y-81278602D01*
X187290879Y-81278616D01*
X187206348Y-81526395D01*
X187206344Y-81526407D01*
X187204882Y-81530695D01*
X187204057Y-81535159D01*
X187204057Y-81535161D01*
X187156504Y-81792606D01*
X187156502Y-81792619D01*
X187155681Y-81797067D01*
X187155515Y-81801593D01*
X187155515Y-81801599D01*
X187146858Y-82038495D01*
X187145788Y-82067765D01*
X179302424Y-82067765D01*
X179340888Y-81964641D01*
X179344426Y-81949667D01*
X179349646Y-81901114D01*
X179350000Y-81894518D01*
X179350000Y-81266326D01*
X179346549Y-81253450D01*
X179333674Y-81250000D01*
X178266326Y-81250000D01*
X178253450Y-81253450D01*
X178250000Y-81266326D01*
X178250000Y-82333674D01*
X177750000Y-82333674D01*
X177750000Y-80733674D01*
X178250000Y-80733674D01*
X178253450Y-80746549D01*
X178266326Y-80750000D01*
X179333674Y-80750000D01*
X179346549Y-80746549D01*
X179350000Y-80733674D01*
X179350000Y-80105482D01*
X179349646Y-80098885D01*
X179344426Y-80050332D01*
X179340888Y-80035358D01*
X179296452Y-79916222D01*
X179288037Y-79900810D01*
X179212501Y-79799907D01*
X179200092Y-79787498D01*
X179099189Y-79711962D01*
X179083777Y-79703547D01*
X178964641Y-79659111D01*
X178949667Y-79655573D01*
X178901114Y-79650353D01*
X178894518Y-79650000D01*
X178266326Y-79650000D01*
X178253450Y-79653450D01*
X178250000Y-79666326D01*
X178250000Y-80733674D01*
X177750000Y-80733674D01*
X177750000Y-79666326D01*
X177746549Y-79653450D01*
X177733674Y-79650000D01*
X177105482Y-79650000D01*
X177098885Y-79650353D01*
X177050332Y-79655573D01*
X177035358Y-79659111D01*
X176916222Y-79703547D01*
X176900810Y-79711962D01*
X176799907Y-79787498D01*
X176787498Y-79799907D01*
X176711962Y-79900810D01*
X176703544Y-79916226D01*
X176657576Y-80039471D01*
X176622597Y-80089850D01*
X176567753Y-80117303D01*
X176506460Y-80115114D01*
X176453714Y-80083818D01*
X176335232Y-79965336D01*
X176335230Y-79965334D01*
X176331401Y-79961505D01*
X176326970Y-79958402D01*
X176326966Y-79958399D01*
X176142259Y-79829066D01*
X176142257Y-79829064D01*
X176137830Y-79825965D01*
X176132933Y-79823681D01*
X176132927Y-79823678D01*
X175928572Y-79728386D01*
X175928570Y-79728385D01*
X175923663Y-79726097D01*
X175918438Y-79724697D01*
X175918430Y-79724694D01*
X175700634Y-79666337D01*
X175700630Y-79666336D01*
X175695408Y-79664937D01*
X175690020Y-79664465D01*
X175690017Y-79664465D01*
X175465395Y-79644813D01*
X175460000Y-79644341D01*
X175454605Y-79644813D01*
X175229982Y-79664465D01*
X175229977Y-79664465D01*
X175224592Y-79664937D01*
X175219371Y-79666335D01*
X175219365Y-79666337D01*
X175001569Y-79724694D01*
X175001557Y-79724698D01*
X174996337Y-79726097D01*
X174991432Y-79728383D01*
X174991427Y-79728386D01*
X174787081Y-79823675D01*
X174787077Y-79823677D01*
X174782171Y-79825965D01*
X174777738Y-79829068D01*
X174777731Y-79829073D01*
X174593034Y-79958399D01*
X174593029Y-79958402D01*
X174588599Y-79961505D01*
X174584775Y-79965328D01*
X174584769Y-79965334D01*
X174425334Y-80124769D01*
X174425328Y-80124775D01*
X174421505Y-80128599D01*
X174418402Y-80133029D01*
X174418399Y-80133034D01*
X174291575Y-80314159D01*
X174247257Y-80353025D01*
X174190000Y-80367036D01*
X174132743Y-80353025D01*
X174088425Y-80314159D01*
X174024057Y-80222232D01*
X173958495Y-80128599D01*
X173791401Y-79961505D01*
X173786970Y-79958402D01*
X173786966Y-79958399D01*
X173602259Y-79829066D01*
X173602257Y-79829064D01*
X173597830Y-79825965D01*
X173592933Y-79823681D01*
X173592927Y-79823678D01*
X173388572Y-79728386D01*
X173388570Y-79728385D01*
X173383663Y-79726097D01*
X173378438Y-79724697D01*
X173378430Y-79724694D01*
X173160634Y-79666337D01*
X173160630Y-79666336D01*
X173155408Y-79664937D01*
X173150020Y-79664465D01*
X173150017Y-79664465D01*
X172925395Y-79644813D01*
X172920000Y-79644341D01*
X172914605Y-79644813D01*
X172689982Y-79664465D01*
X172689977Y-79664465D01*
X172684592Y-79664937D01*
X172679371Y-79666335D01*
X172679365Y-79666337D01*
X172461569Y-79724694D01*
X172461557Y-79724698D01*
X172456337Y-79726097D01*
X172451432Y-79728383D01*
X172451427Y-79728386D01*
X172247081Y-79823675D01*
X172247077Y-79823677D01*
X172242171Y-79825965D01*
X172237738Y-79829068D01*
X172237731Y-79829073D01*
X172053034Y-79958399D01*
X172053029Y-79958402D01*
X172048599Y-79961505D01*
X172044775Y-79965328D01*
X172044769Y-79965334D01*
X171885334Y-80124769D01*
X171885328Y-80124775D01*
X171881505Y-80128599D01*
X171878402Y-80133029D01*
X171878399Y-80133034D01*
X171749073Y-80317731D01*
X171749068Y-80317738D01*
X171745965Y-80322171D01*
X171743677Y-80327077D01*
X171743675Y-80327081D01*
X171648386Y-80531427D01*
X171648383Y-80531432D01*
X171646097Y-80536337D01*
X171644698Y-80541557D01*
X171644694Y-80541569D01*
X171586337Y-80759365D01*
X171586335Y-80759371D01*
X171584937Y-80764592D01*
X171584465Y-80769977D01*
X171584465Y-80769982D01*
X171580691Y-80813119D01*
X171564341Y-81000000D01*
X100750000Y-81000000D01*
X100750000Y-80733674D01*
X101250000Y-80733674D01*
X101253450Y-80746549D01*
X101266326Y-80750000D01*
X102333674Y-80750000D01*
X102346549Y-80746549D01*
X102350000Y-80733674D01*
X102350000Y-80105482D01*
X102349646Y-80098885D01*
X102344426Y-80050332D01*
X102340888Y-80035358D01*
X102296452Y-79916222D01*
X102288037Y-79900810D01*
X102212501Y-79799907D01*
X102200092Y-79787498D01*
X102099189Y-79711962D01*
X102083777Y-79703547D01*
X101964641Y-79659111D01*
X101949667Y-79655573D01*
X101901114Y-79650353D01*
X101894518Y-79650000D01*
X101266326Y-79650000D01*
X101253450Y-79653450D01*
X101250000Y-79666326D01*
X101250000Y-80733674D01*
X100750000Y-80733674D01*
X100750000Y-79666326D01*
X100746549Y-79653450D01*
X100733674Y-79650000D01*
X100105482Y-79650000D01*
X100098885Y-79650353D01*
X100050332Y-79655573D01*
X100035358Y-79659111D01*
X99916222Y-79703547D01*
X99900810Y-79711962D01*
X99799907Y-79787498D01*
X99787498Y-79799907D01*
X99711962Y-79900810D01*
X99703544Y-79916226D01*
X99657576Y-80039471D01*
X99622597Y-80089850D01*
X99567753Y-80117303D01*
X99506460Y-80115114D01*
X99453714Y-80083818D01*
X99335232Y-79965336D01*
X99335230Y-79965334D01*
X99331401Y-79961505D01*
X99326970Y-79958402D01*
X99326966Y-79958399D01*
X99142259Y-79829066D01*
X99142257Y-79829064D01*
X99137830Y-79825965D01*
X99132933Y-79823681D01*
X99132927Y-79823678D01*
X98928572Y-79728386D01*
X98928570Y-79728385D01*
X98923663Y-79726097D01*
X98918438Y-79724697D01*
X98918430Y-79724694D01*
X98700634Y-79666337D01*
X98700630Y-79666336D01*
X98695408Y-79664937D01*
X98690020Y-79664465D01*
X98690017Y-79664465D01*
X98465395Y-79644813D01*
X98460000Y-79644341D01*
X98454605Y-79644813D01*
X98229982Y-79664465D01*
X98229977Y-79664465D01*
X98224592Y-79664937D01*
X98219371Y-79666335D01*
X98219365Y-79666337D01*
X98001569Y-79724694D01*
X98001557Y-79724698D01*
X97996337Y-79726097D01*
X97991432Y-79728383D01*
X97991427Y-79728386D01*
X97787081Y-79823675D01*
X97787077Y-79823677D01*
X97782171Y-79825965D01*
X97777738Y-79829068D01*
X97777731Y-79829073D01*
X97593034Y-79958399D01*
X97593029Y-79958402D01*
X97588599Y-79961505D01*
X97584775Y-79965328D01*
X97584769Y-79965334D01*
X97425334Y-80124769D01*
X97425328Y-80124775D01*
X97421505Y-80128599D01*
X97418402Y-80133029D01*
X97418399Y-80133034D01*
X97291575Y-80314159D01*
X97247257Y-80353025D01*
X97190000Y-80367036D01*
X97132743Y-80353025D01*
X97088425Y-80314159D01*
X97024057Y-80222232D01*
X96958495Y-80128599D01*
X96791401Y-79961505D01*
X96786970Y-79958402D01*
X96786966Y-79958399D01*
X96602259Y-79829066D01*
X96602257Y-79829064D01*
X96597830Y-79825965D01*
X96592933Y-79823681D01*
X96592927Y-79823678D01*
X96388572Y-79728386D01*
X96388570Y-79728385D01*
X96383663Y-79726097D01*
X96378438Y-79724697D01*
X96378430Y-79724694D01*
X96160634Y-79666337D01*
X96160630Y-79666336D01*
X96155408Y-79664937D01*
X96150020Y-79664465D01*
X96150017Y-79664465D01*
X95925395Y-79644813D01*
X95920000Y-79644341D01*
X95914605Y-79644813D01*
X95689982Y-79664465D01*
X95689977Y-79664465D01*
X95684592Y-79664937D01*
X95679371Y-79666335D01*
X95679365Y-79666337D01*
X95461569Y-79724694D01*
X95461557Y-79724698D01*
X95456337Y-79726097D01*
X95451432Y-79728383D01*
X95451427Y-79728386D01*
X95247081Y-79823675D01*
X95247077Y-79823677D01*
X95242171Y-79825965D01*
X95237738Y-79829068D01*
X95237731Y-79829073D01*
X95053034Y-79958399D01*
X95053029Y-79958402D01*
X95048599Y-79961505D01*
X95044775Y-79965328D01*
X95044769Y-79965334D01*
X94885334Y-80124769D01*
X94885328Y-80124775D01*
X94881505Y-80128599D01*
X94878402Y-80133029D01*
X94878399Y-80133034D01*
X94749073Y-80317731D01*
X94749068Y-80317738D01*
X94745965Y-80322171D01*
X94743677Y-80327077D01*
X94743675Y-80327081D01*
X94648386Y-80531427D01*
X94648383Y-80531432D01*
X94646097Y-80536337D01*
X94644698Y-80541557D01*
X94644694Y-80541569D01*
X94586337Y-80759365D01*
X94586335Y-80759371D01*
X94584937Y-80764592D01*
X94584465Y-80769977D01*
X94584465Y-80769982D01*
X94580691Y-80813119D01*
X94564341Y-81000000D01*
X90557603Y-81000000D01*
X90509018Y-80920390D01*
X90335745Y-80712180D01*
X90230759Y-80618112D01*
X90137382Y-80534446D01*
X90137378Y-80534442D01*
X90134002Y-80531418D01*
X89908090Y-80381956D01*
X89903996Y-80380036D01*
X89903991Y-80380034D01*
X89666929Y-80268904D01*
X89666925Y-80268902D01*
X89662824Y-80266980D01*
X89658477Y-80265672D01*
X89658474Y-80265671D01*
X89407772Y-80190246D01*
X89407771Y-80190245D01*
X89403431Y-80188940D01*
X89398957Y-80188281D01*
X89398950Y-80188280D01*
X89139913Y-80150158D01*
X89139907Y-80150157D01*
X89135439Y-80149500D01*
X88932369Y-80149500D01*
X88930120Y-80149664D01*
X88930109Y-80149665D01*
X88734363Y-80163992D01*
X88734359Y-80163992D01*
X88729844Y-80164323D01*
X88725426Y-80165307D01*
X88725420Y-80165308D01*
X88469877Y-80222232D01*
X88469861Y-80222236D01*
X88465447Y-80223220D01*
X88461216Y-80224838D01*
X88461210Y-80224840D01*
X88216673Y-80318367D01*
X88216663Y-80318371D01*
X88212442Y-80319986D01*
X88208494Y-80322201D01*
X88208489Y-80322204D01*
X87980176Y-80450340D01*
X87980171Y-80450343D01*
X87976223Y-80452559D01*
X87972639Y-80455325D01*
X87972635Y-80455329D01*
X87765407Y-80615343D01*
X87765394Y-80615354D01*
X87761823Y-80618112D01*
X87758685Y-80621366D01*
X87758678Y-80621373D01*
X87576958Y-80809857D01*
X87576952Y-80809864D01*
X87573814Y-80813119D01*
X87571189Y-80816787D01*
X87571179Y-80816800D01*
X87418834Y-81029740D01*
X87418830Y-81029745D01*
X87416201Y-81033421D01*
X87414132Y-81037444D01*
X87414129Y-81037450D01*
X87294416Y-81270293D01*
X87294411Y-81270304D01*
X87292344Y-81274325D01*
X87290884Y-81278602D01*
X87290879Y-81278616D01*
X87206348Y-81526395D01*
X87206344Y-81526407D01*
X87204882Y-81530695D01*
X87204057Y-81535159D01*
X87204057Y-81535161D01*
X87156504Y-81792606D01*
X87156502Y-81792619D01*
X87155681Y-81797067D01*
X87155515Y-81801593D01*
X87155515Y-81801599D01*
X87146858Y-82038495D01*
X87145788Y-82067765D01*
X84000500Y-82067765D01*
X84000500Y-75890000D01*
X142164341Y-75890000D01*
X142184937Y-76125408D01*
X142186336Y-76130630D01*
X142186337Y-76130634D01*
X142244694Y-76348430D01*
X142244697Y-76348438D01*
X142246097Y-76353663D01*
X142248385Y-76358570D01*
X142248386Y-76358572D01*
X142343678Y-76562927D01*
X142343681Y-76562933D01*
X142345965Y-76567830D01*
X142349064Y-76572257D01*
X142349066Y-76572259D01*
X142478399Y-76756966D01*
X142478402Y-76756970D01*
X142481505Y-76761401D01*
X142648599Y-76928495D01*
X142842170Y-77064035D01*
X143056337Y-77163903D01*
X143284592Y-77225063D01*
X143520000Y-77245659D01*
X143755408Y-77225063D01*
X143983663Y-77163903D01*
X144197830Y-77064035D01*
X144391401Y-76928495D01*
X144558495Y-76761401D01*
X144688424Y-76575842D01*
X144732743Y-76536976D01*
X144790000Y-76522965D01*
X144847257Y-76536976D01*
X144891575Y-76575842D01*
X145018395Y-76756961D01*
X145018401Y-76756968D01*
X145021505Y-76761401D01*
X145188599Y-76928495D01*
X145382170Y-77064035D01*
X145596337Y-77163903D01*
X145824592Y-77225063D01*
X146060000Y-77245659D01*
X146295408Y-77225063D01*
X146523663Y-77163903D01*
X146737830Y-77064035D01*
X146931401Y-76928495D01*
X147053717Y-76806178D01*
X147106460Y-76774885D01*
X147167753Y-76772696D01*
X147222597Y-76800149D01*
X147257577Y-76850528D01*
X147303548Y-76973779D01*
X147311962Y-76989189D01*
X147387498Y-77090092D01*
X147399907Y-77102501D01*
X147500810Y-77178037D01*
X147516222Y-77186452D01*
X147635358Y-77230888D01*
X147650332Y-77234426D01*
X147698885Y-77239646D01*
X147705482Y-77240000D01*
X148333674Y-77240000D01*
X148346549Y-77236549D01*
X148350000Y-77223674D01*
X148850000Y-77223674D01*
X148853450Y-77236549D01*
X148866326Y-77240000D01*
X149494518Y-77240000D01*
X149501114Y-77239646D01*
X149549667Y-77234426D01*
X149564641Y-77230888D01*
X149683777Y-77186452D01*
X149699189Y-77178037D01*
X149800092Y-77102501D01*
X149812501Y-77090092D01*
X149888037Y-76989189D01*
X149896452Y-76973777D01*
X149942422Y-76850529D01*
X149977401Y-76800149D01*
X150032246Y-76772696D01*
X150093539Y-76774885D01*
X150146285Y-76806181D01*
X150268599Y-76928495D01*
X150462170Y-77064035D01*
X150676337Y-77163903D01*
X150904592Y-77225063D01*
X151140000Y-77245659D01*
X151375408Y-77225063D01*
X151603663Y-77163903D01*
X151817830Y-77064035D01*
X152011401Y-76928495D01*
X152178495Y-76761401D01*
X152308424Y-76575842D01*
X152352743Y-76536976D01*
X152410000Y-76522965D01*
X152467257Y-76536976D01*
X152511575Y-76575842D01*
X152638395Y-76756961D01*
X152638401Y-76756968D01*
X152641505Y-76761401D01*
X152808599Y-76928495D01*
X153002170Y-77064035D01*
X153216337Y-77163903D01*
X153444592Y-77225063D01*
X153680000Y-77245659D01*
X153915408Y-77225063D01*
X154143663Y-77163903D01*
X154357830Y-77064035D01*
X154551401Y-76928495D01*
X154718495Y-76761401D01*
X154848424Y-76575842D01*
X154892743Y-76536976D01*
X154950000Y-76522965D01*
X155007257Y-76536976D01*
X155051575Y-76575842D01*
X155178395Y-76756961D01*
X155178401Y-76756968D01*
X155181505Y-76761401D01*
X155348599Y-76928495D01*
X155542170Y-77064035D01*
X155756337Y-77163903D01*
X155984592Y-77225063D01*
X156220000Y-77245659D01*
X156455408Y-77225063D01*
X156683663Y-77163903D01*
X156897830Y-77064035D01*
X157091401Y-76928495D01*
X157258495Y-76761401D01*
X157388424Y-76575842D01*
X157432743Y-76536976D01*
X157490000Y-76522965D01*
X157547257Y-76536976D01*
X157591575Y-76575842D01*
X157718395Y-76756961D01*
X157718401Y-76756968D01*
X157721505Y-76761401D01*
X157888599Y-76928495D01*
X158082170Y-77064035D01*
X158296337Y-77163903D01*
X158524592Y-77225063D01*
X158760000Y-77245659D01*
X158995408Y-77225063D01*
X159223663Y-77163903D01*
X159437830Y-77064035D01*
X159631401Y-76928495D01*
X159753717Y-76806178D01*
X159806460Y-76774885D01*
X159867753Y-76772696D01*
X159922597Y-76800149D01*
X159957577Y-76850528D01*
X160003548Y-76973779D01*
X160011962Y-76989189D01*
X160087498Y-77090092D01*
X160099907Y-77102501D01*
X160200810Y-77178037D01*
X160216222Y-77186452D01*
X160335358Y-77230888D01*
X160350332Y-77234426D01*
X160398885Y-77239646D01*
X160405482Y-77240000D01*
X161033674Y-77240000D01*
X161046549Y-77236549D01*
X161050000Y-77223674D01*
X161550000Y-77223674D01*
X161553450Y-77236549D01*
X161566326Y-77240000D01*
X162194518Y-77240000D01*
X162201114Y-77239646D01*
X162249667Y-77234426D01*
X162264641Y-77230888D01*
X162383777Y-77186452D01*
X162399189Y-77178037D01*
X162500092Y-77102501D01*
X162512501Y-77090092D01*
X162588037Y-76989189D01*
X162596452Y-76973777D01*
X162642422Y-76850529D01*
X162677401Y-76800149D01*
X162732246Y-76772696D01*
X162793539Y-76774885D01*
X162846285Y-76806181D01*
X162968599Y-76928495D01*
X163162170Y-77064035D01*
X163376337Y-77163903D01*
X163604592Y-77225063D01*
X163840000Y-77245659D01*
X164075408Y-77225063D01*
X164303663Y-77163903D01*
X164517830Y-77064035D01*
X164711401Y-76928495D01*
X164878495Y-76761401D01*
X165008424Y-76575842D01*
X165052743Y-76536976D01*
X165110000Y-76522965D01*
X165167257Y-76536976D01*
X165211575Y-76575842D01*
X165338395Y-76756961D01*
X165338401Y-76756968D01*
X165341505Y-76761401D01*
X165508599Y-76928495D01*
X165702170Y-77064035D01*
X165916337Y-77163903D01*
X166144592Y-77225063D01*
X166380000Y-77245659D01*
X166615408Y-77225063D01*
X166843663Y-77163903D01*
X167057830Y-77064035D01*
X167251401Y-76928495D01*
X167418495Y-76761401D01*
X167548424Y-76575842D01*
X167592743Y-76536976D01*
X167650000Y-76522965D01*
X167707257Y-76536976D01*
X167751575Y-76575842D01*
X167878395Y-76756961D01*
X167878401Y-76756968D01*
X167881505Y-76761401D01*
X168048599Y-76928495D01*
X168242170Y-77064035D01*
X168456337Y-77163903D01*
X168684592Y-77225063D01*
X168920000Y-77245659D01*
X169155408Y-77225063D01*
X169383663Y-77163903D01*
X169597830Y-77064035D01*
X169791401Y-76928495D01*
X169958495Y-76761401D01*
X170088424Y-76575842D01*
X170132743Y-76536976D01*
X170190000Y-76522965D01*
X170247257Y-76536976D01*
X170291575Y-76575842D01*
X170418395Y-76756961D01*
X170418401Y-76756968D01*
X170421505Y-76761401D01*
X170588599Y-76928495D01*
X170782170Y-77064035D01*
X170996337Y-77163903D01*
X171224592Y-77225063D01*
X171460000Y-77245659D01*
X171695408Y-77225063D01*
X171923663Y-77163903D01*
X172137830Y-77064035D01*
X172331401Y-76928495D01*
X172453717Y-76806178D01*
X172506460Y-76774885D01*
X172567753Y-76772696D01*
X172622597Y-76800149D01*
X172657577Y-76850528D01*
X172703548Y-76973779D01*
X172711962Y-76989189D01*
X172787498Y-77090092D01*
X172799907Y-77102501D01*
X172900810Y-77178037D01*
X172916222Y-77186452D01*
X173035358Y-77230888D01*
X173050332Y-77234426D01*
X173098885Y-77239646D01*
X173105482Y-77240000D01*
X173733674Y-77240000D01*
X173746549Y-77236549D01*
X173750000Y-77223674D01*
X174250000Y-77223674D01*
X174253450Y-77236549D01*
X174266326Y-77240000D01*
X174894518Y-77240000D01*
X174901114Y-77239646D01*
X174949667Y-77234426D01*
X174964641Y-77230888D01*
X175083777Y-77186452D01*
X175099189Y-77178037D01*
X175200092Y-77102501D01*
X175212501Y-77090092D01*
X175288037Y-76989189D01*
X175296452Y-76973777D01*
X175342422Y-76850529D01*
X175377401Y-76800149D01*
X175432246Y-76772696D01*
X175493539Y-76774885D01*
X175546285Y-76806181D01*
X175668599Y-76928495D01*
X175862170Y-77064035D01*
X176076337Y-77163903D01*
X176304592Y-77225063D01*
X176540000Y-77245659D01*
X176775408Y-77225063D01*
X177003663Y-77163903D01*
X177217830Y-77064035D01*
X177411401Y-76928495D01*
X177578495Y-76761401D01*
X177708424Y-76575842D01*
X177752743Y-76536976D01*
X177810000Y-76522965D01*
X177867257Y-76536976D01*
X177911575Y-76575842D01*
X178038395Y-76756961D01*
X178038401Y-76756968D01*
X178041505Y-76761401D01*
X178208599Y-76928495D01*
X178402170Y-77064035D01*
X178616337Y-77163903D01*
X178844592Y-77225063D01*
X179080000Y-77245659D01*
X179315408Y-77225063D01*
X179543663Y-77163903D01*
X179757830Y-77064035D01*
X179951401Y-76928495D01*
X180118495Y-76761401D01*
X180248424Y-76575842D01*
X180292743Y-76536976D01*
X180350000Y-76522965D01*
X180407257Y-76536976D01*
X180451575Y-76575842D01*
X180578395Y-76756961D01*
X180578401Y-76756968D01*
X180581505Y-76761401D01*
X180748599Y-76928495D01*
X180942170Y-77064035D01*
X181156337Y-77163903D01*
X181384592Y-77225063D01*
X181620000Y-77245659D01*
X181855408Y-77225063D01*
X182083663Y-77163903D01*
X182297830Y-77064035D01*
X182491401Y-76928495D01*
X182658495Y-76761401D01*
X182788424Y-76575842D01*
X182832743Y-76536976D01*
X182890000Y-76522965D01*
X182947257Y-76536976D01*
X182991575Y-76575842D01*
X183118395Y-76756961D01*
X183118401Y-76756968D01*
X183121505Y-76761401D01*
X183288599Y-76928495D01*
X183482170Y-77064035D01*
X183696337Y-77163903D01*
X183924592Y-77225063D01*
X184160000Y-77245659D01*
X184395408Y-77225063D01*
X184623663Y-77163903D01*
X184837830Y-77064035D01*
X185031401Y-76928495D01*
X185153717Y-76806178D01*
X185206460Y-76774885D01*
X185267753Y-76772696D01*
X185322597Y-76800149D01*
X185357577Y-76850528D01*
X185403548Y-76973779D01*
X185411962Y-76989189D01*
X185487498Y-77090092D01*
X185499907Y-77102501D01*
X185600810Y-77178037D01*
X185616222Y-77186452D01*
X185735358Y-77230888D01*
X185750332Y-77234426D01*
X185798885Y-77239646D01*
X185805482Y-77240000D01*
X186433674Y-77240000D01*
X186446549Y-77236549D01*
X186450000Y-77223674D01*
X186950000Y-77223674D01*
X186953450Y-77236549D01*
X186966326Y-77240000D01*
X187594518Y-77240000D01*
X187601114Y-77239646D01*
X187649667Y-77234426D01*
X187664641Y-77230888D01*
X187783777Y-77186452D01*
X187799189Y-77178037D01*
X187900092Y-77102501D01*
X187912501Y-77090092D01*
X187988037Y-76989189D01*
X187996452Y-76973777D01*
X188042422Y-76850529D01*
X188077401Y-76800149D01*
X188132246Y-76772696D01*
X188193539Y-76774885D01*
X188246285Y-76806181D01*
X188368599Y-76928495D01*
X188562170Y-77064035D01*
X188776337Y-77163903D01*
X189004592Y-77225063D01*
X189240000Y-77245659D01*
X189475408Y-77225063D01*
X189703663Y-77163903D01*
X189917830Y-77064035D01*
X190111401Y-76928495D01*
X190278495Y-76761401D01*
X190408424Y-76575842D01*
X190452743Y-76536976D01*
X190510000Y-76522965D01*
X190567257Y-76536976D01*
X190611575Y-76575842D01*
X190738395Y-76756961D01*
X190738401Y-76756968D01*
X190741505Y-76761401D01*
X190908599Y-76928495D01*
X191102170Y-77064035D01*
X191316337Y-77163903D01*
X191544592Y-77225063D01*
X191780000Y-77245659D01*
X192015408Y-77225063D01*
X192243663Y-77163903D01*
X192457830Y-77064035D01*
X192651401Y-76928495D01*
X192818495Y-76761401D01*
X192954035Y-76567830D01*
X193053903Y-76353663D01*
X193115063Y-76125408D01*
X193135659Y-75890000D01*
X193115063Y-75654592D01*
X193053903Y-75426337D01*
X192954035Y-75212171D01*
X192818495Y-75018599D01*
X192651401Y-74851505D01*
X192646970Y-74848402D01*
X192646966Y-74848399D01*
X192462259Y-74719066D01*
X192462257Y-74719064D01*
X192457830Y-74715965D01*
X192452933Y-74713681D01*
X192452927Y-74713678D01*
X192248572Y-74618386D01*
X192248570Y-74618385D01*
X192243663Y-74616097D01*
X192238438Y-74614697D01*
X192238430Y-74614694D01*
X192020634Y-74556337D01*
X192020630Y-74556336D01*
X192015408Y-74554937D01*
X192010020Y-74554465D01*
X192010017Y-74554465D01*
X191785395Y-74534813D01*
X191780000Y-74534341D01*
X191774605Y-74534813D01*
X191549982Y-74554465D01*
X191549977Y-74554465D01*
X191544592Y-74554937D01*
X191539371Y-74556335D01*
X191539365Y-74556337D01*
X191321569Y-74614694D01*
X191321557Y-74614698D01*
X191316337Y-74616097D01*
X191311432Y-74618383D01*
X191311427Y-74618386D01*
X191107081Y-74713675D01*
X191107077Y-74713677D01*
X191102171Y-74715965D01*
X191097738Y-74719068D01*
X191097731Y-74719073D01*
X190913034Y-74848399D01*
X190913029Y-74848402D01*
X190908599Y-74851505D01*
X190904775Y-74855328D01*
X190904769Y-74855334D01*
X190745334Y-75014769D01*
X190745328Y-75014775D01*
X190741505Y-75018599D01*
X190738402Y-75023029D01*
X190738399Y-75023034D01*
X190611575Y-75204159D01*
X190567257Y-75243025D01*
X190510000Y-75257036D01*
X190452743Y-75243025D01*
X190408425Y-75204159D01*
X190281600Y-75023034D01*
X190278495Y-75018599D01*
X190111401Y-74851505D01*
X190106970Y-74848402D01*
X190106966Y-74848399D01*
X189922259Y-74719066D01*
X189922257Y-74719064D01*
X189917830Y-74715965D01*
X189912933Y-74713681D01*
X189912927Y-74713678D01*
X189708572Y-74618386D01*
X189708570Y-74618385D01*
X189703663Y-74616097D01*
X189698438Y-74614697D01*
X189698430Y-74614694D01*
X189480634Y-74556337D01*
X189480630Y-74556336D01*
X189475408Y-74554937D01*
X189470020Y-74554465D01*
X189470017Y-74554465D01*
X189245395Y-74534813D01*
X189240000Y-74534341D01*
X189234605Y-74534813D01*
X189009982Y-74554465D01*
X189009977Y-74554465D01*
X189004592Y-74554937D01*
X188999371Y-74556335D01*
X188999365Y-74556337D01*
X188781569Y-74614694D01*
X188781557Y-74614698D01*
X188776337Y-74616097D01*
X188771432Y-74618383D01*
X188771427Y-74618386D01*
X188567081Y-74713675D01*
X188567077Y-74713677D01*
X188562171Y-74715965D01*
X188557738Y-74719068D01*
X188557731Y-74719073D01*
X188373034Y-74848399D01*
X188373029Y-74848402D01*
X188368599Y-74851505D01*
X188364775Y-74855328D01*
X188364775Y-74855329D01*
X188246285Y-74973819D01*
X188193538Y-75005114D01*
X188132246Y-75007303D01*
X188077401Y-74979850D01*
X188042422Y-74929471D01*
X187996451Y-74806220D01*
X187988037Y-74790810D01*
X187912501Y-74689907D01*
X187900092Y-74677498D01*
X187799189Y-74601962D01*
X187783777Y-74593547D01*
X187664641Y-74549111D01*
X187649667Y-74545573D01*
X187601114Y-74540353D01*
X187594518Y-74540000D01*
X186966326Y-74540000D01*
X186953450Y-74543450D01*
X186950000Y-74556326D01*
X186950000Y-77223674D01*
X186450000Y-77223674D01*
X186450000Y-74556326D01*
X186446549Y-74543450D01*
X186433674Y-74540000D01*
X185805482Y-74540000D01*
X185798885Y-74540353D01*
X185750332Y-74545573D01*
X185735358Y-74549111D01*
X185616222Y-74593547D01*
X185600810Y-74601962D01*
X185499907Y-74677498D01*
X185487498Y-74689907D01*
X185411962Y-74790810D01*
X185403544Y-74806226D01*
X185357576Y-74929471D01*
X185322597Y-74979850D01*
X185267753Y-75007303D01*
X185206460Y-75005114D01*
X185153714Y-74973818D01*
X185035232Y-74855336D01*
X185035230Y-74855334D01*
X185031401Y-74851505D01*
X185026970Y-74848402D01*
X185026966Y-74848399D01*
X184842259Y-74719066D01*
X184842257Y-74719064D01*
X184837830Y-74715965D01*
X184832933Y-74713681D01*
X184832927Y-74713678D01*
X184628572Y-74618386D01*
X184628570Y-74618385D01*
X184623663Y-74616097D01*
X184618438Y-74614697D01*
X184618430Y-74614694D01*
X184400634Y-74556337D01*
X184400630Y-74556336D01*
X184395408Y-74554937D01*
X184390020Y-74554465D01*
X184390017Y-74554465D01*
X184165395Y-74534813D01*
X184160000Y-74534341D01*
X184154605Y-74534813D01*
X183929982Y-74554465D01*
X183929977Y-74554465D01*
X183924592Y-74554937D01*
X183919371Y-74556335D01*
X183919365Y-74556337D01*
X183701569Y-74614694D01*
X183701557Y-74614698D01*
X183696337Y-74616097D01*
X183691432Y-74618383D01*
X183691427Y-74618386D01*
X183487081Y-74713675D01*
X183487077Y-74713677D01*
X183482171Y-74715965D01*
X183477738Y-74719068D01*
X183477731Y-74719073D01*
X183293034Y-74848399D01*
X183293029Y-74848402D01*
X183288599Y-74851505D01*
X183284775Y-74855328D01*
X183284769Y-74855334D01*
X183125334Y-75014769D01*
X183125328Y-75014775D01*
X183121505Y-75018599D01*
X183118402Y-75023029D01*
X183118399Y-75023034D01*
X182991575Y-75204159D01*
X182947257Y-75243025D01*
X182890000Y-75257036D01*
X182832743Y-75243025D01*
X182788425Y-75204159D01*
X182661600Y-75023034D01*
X182658495Y-75018599D01*
X182491401Y-74851505D01*
X182486970Y-74848402D01*
X182486966Y-74848399D01*
X182302259Y-74719066D01*
X182302257Y-74719064D01*
X182297830Y-74715965D01*
X182292933Y-74713681D01*
X182292927Y-74713678D01*
X182088572Y-74618386D01*
X182088570Y-74618385D01*
X182083663Y-74616097D01*
X182078438Y-74614697D01*
X182078430Y-74614694D01*
X181860634Y-74556337D01*
X181860630Y-74556336D01*
X181855408Y-74554937D01*
X181850020Y-74554465D01*
X181850017Y-74554465D01*
X181625395Y-74534813D01*
X181620000Y-74534341D01*
X181614605Y-74534813D01*
X181389982Y-74554465D01*
X181389977Y-74554465D01*
X181384592Y-74554937D01*
X181379371Y-74556335D01*
X181379365Y-74556337D01*
X181161569Y-74614694D01*
X181161557Y-74614698D01*
X181156337Y-74616097D01*
X181151432Y-74618383D01*
X181151427Y-74618386D01*
X180947081Y-74713675D01*
X180947077Y-74713677D01*
X180942171Y-74715965D01*
X180937738Y-74719068D01*
X180937731Y-74719073D01*
X180753034Y-74848399D01*
X180753029Y-74848402D01*
X180748599Y-74851505D01*
X180744775Y-74855328D01*
X180744769Y-74855334D01*
X180585334Y-75014769D01*
X180585328Y-75014775D01*
X180581505Y-75018599D01*
X180578402Y-75023029D01*
X180578399Y-75023034D01*
X180451575Y-75204159D01*
X180407257Y-75243025D01*
X180350000Y-75257036D01*
X180292743Y-75243025D01*
X180248425Y-75204159D01*
X180121600Y-75023034D01*
X180118495Y-75018599D01*
X179951401Y-74851505D01*
X179946970Y-74848402D01*
X179946966Y-74848399D01*
X179762259Y-74719066D01*
X179762257Y-74719064D01*
X179757830Y-74715965D01*
X179752933Y-74713681D01*
X179752927Y-74713678D01*
X179548572Y-74618386D01*
X179548570Y-74618385D01*
X179543663Y-74616097D01*
X179538438Y-74614697D01*
X179538430Y-74614694D01*
X179320634Y-74556337D01*
X179320630Y-74556336D01*
X179315408Y-74554937D01*
X179310020Y-74554465D01*
X179310017Y-74554465D01*
X179085395Y-74534813D01*
X179080000Y-74534341D01*
X179074605Y-74534813D01*
X178849982Y-74554465D01*
X178849977Y-74554465D01*
X178844592Y-74554937D01*
X178839371Y-74556335D01*
X178839365Y-74556337D01*
X178621569Y-74614694D01*
X178621557Y-74614698D01*
X178616337Y-74616097D01*
X178611432Y-74618383D01*
X178611427Y-74618386D01*
X178407081Y-74713675D01*
X178407077Y-74713677D01*
X178402171Y-74715965D01*
X178397738Y-74719068D01*
X178397731Y-74719073D01*
X178213034Y-74848399D01*
X178213029Y-74848402D01*
X178208599Y-74851505D01*
X178204775Y-74855328D01*
X178204769Y-74855334D01*
X178045334Y-75014769D01*
X178045328Y-75014775D01*
X178041505Y-75018599D01*
X178038402Y-75023029D01*
X178038399Y-75023034D01*
X177911575Y-75204159D01*
X177867257Y-75243025D01*
X177810000Y-75257036D01*
X177752743Y-75243025D01*
X177708425Y-75204159D01*
X177581600Y-75023034D01*
X177578495Y-75018599D01*
X177411401Y-74851505D01*
X177406970Y-74848402D01*
X177406966Y-74848399D01*
X177222259Y-74719066D01*
X177222257Y-74719064D01*
X177217830Y-74715965D01*
X177212933Y-74713681D01*
X177212927Y-74713678D01*
X177008572Y-74618386D01*
X177008570Y-74618385D01*
X177003663Y-74616097D01*
X176998438Y-74614697D01*
X176998430Y-74614694D01*
X176780634Y-74556337D01*
X176780630Y-74556336D01*
X176775408Y-74554937D01*
X176770020Y-74554465D01*
X176770017Y-74554465D01*
X176545395Y-74534813D01*
X176540000Y-74534341D01*
X176534605Y-74534813D01*
X176309982Y-74554465D01*
X176309977Y-74554465D01*
X176304592Y-74554937D01*
X176299371Y-74556335D01*
X176299365Y-74556337D01*
X176081569Y-74614694D01*
X176081557Y-74614698D01*
X176076337Y-74616097D01*
X176071432Y-74618383D01*
X176071427Y-74618386D01*
X175867081Y-74713675D01*
X175867077Y-74713677D01*
X175862171Y-74715965D01*
X175857738Y-74719068D01*
X175857731Y-74719073D01*
X175673034Y-74848399D01*
X175673029Y-74848402D01*
X175668599Y-74851505D01*
X175664775Y-74855328D01*
X175664775Y-74855329D01*
X175546285Y-74973819D01*
X175493538Y-75005114D01*
X175432246Y-75007303D01*
X175377401Y-74979850D01*
X175342422Y-74929471D01*
X175296451Y-74806220D01*
X175288037Y-74790810D01*
X175212501Y-74689907D01*
X175200092Y-74677498D01*
X175099189Y-74601962D01*
X175083777Y-74593547D01*
X174964641Y-74549111D01*
X174949667Y-74545573D01*
X174901114Y-74540353D01*
X174894518Y-74540000D01*
X174266326Y-74540000D01*
X174253450Y-74543450D01*
X174250000Y-74556326D01*
X174250000Y-77223674D01*
X173750000Y-77223674D01*
X173750000Y-74556326D01*
X173746549Y-74543450D01*
X173733674Y-74540000D01*
X173105482Y-74540000D01*
X173098885Y-74540353D01*
X173050332Y-74545573D01*
X173035358Y-74549111D01*
X172916222Y-74593547D01*
X172900810Y-74601962D01*
X172799907Y-74677498D01*
X172787498Y-74689907D01*
X172711962Y-74790810D01*
X172703544Y-74806226D01*
X172657576Y-74929471D01*
X172622597Y-74979850D01*
X172567753Y-75007303D01*
X172506460Y-75005114D01*
X172453714Y-74973818D01*
X172335232Y-74855336D01*
X172335230Y-74855334D01*
X172331401Y-74851505D01*
X172326970Y-74848402D01*
X172326966Y-74848399D01*
X172142259Y-74719066D01*
X172142257Y-74719064D01*
X172137830Y-74715965D01*
X172132933Y-74713681D01*
X172132927Y-74713678D01*
X171928572Y-74618386D01*
X171928570Y-74618385D01*
X171923663Y-74616097D01*
X171918438Y-74614697D01*
X171918430Y-74614694D01*
X171700634Y-74556337D01*
X171700630Y-74556336D01*
X171695408Y-74554937D01*
X171690020Y-74554465D01*
X171690017Y-74554465D01*
X171465395Y-74534813D01*
X171460000Y-74534341D01*
X171454605Y-74534813D01*
X171229982Y-74554465D01*
X171229977Y-74554465D01*
X171224592Y-74554937D01*
X171219371Y-74556335D01*
X171219365Y-74556337D01*
X171001569Y-74614694D01*
X171001557Y-74614698D01*
X170996337Y-74616097D01*
X170991432Y-74618383D01*
X170991427Y-74618386D01*
X170787081Y-74713675D01*
X170787077Y-74713677D01*
X170782171Y-74715965D01*
X170777738Y-74719068D01*
X170777731Y-74719073D01*
X170593034Y-74848399D01*
X170593029Y-74848402D01*
X170588599Y-74851505D01*
X170584775Y-74855328D01*
X170584769Y-74855334D01*
X170425334Y-75014769D01*
X170425328Y-75014775D01*
X170421505Y-75018599D01*
X170418402Y-75023029D01*
X170418399Y-75023034D01*
X170291575Y-75204159D01*
X170247257Y-75243025D01*
X170190000Y-75257036D01*
X170132743Y-75243025D01*
X170088425Y-75204159D01*
X169961600Y-75023034D01*
X169958495Y-75018599D01*
X169791401Y-74851505D01*
X169786970Y-74848402D01*
X169786966Y-74848399D01*
X169602259Y-74719066D01*
X169602257Y-74719064D01*
X169597830Y-74715965D01*
X169592933Y-74713681D01*
X169592927Y-74713678D01*
X169388572Y-74618386D01*
X169388570Y-74618385D01*
X169383663Y-74616097D01*
X169378438Y-74614697D01*
X169378430Y-74614694D01*
X169160634Y-74556337D01*
X169160630Y-74556336D01*
X169155408Y-74554937D01*
X169150020Y-74554465D01*
X169150017Y-74554465D01*
X168925395Y-74534813D01*
X168920000Y-74534341D01*
X168914605Y-74534813D01*
X168689982Y-74554465D01*
X168689977Y-74554465D01*
X168684592Y-74554937D01*
X168679371Y-74556335D01*
X168679365Y-74556337D01*
X168461569Y-74614694D01*
X168461557Y-74614698D01*
X168456337Y-74616097D01*
X168451432Y-74618383D01*
X168451427Y-74618386D01*
X168247081Y-74713675D01*
X168247077Y-74713677D01*
X168242171Y-74715965D01*
X168237738Y-74719068D01*
X168237731Y-74719073D01*
X168053034Y-74848399D01*
X168053029Y-74848402D01*
X168048599Y-74851505D01*
X168044775Y-74855328D01*
X168044769Y-74855334D01*
X167885334Y-75014769D01*
X167885328Y-75014775D01*
X167881505Y-75018599D01*
X167878402Y-75023029D01*
X167878399Y-75023034D01*
X167751575Y-75204159D01*
X167707257Y-75243025D01*
X167650000Y-75257036D01*
X167592743Y-75243025D01*
X167548425Y-75204159D01*
X167421600Y-75023034D01*
X167418495Y-75018599D01*
X167251401Y-74851505D01*
X167246970Y-74848402D01*
X167246966Y-74848399D01*
X167062259Y-74719066D01*
X167062257Y-74719064D01*
X167057830Y-74715965D01*
X167052933Y-74713681D01*
X167052927Y-74713678D01*
X166848572Y-74618386D01*
X166848570Y-74618385D01*
X166843663Y-74616097D01*
X166838438Y-74614697D01*
X166838430Y-74614694D01*
X166620634Y-74556337D01*
X166620630Y-74556336D01*
X166615408Y-74554937D01*
X166610020Y-74554465D01*
X166610017Y-74554465D01*
X166385395Y-74534813D01*
X166380000Y-74534341D01*
X166374605Y-74534813D01*
X166149982Y-74554465D01*
X166149977Y-74554465D01*
X166144592Y-74554937D01*
X166139371Y-74556335D01*
X166139365Y-74556337D01*
X165921569Y-74614694D01*
X165921557Y-74614698D01*
X165916337Y-74616097D01*
X165911432Y-74618383D01*
X165911427Y-74618386D01*
X165707081Y-74713675D01*
X165707077Y-74713677D01*
X165702171Y-74715965D01*
X165697738Y-74719068D01*
X165697731Y-74719073D01*
X165513034Y-74848399D01*
X165513029Y-74848402D01*
X165508599Y-74851505D01*
X165504775Y-74855328D01*
X165504769Y-74855334D01*
X165345334Y-75014769D01*
X165345328Y-75014775D01*
X165341505Y-75018599D01*
X165338402Y-75023029D01*
X165338399Y-75023034D01*
X165211575Y-75204159D01*
X165167257Y-75243025D01*
X165110000Y-75257036D01*
X165052743Y-75243025D01*
X165008425Y-75204159D01*
X164881600Y-75023034D01*
X164878495Y-75018599D01*
X164711401Y-74851505D01*
X164706970Y-74848402D01*
X164706966Y-74848399D01*
X164522259Y-74719066D01*
X164522257Y-74719064D01*
X164517830Y-74715965D01*
X164512933Y-74713681D01*
X164512927Y-74713678D01*
X164308572Y-74618386D01*
X164308570Y-74618385D01*
X164303663Y-74616097D01*
X164298438Y-74614697D01*
X164298430Y-74614694D01*
X164080634Y-74556337D01*
X164080630Y-74556336D01*
X164075408Y-74554937D01*
X164070020Y-74554465D01*
X164070017Y-74554465D01*
X163845395Y-74534813D01*
X163840000Y-74534341D01*
X163834605Y-74534813D01*
X163609982Y-74554465D01*
X163609977Y-74554465D01*
X163604592Y-74554937D01*
X163599371Y-74556335D01*
X163599365Y-74556337D01*
X163381569Y-74614694D01*
X163381557Y-74614698D01*
X163376337Y-74616097D01*
X163371432Y-74618383D01*
X163371427Y-74618386D01*
X163167081Y-74713675D01*
X163167077Y-74713677D01*
X163162171Y-74715965D01*
X163157738Y-74719068D01*
X163157731Y-74719073D01*
X162973034Y-74848399D01*
X162973029Y-74848402D01*
X162968599Y-74851505D01*
X162964775Y-74855328D01*
X162964775Y-74855329D01*
X162846285Y-74973819D01*
X162793538Y-75005114D01*
X162732246Y-75007303D01*
X162677401Y-74979850D01*
X162642422Y-74929471D01*
X162596451Y-74806220D01*
X162588037Y-74790810D01*
X162512501Y-74689907D01*
X162500092Y-74677498D01*
X162399189Y-74601962D01*
X162383777Y-74593547D01*
X162264641Y-74549111D01*
X162249667Y-74545573D01*
X162201114Y-74540353D01*
X162194518Y-74540000D01*
X161566326Y-74540000D01*
X161553450Y-74543450D01*
X161550000Y-74556326D01*
X161550000Y-77223674D01*
X161050000Y-77223674D01*
X161050000Y-74556326D01*
X161046549Y-74543450D01*
X161033674Y-74540000D01*
X160405482Y-74540000D01*
X160398885Y-74540353D01*
X160350332Y-74545573D01*
X160335358Y-74549111D01*
X160216222Y-74593547D01*
X160200810Y-74601962D01*
X160099907Y-74677498D01*
X160087498Y-74689907D01*
X160011962Y-74790810D01*
X160003544Y-74806226D01*
X159957576Y-74929471D01*
X159922597Y-74979850D01*
X159867753Y-75007303D01*
X159806460Y-75005114D01*
X159753714Y-74973818D01*
X159635232Y-74855336D01*
X159635230Y-74855334D01*
X159631401Y-74851505D01*
X159626970Y-74848402D01*
X159626966Y-74848399D01*
X159442259Y-74719066D01*
X159442257Y-74719064D01*
X159437830Y-74715965D01*
X159432933Y-74713681D01*
X159432927Y-74713678D01*
X159228572Y-74618386D01*
X159228570Y-74618385D01*
X159223663Y-74616097D01*
X159218438Y-74614697D01*
X159218430Y-74614694D01*
X159000634Y-74556337D01*
X159000630Y-74556336D01*
X158995408Y-74554937D01*
X158990020Y-74554465D01*
X158990017Y-74554465D01*
X158765395Y-74534813D01*
X158760000Y-74534341D01*
X158754605Y-74534813D01*
X158529982Y-74554465D01*
X158529977Y-74554465D01*
X158524592Y-74554937D01*
X158519371Y-74556335D01*
X158519365Y-74556337D01*
X158301569Y-74614694D01*
X158301557Y-74614698D01*
X158296337Y-74616097D01*
X158291432Y-74618383D01*
X158291427Y-74618386D01*
X158087081Y-74713675D01*
X158087077Y-74713677D01*
X158082171Y-74715965D01*
X158077738Y-74719068D01*
X158077731Y-74719073D01*
X157893034Y-74848399D01*
X157893029Y-74848402D01*
X157888599Y-74851505D01*
X157884775Y-74855328D01*
X157884769Y-74855334D01*
X157725334Y-75014769D01*
X157725328Y-75014775D01*
X157721505Y-75018599D01*
X157718402Y-75023029D01*
X157718399Y-75023034D01*
X157591575Y-75204159D01*
X157547257Y-75243025D01*
X157490000Y-75257036D01*
X157432743Y-75243025D01*
X157388425Y-75204159D01*
X157261600Y-75023034D01*
X157258495Y-75018599D01*
X157091401Y-74851505D01*
X157086970Y-74848402D01*
X157086966Y-74848399D01*
X156902259Y-74719066D01*
X156902257Y-74719064D01*
X156897830Y-74715965D01*
X156892933Y-74713681D01*
X156892927Y-74713678D01*
X156688572Y-74618386D01*
X156688570Y-74618385D01*
X156683663Y-74616097D01*
X156678438Y-74614697D01*
X156678430Y-74614694D01*
X156460634Y-74556337D01*
X156460630Y-74556336D01*
X156455408Y-74554937D01*
X156450020Y-74554465D01*
X156450017Y-74554465D01*
X156225395Y-74534813D01*
X156220000Y-74534341D01*
X156214605Y-74534813D01*
X155989982Y-74554465D01*
X155989977Y-74554465D01*
X155984592Y-74554937D01*
X155979371Y-74556335D01*
X155979365Y-74556337D01*
X155761569Y-74614694D01*
X155761557Y-74614698D01*
X155756337Y-74616097D01*
X155751432Y-74618383D01*
X155751427Y-74618386D01*
X155547081Y-74713675D01*
X155547077Y-74713677D01*
X155542171Y-74715965D01*
X155537738Y-74719068D01*
X155537731Y-74719073D01*
X155353034Y-74848399D01*
X155353029Y-74848402D01*
X155348599Y-74851505D01*
X155344775Y-74855328D01*
X155344769Y-74855334D01*
X155185334Y-75014769D01*
X155185328Y-75014775D01*
X155181505Y-75018599D01*
X155178402Y-75023029D01*
X155178399Y-75023034D01*
X155051575Y-75204159D01*
X155007257Y-75243025D01*
X154950000Y-75257036D01*
X154892743Y-75243025D01*
X154848425Y-75204159D01*
X154721600Y-75023034D01*
X154718495Y-75018599D01*
X154551401Y-74851505D01*
X154546970Y-74848402D01*
X154546966Y-74848399D01*
X154362259Y-74719066D01*
X154362257Y-74719064D01*
X154357830Y-74715965D01*
X154352933Y-74713681D01*
X154352927Y-74713678D01*
X154148572Y-74618386D01*
X154148570Y-74618385D01*
X154143663Y-74616097D01*
X154138438Y-74614697D01*
X154138430Y-74614694D01*
X153920634Y-74556337D01*
X153920630Y-74556336D01*
X153915408Y-74554937D01*
X153910020Y-74554465D01*
X153910017Y-74554465D01*
X153685395Y-74534813D01*
X153680000Y-74534341D01*
X153674605Y-74534813D01*
X153449982Y-74554465D01*
X153449977Y-74554465D01*
X153444592Y-74554937D01*
X153439371Y-74556335D01*
X153439365Y-74556337D01*
X153221569Y-74614694D01*
X153221557Y-74614698D01*
X153216337Y-74616097D01*
X153211432Y-74618383D01*
X153211427Y-74618386D01*
X153007081Y-74713675D01*
X153007077Y-74713677D01*
X153002171Y-74715965D01*
X152997738Y-74719068D01*
X152997731Y-74719073D01*
X152813034Y-74848399D01*
X152813029Y-74848402D01*
X152808599Y-74851505D01*
X152804775Y-74855328D01*
X152804769Y-74855334D01*
X152645334Y-75014769D01*
X152645328Y-75014775D01*
X152641505Y-75018599D01*
X152638402Y-75023029D01*
X152638399Y-75023034D01*
X152511575Y-75204159D01*
X152467257Y-75243025D01*
X152410000Y-75257036D01*
X152352743Y-75243025D01*
X152308425Y-75204159D01*
X152181600Y-75023034D01*
X152178495Y-75018599D01*
X152011401Y-74851505D01*
X152006970Y-74848402D01*
X152006966Y-74848399D01*
X151822259Y-74719066D01*
X151822257Y-74719064D01*
X151817830Y-74715965D01*
X151812933Y-74713681D01*
X151812927Y-74713678D01*
X151608572Y-74618386D01*
X151608570Y-74618385D01*
X151603663Y-74616097D01*
X151598438Y-74614697D01*
X151598430Y-74614694D01*
X151380634Y-74556337D01*
X151380630Y-74556336D01*
X151375408Y-74554937D01*
X151370020Y-74554465D01*
X151370017Y-74554465D01*
X151145395Y-74534813D01*
X151140000Y-74534341D01*
X151134605Y-74534813D01*
X150909982Y-74554465D01*
X150909977Y-74554465D01*
X150904592Y-74554937D01*
X150899371Y-74556335D01*
X150899365Y-74556337D01*
X150681569Y-74614694D01*
X150681557Y-74614698D01*
X150676337Y-74616097D01*
X150671432Y-74618383D01*
X150671427Y-74618386D01*
X150467081Y-74713675D01*
X150467077Y-74713677D01*
X150462171Y-74715965D01*
X150457738Y-74719068D01*
X150457731Y-74719073D01*
X150273034Y-74848399D01*
X150273029Y-74848402D01*
X150268599Y-74851505D01*
X150264775Y-74855328D01*
X150264775Y-74855329D01*
X150146285Y-74973819D01*
X150093538Y-75005114D01*
X150032246Y-75007303D01*
X149977401Y-74979850D01*
X149942422Y-74929471D01*
X149896451Y-74806220D01*
X149888037Y-74790810D01*
X149812501Y-74689907D01*
X149800092Y-74677498D01*
X149699189Y-74601962D01*
X149683777Y-74593547D01*
X149564641Y-74549111D01*
X149549667Y-74545573D01*
X149501114Y-74540353D01*
X149494518Y-74540000D01*
X148866326Y-74540000D01*
X148853450Y-74543450D01*
X148850000Y-74556326D01*
X148850000Y-77223674D01*
X148350000Y-77223674D01*
X148350000Y-74556326D01*
X148346549Y-74543450D01*
X148333674Y-74540000D01*
X147705482Y-74540000D01*
X147698885Y-74540353D01*
X147650332Y-74545573D01*
X147635358Y-74549111D01*
X147516222Y-74593547D01*
X147500810Y-74601962D01*
X147399907Y-74677498D01*
X147387498Y-74689907D01*
X147311962Y-74790810D01*
X147303544Y-74806226D01*
X147257576Y-74929471D01*
X147222597Y-74979850D01*
X147167753Y-75007303D01*
X147106460Y-75005114D01*
X147053714Y-74973818D01*
X146935232Y-74855336D01*
X146935230Y-74855334D01*
X146931401Y-74851505D01*
X146926970Y-74848402D01*
X146926966Y-74848399D01*
X146742259Y-74719066D01*
X146742257Y-74719064D01*
X146737830Y-74715965D01*
X146732933Y-74713681D01*
X146732927Y-74713678D01*
X146528572Y-74618386D01*
X146528570Y-74618385D01*
X146523663Y-74616097D01*
X146518438Y-74614697D01*
X146518430Y-74614694D01*
X146300634Y-74556337D01*
X146300630Y-74556336D01*
X146295408Y-74554937D01*
X146290020Y-74554465D01*
X146290017Y-74554465D01*
X146065395Y-74534813D01*
X146060000Y-74534341D01*
X146054605Y-74534813D01*
X145829982Y-74554465D01*
X145829977Y-74554465D01*
X145824592Y-74554937D01*
X145819371Y-74556335D01*
X145819365Y-74556337D01*
X145601569Y-74614694D01*
X145601557Y-74614698D01*
X145596337Y-74616097D01*
X145591432Y-74618383D01*
X145591427Y-74618386D01*
X145387081Y-74713675D01*
X145387077Y-74713677D01*
X145382171Y-74715965D01*
X145377738Y-74719068D01*
X145377731Y-74719073D01*
X145193034Y-74848399D01*
X145193029Y-74848402D01*
X145188599Y-74851505D01*
X145184775Y-74855328D01*
X145184769Y-74855334D01*
X145025334Y-75014769D01*
X145025328Y-75014775D01*
X145021505Y-75018599D01*
X145018402Y-75023029D01*
X145018399Y-75023034D01*
X144891575Y-75204159D01*
X144847257Y-75243025D01*
X144790000Y-75257036D01*
X144732743Y-75243025D01*
X144688425Y-75204159D01*
X144561600Y-75023034D01*
X144558495Y-75018599D01*
X144391401Y-74851505D01*
X144386970Y-74848402D01*
X144386966Y-74848399D01*
X144202259Y-74719066D01*
X144202257Y-74719064D01*
X144197830Y-74715965D01*
X144192933Y-74713681D01*
X144192927Y-74713678D01*
X143988572Y-74618386D01*
X143988570Y-74618385D01*
X143983663Y-74616097D01*
X143978438Y-74614697D01*
X143978430Y-74614694D01*
X143760634Y-74556337D01*
X143760630Y-74556336D01*
X143755408Y-74554937D01*
X143750020Y-74554465D01*
X143750017Y-74554465D01*
X143525395Y-74534813D01*
X143520000Y-74534341D01*
X143514605Y-74534813D01*
X143289982Y-74554465D01*
X143289977Y-74554465D01*
X143284592Y-74554937D01*
X143279371Y-74556335D01*
X143279365Y-74556337D01*
X143061569Y-74614694D01*
X143061557Y-74614698D01*
X143056337Y-74616097D01*
X143051432Y-74618383D01*
X143051427Y-74618386D01*
X142847081Y-74713675D01*
X142847077Y-74713677D01*
X142842171Y-74715965D01*
X142837738Y-74719068D01*
X142837731Y-74719073D01*
X142653034Y-74848399D01*
X142653029Y-74848402D01*
X142648599Y-74851505D01*
X142644775Y-74855328D01*
X142644769Y-74855334D01*
X142485334Y-75014769D01*
X142485328Y-75014775D01*
X142481505Y-75018599D01*
X142478402Y-75023029D01*
X142478399Y-75023034D01*
X142349073Y-75207731D01*
X142349068Y-75207738D01*
X142345965Y-75212171D01*
X142343677Y-75217077D01*
X142343675Y-75217081D01*
X142248386Y-75421427D01*
X142248383Y-75421432D01*
X142246097Y-75426337D01*
X142244698Y-75431557D01*
X142244694Y-75431569D01*
X142186337Y-75649365D01*
X142186335Y-75649371D01*
X142184937Y-75654592D01*
X142164341Y-75890000D01*
X84000500Y-75890000D01*
X84000500Y-71660000D01*
X96204671Y-71660000D01*
X96204936Y-71664044D01*
X96206635Y-71689968D01*
X96206831Y-71702219D01*
X96205861Y-71731221D01*
X96205861Y-71731230D01*
X96205723Y-71735369D01*
X96206137Y-71739490D01*
X96206138Y-71739502D01*
X96216664Y-71844136D01*
X96217021Y-71848436D01*
X96221806Y-71921432D01*
X96223966Y-71954380D01*
X96224757Y-71958357D01*
X96224759Y-71958372D01*
X96230469Y-71987083D01*
X96232228Y-71998852D01*
X96235466Y-72031033D01*
X96235467Y-72031040D01*
X96235882Y-72035162D01*
X96236843Y-72039197D01*
X96236845Y-72039205D01*
X96260457Y-72138288D01*
X96261452Y-72142841D01*
X96270201Y-72186823D01*
X96281519Y-72243722D01*
X96282822Y-72247563D01*
X96282826Y-72247575D01*
X96293300Y-72278433D01*
X96296501Y-72289538D01*
X96304769Y-72324229D01*
X96304773Y-72324243D01*
X96305731Y-72328261D01*
X96307214Y-72332112D01*
X96307217Y-72332121D01*
X96342644Y-72424105D01*
X96344348Y-72428811D01*
X96369894Y-72504067D01*
X96376348Y-72523077D01*
X96378141Y-72526713D01*
X96378142Y-72526715D01*
X96394022Y-72558916D01*
X96398523Y-72569191D01*
X96412534Y-72605568D01*
X96414023Y-72609434D01*
X96416014Y-72613067D01*
X96461787Y-72696594D01*
X96464249Y-72701325D01*
X96506828Y-72787665D01*
X96509081Y-72791037D01*
X96509084Y-72791042D01*
X96530868Y-72823644D01*
X96536507Y-72832941D01*
X96558825Y-72873665D01*
X96561284Y-72877002D01*
X96561287Y-72877007D01*
X96615826Y-72951028D01*
X96619099Y-72955691D01*
X96670727Y-73032957D01*
X96673399Y-73036004D01*
X96673403Y-73036009D01*
X96701445Y-73067985D01*
X96708039Y-73076180D01*
X96737554Y-73116238D01*
X96740439Y-73119221D01*
X96802064Y-73182942D01*
X96806156Y-73187385D01*
X96844245Y-73230816D01*
X96865242Y-73254758D01*
X96868289Y-73257430D01*
X96868291Y-73257432D01*
X96902755Y-73287657D01*
X96910128Y-73294679D01*
X96941192Y-73326798D01*
X96947020Y-73332824D01*
X96956921Y-73340643D01*
X97017241Y-73388276D01*
X97022152Y-73392364D01*
X97087043Y-73449273D01*
X97131308Y-73478850D01*
X97139228Y-73484609D01*
X97183485Y-73519558D01*
X97187052Y-73521671D01*
X97187054Y-73521672D01*
X97257610Y-73563462D01*
X97263309Y-73567050D01*
X97325920Y-73608886D01*
X97332335Y-73613172D01*
X97335975Y-73614967D01*
X97383036Y-73638175D01*
X97391381Y-73642695D01*
X97442730Y-73673109D01*
X97446534Y-73674722D01*
X97446538Y-73674724D01*
X97519009Y-73705454D01*
X97525439Y-73708400D01*
X97596923Y-73743652D01*
X97653585Y-73762886D01*
X97662134Y-73766144D01*
X97720128Y-73790736D01*
X97794578Y-73811129D01*
X97796832Y-73811747D01*
X97803916Y-73813916D01*
X97876278Y-73838481D01*
X97938232Y-73850804D01*
X97946786Y-73852824D01*
X98010729Y-73870340D01*
X98086297Y-73880502D01*
X98093934Y-73881774D01*
X98165620Y-73896034D01*
X98169660Y-73896298D01*
X98169662Y-73896299D01*
X98176676Y-73896758D01*
X98231972Y-73900382D01*
X98240339Y-73901218D01*
X98309347Y-73910500D01*
X98382273Y-73910500D01*
X98390383Y-73910766D01*
X98460000Y-73915329D01*
X98532239Y-73910594D01*
X98534143Y-73910500D01*
X98535244Y-73910500D01*
X98608670Y-73905584D01*
X98608844Y-73905610D01*
X98608842Y-73905573D01*
X98608841Y-73905573D01*
X98754380Y-73896034D01*
X98755453Y-73895819D01*
X98755685Y-73895797D01*
X98756488Y-73895689D01*
X98760634Y-73895412D01*
X98903658Y-73866341D01*
X99043722Y-73838481D01*
X99046833Y-73837424D01*
X99051192Y-73836398D01*
X99051828Y-73836223D01*
X99055903Y-73835396D01*
X99190443Y-73788678D01*
X99191251Y-73788401D01*
X99262076Y-73764359D01*
X99323077Y-73743652D01*
X99326722Y-73741853D01*
X99330476Y-73740299D01*
X99330570Y-73740528D01*
X99332820Y-73739580D01*
X99332803Y-73739538D01*
X99336614Y-73737921D01*
X99340537Y-73736560D01*
X99464742Y-73673795D01*
X99465651Y-73673341D01*
X99587665Y-73613172D01*
X99591041Y-73610915D01*
X99594557Y-73608886D01*
X99594564Y-73608899D01*
X99603540Y-73603658D01*
X99609459Y-73600668D01*
X99721602Y-73523685D01*
X99722536Y-73523053D01*
X99832957Y-73449273D01*
X99838074Y-73444784D01*
X99849655Y-73435781D01*
X99857869Y-73430144D01*
X99956143Y-73341258D01*
X99957491Y-73340057D01*
X100054758Y-73254758D01*
X100061434Y-73247143D01*
X100071494Y-73236930D01*
X100081333Y-73228032D01*
X100164799Y-73129305D01*
X100166127Y-73127764D01*
X100249273Y-73032957D01*
X100256744Y-73021774D01*
X100265144Y-73010618D01*
X100275865Y-72997939D01*
X100343611Y-72891815D01*
X100344972Y-72889732D01*
X100413172Y-72787665D01*
X100420588Y-72772625D01*
X100427274Y-72760759D01*
X100437993Y-72743970D01*
X100489611Y-72632733D01*
X100490806Y-72630236D01*
X100543652Y-72523077D01*
X100550109Y-72504053D01*
X100555048Y-72491722D01*
X100563078Y-72474419D01*
X100563079Y-72474414D01*
X100564823Y-72470658D01*
X100600150Y-72356773D01*
X100601150Y-72353691D01*
X100638481Y-72243722D01*
X100643047Y-72220759D01*
X100646225Y-72208238D01*
X100654093Y-72182879D01*
X100673383Y-72068516D01*
X100674023Y-72065033D01*
X100696034Y-71954380D01*
X100697781Y-71927712D01*
X100699239Y-71915229D01*
X100704209Y-71885770D01*
X100707973Y-71773173D01*
X100708169Y-71769227D01*
X100710389Y-71735369D01*
X100715329Y-71660000D01*
X100713363Y-71630022D01*
X100713167Y-71617803D01*
X100714277Y-71584631D01*
X100703336Y-71475880D01*
X100702979Y-71471584D01*
X100700802Y-71438367D01*
X100696034Y-71365620D01*
X100689528Y-71332912D01*
X100687770Y-71321143D01*
X100684533Y-71288967D01*
X100684118Y-71284838D01*
X100659532Y-71181675D01*
X100658556Y-71177210D01*
X100638481Y-71076278D01*
X100626695Y-71041559D01*
X100623496Y-71030457D01*
X100615229Y-70995769D01*
X100614269Y-70991739D01*
X100577351Y-70895884D01*
X100575655Y-70891200D01*
X100552245Y-70822237D01*
X100543652Y-70796923D01*
X100525973Y-70761073D01*
X100521479Y-70750816D01*
X100505977Y-70710566D01*
X100458196Y-70623378D01*
X100455755Y-70618688D01*
X100413172Y-70532336D01*
X100410912Y-70528953D01*
X100410911Y-70528952D01*
X100389133Y-70496360D01*
X100383491Y-70487058D01*
X100382782Y-70485765D01*
X100361175Y-70446335D01*
X100304169Y-70368966D01*
X100300897Y-70364304D01*
X100249273Y-70287043D01*
X100218553Y-70252013D01*
X100211954Y-70243810D01*
X100184908Y-70207103D01*
X100184905Y-70207100D01*
X100182446Y-70203762D01*
X100117934Y-70137056D01*
X100113842Y-70132613D01*
X100066165Y-70078249D01*
X100054758Y-70065242D01*
X100051717Y-70062575D01*
X100051707Y-70062565D01*
X100017237Y-70032335D01*
X100009864Y-70025313D01*
X99975861Y-69990155D01*
X99972980Y-69987176D01*
X99969730Y-69984609D01*
X99969725Y-69984605D01*
X99902768Y-69931730D01*
X99897858Y-69927643D01*
X99836015Y-69873408D01*
X99836007Y-69873402D01*
X99832957Y-69870727D01*
X99829583Y-69868473D01*
X99829572Y-69868464D01*
X99788701Y-69841154D01*
X99780745Y-69835369D01*
X99739770Y-69803012D01*
X99739766Y-69803009D01*
X99736515Y-69800442D01*
X99732945Y-69798327D01*
X99732940Y-69798324D01*
X99662387Y-69756535D01*
X99656690Y-69752948D01*
X99591042Y-69709084D01*
X99591037Y-69709081D01*
X99587665Y-69706828D01*
X99584030Y-69705035D01*
X99584026Y-69705033D01*
X99536949Y-69681816D01*
X99528615Y-69677302D01*
X99477270Y-69646891D01*
X99400997Y-69614548D01*
X99394570Y-69611603D01*
X99326720Y-69578143D01*
X99326701Y-69578135D01*
X99323077Y-69576348D01*
X99319247Y-69575047D01*
X99319245Y-69575047D01*
X99266409Y-69557111D01*
X99257863Y-69553853D01*
X99203700Y-69530886D01*
X99203684Y-69530880D01*
X99199872Y-69529264D01*
X99195874Y-69528168D01*
X99195866Y-69528166D01*
X99123154Y-69508248D01*
X99116074Y-69506079D01*
X99043722Y-69481519D01*
X99039749Y-69480728D01*
X99039739Y-69480726D01*
X98981777Y-69469197D01*
X98973210Y-69467174D01*
X98913270Y-69450755D01*
X98913264Y-69450753D01*
X98909271Y-69449660D01*
X98905170Y-69449108D01*
X98905158Y-69449106D01*
X98833717Y-69439497D01*
X98826058Y-69438222D01*
X98758361Y-69424757D01*
X98758348Y-69424755D01*
X98754380Y-69423966D01*
X98750328Y-69423700D01*
X98750325Y-69423700D01*
X98688070Y-69419619D01*
X98679655Y-69418779D01*
X98614756Y-69410051D01*
X98614744Y-69410050D01*
X98610653Y-69409500D01*
X98606512Y-69409500D01*
X98537727Y-69409500D01*
X98529617Y-69409234D01*
X98464058Y-69404937D01*
X98460000Y-69404671D01*
X98387776Y-69409404D01*
X98385855Y-69409500D01*
X98384756Y-69409500D01*
X98382696Y-69409637D01*
X98382692Y-69409638D01*
X98311157Y-69414426D01*
X98310987Y-69414437D01*
X98168845Y-69423754D01*
X98168827Y-69423755D01*
X98165620Y-69423966D01*
X98164533Y-69424181D01*
X98164259Y-69424209D01*
X98163503Y-69424310D01*
X98159366Y-69424588D01*
X98155308Y-69425412D01*
X98155306Y-69425413D01*
X98016650Y-69453595D01*
X98016146Y-69453696D01*
X97880251Y-69480728D01*
X97880240Y-69480730D01*
X97876278Y-69481519D01*
X97873169Y-69482573D01*
X97868810Y-69483600D01*
X97868160Y-69483777D01*
X97864097Y-69484604D01*
X97860182Y-69485963D01*
X97860176Y-69485965D01*
X97729651Y-69531287D01*
X97728837Y-69531567D01*
X97600765Y-69575043D01*
X97600754Y-69575047D01*
X97596923Y-69576348D01*
X97593284Y-69578141D01*
X97589538Y-69579694D01*
X97589454Y-69579492D01*
X97587182Y-69580439D01*
X97587192Y-69580462D01*
X97583360Y-69582086D01*
X97579463Y-69583440D01*
X97575789Y-69585296D01*
X97575769Y-69585305D01*
X97455241Y-69646210D01*
X97454162Y-69646749D01*
X97449602Y-69648998D01*
X97332336Y-69706828D01*
X97328972Y-69709075D01*
X97325446Y-69711111D01*
X97325439Y-69711099D01*
X97316491Y-69716324D01*
X97314242Y-69717460D01*
X97314223Y-69717470D01*
X97310541Y-69719332D01*
X97307139Y-69721667D01*
X97307126Y-69721675D01*
X97198584Y-69796185D01*
X97197298Y-69797056D01*
X97090423Y-69868468D01*
X97090417Y-69868472D01*
X97087043Y-69870727D01*
X97083996Y-69873398D01*
X97083979Y-69873412D01*
X97081914Y-69875224D01*
X97070353Y-69884211D01*
X97065554Y-69887505D01*
X97065543Y-69887513D01*
X97062131Y-69889856D01*
X97059058Y-69892634D01*
X97059052Y-69892640D01*
X96963881Y-69978716D01*
X96962465Y-69979977D01*
X96868289Y-70062568D01*
X96868274Y-70062582D01*
X96865242Y-70065242D01*
X96862580Y-70068276D01*
X96862567Y-70068290D01*
X96858557Y-70072863D01*
X96848520Y-70083055D01*
X96841735Y-70089191D01*
X96841720Y-70089206D01*
X96838667Y-70091968D01*
X96836003Y-70095118D01*
X96835999Y-70095123D01*
X96755299Y-70190575D01*
X96753836Y-70192274D01*
X96673407Y-70283986D01*
X96673400Y-70283994D01*
X96670727Y-70287043D01*
X96668471Y-70290417D01*
X96668467Y-70290424D01*
X96663247Y-70298235D01*
X96654852Y-70309382D01*
X96646813Y-70318891D01*
X96646800Y-70318907D01*
X96644135Y-70322061D01*
X96641913Y-70325541D01*
X96641909Y-70325547D01*
X96576420Y-70428132D01*
X96575005Y-70430297D01*
X96509087Y-70528953D01*
X96509078Y-70528968D01*
X96506828Y-70532336D01*
X96505034Y-70535971D01*
X96505033Y-70535975D01*
X96499412Y-70547372D01*
X96492727Y-70559234D01*
X96484236Y-70572536D01*
X96484227Y-70572550D01*
X96482007Y-70576030D01*
X96480271Y-70579769D01*
X96480267Y-70579778D01*
X96430412Y-70687212D01*
X96429146Y-70689857D01*
X96396508Y-70756042D01*
X96376348Y-70796923D01*
X96375046Y-70800755D01*
X96375045Y-70800760D01*
X96369891Y-70815943D01*
X96364954Y-70828271D01*
X96356923Y-70845577D01*
X96356918Y-70845589D01*
X96355177Y-70849342D01*
X96353949Y-70853298D01*
X96353946Y-70853308D01*
X96319852Y-70963215D01*
X96318850Y-70966300D01*
X96281519Y-71076278D01*
X96280727Y-71080254D01*
X96280723Y-71080273D01*
X96276951Y-71099236D01*
X96273769Y-71111774D01*
X96265907Y-71137121D01*
X96265219Y-71141194D01*
X96265214Y-71141219D01*
X96246622Y-71251434D01*
X96245968Y-71254996D01*
X96224758Y-71361636D01*
X96223966Y-71365620D01*
X96223701Y-71369662D01*
X96223700Y-71369672D01*
X96222218Y-71392274D01*
X96220758Y-71404777D01*
X96216479Y-71430148D01*
X96215791Y-71434230D01*
X96215652Y-71438357D01*
X96215652Y-71438367D01*
X96212027Y-71546779D01*
X96211831Y-71550743D01*
X96209339Y-71588774D01*
X96204671Y-71660000D01*
X84000500Y-71660000D01*
X84000500Y-60000000D01*
X115704751Y-60000000D01*
X115708719Y-60035226D01*
X115708721Y-60035239D01*
X115709500Y-60049121D01*
X115709500Y-60294560D01*
X115709500Y-60294578D01*
X115709501Y-60297872D01*
X115709853Y-60301150D01*
X115709854Y-60301161D01*
X115715079Y-60349768D01*
X115715080Y-60349773D01*
X115715909Y-60357483D01*
X115718619Y-60364749D01*
X115718620Y-60364753D01*
X115752217Y-60454831D01*
X115766204Y-60492331D01*
X115852454Y-60607546D01*
X115967669Y-60693796D01*
X116102517Y-60744091D01*
X116162127Y-60750500D01*
X116410885Y-60750499D01*
X116424771Y-60751279D01*
X116453078Y-60754469D01*
X116453079Y-60754469D01*
X116460000Y-60755249D01*
X116466921Y-60754469D01*
X116495228Y-60751279D01*
X116509114Y-60750499D01*
X117710882Y-60750499D01*
X117724766Y-60751279D01*
X117753077Y-60754469D01*
X117753078Y-60754469D01*
X117760000Y-60755249D01*
X117766922Y-60754469D01*
X117795233Y-60751279D01*
X117809117Y-60750499D01*
X118054561Y-60750499D01*
X118057872Y-60750499D01*
X118117483Y-60744091D01*
X118252331Y-60693796D01*
X118367546Y-60607546D01*
X118453796Y-60492331D01*
X118504091Y-60357483D01*
X118510500Y-60297873D01*
X118510499Y-60049112D01*
X118511279Y-60035226D01*
X118514469Y-60006921D01*
X118515249Y-60000000D01*
X118511278Y-59964759D01*
X118510499Y-59950885D01*
X118510499Y-59049115D01*
X118511279Y-59035230D01*
X118514469Y-59006922D01*
X118515249Y-59000000D01*
X118511278Y-58964768D01*
X118510499Y-58950884D01*
X118510499Y-58110000D01*
X142164341Y-58110000D01*
X142184937Y-58345408D01*
X142186336Y-58350630D01*
X142186337Y-58350634D01*
X142244694Y-58568430D01*
X142244697Y-58568438D01*
X142246097Y-58573663D01*
X142248385Y-58578570D01*
X142248386Y-58578572D01*
X142343678Y-58782927D01*
X142343681Y-58782933D01*
X142345965Y-58787830D01*
X142349064Y-58792257D01*
X142349066Y-58792259D01*
X142478399Y-58976966D01*
X142478402Y-58976970D01*
X142481505Y-58981401D01*
X142648599Y-59148495D01*
X142842170Y-59284035D01*
X143056337Y-59383903D01*
X143284592Y-59445063D01*
X143520000Y-59465659D01*
X143755408Y-59445063D01*
X143983663Y-59383903D01*
X144197830Y-59284035D01*
X144391401Y-59148495D01*
X144558495Y-58981401D01*
X144579861Y-58950888D01*
X144688425Y-58795842D01*
X144732743Y-58756976D01*
X144790000Y-58742965D01*
X144847257Y-58756976D01*
X144891575Y-58795842D01*
X145018395Y-58976961D01*
X145018401Y-58976968D01*
X145021505Y-58981401D01*
X145188599Y-59148495D01*
X145382170Y-59284035D01*
X145596337Y-59383903D01*
X145824592Y-59445063D01*
X146060000Y-59465659D01*
X146295408Y-59445063D01*
X146523663Y-59383903D01*
X146737830Y-59284035D01*
X146931401Y-59148495D01*
X147053717Y-59026178D01*
X147106460Y-58994885D01*
X147167753Y-58992696D01*
X147222597Y-59020149D01*
X147257577Y-59070528D01*
X147303548Y-59193779D01*
X147311962Y-59209189D01*
X147387498Y-59310092D01*
X147399907Y-59322501D01*
X147500810Y-59398037D01*
X147516222Y-59406452D01*
X147635358Y-59450888D01*
X147650332Y-59454426D01*
X147698885Y-59459646D01*
X147705482Y-59460000D01*
X148333674Y-59460000D01*
X148346549Y-59456549D01*
X148350000Y-59443674D01*
X148850000Y-59443674D01*
X148853450Y-59456549D01*
X148866326Y-59460000D01*
X149494518Y-59460000D01*
X149501114Y-59459646D01*
X149549667Y-59454426D01*
X149564641Y-59450888D01*
X149683777Y-59406452D01*
X149699189Y-59398037D01*
X149800092Y-59322501D01*
X149812501Y-59310092D01*
X149888037Y-59209189D01*
X149896452Y-59193777D01*
X149942422Y-59070529D01*
X149977401Y-59020149D01*
X150032246Y-58992696D01*
X150093539Y-58994885D01*
X150146285Y-59026180D01*
X150268599Y-59148495D01*
X150462170Y-59284035D01*
X150676337Y-59383903D01*
X150904592Y-59445063D01*
X151140000Y-59465659D01*
X151375408Y-59445063D01*
X151603663Y-59383903D01*
X151817830Y-59284035D01*
X152011401Y-59148495D01*
X152178495Y-58981401D01*
X152199861Y-58950888D01*
X152308425Y-58795842D01*
X152352743Y-58756976D01*
X152410000Y-58742965D01*
X152467257Y-58756976D01*
X152511575Y-58795842D01*
X152638395Y-58976961D01*
X152638401Y-58976968D01*
X152641505Y-58981401D01*
X152808599Y-59148495D01*
X153002170Y-59284035D01*
X153216337Y-59383903D01*
X153444592Y-59445063D01*
X153680000Y-59465659D01*
X153915408Y-59445063D01*
X154143663Y-59383903D01*
X154357830Y-59284035D01*
X154551401Y-59148495D01*
X154718495Y-58981401D01*
X154739861Y-58950888D01*
X154848425Y-58795842D01*
X154892743Y-58756976D01*
X154950000Y-58742965D01*
X155007257Y-58756976D01*
X155051575Y-58795842D01*
X155178395Y-58976961D01*
X155178401Y-58976968D01*
X155181505Y-58981401D01*
X155348599Y-59148495D01*
X155542170Y-59284035D01*
X155756337Y-59383903D01*
X155984592Y-59445063D01*
X156220000Y-59465659D01*
X156455408Y-59445063D01*
X156683663Y-59383903D01*
X156897830Y-59284035D01*
X157091401Y-59148495D01*
X157258495Y-58981401D01*
X157279861Y-58950888D01*
X157388425Y-58795842D01*
X157432743Y-58756976D01*
X157490000Y-58742965D01*
X157547257Y-58756976D01*
X157591575Y-58795842D01*
X157718395Y-58976961D01*
X157718401Y-58976968D01*
X157721505Y-58981401D01*
X157888599Y-59148495D01*
X158082170Y-59284035D01*
X158296337Y-59383903D01*
X158524592Y-59445063D01*
X158760000Y-59465659D01*
X158995408Y-59445063D01*
X159223663Y-59383903D01*
X159437830Y-59284035D01*
X159631401Y-59148495D01*
X159753717Y-59026178D01*
X159806460Y-58994885D01*
X159867753Y-58992696D01*
X159922597Y-59020149D01*
X159957577Y-59070528D01*
X160003548Y-59193779D01*
X160011962Y-59209189D01*
X160087498Y-59310092D01*
X160099907Y-59322501D01*
X160200810Y-59398037D01*
X160216222Y-59406452D01*
X160335358Y-59450888D01*
X160350332Y-59454426D01*
X160398885Y-59459646D01*
X160405482Y-59460000D01*
X161033674Y-59460000D01*
X161046549Y-59456549D01*
X161050000Y-59443674D01*
X161550000Y-59443674D01*
X161553450Y-59456549D01*
X161566326Y-59460000D01*
X162194518Y-59460000D01*
X162201114Y-59459646D01*
X162249667Y-59454426D01*
X162264641Y-59450888D01*
X162383777Y-59406452D01*
X162399189Y-59398037D01*
X162500092Y-59322501D01*
X162512501Y-59310092D01*
X162588037Y-59209189D01*
X162596452Y-59193777D01*
X162642422Y-59070529D01*
X162677401Y-59020149D01*
X162732246Y-58992696D01*
X162793539Y-58994885D01*
X162846285Y-59026180D01*
X162968599Y-59148495D01*
X163162170Y-59284035D01*
X163376337Y-59383903D01*
X163604592Y-59445063D01*
X163840000Y-59465659D01*
X164075408Y-59445063D01*
X164303663Y-59383903D01*
X164517830Y-59284035D01*
X164711401Y-59148495D01*
X164878495Y-58981401D01*
X164899861Y-58950888D01*
X165008425Y-58795842D01*
X165052743Y-58756976D01*
X165110000Y-58742965D01*
X165167257Y-58756976D01*
X165211575Y-58795842D01*
X165338395Y-58976961D01*
X165338401Y-58976968D01*
X165341505Y-58981401D01*
X165508599Y-59148495D01*
X165702170Y-59284035D01*
X165916337Y-59383903D01*
X166144592Y-59445063D01*
X166380000Y-59465659D01*
X166615408Y-59445063D01*
X166843663Y-59383903D01*
X167057830Y-59284035D01*
X167251401Y-59148495D01*
X167418495Y-58981401D01*
X167439861Y-58950888D01*
X167548425Y-58795842D01*
X167592743Y-58756976D01*
X167650000Y-58742965D01*
X167707257Y-58756976D01*
X167751575Y-58795842D01*
X167878395Y-58976961D01*
X167878401Y-58976968D01*
X167881505Y-58981401D01*
X168048599Y-59148495D01*
X168242170Y-59284035D01*
X168456337Y-59383903D01*
X168684592Y-59445063D01*
X168920000Y-59465659D01*
X169155408Y-59445063D01*
X169383663Y-59383903D01*
X169597830Y-59284035D01*
X169791401Y-59148495D01*
X169958495Y-58981401D01*
X169979861Y-58950888D01*
X170088425Y-58795842D01*
X170132743Y-58756976D01*
X170190000Y-58742965D01*
X170247257Y-58756976D01*
X170291575Y-58795842D01*
X170418395Y-58976961D01*
X170418401Y-58976968D01*
X170421505Y-58981401D01*
X170588599Y-59148495D01*
X170782170Y-59284035D01*
X170996337Y-59383903D01*
X171224592Y-59445063D01*
X171460000Y-59465659D01*
X171695408Y-59445063D01*
X171923663Y-59383903D01*
X172137830Y-59284035D01*
X172331401Y-59148495D01*
X172453717Y-59026178D01*
X172506460Y-58994885D01*
X172567753Y-58992696D01*
X172622597Y-59020149D01*
X172657577Y-59070528D01*
X172703548Y-59193779D01*
X172711962Y-59209189D01*
X172787498Y-59310092D01*
X172799907Y-59322501D01*
X172900810Y-59398037D01*
X172916222Y-59406452D01*
X173035358Y-59450888D01*
X173050332Y-59454426D01*
X173098885Y-59459646D01*
X173105482Y-59460000D01*
X173733674Y-59460000D01*
X173746549Y-59456549D01*
X173750000Y-59443674D01*
X174250000Y-59443674D01*
X174253450Y-59456549D01*
X174266326Y-59460000D01*
X174894518Y-59460000D01*
X174901114Y-59459646D01*
X174949667Y-59454426D01*
X174964641Y-59450888D01*
X175083777Y-59406452D01*
X175099189Y-59398037D01*
X175200092Y-59322501D01*
X175212501Y-59310092D01*
X175288037Y-59209189D01*
X175296452Y-59193777D01*
X175342422Y-59070529D01*
X175377401Y-59020149D01*
X175432246Y-58992696D01*
X175493539Y-58994885D01*
X175546285Y-59026180D01*
X175668599Y-59148495D01*
X175862170Y-59284035D01*
X176076337Y-59383903D01*
X176304592Y-59445063D01*
X176540000Y-59465659D01*
X176775408Y-59445063D01*
X177003663Y-59383903D01*
X177217830Y-59284035D01*
X177411401Y-59148495D01*
X177578495Y-58981401D01*
X177599861Y-58950888D01*
X177708425Y-58795842D01*
X177752743Y-58756976D01*
X177810000Y-58742965D01*
X177867257Y-58756976D01*
X177911575Y-58795842D01*
X178038395Y-58976961D01*
X178038401Y-58976968D01*
X178041505Y-58981401D01*
X178208599Y-59148495D01*
X178402170Y-59284035D01*
X178616337Y-59383903D01*
X178844592Y-59445063D01*
X179080000Y-59465659D01*
X179315408Y-59445063D01*
X179543663Y-59383903D01*
X179757830Y-59284035D01*
X179951401Y-59148495D01*
X180118495Y-58981401D01*
X180139861Y-58950888D01*
X180248425Y-58795842D01*
X180292743Y-58756976D01*
X180350000Y-58742965D01*
X180407257Y-58756976D01*
X180451575Y-58795842D01*
X180578395Y-58976961D01*
X180578401Y-58976968D01*
X180581505Y-58981401D01*
X180748599Y-59148495D01*
X180942170Y-59284035D01*
X181156337Y-59383903D01*
X181384592Y-59445063D01*
X181620000Y-59465659D01*
X181855408Y-59445063D01*
X182083663Y-59383903D01*
X182297830Y-59284035D01*
X182491401Y-59148495D01*
X182658495Y-58981401D01*
X182679861Y-58950888D01*
X182788425Y-58795842D01*
X182832743Y-58756976D01*
X182890000Y-58742965D01*
X182947257Y-58756976D01*
X182991575Y-58795842D01*
X183118395Y-58976961D01*
X183118401Y-58976968D01*
X183121505Y-58981401D01*
X183288599Y-59148495D01*
X183482170Y-59284035D01*
X183696337Y-59383903D01*
X183924592Y-59445063D01*
X184160000Y-59465659D01*
X184395408Y-59445063D01*
X184623663Y-59383903D01*
X184837830Y-59284035D01*
X185031401Y-59148495D01*
X185153717Y-59026178D01*
X185206460Y-58994885D01*
X185267753Y-58992696D01*
X185322597Y-59020149D01*
X185357577Y-59070528D01*
X185403548Y-59193779D01*
X185411962Y-59209189D01*
X185487498Y-59310092D01*
X185499907Y-59322501D01*
X185600810Y-59398037D01*
X185616222Y-59406452D01*
X185735358Y-59450888D01*
X185750332Y-59454426D01*
X185798885Y-59459646D01*
X185805482Y-59460000D01*
X186433674Y-59460000D01*
X186446549Y-59456549D01*
X186450000Y-59443674D01*
X186950000Y-59443674D01*
X186953450Y-59456549D01*
X186966326Y-59460000D01*
X187594518Y-59460000D01*
X187601114Y-59459646D01*
X187649667Y-59454426D01*
X187664641Y-59450888D01*
X187783777Y-59406452D01*
X187799189Y-59398037D01*
X187900092Y-59322501D01*
X187912501Y-59310092D01*
X187988037Y-59209189D01*
X187996452Y-59193777D01*
X188042422Y-59070529D01*
X188077401Y-59020149D01*
X188132246Y-58992696D01*
X188193539Y-58994885D01*
X188246285Y-59026180D01*
X188368599Y-59148495D01*
X188562170Y-59284035D01*
X188776337Y-59383903D01*
X189004592Y-59445063D01*
X189240000Y-59465659D01*
X189475408Y-59445063D01*
X189703663Y-59383903D01*
X189917830Y-59284035D01*
X190111401Y-59148495D01*
X190278495Y-58981401D01*
X190299861Y-58950888D01*
X190408425Y-58795842D01*
X190452743Y-58756976D01*
X190510000Y-58742965D01*
X190567257Y-58756976D01*
X190611575Y-58795842D01*
X190738395Y-58976961D01*
X190738401Y-58976968D01*
X190741505Y-58981401D01*
X190908599Y-59148495D01*
X191102170Y-59284035D01*
X191316337Y-59383903D01*
X191544592Y-59445063D01*
X191780000Y-59465659D01*
X192015408Y-59445063D01*
X192243663Y-59383903D01*
X192457830Y-59284035D01*
X192651401Y-59148495D01*
X192818495Y-58981401D01*
X192954035Y-58787830D01*
X193053903Y-58573663D01*
X193115063Y-58345408D01*
X193135659Y-58110000D01*
X193115063Y-57874592D01*
X193053903Y-57646337D01*
X192954035Y-57432171D01*
X192818495Y-57238599D01*
X192651401Y-57071505D01*
X192646970Y-57068402D01*
X192646966Y-57068399D01*
X192462259Y-56939066D01*
X192462257Y-56939064D01*
X192457830Y-56935965D01*
X192452933Y-56933681D01*
X192452927Y-56933678D01*
X192248572Y-56838386D01*
X192248570Y-56838385D01*
X192243663Y-56836097D01*
X192238438Y-56834697D01*
X192238430Y-56834694D01*
X192020634Y-56776337D01*
X192020630Y-56776336D01*
X192015408Y-56774937D01*
X192010020Y-56774465D01*
X192010017Y-56774465D01*
X191785395Y-56754813D01*
X191780000Y-56754341D01*
X191774605Y-56754813D01*
X191549982Y-56774465D01*
X191549977Y-56774465D01*
X191544592Y-56774937D01*
X191539371Y-56776335D01*
X191539365Y-56776337D01*
X191321569Y-56834694D01*
X191321557Y-56834698D01*
X191316337Y-56836097D01*
X191311432Y-56838383D01*
X191311427Y-56838386D01*
X191107081Y-56933675D01*
X191107077Y-56933677D01*
X191102171Y-56935965D01*
X191097738Y-56939068D01*
X191097731Y-56939073D01*
X190913034Y-57068399D01*
X190913029Y-57068402D01*
X190908599Y-57071505D01*
X190904775Y-57075328D01*
X190904769Y-57075334D01*
X190745334Y-57234769D01*
X190745328Y-57234775D01*
X190741505Y-57238599D01*
X190738402Y-57243029D01*
X190738399Y-57243034D01*
X190611575Y-57424159D01*
X190567257Y-57463025D01*
X190510000Y-57477036D01*
X190452743Y-57463025D01*
X190408425Y-57424159D01*
X190325832Y-57306204D01*
X190278495Y-57238599D01*
X190111401Y-57071505D01*
X190106970Y-57068402D01*
X190106966Y-57068399D01*
X189922259Y-56939066D01*
X189922257Y-56939064D01*
X189917830Y-56935965D01*
X189912933Y-56933681D01*
X189912927Y-56933678D01*
X189708572Y-56838386D01*
X189708570Y-56838385D01*
X189703663Y-56836097D01*
X189698438Y-56834697D01*
X189698430Y-56834694D01*
X189480634Y-56776337D01*
X189480630Y-56776336D01*
X189475408Y-56774937D01*
X189470020Y-56774465D01*
X189470017Y-56774465D01*
X189245395Y-56754813D01*
X189240000Y-56754341D01*
X189234605Y-56754813D01*
X189009982Y-56774465D01*
X189009977Y-56774465D01*
X189004592Y-56774937D01*
X188999371Y-56776335D01*
X188999365Y-56776337D01*
X188781569Y-56834694D01*
X188781557Y-56834698D01*
X188776337Y-56836097D01*
X188771432Y-56838383D01*
X188771427Y-56838386D01*
X188567081Y-56933675D01*
X188567077Y-56933677D01*
X188562171Y-56935965D01*
X188557738Y-56939068D01*
X188557731Y-56939073D01*
X188373034Y-57068399D01*
X188373029Y-57068402D01*
X188368599Y-57071505D01*
X188364774Y-57075329D01*
X188364775Y-57075329D01*
X188246285Y-57193819D01*
X188193538Y-57225114D01*
X188132246Y-57227303D01*
X188077401Y-57199850D01*
X188042422Y-57149471D01*
X187996451Y-57026220D01*
X187988037Y-57010810D01*
X187912501Y-56909907D01*
X187900092Y-56897498D01*
X187799189Y-56821962D01*
X187783777Y-56813547D01*
X187664641Y-56769111D01*
X187649667Y-56765573D01*
X187601114Y-56760353D01*
X187594518Y-56760000D01*
X186966326Y-56760000D01*
X186953450Y-56763450D01*
X186950000Y-56776326D01*
X186950000Y-59443674D01*
X186450000Y-59443674D01*
X186450000Y-56776326D01*
X186446549Y-56763450D01*
X186433674Y-56760000D01*
X185805482Y-56760000D01*
X185798885Y-56760353D01*
X185750332Y-56765573D01*
X185735358Y-56769111D01*
X185616222Y-56813547D01*
X185600810Y-56821962D01*
X185499907Y-56897498D01*
X185487498Y-56909907D01*
X185411962Y-57010810D01*
X185403544Y-57026226D01*
X185357576Y-57149471D01*
X185322597Y-57199850D01*
X185267753Y-57227303D01*
X185206460Y-57225114D01*
X185153714Y-57193818D01*
X185035232Y-57075336D01*
X185035230Y-57075334D01*
X185031401Y-57071505D01*
X185026970Y-57068402D01*
X185026966Y-57068399D01*
X184842259Y-56939066D01*
X184842257Y-56939064D01*
X184837830Y-56935965D01*
X184832933Y-56933681D01*
X184832927Y-56933678D01*
X184628572Y-56838386D01*
X184628570Y-56838385D01*
X184623663Y-56836097D01*
X184618438Y-56834697D01*
X184618430Y-56834694D01*
X184400634Y-56776337D01*
X184400630Y-56776336D01*
X184395408Y-56774937D01*
X184390020Y-56774465D01*
X184390017Y-56774465D01*
X184165395Y-56754813D01*
X184160000Y-56754341D01*
X184154605Y-56754813D01*
X183929982Y-56774465D01*
X183929977Y-56774465D01*
X183924592Y-56774937D01*
X183919371Y-56776335D01*
X183919365Y-56776337D01*
X183701569Y-56834694D01*
X183701557Y-56834698D01*
X183696337Y-56836097D01*
X183691432Y-56838383D01*
X183691427Y-56838386D01*
X183487081Y-56933675D01*
X183487077Y-56933677D01*
X183482171Y-56935965D01*
X183477738Y-56939068D01*
X183477731Y-56939073D01*
X183293034Y-57068399D01*
X183293029Y-57068402D01*
X183288599Y-57071505D01*
X183284775Y-57075328D01*
X183284769Y-57075334D01*
X183125334Y-57234769D01*
X183125328Y-57234775D01*
X183121505Y-57238599D01*
X183118402Y-57243029D01*
X183118399Y-57243034D01*
X182991575Y-57424159D01*
X182947257Y-57463025D01*
X182890000Y-57477036D01*
X182832743Y-57463025D01*
X182788425Y-57424159D01*
X182705832Y-57306204D01*
X182658495Y-57238599D01*
X182491401Y-57071505D01*
X182486970Y-57068402D01*
X182486966Y-57068399D01*
X182302259Y-56939066D01*
X182302257Y-56939064D01*
X182297830Y-56935965D01*
X182292933Y-56933681D01*
X182292927Y-56933678D01*
X182088572Y-56838386D01*
X182088570Y-56838385D01*
X182083663Y-56836097D01*
X182078438Y-56834697D01*
X182078430Y-56834694D01*
X181860634Y-56776337D01*
X181860630Y-56776336D01*
X181855408Y-56774937D01*
X181850020Y-56774465D01*
X181850017Y-56774465D01*
X181625395Y-56754813D01*
X181620000Y-56754341D01*
X181614605Y-56754813D01*
X181389982Y-56774465D01*
X181389977Y-56774465D01*
X181384592Y-56774937D01*
X181379371Y-56776335D01*
X181379365Y-56776337D01*
X181161569Y-56834694D01*
X181161557Y-56834698D01*
X181156337Y-56836097D01*
X181151432Y-56838383D01*
X181151427Y-56838386D01*
X180947081Y-56933675D01*
X180947077Y-56933677D01*
X180942171Y-56935965D01*
X180937738Y-56939068D01*
X180937731Y-56939073D01*
X180753034Y-57068399D01*
X180753029Y-57068402D01*
X180748599Y-57071505D01*
X180744775Y-57075328D01*
X180744769Y-57075334D01*
X180585334Y-57234769D01*
X180585328Y-57234775D01*
X180581505Y-57238599D01*
X180578402Y-57243029D01*
X180578399Y-57243034D01*
X180451575Y-57424159D01*
X180407257Y-57463025D01*
X180350000Y-57477036D01*
X180292743Y-57463025D01*
X180248425Y-57424159D01*
X180165832Y-57306204D01*
X180118495Y-57238599D01*
X179951401Y-57071505D01*
X179946970Y-57068402D01*
X179946966Y-57068399D01*
X179762259Y-56939066D01*
X179762257Y-56939064D01*
X179757830Y-56935965D01*
X179752933Y-56933681D01*
X179752927Y-56933678D01*
X179548572Y-56838386D01*
X179548570Y-56838385D01*
X179543663Y-56836097D01*
X179538438Y-56834697D01*
X179538430Y-56834694D01*
X179320634Y-56776337D01*
X179320630Y-56776336D01*
X179315408Y-56774937D01*
X179310020Y-56774465D01*
X179310017Y-56774465D01*
X179085395Y-56754813D01*
X179080000Y-56754341D01*
X179074605Y-56754813D01*
X178849982Y-56774465D01*
X178849977Y-56774465D01*
X178844592Y-56774937D01*
X178839371Y-56776335D01*
X178839365Y-56776337D01*
X178621569Y-56834694D01*
X178621557Y-56834698D01*
X178616337Y-56836097D01*
X178611432Y-56838383D01*
X178611427Y-56838386D01*
X178407081Y-56933675D01*
X178407077Y-56933677D01*
X178402171Y-56935965D01*
X178397738Y-56939068D01*
X178397731Y-56939073D01*
X178213034Y-57068399D01*
X178213029Y-57068402D01*
X178208599Y-57071505D01*
X178204775Y-57075328D01*
X178204769Y-57075334D01*
X178045334Y-57234769D01*
X178045328Y-57234775D01*
X178041505Y-57238599D01*
X178038402Y-57243029D01*
X178038399Y-57243034D01*
X177911575Y-57424159D01*
X177867257Y-57463025D01*
X177810000Y-57477036D01*
X177752743Y-57463025D01*
X177708425Y-57424159D01*
X177625832Y-57306204D01*
X177578495Y-57238599D01*
X177411401Y-57071505D01*
X177406970Y-57068402D01*
X177406966Y-57068399D01*
X177222259Y-56939066D01*
X177222257Y-56939064D01*
X177217830Y-56935965D01*
X177212933Y-56933681D01*
X177212927Y-56933678D01*
X177008572Y-56838386D01*
X177008570Y-56838385D01*
X177003663Y-56836097D01*
X176998438Y-56834697D01*
X176998430Y-56834694D01*
X176780634Y-56776337D01*
X176780630Y-56776336D01*
X176775408Y-56774937D01*
X176770020Y-56774465D01*
X176770017Y-56774465D01*
X176545395Y-56754813D01*
X176540000Y-56754341D01*
X176534605Y-56754813D01*
X176309982Y-56774465D01*
X176309977Y-56774465D01*
X176304592Y-56774937D01*
X176299371Y-56776335D01*
X176299365Y-56776337D01*
X176081569Y-56834694D01*
X176081557Y-56834698D01*
X176076337Y-56836097D01*
X176071432Y-56838383D01*
X176071427Y-56838386D01*
X175867081Y-56933675D01*
X175867077Y-56933677D01*
X175862171Y-56935965D01*
X175857738Y-56939068D01*
X175857731Y-56939073D01*
X175673034Y-57068399D01*
X175673029Y-57068402D01*
X175668599Y-57071505D01*
X175664774Y-57075329D01*
X175664775Y-57075329D01*
X175546285Y-57193819D01*
X175493538Y-57225114D01*
X175432246Y-57227303D01*
X175377401Y-57199850D01*
X175342422Y-57149471D01*
X175296451Y-57026220D01*
X175288037Y-57010810D01*
X175212501Y-56909907D01*
X175200092Y-56897498D01*
X175099189Y-56821962D01*
X175083777Y-56813547D01*
X174964641Y-56769111D01*
X174949667Y-56765573D01*
X174901114Y-56760353D01*
X174894518Y-56760000D01*
X174266326Y-56760000D01*
X174253450Y-56763450D01*
X174250000Y-56776326D01*
X174250000Y-59443674D01*
X173750000Y-59443674D01*
X173750000Y-56776326D01*
X173746549Y-56763450D01*
X173733674Y-56760000D01*
X173105482Y-56760000D01*
X173098885Y-56760353D01*
X173050332Y-56765573D01*
X173035358Y-56769111D01*
X172916222Y-56813547D01*
X172900810Y-56821962D01*
X172799907Y-56897498D01*
X172787498Y-56909907D01*
X172711962Y-57010810D01*
X172703544Y-57026226D01*
X172657576Y-57149471D01*
X172622597Y-57199850D01*
X172567753Y-57227303D01*
X172506460Y-57225114D01*
X172453714Y-57193818D01*
X172335232Y-57075336D01*
X172335230Y-57075334D01*
X172331401Y-57071505D01*
X172326970Y-57068402D01*
X172326966Y-57068399D01*
X172142259Y-56939066D01*
X172142257Y-56939064D01*
X172137830Y-56935965D01*
X172132933Y-56933681D01*
X172132927Y-56933678D01*
X171928572Y-56838386D01*
X171928570Y-56838385D01*
X171923663Y-56836097D01*
X171918438Y-56834697D01*
X171918430Y-56834694D01*
X171700634Y-56776337D01*
X171700630Y-56776336D01*
X171695408Y-56774937D01*
X171690020Y-56774465D01*
X171690017Y-56774465D01*
X171465395Y-56754813D01*
X171460000Y-56754341D01*
X171454605Y-56754813D01*
X171229982Y-56774465D01*
X171229977Y-56774465D01*
X171224592Y-56774937D01*
X171219371Y-56776335D01*
X171219365Y-56776337D01*
X171001569Y-56834694D01*
X171001557Y-56834698D01*
X170996337Y-56836097D01*
X170991432Y-56838383D01*
X170991427Y-56838386D01*
X170787081Y-56933675D01*
X170787077Y-56933677D01*
X170782171Y-56935965D01*
X170777738Y-56939068D01*
X170777731Y-56939073D01*
X170593034Y-57068399D01*
X170593029Y-57068402D01*
X170588599Y-57071505D01*
X170584775Y-57075328D01*
X170584769Y-57075334D01*
X170425334Y-57234769D01*
X170425328Y-57234775D01*
X170421505Y-57238599D01*
X170418402Y-57243029D01*
X170418399Y-57243034D01*
X170291575Y-57424159D01*
X170247257Y-57463025D01*
X170190000Y-57477036D01*
X170132743Y-57463025D01*
X170088425Y-57424159D01*
X170005832Y-57306204D01*
X169958495Y-57238599D01*
X169791401Y-57071505D01*
X169786970Y-57068402D01*
X169786966Y-57068399D01*
X169602259Y-56939066D01*
X169602257Y-56939064D01*
X169597830Y-56935965D01*
X169592933Y-56933681D01*
X169592927Y-56933678D01*
X169388572Y-56838386D01*
X169388570Y-56838385D01*
X169383663Y-56836097D01*
X169378438Y-56834697D01*
X169378430Y-56834694D01*
X169160634Y-56776337D01*
X169160630Y-56776336D01*
X169155408Y-56774937D01*
X169150020Y-56774465D01*
X169150017Y-56774465D01*
X168925395Y-56754813D01*
X168920000Y-56754341D01*
X168914605Y-56754813D01*
X168689982Y-56774465D01*
X168689977Y-56774465D01*
X168684592Y-56774937D01*
X168679371Y-56776335D01*
X168679365Y-56776337D01*
X168461569Y-56834694D01*
X168461557Y-56834698D01*
X168456337Y-56836097D01*
X168451432Y-56838383D01*
X168451427Y-56838386D01*
X168247081Y-56933675D01*
X168247077Y-56933677D01*
X168242171Y-56935965D01*
X168237738Y-56939068D01*
X168237731Y-56939073D01*
X168053034Y-57068399D01*
X168053029Y-57068402D01*
X168048599Y-57071505D01*
X168044775Y-57075328D01*
X168044769Y-57075334D01*
X167885334Y-57234769D01*
X167885328Y-57234775D01*
X167881505Y-57238599D01*
X167878402Y-57243029D01*
X167878399Y-57243034D01*
X167751575Y-57424159D01*
X167707257Y-57463025D01*
X167650000Y-57477036D01*
X167592743Y-57463025D01*
X167548425Y-57424159D01*
X167465832Y-57306204D01*
X167418495Y-57238599D01*
X167251401Y-57071505D01*
X167246970Y-57068402D01*
X167246966Y-57068399D01*
X167062259Y-56939066D01*
X167062257Y-56939064D01*
X167057830Y-56935965D01*
X167052933Y-56933681D01*
X167052927Y-56933678D01*
X166848572Y-56838386D01*
X166848570Y-56838385D01*
X166843663Y-56836097D01*
X166838438Y-56834697D01*
X166838430Y-56834694D01*
X166620634Y-56776337D01*
X166620630Y-56776336D01*
X166615408Y-56774937D01*
X166610020Y-56774465D01*
X166610017Y-56774465D01*
X166385395Y-56754813D01*
X166380000Y-56754341D01*
X166374605Y-56754813D01*
X166149982Y-56774465D01*
X166149977Y-56774465D01*
X166144592Y-56774937D01*
X166139371Y-56776335D01*
X166139365Y-56776337D01*
X165921569Y-56834694D01*
X165921557Y-56834698D01*
X165916337Y-56836097D01*
X165911432Y-56838383D01*
X165911427Y-56838386D01*
X165707081Y-56933675D01*
X165707077Y-56933677D01*
X165702171Y-56935965D01*
X165697738Y-56939068D01*
X165697731Y-56939073D01*
X165513034Y-57068399D01*
X165513029Y-57068402D01*
X165508599Y-57071505D01*
X165504775Y-57075328D01*
X165504769Y-57075334D01*
X165345334Y-57234769D01*
X165345328Y-57234775D01*
X165341505Y-57238599D01*
X165338402Y-57243029D01*
X165338399Y-57243034D01*
X165211575Y-57424159D01*
X165167257Y-57463025D01*
X165110000Y-57477036D01*
X165052743Y-57463025D01*
X165008425Y-57424159D01*
X164925832Y-57306204D01*
X164878495Y-57238599D01*
X164711401Y-57071505D01*
X164706970Y-57068402D01*
X164706966Y-57068399D01*
X164522259Y-56939066D01*
X164522257Y-56939064D01*
X164517830Y-56935965D01*
X164512933Y-56933681D01*
X164512927Y-56933678D01*
X164308572Y-56838386D01*
X164308570Y-56838385D01*
X164303663Y-56836097D01*
X164298438Y-56834697D01*
X164298430Y-56834694D01*
X164080634Y-56776337D01*
X164080630Y-56776336D01*
X164075408Y-56774937D01*
X164070020Y-56774465D01*
X164070017Y-56774465D01*
X163845395Y-56754813D01*
X163840000Y-56754341D01*
X163834605Y-56754813D01*
X163609982Y-56774465D01*
X163609977Y-56774465D01*
X163604592Y-56774937D01*
X163599371Y-56776335D01*
X163599365Y-56776337D01*
X163381569Y-56834694D01*
X163381557Y-56834698D01*
X163376337Y-56836097D01*
X163371432Y-56838383D01*
X163371427Y-56838386D01*
X163167081Y-56933675D01*
X163167077Y-56933677D01*
X163162171Y-56935965D01*
X163157738Y-56939068D01*
X163157731Y-56939073D01*
X162973034Y-57068399D01*
X162973029Y-57068402D01*
X162968599Y-57071505D01*
X162964774Y-57075329D01*
X162964775Y-57075329D01*
X162846285Y-57193819D01*
X162793538Y-57225114D01*
X162732246Y-57227303D01*
X162677401Y-57199850D01*
X162642422Y-57149471D01*
X162596451Y-57026220D01*
X162588037Y-57010810D01*
X162512501Y-56909907D01*
X162500092Y-56897498D01*
X162399189Y-56821962D01*
X162383777Y-56813547D01*
X162264641Y-56769111D01*
X162249667Y-56765573D01*
X162201114Y-56760353D01*
X162194518Y-56760000D01*
X161566326Y-56760000D01*
X161553450Y-56763450D01*
X161550000Y-56776326D01*
X161550000Y-59443674D01*
X161050000Y-59443674D01*
X161050000Y-56776326D01*
X161046549Y-56763450D01*
X161033674Y-56760000D01*
X160405482Y-56760000D01*
X160398885Y-56760353D01*
X160350332Y-56765573D01*
X160335358Y-56769111D01*
X160216222Y-56813547D01*
X160200810Y-56821962D01*
X160099907Y-56897498D01*
X160087498Y-56909907D01*
X160011962Y-57010810D01*
X160003544Y-57026226D01*
X159957576Y-57149471D01*
X159922597Y-57199850D01*
X159867753Y-57227303D01*
X159806460Y-57225114D01*
X159753714Y-57193818D01*
X159635232Y-57075336D01*
X159635230Y-57075334D01*
X159631401Y-57071505D01*
X159626970Y-57068402D01*
X159626966Y-57068399D01*
X159442259Y-56939066D01*
X159442257Y-56939064D01*
X159437830Y-56935965D01*
X159432933Y-56933681D01*
X159432927Y-56933678D01*
X159228572Y-56838386D01*
X159228570Y-56838385D01*
X159223663Y-56836097D01*
X159218438Y-56834697D01*
X159218430Y-56834694D01*
X159000634Y-56776337D01*
X159000630Y-56776336D01*
X158995408Y-56774937D01*
X158990020Y-56774465D01*
X158990017Y-56774465D01*
X158765395Y-56754813D01*
X158760000Y-56754341D01*
X158754605Y-56754813D01*
X158529982Y-56774465D01*
X158529977Y-56774465D01*
X158524592Y-56774937D01*
X158519371Y-56776335D01*
X158519365Y-56776337D01*
X158301569Y-56834694D01*
X158301557Y-56834698D01*
X158296337Y-56836097D01*
X158291432Y-56838383D01*
X158291427Y-56838386D01*
X158087081Y-56933675D01*
X158087077Y-56933677D01*
X158082171Y-56935965D01*
X158077738Y-56939068D01*
X158077731Y-56939073D01*
X157893034Y-57068399D01*
X157893029Y-57068402D01*
X157888599Y-57071505D01*
X157884775Y-57075328D01*
X157884769Y-57075334D01*
X157725334Y-57234769D01*
X157725328Y-57234775D01*
X157721505Y-57238599D01*
X157718402Y-57243029D01*
X157718399Y-57243034D01*
X157591575Y-57424159D01*
X157547257Y-57463025D01*
X157490000Y-57477036D01*
X157432743Y-57463025D01*
X157388425Y-57424159D01*
X157305832Y-57306204D01*
X157258495Y-57238599D01*
X157091401Y-57071505D01*
X157086970Y-57068402D01*
X157086966Y-57068399D01*
X156902259Y-56939066D01*
X156902257Y-56939064D01*
X156897830Y-56935965D01*
X156892933Y-56933681D01*
X156892927Y-56933678D01*
X156688572Y-56838386D01*
X156688570Y-56838385D01*
X156683663Y-56836097D01*
X156678438Y-56834697D01*
X156678430Y-56834694D01*
X156460634Y-56776337D01*
X156460630Y-56776336D01*
X156455408Y-56774937D01*
X156450020Y-56774465D01*
X156450017Y-56774465D01*
X156225395Y-56754813D01*
X156220000Y-56754341D01*
X156214605Y-56754813D01*
X155989982Y-56774465D01*
X155989977Y-56774465D01*
X155984592Y-56774937D01*
X155979371Y-56776335D01*
X155979365Y-56776337D01*
X155761569Y-56834694D01*
X155761557Y-56834698D01*
X155756337Y-56836097D01*
X155751432Y-56838383D01*
X155751427Y-56838386D01*
X155547081Y-56933675D01*
X155547077Y-56933677D01*
X155542171Y-56935965D01*
X155537738Y-56939068D01*
X155537731Y-56939073D01*
X155353034Y-57068399D01*
X155353029Y-57068402D01*
X155348599Y-57071505D01*
X155344775Y-57075328D01*
X155344769Y-57075334D01*
X155185334Y-57234769D01*
X155185328Y-57234775D01*
X155181505Y-57238599D01*
X155178402Y-57243029D01*
X155178399Y-57243034D01*
X155051575Y-57424159D01*
X155007257Y-57463025D01*
X154950000Y-57477036D01*
X154892743Y-57463025D01*
X154848425Y-57424159D01*
X154765832Y-57306204D01*
X154718495Y-57238599D01*
X154551401Y-57071505D01*
X154546970Y-57068402D01*
X154546966Y-57068399D01*
X154362259Y-56939066D01*
X154362257Y-56939064D01*
X154357830Y-56935965D01*
X154352933Y-56933681D01*
X154352927Y-56933678D01*
X154148572Y-56838386D01*
X154148570Y-56838385D01*
X154143663Y-56836097D01*
X154138438Y-56834697D01*
X154138430Y-56834694D01*
X153920634Y-56776337D01*
X153920630Y-56776336D01*
X153915408Y-56774937D01*
X153910020Y-56774465D01*
X153910017Y-56774465D01*
X153685395Y-56754813D01*
X153680000Y-56754341D01*
X153674605Y-56754813D01*
X153449982Y-56774465D01*
X153449977Y-56774465D01*
X153444592Y-56774937D01*
X153439371Y-56776335D01*
X153439365Y-56776337D01*
X153221569Y-56834694D01*
X153221557Y-56834698D01*
X153216337Y-56836097D01*
X153211432Y-56838383D01*
X153211427Y-56838386D01*
X153007081Y-56933675D01*
X153007077Y-56933677D01*
X153002171Y-56935965D01*
X152997738Y-56939068D01*
X152997731Y-56939073D01*
X152813034Y-57068399D01*
X152813029Y-57068402D01*
X152808599Y-57071505D01*
X152804775Y-57075328D01*
X152804769Y-57075334D01*
X152645334Y-57234769D01*
X152645328Y-57234775D01*
X152641505Y-57238599D01*
X152638402Y-57243029D01*
X152638399Y-57243034D01*
X152511575Y-57424159D01*
X152467257Y-57463025D01*
X152410000Y-57477036D01*
X152352743Y-57463025D01*
X152308425Y-57424159D01*
X152225832Y-57306204D01*
X152178495Y-57238599D01*
X152011401Y-57071505D01*
X152006970Y-57068402D01*
X152006966Y-57068399D01*
X151822259Y-56939066D01*
X151822257Y-56939064D01*
X151817830Y-56935965D01*
X151812933Y-56933681D01*
X151812927Y-56933678D01*
X151608572Y-56838386D01*
X151608570Y-56838385D01*
X151603663Y-56836097D01*
X151598438Y-56834697D01*
X151598430Y-56834694D01*
X151380634Y-56776337D01*
X151380630Y-56776336D01*
X151375408Y-56774937D01*
X151370020Y-56774465D01*
X151370017Y-56774465D01*
X151145395Y-56754813D01*
X151140000Y-56754341D01*
X151134605Y-56754813D01*
X150909982Y-56774465D01*
X150909977Y-56774465D01*
X150904592Y-56774937D01*
X150899371Y-56776335D01*
X150899365Y-56776337D01*
X150681569Y-56834694D01*
X150681557Y-56834698D01*
X150676337Y-56836097D01*
X150671432Y-56838383D01*
X150671427Y-56838386D01*
X150467081Y-56933675D01*
X150467077Y-56933677D01*
X150462171Y-56935965D01*
X150457738Y-56939068D01*
X150457731Y-56939073D01*
X150273034Y-57068399D01*
X150273029Y-57068402D01*
X150268599Y-57071505D01*
X150264774Y-57075329D01*
X150264775Y-57075329D01*
X150146285Y-57193819D01*
X150093538Y-57225114D01*
X150032246Y-57227303D01*
X149977401Y-57199850D01*
X149942422Y-57149471D01*
X149896451Y-57026220D01*
X149888037Y-57010810D01*
X149812501Y-56909907D01*
X149800092Y-56897498D01*
X149699189Y-56821962D01*
X149683777Y-56813547D01*
X149564641Y-56769111D01*
X149549667Y-56765573D01*
X149501114Y-56760353D01*
X149494518Y-56760000D01*
X148866326Y-56760000D01*
X148853450Y-56763450D01*
X148850000Y-56776326D01*
X148850000Y-59443674D01*
X148350000Y-59443674D01*
X148350000Y-56776326D01*
X148346549Y-56763450D01*
X148333674Y-56760000D01*
X147705482Y-56760000D01*
X147698885Y-56760353D01*
X147650332Y-56765573D01*
X147635358Y-56769111D01*
X147516222Y-56813547D01*
X147500810Y-56821962D01*
X147399907Y-56897498D01*
X147387498Y-56909907D01*
X147311962Y-57010810D01*
X147303544Y-57026226D01*
X147257576Y-57149471D01*
X147222597Y-57199850D01*
X147167753Y-57227303D01*
X147106460Y-57225114D01*
X147053714Y-57193818D01*
X146935232Y-57075336D01*
X146935230Y-57075334D01*
X146931401Y-57071505D01*
X146926970Y-57068402D01*
X146926966Y-57068399D01*
X146742259Y-56939066D01*
X146742257Y-56939064D01*
X146737830Y-56935965D01*
X146732933Y-56933681D01*
X146732927Y-56933678D01*
X146528572Y-56838386D01*
X146528570Y-56838385D01*
X146523663Y-56836097D01*
X146518438Y-56834697D01*
X146518430Y-56834694D01*
X146300634Y-56776337D01*
X146300630Y-56776336D01*
X146295408Y-56774937D01*
X146290020Y-56774465D01*
X146290017Y-56774465D01*
X146065395Y-56754813D01*
X146060000Y-56754341D01*
X146054605Y-56754813D01*
X145829982Y-56774465D01*
X145829977Y-56774465D01*
X145824592Y-56774937D01*
X145819371Y-56776335D01*
X145819365Y-56776337D01*
X145601569Y-56834694D01*
X145601557Y-56834698D01*
X145596337Y-56836097D01*
X145591432Y-56838383D01*
X145591427Y-56838386D01*
X145387081Y-56933675D01*
X145387077Y-56933677D01*
X145382171Y-56935965D01*
X145377738Y-56939068D01*
X145377731Y-56939073D01*
X145193034Y-57068399D01*
X145193029Y-57068402D01*
X145188599Y-57071505D01*
X145184775Y-57075328D01*
X145184769Y-57075334D01*
X145025334Y-57234769D01*
X145025328Y-57234775D01*
X145021505Y-57238599D01*
X145018402Y-57243029D01*
X145018399Y-57243034D01*
X144891575Y-57424159D01*
X144847257Y-57463025D01*
X144790000Y-57477036D01*
X144732743Y-57463025D01*
X144688425Y-57424159D01*
X144605832Y-57306204D01*
X144558495Y-57238599D01*
X144391401Y-57071505D01*
X144386970Y-57068402D01*
X144386966Y-57068399D01*
X144202259Y-56939066D01*
X144202257Y-56939064D01*
X144197830Y-56935965D01*
X144192933Y-56933681D01*
X144192927Y-56933678D01*
X143988572Y-56838386D01*
X143988570Y-56838385D01*
X143983663Y-56836097D01*
X143978438Y-56834697D01*
X143978430Y-56834694D01*
X143760634Y-56776337D01*
X143760630Y-56776336D01*
X143755408Y-56774937D01*
X143750020Y-56774465D01*
X143750017Y-56774465D01*
X143525395Y-56754813D01*
X143520000Y-56754341D01*
X143514605Y-56754813D01*
X143289982Y-56774465D01*
X143289977Y-56774465D01*
X143284592Y-56774937D01*
X143279371Y-56776335D01*
X143279365Y-56776337D01*
X143061569Y-56834694D01*
X143061557Y-56834698D01*
X143056337Y-56836097D01*
X143051432Y-56838383D01*
X143051427Y-56838386D01*
X142847081Y-56933675D01*
X142847077Y-56933677D01*
X142842171Y-56935965D01*
X142837738Y-56939068D01*
X142837731Y-56939073D01*
X142653034Y-57068399D01*
X142653029Y-57068402D01*
X142648599Y-57071505D01*
X142644775Y-57075328D01*
X142644769Y-57075334D01*
X142485334Y-57234769D01*
X142485328Y-57234775D01*
X142481505Y-57238599D01*
X142478402Y-57243029D01*
X142478399Y-57243034D01*
X142349073Y-57427731D01*
X142349068Y-57427738D01*
X142345965Y-57432171D01*
X142343677Y-57437077D01*
X142343675Y-57437081D01*
X142248386Y-57641427D01*
X142248383Y-57641432D01*
X142246097Y-57646337D01*
X142244698Y-57651557D01*
X142244694Y-57651569D01*
X142186337Y-57869365D01*
X142186335Y-57869371D01*
X142184937Y-57874592D01*
X142184465Y-57879977D01*
X142184465Y-57879982D01*
X142173965Y-58000000D01*
X142164341Y-58110000D01*
X118510499Y-58110000D01*
X118510499Y-58049117D01*
X118511279Y-58035233D01*
X118514469Y-58006922D01*
X118515249Y-58000000D01*
X118511279Y-57964766D01*
X118510499Y-57950882D01*
X118510499Y-57705439D01*
X118510499Y-57702128D01*
X118504091Y-57642517D01*
X118453796Y-57507669D01*
X118367546Y-57392454D01*
X118252331Y-57306204D01*
X118117483Y-57255909D01*
X118109770Y-57255079D01*
X118109767Y-57255079D01*
X118061180Y-57249855D01*
X118061169Y-57249854D01*
X118057873Y-57249500D01*
X118054551Y-57249500D01*
X117809109Y-57249500D01*
X117795227Y-57248720D01*
X117760000Y-57244751D01*
X117753077Y-57245531D01*
X117724773Y-57248720D01*
X117710890Y-57249500D01*
X116509121Y-57249500D01*
X116495241Y-57248721D01*
X116460000Y-57244751D01*
X116453085Y-57245530D01*
X116424758Y-57248721D01*
X116410877Y-57249500D01*
X116165439Y-57249500D01*
X116165420Y-57249500D01*
X116162128Y-57249501D01*
X116158850Y-57249853D01*
X116158838Y-57249854D01*
X116110231Y-57255079D01*
X116110225Y-57255080D01*
X116102517Y-57255909D01*
X116095252Y-57258618D01*
X116095246Y-57258620D01*
X115975980Y-57303104D01*
X115975978Y-57303104D01*
X115967669Y-57306204D01*
X115960572Y-57311516D01*
X115960568Y-57311519D01*
X115859550Y-57387141D01*
X115859546Y-57387144D01*
X115852454Y-57392454D01*
X115847144Y-57399546D01*
X115847141Y-57399550D01*
X115771519Y-57500568D01*
X115771516Y-57500572D01*
X115766204Y-57507669D01*
X115763104Y-57515978D01*
X115763104Y-57515980D01*
X115718620Y-57635247D01*
X115718619Y-57635250D01*
X115715909Y-57642517D01*
X115715079Y-57650227D01*
X115715079Y-57650232D01*
X115709855Y-57698819D01*
X115709854Y-57698831D01*
X115709500Y-57702127D01*
X115709500Y-57705449D01*
X115709500Y-57950891D01*
X115708721Y-57964766D01*
X115704751Y-58000000D01*
X115705531Y-58006922D01*
X115708720Y-58035225D01*
X115709500Y-58049109D01*
X115709500Y-58950888D01*
X115708720Y-58964769D01*
X115704751Y-59000000D01*
X115705531Y-59006922D01*
X115705531Y-59006923D01*
X115708720Y-59035229D01*
X115709500Y-59049111D01*
X115709500Y-59950878D01*
X115708720Y-59964759D01*
X115704751Y-60000000D01*
X84000500Y-60000000D01*
X84000500Y-55107600D01*
X94467000Y-55107600D01*
X94467211Y-55110150D01*
X94467212Y-55110166D01*
X94481480Y-55282356D01*
X94481481Y-55282364D01*
X94481905Y-55287476D01*
X94483162Y-55292443D01*
X94483164Y-55292450D01*
X94539758Y-55515934D01*
X94541017Y-55520905D01*
X94543077Y-55525601D01*
X94635685Y-55736727D01*
X94635688Y-55736732D01*
X94637745Y-55741422D01*
X94650000Y-55760179D01*
X94766647Y-55938722D01*
X94766650Y-55938726D01*
X94769449Y-55943010D01*
X94772914Y-55946774D01*
X94772918Y-55946779D01*
X94772924Y-55946785D01*
X94932537Y-56120171D01*
X95122561Y-56268072D01*
X95334336Y-56382679D01*
X95562087Y-56460866D01*
X95799601Y-56500500D01*
X96035266Y-56500500D01*
X96040399Y-56500500D01*
X96277913Y-56460866D01*
X96505664Y-56382679D01*
X96717439Y-56268072D01*
X96907463Y-56120171D01*
X97070551Y-55943010D01*
X97086191Y-55919070D01*
X97130982Y-55877837D01*
X97190000Y-55862892D01*
X97249018Y-55877837D01*
X97293808Y-55919070D01*
X97309449Y-55943010D01*
X97472537Y-56120171D01*
X97662561Y-56268072D01*
X97874336Y-56382679D01*
X98102087Y-56460866D01*
X98339601Y-56500500D01*
X98575266Y-56500500D01*
X98580399Y-56500500D01*
X98817913Y-56460866D01*
X99045664Y-56382679D01*
X99257439Y-56268072D01*
X99399932Y-56157165D01*
X99452357Y-56133313D01*
X99509907Y-56135720D01*
X99560160Y-56163868D01*
X99592273Y-56211685D01*
X99600602Y-56234017D01*
X99600605Y-56234023D01*
X99603704Y-56242331D01*
X99609018Y-56249430D01*
X99609019Y-56249431D01*
X99624799Y-56270511D01*
X99689954Y-56357546D01*
X99805169Y-56443796D01*
X99940017Y-56494091D01*
X99999627Y-56500500D01*
X102000372Y-56500499D01*
X102059983Y-56494091D01*
X102194831Y-56443796D01*
X102310046Y-56357546D01*
X102396296Y-56242331D01*
X102446591Y-56107483D01*
X102453000Y-56047873D01*
X102452999Y-53952128D01*
X102446591Y-53892517D01*
X102396296Y-53757669D01*
X102310046Y-53642454D01*
X102277438Y-53618044D01*
X102201931Y-53561519D01*
X102201930Y-53561518D01*
X102194831Y-53556204D01*
X102059983Y-53505909D01*
X102052270Y-53505079D01*
X102052267Y-53505079D01*
X102003680Y-53499855D01*
X102003669Y-53499854D01*
X102000373Y-53499500D01*
X101997050Y-53499500D01*
X100002939Y-53499500D01*
X100002920Y-53499500D01*
X99999628Y-53499501D01*
X99996350Y-53499853D01*
X99996338Y-53499854D01*
X99947731Y-53505079D01*
X99947725Y-53505080D01*
X99940017Y-53505909D01*
X99932752Y-53508618D01*
X99932746Y-53508620D01*
X99813480Y-53553104D01*
X99813478Y-53553104D01*
X99805169Y-53556204D01*
X99798072Y-53561516D01*
X99798068Y-53561519D01*
X99697050Y-53637141D01*
X99697046Y-53637144D01*
X99689954Y-53642454D01*
X99684644Y-53649546D01*
X99684641Y-53649550D01*
X99609019Y-53750568D01*
X99609016Y-53750572D01*
X99603704Y-53757669D01*
X99600606Y-53765973D01*
X99600603Y-53765980D01*
X99592273Y-53788315D01*
X99560159Y-53836131D01*
X99509906Y-53864279D01*
X99452357Y-53866686D01*
X99399930Y-53842832D01*
X99261493Y-53735082D01*
X99261482Y-53735074D01*
X99257439Y-53731928D01*
X99164500Y-53681632D01*
X99050168Y-53619758D01*
X99050163Y-53619756D01*
X99045664Y-53617321D01*
X99040818Y-53615657D01*
X99040815Y-53615656D01*
X98822766Y-53540800D01*
X98822765Y-53540799D01*
X98817913Y-53539134D01*
X98812863Y-53538291D01*
X98812854Y-53538289D01*
X98585461Y-53500344D01*
X98585452Y-53500343D01*
X98580399Y-53499500D01*
X98339601Y-53499500D01*
X98334548Y-53500343D01*
X98334538Y-53500344D01*
X98107145Y-53538289D01*
X98107133Y-53538291D01*
X98102087Y-53539134D01*
X98097237Y-53540798D01*
X98097233Y-53540800D01*
X97879184Y-53615656D01*
X97879176Y-53615659D01*
X97874336Y-53617321D01*
X97869840Y-53619753D01*
X97869831Y-53619758D01*
X97667069Y-53729488D01*
X97667065Y-53729490D01*
X97662561Y-53731928D01*
X97658521Y-53735072D01*
X97658514Y-53735077D01*
X97476584Y-53876678D01*
X97476576Y-53876685D01*
X97472537Y-53879829D01*
X97469067Y-53883597D01*
X97469063Y-53883602D01*
X97312918Y-54053220D01*
X97312909Y-54053230D01*
X97309449Y-54056990D01*
X97306648Y-54061276D01*
X97306645Y-54061281D01*
X97293808Y-54080929D01*
X97249017Y-54122161D01*
X97190000Y-54137106D01*
X97130983Y-54122161D01*
X97086192Y-54080929D01*
X97073354Y-54061281D01*
X97070551Y-54056990D01*
X97067083Y-54053223D01*
X97067081Y-54053220D01*
X96919143Y-53892517D01*
X96907463Y-53879829D01*
X96887484Y-53864279D01*
X96721485Y-53735077D01*
X96721484Y-53735076D01*
X96717439Y-53731928D01*
X96624500Y-53681632D01*
X96510168Y-53619758D01*
X96510163Y-53619756D01*
X96505664Y-53617321D01*
X96500818Y-53615657D01*
X96500815Y-53615656D01*
X96282766Y-53540800D01*
X96282765Y-53540799D01*
X96277913Y-53539134D01*
X96272863Y-53538291D01*
X96272854Y-53538289D01*
X96045461Y-53500344D01*
X96045452Y-53500343D01*
X96040399Y-53499500D01*
X95799601Y-53499500D01*
X95794548Y-53500343D01*
X95794538Y-53500344D01*
X95567145Y-53538289D01*
X95567133Y-53538291D01*
X95562087Y-53539134D01*
X95557237Y-53540798D01*
X95557233Y-53540800D01*
X95339184Y-53615656D01*
X95339176Y-53615659D01*
X95334336Y-53617321D01*
X95329840Y-53619753D01*
X95329831Y-53619758D01*
X95127069Y-53729488D01*
X95127065Y-53729490D01*
X95122561Y-53731928D01*
X95118521Y-53735072D01*
X95118514Y-53735077D01*
X94936584Y-53876678D01*
X94936576Y-53876685D01*
X94932537Y-53879829D01*
X94929067Y-53883597D01*
X94929063Y-53883602D01*
X94772918Y-54053220D01*
X94772909Y-54053230D01*
X94769449Y-54056990D01*
X94766654Y-54061267D01*
X94766647Y-54061277D01*
X94650000Y-54239820D01*
X94637745Y-54258578D01*
X94635690Y-54263262D01*
X94635685Y-54263272D01*
X94543077Y-54474398D01*
X94541017Y-54479095D01*
X94539759Y-54484060D01*
X94539758Y-54484065D01*
X94483164Y-54707549D01*
X94483162Y-54707558D01*
X94481905Y-54712524D01*
X94481481Y-54717633D01*
X94481480Y-54717643D01*
X94467212Y-54889833D01*
X94467211Y-54889850D01*
X94467000Y-54892400D01*
X94467000Y-55107600D01*
X84000500Y-55107600D01*
X84000500Y-52067765D01*
X87145788Y-52067765D01*
X87146282Y-52072262D01*
X87146283Y-52072267D01*
X87174917Y-52332506D01*
X87174918Y-52332513D01*
X87175414Y-52337018D01*
X87176559Y-52341398D01*
X87176561Y-52341408D01*
X87208830Y-52464838D01*
X87243928Y-52599088D01*
X87245693Y-52603242D01*
X87245696Y-52603250D01*
X87348099Y-52844223D01*
X87349870Y-52848390D01*
X87352226Y-52852251D01*
X87352229Y-52852256D01*
X87488618Y-53075737D01*
X87490982Y-53079610D01*
X87664255Y-53287820D01*
X87667630Y-53290844D01*
X87667631Y-53290845D01*
X87772330Y-53384656D01*
X87865998Y-53468582D01*
X88091910Y-53618044D01*
X88337176Y-53733020D01*
X88596569Y-53811060D01*
X88864561Y-53850500D01*
X89065369Y-53850500D01*
X89067631Y-53850500D01*
X89270156Y-53835677D01*
X89534553Y-53776780D01*
X89787558Y-53680014D01*
X90023777Y-53547441D01*
X90238177Y-53381888D01*
X90426186Y-53186881D01*
X90583799Y-52966579D01*
X90707656Y-52725675D01*
X90795118Y-52469305D01*
X90844319Y-52202933D01*
X90849259Y-52067765D01*
X187145788Y-52067765D01*
X187146282Y-52072262D01*
X187146283Y-52072267D01*
X187174917Y-52332506D01*
X187174918Y-52332513D01*
X187175414Y-52337018D01*
X187176559Y-52341398D01*
X187176561Y-52341408D01*
X187208830Y-52464838D01*
X187243928Y-52599088D01*
X187245693Y-52603242D01*
X187245696Y-52603250D01*
X187348099Y-52844223D01*
X187349870Y-52848390D01*
X187352226Y-52852251D01*
X187352229Y-52852256D01*
X187488618Y-53075737D01*
X187490982Y-53079610D01*
X187664255Y-53287820D01*
X187667630Y-53290844D01*
X187667631Y-53290845D01*
X187772330Y-53384656D01*
X187865998Y-53468582D01*
X188091910Y-53618044D01*
X188337176Y-53733020D01*
X188596569Y-53811060D01*
X188864561Y-53850500D01*
X189065369Y-53850500D01*
X189067631Y-53850500D01*
X189270156Y-53835677D01*
X189534553Y-53776780D01*
X189787558Y-53680014D01*
X190023777Y-53547441D01*
X190238177Y-53381888D01*
X190426186Y-53186881D01*
X190583799Y-52966579D01*
X190707656Y-52725675D01*
X190795118Y-52469305D01*
X190844319Y-52202933D01*
X190854212Y-51932235D01*
X190824586Y-51662982D01*
X190756072Y-51400912D01*
X190650130Y-51151610D01*
X190509018Y-50920390D01*
X190335745Y-50712180D01*
X190230759Y-50618112D01*
X190137382Y-50534446D01*
X190137378Y-50534442D01*
X190134002Y-50531418D01*
X189908090Y-50381956D01*
X189903996Y-50380036D01*
X189903991Y-50380034D01*
X189666929Y-50268904D01*
X189666925Y-50268902D01*
X189662824Y-50266980D01*
X189658477Y-50265672D01*
X189658474Y-50265671D01*
X189407772Y-50190246D01*
X189407771Y-50190245D01*
X189403431Y-50188940D01*
X189398957Y-50188281D01*
X189398950Y-50188280D01*
X189139913Y-50150158D01*
X189139907Y-50150157D01*
X189135439Y-50149500D01*
X188932369Y-50149500D01*
X188930120Y-50149664D01*
X188930109Y-50149665D01*
X188734363Y-50163992D01*
X188734359Y-50163992D01*
X188729844Y-50164323D01*
X188725426Y-50165307D01*
X188725420Y-50165308D01*
X188469877Y-50222232D01*
X188469861Y-50222236D01*
X188465447Y-50223220D01*
X188461216Y-50224838D01*
X188461210Y-50224840D01*
X188216673Y-50318367D01*
X188216663Y-50318371D01*
X188212442Y-50319986D01*
X188208494Y-50322201D01*
X188208489Y-50322204D01*
X187980176Y-50450340D01*
X187980171Y-50450343D01*
X187976223Y-50452559D01*
X187972639Y-50455325D01*
X187972635Y-50455329D01*
X187765407Y-50615343D01*
X187765394Y-50615354D01*
X187761823Y-50618112D01*
X187758685Y-50621366D01*
X187758678Y-50621373D01*
X187576958Y-50809857D01*
X187576952Y-50809864D01*
X187573814Y-50813119D01*
X187571189Y-50816787D01*
X187571179Y-50816800D01*
X187418834Y-51029740D01*
X187418830Y-51029745D01*
X187416201Y-51033421D01*
X187414132Y-51037444D01*
X187414129Y-51037450D01*
X187294416Y-51270293D01*
X187294411Y-51270304D01*
X187292344Y-51274325D01*
X187290884Y-51278602D01*
X187290879Y-51278616D01*
X187206348Y-51526395D01*
X187206344Y-51526407D01*
X187204882Y-51530695D01*
X187204057Y-51535159D01*
X187204057Y-51535161D01*
X187156504Y-51792606D01*
X187156502Y-51792619D01*
X187155681Y-51797067D01*
X187155515Y-51801593D01*
X187155515Y-51801599D01*
X187150576Y-51936762D01*
X187145788Y-52067765D01*
X90849259Y-52067765D01*
X90854212Y-51932235D01*
X90824586Y-51662982D01*
X90756072Y-51400912D01*
X90650130Y-51151610D01*
X90509018Y-50920390D01*
X90416892Y-50809689D01*
X133209392Y-50809689D01*
X133217710Y-50820800D01*
X133342406Y-50914147D01*
X133349849Y-50918931D01*
X133593158Y-51051787D01*
X133601196Y-51055458D01*
X133860952Y-51152342D01*
X133869421Y-51154828D01*
X134140309Y-51213757D01*
X134149065Y-51215016D01*
X134425582Y-51234793D01*
X134434418Y-51234793D01*
X134710934Y-51215016D01*
X134719690Y-51213757D01*
X134990578Y-51154828D01*
X134999047Y-51152342D01*
X135258803Y-51055458D01*
X135266841Y-51051787D01*
X135510150Y-50918931D01*
X135517593Y-50914147D01*
X135642288Y-50820800D01*
X135650606Y-50809689D01*
X146349392Y-50809689D01*
X146357710Y-50820800D01*
X146482406Y-50914147D01*
X146489849Y-50918931D01*
X146733158Y-51051787D01*
X146741196Y-51055458D01*
X147000952Y-51152342D01*
X147009421Y-51154828D01*
X147280309Y-51213757D01*
X147289065Y-51215016D01*
X147565582Y-51234793D01*
X147574418Y-51234793D01*
X147850934Y-51215016D01*
X147859690Y-51213757D01*
X148130578Y-51154828D01*
X148139047Y-51152342D01*
X148398803Y-51055458D01*
X148406841Y-51051787D01*
X148650150Y-50918931D01*
X148657593Y-50914147D01*
X148782288Y-50820800D01*
X148790606Y-50809689D01*
X148783954Y-50797508D01*
X147581542Y-49595095D01*
X147570000Y-49588431D01*
X147558457Y-49595095D01*
X146356044Y-50797508D01*
X146349392Y-50809689D01*
X135650606Y-50809689D01*
X135643954Y-50797508D01*
X134441542Y-49595095D01*
X134430000Y-49588431D01*
X134418457Y-49595095D01*
X133216044Y-50797508D01*
X133209392Y-50809689D01*
X90416892Y-50809689D01*
X90335745Y-50712180D01*
X90230759Y-50618112D01*
X90137382Y-50534446D01*
X90137378Y-50534442D01*
X90134002Y-50531418D01*
X89908090Y-50381956D01*
X89903996Y-50380036D01*
X89903991Y-50380034D01*
X89666929Y-50268904D01*
X89666925Y-50268902D01*
X89662824Y-50266980D01*
X89658477Y-50265672D01*
X89658474Y-50265671D01*
X89407772Y-50190246D01*
X89407771Y-50190245D01*
X89403431Y-50188940D01*
X89398957Y-50188281D01*
X89398950Y-50188280D01*
X89139913Y-50150158D01*
X89139907Y-50150157D01*
X89135439Y-50149500D01*
X88932369Y-50149500D01*
X88930120Y-50149664D01*
X88930109Y-50149665D01*
X88734363Y-50163992D01*
X88734359Y-50163992D01*
X88729844Y-50164323D01*
X88725426Y-50165307D01*
X88725420Y-50165308D01*
X88469877Y-50222232D01*
X88469861Y-50222236D01*
X88465447Y-50223220D01*
X88461216Y-50224838D01*
X88461210Y-50224840D01*
X88216673Y-50318367D01*
X88216663Y-50318371D01*
X88212442Y-50319986D01*
X88208494Y-50322201D01*
X88208489Y-50322204D01*
X87980176Y-50450340D01*
X87980171Y-50450343D01*
X87976223Y-50452559D01*
X87972639Y-50455325D01*
X87972635Y-50455329D01*
X87765407Y-50615343D01*
X87765394Y-50615354D01*
X87761823Y-50618112D01*
X87758685Y-50621366D01*
X87758678Y-50621373D01*
X87576958Y-50809857D01*
X87576952Y-50809864D01*
X87573814Y-50813119D01*
X87571189Y-50816787D01*
X87571179Y-50816800D01*
X87418834Y-51029740D01*
X87418830Y-51029745D01*
X87416201Y-51033421D01*
X87414132Y-51037444D01*
X87414129Y-51037450D01*
X87294416Y-51270293D01*
X87294411Y-51270304D01*
X87292344Y-51274325D01*
X87290884Y-51278602D01*
X87290879Y-51278616D01*
X87206348Y-51526395D01*
X87206344Y-51526407D01*
X87204882Y-51530695D01*
X87204057Y-51535159D01*
X87204057Y-51535161D01*
X87156504Y-51792606D01*
X87156502Y-51792619D01*
X87155681Y-51797067D01*
X87155515Y-51801593D01*
X87155515Y-51801599D01*
X87150576Y-51936762D01*
X87145788Y-52067765D01*
X84000500Y-52067765D01*
X84000500Y-49234418D01*
X132425207Y-49234418D01*
X132444983Y-49510934D01*
X132446242Y-49519690D01*
X132505171Y-49790578D01*
X132507657Y-49799047D01*
X132604541Y-50058803D01*
X132608212Y-50066841D01*
X132741068Y-50310150D01*
X132745852Y-50317593D01*
X132839198Y-50442288D01*
X132850309Y-50450606D01*
X132862490Y-50443954D01*
X134064903Y-49241542D01*
X134071567Y-49229999D01*
X134788431Y-49229999D01*
X134795095Y-49241541D01*
X135997508Y-50443954D01*
X136009689Y-50450606D01*
X136020800Y-50442288D01*
X136114147Y-50317593D01*
X136118931Y-50310150D01*
X136251787Y-50066841D01*
X136255458Y-50058803D01*
X136306184Y-49922802D01*
X136814117Y-49922802D01*
X136821550Y-49930913D01*
X136868172Y-49963558D01*
X136877522Y-49968956D01*
X137065932Y-50056813D01*
X137076074Y-50060505D01*
X137276886Y-50114311D01*
X137287501Y-50116183D01*
X137494605Y-50134303D01*
X137505395Y-50134303D01*
X137712498Y-50116183D01*
X137723113Y-50114311D01*
X137923925Y-50060505D01*
X137934067Y-50056813D01*
X138122485Y-49968953D01*
X138131817Y-49963565D01*
X138178450Y-49930912D01*
X138185881Y-49922803D01*
X138179967Y-49913520D01*
X137511542Y-49245095D01*
X137500000Y-49238431D01*
X137488457Y-49245095D01*
X136820028Y-49913523D01*
X136814117Y-49922802D01*
X136306184Y-49922802D01*
X136352342Y-49799047D01*
X136354828Y-49790578D01*
X136384124Y-49655909D01*
X136403574Y-49611345D01*
X136438665Y-49577686D01*
X136466479Y-49559966D01*
X137134904Y-48891542D01*
X137141568Y-48880000D01*
X137858431Y-48880000D01*
X137865095Y-48891542D01*
X138533520Y-49559967D01*
X138542803Y-49565881D01*
X138550912Y-49558450D01*
X138583565Y-49511817D01*
X138588950Y-49502490D01*
X138637340Y-49398716D01*
X138683097Y-49346540D01*
X138749722Y-49327120D01*
X138816347Y-49346539D01*
X138862105Y-49398715D01*
X138910497Y-49502490D01*
X138912898Y-49507639D01*
X138915997Y-49512066D01*
X138915999Y-49512068D01*
X139035296Y-49682442D01*
X139035299Y-49682445D01*
X139038402Y-49686877D01*
X139193123Y-49841598D01*
X139372361Y-49967102D01*
X139377261Y-49969387D01*
X139377263Y-49969388D01*
X139441064Y-49999139D01*
X139570670Y-50059575D01*
X139728522Y-50101871D01*
X139776790Y-50114805D01*
X139776791Y-50114805D01*
X139782023Y-50116207D01*
X140000000Y-50135277D01*
X140217977Y-50116207D01*
X140429330Y-50059575D01*
X140627639Y-49967102D01*
X140806877Y-49841598D01*
X140912319Y-49736156D01*
X140967906Y-49704062D01*
X141032094Y-49704062D01*
X141087681Y-49736156D01*
X141193123Y-49841598D01*
X141372361Y-49967102D01*
X141377261Y-49969387D01*
X141377263Y-49969388D01*
X141441064Y-49999139D01*
X141570670Y-50059575D01*
X141728522Y-50101871D01*
X141776790Y-50114805D01*
X141776791Y-50114805D01*
X141782023Y-50116207D01*
X142000000Y-50135277D01*
X142217977Y-50116207D01*
X142429330Y-50059575D01*
X142627639Y-49967102D01*
X142806877Y-49841598D01*
X142961598Y-49686877D01*
X143023928Y-49597860D01*
X143071139Y-49557538D01*
X143131983Y-49545157D01*
X143191202Y-49563824D01*
X143233947Y-49608861D01*
X143249500Y-49668973D01*
X143249500Y-49674553D01*
X143249500Y-49674571D01*
X143249501Y-49677872D01*
X143249853Y-49681150D01*
X143249854Y-49681161D01*
X143255079Y-49729768D01*
X143255080Y-49729773D01*
X143255909Y-49737483D01*
X143258619Y-49744749D01*
X143258620Y-49744753D01*
X143275712Y-49790578D01*
X143306204Y-49872331D01*
X143311518Y-49879430D01*
X143311519Y-49879431D01*
X143378537Y-49968956D01*
X143392454Y-49987546D01*
X143507669Y-50073796D01*
X143642517Y-50124091D01*
X143702127Y-50130500D01*
X145297872Y-50130499D01*
X145357483Y-50124091D01*
X145492331Y-50073796D01*
X145562205Y-50021487D01*
X145612317Y-49999139D01*
X145667170Y-50000604D01*
X145716019Y-50025597D01*
X145744978Y-50063558D01*
X145746089Y-50062952D01*
X145881068Y-50310150D01*
X145885852Y-50317593D01*
X145979198Y-50442288D01*
X145990309Y-50450606D01*
X146002490Y-50443954D01*
X147204903Y-49241542D01*
X147211567Y-49229999D01*
X147928431Y-49229999D01*
X147935095Y-49241541D01*
X149137508Y-50443954D01*
X149149689Y-50450606D01*
X149160800Y-50442288D01*
X149254147Y-50317593D01*
X149258931Y-50310150D01*
X149391787Y-50066841D01*
X149395458Y-50058803D01*
X149492342Y-49799047D01*
X149494828Y-49790578D01*
X149553757Y-49519690D01*
X149555016Y-49510934D01*
X149574793Y-49234418D01*
X149574793Y-49225582D01*
X149555016Y-48949065D01*
X149553757Y-48940309D01*
X149494828Y-48669421D01*
X149492342Y-48660952D01*
X149395458Y-48401196D01*
X149391787Y-48393158D01*
X149258931Y-48149849D01*
X149254147Y-48142406D01*
X149160800Y-48017710D01*
X149149689Y-48009392D01*
X149137508Y-48016044D01*
X147935095Y-49218456D01*
X147928431Y-49229999D01*
X147211567Y-49229999D01*
X147204903Y-49218457D01*
X145999308Y-48012862D01*
X145990135Y-48006967D01*
X145981893Y-48014109D01*
X145957168Y-48047138D01*
X145905354Y-48087388D01*
X145840254Y-48095565D01*
X145780095Y-48069378D01*
X145741720Y-48016160D01*
X145738291Y-48006967D01*
X145693796Y-47887669D01*
X145607546Y-47772454D01*
X145510085Y-47699495D01*
X145499431Y-47691519D01*
X145499430Y-47691518D01*
X145492331Y-47686204D01*
X145420219Y-47659308D01*
X145395625Y-47650135D01*
X146346967Y-47650135D01*
X146352862Y-47659308D01*
X147558457Y-48864903D01*
X147570000Y-48871567D01*
X147581542Y-48864903D01*
X148783954Y-47662490D01*
X148790606Y-47650309D01*
X148782288Y-47639198D01*
X148657593Y-47545852D01*
X148650150Y-47541068D01*
X148406841Y-47408212D01*
X148398803Y-47404541D01*
X148139047Y-47307657D01*
X148130578Y-47305171D01*
X147859690Y-47246242D01*
X147850934Y-47244983D01*
X147574418Y-47225207D01*
X147565582Y-47225207D01*
X147289065Y-47244983D01*
X147280309Y-47246242D01*
X147009421Y-47305171D01*
X147000952Y-47307657D01*
X146741196Y-47404541D01*
X146733158Y-47408212D01*
X146489850Y-47541068D01*
X146482402Y-47545855D01*
X146354108Y-47641894D01*
X146346967Y-47650135D01*
X145395625Y-47650135D01*
X145364752Y-47638620D01*
X145364750Y-47638619D01*
X145357483Y-47635909D01*
X145349770Y-47635079D01*
X145349767Y-47635079D01*
X145301180Y-47629855D01*
X145301169Y-47629854D01*
X145297873Y-47629500D01*
X145294551Y-47629500D01*
X145081362Y-47629500D01*
X145017497Y-47611789D01*
X144971876Y-47563714D01*
X144957532Y-47499010D01*
X144978561Y-47436160D01*
X145028957Y-47393118D01*
X145122732Y-47349390D01*
X145127639Y-47347102D01*
X145306877Y-47221598D01*
X145461598Y-47066877D01*
X145587102Y-46887639D01*
X145679575Y-46689330D01*
X145736207Y-46477977D01*
X145755277Y-46260000D01*
X145736207Y-46042023D01*
X145728246Y-46012314D01*
X145719579Y-45979966D01*
X145679575Y-45830670D01*
X145587102Y-45632362D01*
X145461598Y-45453123D01*
X145306877Y-45298402D01*
X145302446Y-45295299D01*
X145302442Y-45295296D01*
X145132068Y-45175999D01*
X145132066Y-45175997D01*
X145127639Y-45172898D01*
X145122742Y-45170614D01*
X145122736Y-45170611D01*
X145034978Y-45129689D01*
X146349392Y-45129689D01*
X146357710Y-45140800D01*
X146482406Y-45234147D01*
X146489849Y-45238931D01*
X146733158Y-45371787D01*
X146741196Y-45375458D01*
X147000952Y-45472342D01*
X147009421Y-45474828D01*
X147280309Y-45533757D01*
X147289065Y-45535016D01*
X147565582Y-45554793D01*
X147574418Y-45554793D01*
X147850934Y-45535016D01*
X147859690Y-45533757D01*
X148130578Y-45474828D01*
X148139047Y-45472342D01*
X148398803Y-45375458D01*
X148406841Y-45371787D01*
X148650150Y-45238931D01*
X148657593Y-45234147D01*
X148782288Y-45140800D01*
X148790606Y-45129689D01*
X148783954Y-45117508D01*
X147581542Y-43915095D01*
X147570000Y-43908431D01*
X147558457Y-43915095D01*
X146356044Y-45117508D01*
X146349392Y-45129689D01*
X145034978Y-45129689D01*
X144934236Y-45082712D01*
X144934229Y-45082709D01*
X144929330Y-45080425D01*
X144924103Y-45079024D01*
X144924102Y-45079024D01*
X144723209Y-45025194D01*
X144723199Y-45025192D01*
X144717977Y-45023793D01*
X144712585Y-45023321D01*
X144712578Y-45023320D01*
X144505395Y-45005195D01*
X144500000Y-45004723D01*
X144494605Y-45005195D01*
X144287421Y-45023320D01*
X144287412Y-45023321D01*
X144282023Y-45023793D01*
X144276802Y-45025191D01*
X144276790Y-45025194D01*
X144075897Y-45079024D01*
X144075892Y-45079025D01*
X144070670Y-45080425D01*
X144065774Y-45082707D01*
X144065763Y-45082712D01*
X143877272Y-45170608D01*
X143877268Y-45170610D01*
X143872362Y-45172898D01*
X143867929Y-45176001D01*
X143867922Y-45176006D01*
X143697558Y-45295296D01*
X143697553Y-45295299D01*
X143693123Y-45298402D01*
X143689299Y-45302225D01*
X143689293Y-45302231D01*
X143542231Y-45449293D01*
X143542225Y-45449299D01*
X143538402Y-45453123D01*
X143535299Y-45457553D01*
X143535296Y-45457558D01*
X143416006Y-45627922D01*
X143416001Y-45627929D01*
X143412898Y-45632362D01*
X143410610Y-45637268D01*
X143410608Y-45637272D01*
X143362382Y-45740693D01*
X143316625Y-45792869D01*
X143250000Y-45812288D01*
X143183375Y-45792869D01*
X143137618Y-45740693D01*
X143097624Y-45654927D01*
X143087102Y-45632362D01*
X142961598Y-45453123D01*
X142806877Y-45298402D01*
X142802446Y-45295299D01*
X142802442Y-45295296D01*
X142632068Y-45175999D01*
X142632066Y-45175997D01*
X142627639Y-45172898D01*
X142622742Y-45170614D01*
X142622736Y-45170611D01*
X142434236Y-45082712D01*
X142434229Y-45082709D01*
X142429330Y-45080425D01*
X142424103Y-45079024D01*
X142424102Y-45079024D01*
X142223209Y-45025194D01*
X142223199Y-45025192D01*
X142217977Y-45023793D01*
X142212585Y-45023321D01*
X142212578Y-45023320D01*
X142005395Y-45005195D01*
X142000000Y-45004723D01*
X141994605Y-45005195D01*
X141787421Y-45023320D01*
X141787412Y-45023321D01*
X141782023Y-45023793D01*
X141776802Y-45025191D01*
X141776790Y-45025194D01*
X141575897Y-45079024D01*
X141575892Y-45079025D01*
X141570670Y-45080425D01*
X141565774Y-45082707D01*
X141565763Y-45082712D01*
X141377272Y-45170608D01*
X141377268Y-45170610D01*
X141372362Y-45172898D01*
X141367929Y-45176001D01*
X141367922Y-45176006D01*
X141197558Y-45295296D01*
X141197553Y-45295299D01*
X141193123Y-45298402D01*
X141189299Y-45302225D01*
X141189293Y-45302231D01*
X141087681Y-45403844D01*
X141032094Y-45435938D01*
X140967906Y-45435938D01*
X140912319Y-45403844D01*
X140810708Y-45302233D01*
X140810706Y-45302231D01*
X140806877Y-45298402D01*
X140802446Y-45295299D01*
X140802442Y-45295296D01*
X140632068Y-45175999D01*
X140632066Y-45175997D01*
X140627639Y-45172898D01*
X140622742Y-45170614D01*
X140622736Y-45170611D01*
X140434236Y-45082712D01*
X140434229Y-45082709D01*
X140429330Y-45080425D01*
X140424103Y-45079024D01*
X140424102Y-45079024D01*
X140223209Y-45025194D01*
X140223199Y-45025192D01*
X140217977Y-45023793D01*
X140212585Y-45023321D01*
X140212578Y-45023320D01*
X140005395Y-45005195D01*
X140000000Y-45004723D01*
X139994605Y-45005195D01*
X139787421Y-45023320D01*
X139787412Y-45023321D01*
X139782023Y-45023793D01*
X139776802Y-45025191D01*
X139776790Y-45025194D01*
X139575897Y-45079024D01*
X139575892Y-45079025D01*
X139570670Y-45080425D01*
X139565774Y-45082707D01*
X139565763Y-45082712D01*
X139377272Y-45170608D01*
X139377268Y-45170610D01*
X139372362Y-45172898D01*
X139367929Y-45176001D01*
X139367922Y-45176006D01*
X139197558Y-45295296D01*
X139197553Y-45295299D01*
X139193123Y-45298402D01*
X139189299Y-45302225D01*
X139189293Y-45302231D01*
X139042231Y-45449293D01*
X139042225Y-45449299D01*
X139038402Y-45453123D01*
X139035299Y-45457553D01*
X139035296Y-45457558D01*
X138916006Y-45627922D01*
X138916001Y-45627929D01*
X138912898Y-45632362D01*
X138910491Y-45637524D01*
X138862105Y-45741286D01*
X138816347Y-45793461D01*
X138749722Y-45812880D01*
X138683097Y-45793460D01*
X138637341Y-45741284D01*
X138588957Y-45637524D01*
X138583559Y-45628175D01*
X138550913Y-45581552D01*
X138542801Y-45574119D01*
X138533519Y-45580032D01*
X137865095Y-46248457D01*
X137858431Y-46260000D01*
X137865095Y-46271542D01*
X138533520Y-46939967D01*
X138542803Y-46945881D01*
X138550912Y-46938450D01*
X138583565Y-46891817D01*
X138588950Y-46882490D01*
X138637340Y-46778716D01*
X138683097Y-46726540D01*
X138749722Y-46707120D01*
X138816347Y-46726539D01*
X138862105Y-46778715D01*
X138901176Y-46862501D01*
X138912898Y-46887639D01*
X138915997Y-46892066D01*
X138915999Y-46892068D01*
X139035296Y-47062442D01*
X139035299Y-47062446D01*
X139038402Y-47066877D01*
X139193123Y-47221598D01*
X139372361Y-47347102D01*
X139377261Y-47349387D01*
X139377263Y-47349388D01*
X139563346Y-47436160D01*
X139570670Y-47439575D01*
X139606848Y-47449268D01*
X139610416Y-47450225D01*
X139666003Y-47482319D01*
X139698097Y-47537906D01*
X139698097Y-47602094D01*
X139666003Y-47657681D01*
X139610416Y-47689775D01*
X139575897Y-47699024D01*
X139575892Y-47699025D01*
X139570670Y-47700425D01*
X139565774Y-47702707D01*
X139565763Y-47702712D01*
X139377272Y-47790608D01*
X139377268Y-47790610D01*
X139372362Y-47792898D01*
X139367929Y-47796001D01*
X139367922Y-47796006D01*
X139197558Y-47915296D01*
X139197553Y-47915299D01*
X139193123Y-47918402D01*
X139189299Y-47922225D01*
X139189293Y-47922231D01*
X139042231Y-48069293D01*
X139042225Y-48069299D01*
X139038402Y-48073123D01*
X139035299Y-48077553D01*
X139035296Y-48077558D01*
X138916006Y-48247922D01*
X138916001Y-48247929D01*
X138912898Y-48252362D01*
X138910610Y-48257269D01*
X138862105Y-48361286D01*
X138816347Y-48413461D01*
X138749722Y-48432880D01*
X138683097Y-48413460D01*
X138637341Y-48361284D01*
X138588957Y-48257524D01*
X138583559Y-48248175D01*
X138550913Y-48201552D01*
X138542801Y-48194119D01*
X138533519Y-48200032D01*
X137865095Y-48868457D01*
X137858431Y-48880000D01*
X137141568Y-48880000D01*
X137134904Y-48868457D01*
X136466476Y-48200029D01*
X136457197Y-48194118D01*
X136449086Y-48201551D01*
X136416441Y-48248173D01*
X136411039Y-48257530D01*
X136407229Y-48265700D01*
X136363121Y-48316801D01*
X136298780Y-48337225D01*
X136233275Y-48320918D01*
X136186018Y-48272713D01*
X136118927Y-48149844D01*
X136114147Y-48142406D01*
X136020800Y-48017710D01*
X136009689Y-48009392D01*
X135997508Y-48016044D01*
X134795095Y-49218456D01*
X134788431Y-49229999D01*
X134071567Y-49229999D01*
X134064903Y-49218457D01*
X132859308Y-48012862D01*
X132850135Y-48006967D01*
X132841894Y-48014108D01*
X132745855Y-48142402D01*
X132741068Y-48149850D01*
X132608212Y-48393158D01*
X132604541Y-48401196D01*
X132507657Y-48660952D01*
X132505171Y-48669421D01*
X132446242Y-48940309D01*
X132444983Y-48949065D01*
X132425207Y-49225582D01*
X132425207Y-49234418D01*
X84000500Y-49234418D01*
X84000500Y-48044578D01*
X94134500Y-48044578D01*
X94134501Y-48047872D01*
X94134853Y-48051150D01*
X94134854Y-48051161D01*
X94140079Y-48099768D01*
X94140080Y-48099773D01*
X94140909Y-48107483D01*
X94143619Y-48114749D01*
X94143620Y-48114753D01*
X94175994Y-48201551D01*
X94191204Y-48242331D01*
X94277454Y-48357546D01*
X94392669Y-48443796D01*
X94527517Y-48494091D01*
X94587127Y-48500500D01*
X98682872Y-48500499D01*
X98742483Y-48494091D01*
X98877331Y-48443796D01*
X98992546Y-48357546D01*
X99078796Y-48242331D01*
X99129091Y-48107483D01*
X99135500Y-48047873D01*
X99135500Y-47650135D01*
X133206967Y-47650135D01*
X133212862Y-47659308D01*
X134418457Y-48864903D01*
X134430000Y-48871567D01*
X134441542Y-48864903D01*
X135643954Y-47662490D01*
X135650606Y-47650309D01*
X135642288Y-47639198D01*
X135517593Y-47545852D01*
X135510150Y-47541068D01*
X135266841Y-47408212D01*
X135258803Y-47404541D01*
X134999047Y-47307657D01*
X134990578Y-47305171D01*
X134979688Y-47302802D01*
X136814117Y-47302802D01*
X136821550Y-47310913D01*
X136868172Y-47343558D01*
X136877522Y-47348956D01*
X137065932Y-47436813D01*
X137076074Y-47440505D01*
X137112350Y-47450225D01*
X137167938Y-47482319D01*
X137200032Y-47537906D01*
X137200032Y-47602094D01*
X137167938Y-47657681D01*
X137112350Y-47689775D01*
X137076074Y-47699494D01*
X137065932Y-47703186D01*
X136877523Y-47791043D01*
X136868173Y-47796441D01*
X136821551Y-47829086D01*
X136814118Y-47837197D01*
X136820029Y-47846476D01*
X137488457Y-48514904D01*
X137500000Y-48521568D01*
X137511542Y-48514904D01*
X138179970Y-47846475D01*
X138185881Y-47837197D01*
X138178447Y-47829084D01*
X138131827Y-47796441D01*
X138122477Y-47791043D01*
X137934067Y-47703186D01*
X137923925Y-47699495D01*
X137887649Y-47689775D01*
X137832061Y-47657682D01*
X137799967Y-47602094D01*
X137799967Y-47537906D01*
X137832061Y-47482318D01*
X137887649Y-47450225D01*
X137923925Y-47440504D01*
X137934067Y-47436813D01*
X138122485Y-47348953D01*
X138131817Y-47343565D01*
X138178450Y-47310912D01*
X138185881Y-47302803D01*
X138179967Y-47293520D01*
X137511542Y-46625095D01*
X137500000Y-46618431D01*
X137488457Y-46625095D01*
X136820028Y-47293523D01*
X136814117Y-47302802D01*
X134979688Y-47302802D01*
X134719690Y-47246242D01*
X134710934Y-47244983D01*
X134434418Y-47225207D01*
X134425582Y-47225207D01*
X134149065Y-47244983D01*
X134140309Y-47246242D01*
X133869421Y-47305171D01*
X133860952Y-47307657D01*
X133601196Y-47404541D01*
X133593158Y-47408212D01*
X133349850Y-47541068D01*
X133342402Y-47545855D01*
X133214108Y-47641894D01*
X133206967Y-47650135D01*
X99135500Y-47650135D01*
X99135499Y-46265395D01*
X136245697Y-46265395D01*
X136263816Y-46472498D01*
X136265688Y-46483113D01*
X136319494Y-46683925D01*
X136323186Y-46694067D01*
X136411043Y-46882477D01*
X136416441Y-46891827D01*
X136449084Y-46938447D01*
X136457197Y-46945881D01*
X136466475Y-46939970D01*
X137134904Y-46271542D01*
X137141568Y-46260000D01*
X137134904Y-46248457D01*
X136466476Y-45580029D01*
X136457197Y-45574118D01*
X136449086Y-45581551D01*
X136416441Y-45628173D01*
X136411043Y-45637523D01*
X136323186Y-45825932D01*
X136319494Y-45836074D01*
X136265688Y-46036886D01*
X136263816Y-46047501D01*
X136245697Y-46254605D01*
X136245697Y-46265395D01*
X99135499Y-46265395D01*
X99135499Y-45952128D01*
X99129091Y-45892517D01*
X99078796Y-45757669D01*
X98992546Y-45642454D01*
X98877331Y-45556204D01*
X98742483Y-45505909D01*
X98734770Y-45505079D01*
X98734767Y-45505079D01*
X98686180Y-45499855D01*
X98686169Y-45499854D01*
X98682873Y-45499500D01*
X98679550Y-45499500D01*
X94590439Y-45499500D01*
X94590420Y-45499500D01*
X94587128Y-45499501D01*
X94583850Y-45499853D01*
X94583838Y-45499854D01*
X94535231Y-45505079D01*
X94535225Y-45505080D01*
X94527517Y-45505909D01*
X94520252Y-45508618D01*
X94520246Y-45508620D01*
X94400980Y-45553104D01*
X94400978Y-45553104D01*
X94392669Y-45556204D01*
X94385572Y-45561516D01*
X94385568Y-45561519D01*
X94284550Y-45637141D01*
X94284546Y-45637144D01*
X94277454Y-45642454D01*
X94272144Y-45649546D01*
X94272141Y-45649550D01*
X94196519Y-45750568D01*
X94196516Y-45750572D01*
X94191204Y-45757669D01*
X94188104Y-45765978D01*
X94188104Y-45765980D01*
X94143620Y-45885247D01*
X94143619Y-45885250D01*
X94140909Y-45892517D01*
X94140079Y-45900227D01*
X94140079Y-45900232D01*
X94134855Y-45948819D01*
X94134854Y-45948831D01*
X94134500Y-45952127D01*
X94134500Y-45955448D01*
X94134500Y-45955449D01*
X94134500Y-48044560D01*
X94134500Y-48044578D01*
X84000500Y-48044578D01*
X84000500Y-46544518D01*
X90335000Y-46544518D01*
X90335353Y-46551114D01*
X90340573Y-46599667D01*
X90344111Y-46614641D01*
X90388547Y-46733777D01*
X90396962Y-46749189D01*
X90472498Y-46850092D01*
X90484907Y-46862501D01*
X90585810Y-46938037D01*
X90601222Y-46946452D01*
X90720358Y-46990888D01*
X90735332Y-46994426D01*
X90783885Y-46999646D01*
X90790482Y-47000000D01*
X91568674Y-47000000D01*
X91581549Y-46996549D01*
X91585000Y-46983674D01*
X92085000Y-46983674D01*
X92088450Y-46996549D01*
X92101326Y-47000000D01*
X92879518Y-47000000D01*
X92886114Y-46999646D01*
X92934667Y-46994426D01*
X92949641Y-46990888D01*
X93068777Y-46946452D01*
X93084189Y-46938037D01*
X93185092Y-46862501D01*
X93197501Y-46850092D01*
X93273037Y-46749189D01*
X93281452Y-46733777D01*
X93325888Y-46614641D01*
X93329426Y-46599667D01*
X93334646Y-46551114D01*
X93335000Y-46544518D01*
X93335000Y-44766326D01*
X93331549Y-44753450D01*
X93318674Y-44750000D01*
X92101326Y-44750000D01*
X92088450Y-44753450D01*
X92085000Y-44766326D01*
X92085000Y-46983674D01*
X91585000Y-46983674D01*
X91585000Y-44766326D01*
X91581549Y-44753450D01*
X91568674Y-44750000D01*
X90351326Y-44750000D01*
X90338450Y-44753450D01*
X90335000Y-44766326D01*
X90335000Y-46544518D01*
X84000500Y-46544518D01*
X84000500Y-44597076D01*
X106920000Y-44597076D01*
X106920199Y-44602036D01*
X106934595Y-44780363D01*
X106936190Y-44790180D01*
X106993306Y-45021903D01*
X106996462Y-45031356D01*
X107090002Y-45250903D01*
X107094630Y-45259722D01*
X107222183Y-45461431D01*
X107228168Y-45469395D01*
X107386417Y-45648021D01*
X107393607Y-45654927D01*
X107578462Y-45805856D01*
X107586662Y-45811517D01*
X107793330Y-45930837D01*
X107802345Y-45935114D01*
X108025480Y-46019738D01*
X108035045Y-46022509D01*
X108196487Y-46055467D01*
X108207565Y-46055244D01*
X108210000Y-46044436D01*
X108210000Y-46040860D01*
X108710000Y-46040860D01*
X108713840Y-46054119D01*
X108727467Y-46056334D01*
X108764075Y-46051888D01*
X108773849Y-46049893D01*
X109003064Y-45983500D01*
X109012384Y-45979966D01*
X109227987Y-45877661D01*
X109236620Y-45872677D01*
X109433022Y-45737109D01*
X109440736Y-45730811D01*
X109612857Y-45565488D01*
X109619455Y-45558040D01*
X109755114Y-45377510D01*
X111999500Y-45377510D01*
X111999818Y-45380624D01*
X111999819Y-45380641D01*
X112009312Y-45473560D01*
X112009313Y-45473565D01*
X112010001Y-45480298D01*
X112012130Y-45486725D01*
X112012131Y-45486726D01*
X112062100Y-45637524D01*
X112065186Y-45646835D01*
X112157288Y-45796156D01*
X112281344Y-45920212D01*
X112430665Y-46012314D01*
X112597202Y-46067499D01*
X112699990Y-46078000D01*
X114376861Y-46078000D01*
X114380010Y-46078000D01*
X114482798Y-46067499D01*
X114649335Y-46012314D01*
X114798656Y-45920212D01*
X114922712Y-45796156D01*
X115014814Y-45646835D01*
X115069999Y-45480298D01*
X115080500Y-45377510D01*
X115080500Y-45129689D01*
X133209392Y-45129689D01*
X133217710Y-45140800D01*
X133342406Y-45234147D01*
X133349849Y-45238931D01*
X133593158Y-45371787D01*
X133601196Y-45375458D01*
X133860952Y-45472342D01*
X133869421Y-45474828D01*
X134140309Y-45533757D01*
X134149065Y-45535016D01*
X134425582Y-45554793D01*
X134434418Y-45554793D01*
X134710934Y-45535016D01*
X134719690Y-45533757D01*
X134990578Y-45474828D01*
X134999047Y-45472342D01*
X135258803Y-45375458D01*
X135266841Y-45371787D01*
X135510150Y-45238931D01*
X135517593Y-45234147D01*
X135540235Y-45217197D01*
X136814118Y-45217197D01*
X136820029Y-45226476D01*
X137488457Y-45894904D01*
X137500000Y-45901568D01*
X137511542Y-45894904D01*
X138179970Y-45226475D01*
X138185881Y-45217197D01*
X138178447Y-45209084D01*
X138131827Y-45176441D01*
X138122477Y-45171043D01*
X137934067Y-45083186D01*
X137923925Y-45079494D01*
X137723113Y-45025688D01*
X137712498Y-45023816D01*
X137505395Y-45005697D01*
X137494605Y-45005697D01*
X137287501Y-45023816D01*
X137276886Y-45025688D01*
X137076074Y-45079494D01*
X137065932Y-45083186D01*
X136877523Y-45171043D01*
X136868173Y-45176441D01*
X136821551Y-45209086D01*
X136814118Y-45217197D01*
X135540235Y-45217197D01*
X135642288Y-45140800D01*
X135650606Y-45129689D01*
X135643954Y-45117508D01*
X134441542Y-43915095D01*
X134430000Y-43908431D01*
X134418457Y-43915095D01*
X133216044Y-45117508D01*
X133209392Y-45129689D01*
X115080500Y-45129689D01*
X115080500Y-43554418D01*
X132425207Y-43554418D01*
X132444983Y-43830934D01*
X132446242Y-43839690D01*
X132505171Y-44110578D01*
X132507657Y-44119047D01*
X132604541Y-44378803D01*
X132608212Y-44386841D01*
X132741068Y-44630150D01*
X132745852Y-44637593D01*
X132839198Y-44762288D01*
X132850309Y-44770606D01*
X132862490Y-44763954D01*
X134064903Y-43561541D01*
X134071567Y-43549999D01*
X134788431Y-43549999D01*
X134795095Y-43561541D01*
X135997508Y-44763954D01*
X136009689Y-44770606D01*
X136020800Y-44762288D01*
X136114147Y-44637593D01*
X136118931Y-44630150D01*
X136251787Y-44386841D01*
X136255458Y-44378803D01*
X136352342Y-44119047D01*
X136354828Y-44110578D01*
X136413757Y-43839690D01*
X136415016Y-43830934D01*
X136434793Y-43554418D01*
X145565207Y-43554418D01*
X145584983Y-43830934D01*
X145586242Y-43839690D01*
X145645171Y-44110578D01*
X145647657Y-44119047D01*
X145744541Y-44378803D01*
X145748212Y-44386841D01*
X145881068Y-44630150D01*
X145885852Y-44637593D01*
X145979198Y-44762288D01*
X145990309Y-44770606D01*
X146002490Y-44763954D01*
X147204903Y-43561541D01*
X147211567Y-43549999D01*
X147928431Y-43549999D01*
X147935095Y-43561541D01*
X149137508Y-44763954D01*
X149149689Y-44770606D01*
X149160800Y-44762288D01*
X149254147Y-44637593D01*
X149258931Y-44630150D01*
X149391787Y-44386841D01*
X149395458Y-44378803D01*
X149492342Y-44119047D01*
X149494828Y-44110578D01*
X149553757Y-43839690D01*
X149555016Y-43830934D01*
X149574793Y-43554418D01*
X149574793Y-43545582D01*
X149555016Y-43269065D01*
X149553757Y-43260309D01*
X149494828Y-42989421D01*
X149492342Y-42980952D01*
X149395458Y-42721196D01*
X149391787Y-42713158D01*
X149299736Y-42544578D01*
X149999500Y-42544578D01*
X149999501Y-42547872D01*
X149999853Y-42551150D01*
X149999854Y-42551161D01*
X150005079Y-42599768D01*
X150005080Y-42599773D01*
X150005909Y-42607483D01*
X150008619Y-42614749D01*
X150008620Y-42614753D01*
X150034503Y-42684147D01*
X150056204Y-42742331D01*
X150061518Y-42749430D01*
X150061519Y-42749431D01*
X150080387Y-42774636D01*
X150142454Y-42857546D01*
X150257669Y-42943796D01*
X150392517Y-42994091D01*
X150452127Y-43000500D01*
X153547872Y-43000499D01*
X153607483Y-42994091D01*
X153742331Y-42943796D01*
X153857546Y-42857546D01*
X153943796Y-42742331D01*
X153994091Y-42607483D01*
X154000500Y-42547873D01*
X154000499Y-41000000D01*
X154994390Y-41000000D01*
X154994706Y-41004418D01*
X155014487Y-41281005D01*
X155014488Y-41281014D01*
X155014804Y-41285428D01*
X155015744Y-41289753D01*
X155015746Y-41289761D01*
X155062158Y-41503111D01*
X155075631Y-41565046D01*
X155077175Y-41569185D01*
X155077176Y-41569189D01*
X155174007Y-41828803D01*
X155175633Y-41833161D01*
X155177753Y-41837043D01*
X155177756Y-41837050D01*
X155257173Y-41982490D01*
X155312774Y-42084315D01*
X155484261Y-42313395D01*
X155686605Y-42515739D01*
X155915685Y-42687226D01*
X156166839Y-42824367D01*
X156434954Y-42924369D01*
X156714572Y-42985196D01*
X157000000Y-43005610D01*
X157285428Y-42985196D01*
X157565046Y-42924369D01*
X157833161Y-42824367D01*
X158084315Y-42687226D01*
X158227968Y-42579689D01*
X160779392Y-42579689D01*
X160787710Y-42590800D01*
X160912406Y-42684147D01*
X160919849Y-42688931D01*
X161163158Y-42821787D01*
X161171196Y-42825458D01*
X161430952Y-42922342D01*
X161439421Y-42924828D01*
X161710309Y-42983757D01*
X161719065Y-42985016D01*
X161995582Y-43004793D01*
X162004418Y-43004793D01*
X162280934Y-42985016D01*
X162289690Y-42983757D01*
X162560578Y-42924828D01*
X162569047Y-42922342D01*
X162828803Y-42825458D01*
X162836841Y-42821787D01*
X163080150Y-42688931D01*
X163087593Y-42684147D01*
X163212288Y-42590800D01*
X163220606Y-42579689D01*
X163213954Y-42567508D01*
X162011542Y-41365095D01*
X162000000Y-41358431D01*
X161988457Y-41365095D01*
X160786044Y-42567508D01*
X160779392Y-42579689D01*
X158227968Y-42579689D01*
X158313395Y-42515739D01*
X158515739Y-42313395D01*
X158687226Y-42084315D01*
X158824367Y-41833161D01*
X158924369Y-41565046D01*
X158985196Y-41285428D01*
X159005294Y-41004418D01*
X159995207Y-41004418D01*
X160014983Y-41280934D01*
X160016242Y-41289690D01*
X160075171Y-41560578D01*
X160077657Y-41569047D01*
X160174541Y-41828803D01*
X160178212Y-41836841D01*
X160311068Y-42080150D01*
X160315852Y-42087593D01*
X160409198Y-42212288D01*
X160420309Y-42220606D01*
X160432490Y-42213954D01*
X161634903Y-41011541D01*
X161641567Y-40999999D01*
X162358431Y-40999999D01*
X162365095Y-41011541D01*
X163567508Y-42213954D01*
X163579689Y-42220606D01*
X163590800Y-42212288D01*
X163684147Y-42087593D01*
X163688931Y-42080150D01*
X163821787Y-41836841D01*
X163825458Y-41828803D01*
X163922342Y-41569047D01*
X163924828Y-41560578D01*
X163983757Y-41289690D01*
X163985016Y-41280934D01*
X164004793Y-41004418D01*
X164004793Y-40995582D01*
X163985016Y-40719065D01*
X163983757Y-40710309D01*
X163924828Y-40439421D01*
X163922342Y-40430952D01*
X163825458Y-40171196D01*
X163821787Y-40163158D01*
X163688931Y-39919849D01*
X163684147Y-39912406D01*
X163590800Y-39787710D01*
X163579689Y-39779392D01*
X163567508Y-39786044D01*
X162365095Y-40988456D01*
X162358431Y-40999999D01*
X161641567Y-40999999D01*
X161634903Y-40988456D01*
X160429310Y-39782864D01*
X160420135Y-39776967D01*
X160411894Y-39784108D01*
X160315855Y-39912402D01*
X160311068Y-39919850D01*
X160178212Y-40163158D01*
X160174541Y-40171196D01*
X160077657Y-40430952D01*
X160075171Y-40439421D01*
X160016242Y-40710309D01*
X160014983Y-40719065D01*
X159995207Y-40995582D01*
X159995207Y-41004418D01*
X159005294Y-41004418D01*
X159005610Y-41000000D01*
X158985196Y-40714572D01*
X158924369Y-40434954D01*
X158824367Y-40166839D01*
X158687226Y-39915685D01*
X158515739Y-39686605D01*
X158313395Y-39484261D01*
X158227733Y-39420135D01*
X160776967Y-39420135D01*
X160782862Y-39429308D01*
X161988457Y-40634903D01*
X162000000Y-40641567D01*
X162011542Y-40634903D01*
X163213954Y-39432490D01*
X163220606Y-39420309D01*
X163212288Y-39409198D01*
X163087593Y-39315852D01*
X163080150Y-39311068D01*
X162836841Y-39178212D01*
X162828803Y-39174541D01*
X162569047Y-39077657D01*
X162560578Y-39075171D01*
X162289690Y-39016242D01*
X162280934Y-39014983D01*
X162004418Y-38995207D01*
X161995582Y-38995207D01*
X161719065Y-39014983D01*
X161710309Y-39016242D01*
X161439421Y-39075171D01*
X161430952Y-39077657D01*
X161171196Y-39174541D01*
X161163158Y-39178212D01*
X160919850Y-39311068D01*
X160912402Y-39315855D01*
X160784108Y-39411894D01*
X160776967Y-39420135D01*
X158227733Y-39420135D01*
X158084315Y-39312774D01*
X157998619Y-39265980D01*
X157837050Y-39177756D01*
X157837043Y-39177753D01*
X157833161Y-39175633D01*
X157829017Y-39174087D01*
X157829012Y-39174085D01*
X157569189Y-39077176D01*
X157569185Y-39077175D01*
X157565046Y-39075631D01*
X157500174Y-39061519D01*
X157289761Y-39015746D01*
X157289753Y-39015744D01*
X157285428Y-39014804D01*
X157281014Y-39014488D01*
X157281005Y-39014487D01*
X157004418Y-38994706D01*
X157000000Y-38994390D01*
X156995582Y-38994706D01*
X156718994Y-39014487D01*
X156718983Y-39014488D01*
X156714572Y-39014804D01*
X156710248Y-39015744D01*
X156710238Y-39015746D01*
X156439279Y-39074690D01*
X156439276Y-39074690D01*
X156434954Y-39075631D01*
X156430818Y-39077173D01*
X156430810Y-39077176D01*
X156170987Y-39174085D01*
X156170976Y-39174089D01*
X156166839Y-39175633D01*
X156162961Y-39177750D01*
X156162949Y-39177756D01*
X155919579Y-39310647D01*
X155919571Y-39310651D01*
X155915685Y-39312774D01*
X155912135Y-39315431D01*
X155912131Y-39315434D01*
X155690156Y-39481602D01*
X155690149Y-39481607D01*
X155686605Y-39484261D01*
X155683474Y-39487391D01*
X155683467Y-39487398D01*
X155487398Y-39683467D01*
X155487391Y-39683474D01*
X155484261Y-39686605D01*
X155481607Y-39690149D01*
X155481602Y-39690156D01*
X155335476Y-39885358D01*
X155312774Y-39915685D01*
X155310651Y-39919571D01*
X155310647Y-39919579D01*
X155177756Y-40162949D01*
X155177750Y-40162961D01*
X155175633Y-40166839D01*
X155174089Y-40170976D01*
X155174085Y-40170987D01*
X155077176Y-40430810D01*
X155077173Y-40430818D01*
X155075631Y-40434954D01*
X155074690Y-40439276D01*
X155074690Y-40439279D01*
X155015746Y-40710238D01*
X155015744Y-40710248D01*
X155014804Y-40714572D01*
X155014488Y-40718983D01*
X155014487Y-40718994D01*
X155012270Y-40750000D01*
X154994390Y-41000000D01*
X154000499Y-41000000D01*
X154000499Y-39452128D01*
X153994091Y-39392517D01*
X153943796Y-39257669D01*
X153857546Y-39142454D01*
X153770988Y-39077657D01*
X153749431Y-39061519D01*
X153749430Y-39061518D01*
X153742331Y-39056204D01*
X153671965Y-39029959D01*
X153614752Y-39008620D01*
X153614750Y-39008619D01*
X153607483Y-39005909D01*
X153599770Y-39005079D01*
X153599767Y-39005079D01*
X153551180Y-38999855D01*
X153551169Y-38999854D01*
X153547873Y-38999500D01*
X153544550Y-38999500D01*
X150455439Y-38999500D01*
X150455420Y-38999500D01*
X150452128Y-38999501D01*
X150448850Y-38999853D01*
X150448838Y-38999854D01*
X150400231Y-39005079D01*
X150400225Y-39005080D01*
X150392517Y-39005909D01*
X150385252Y-39008618D01*
X150385246Y-39008620D01*
X150265980Y-39053104D01*
X150265978Y-39053104D01*
X150257669Y-39056204D01*
X150250572Y-39061516D01*
X150250568Y-39061519D01*
X150149550Y-39137141D01*
X150149546Y-39137144D01*
X150142454Y-39142454D01*
X150137144Y-39149546D01*
X150137141Y-39149550D01*
X150061519Y-39250568D01*
X150061516Y-39250572D01*
X150056204Y-39257669D01*
X150053104Y-39265978D01*
X150053104Y-39265980D01*
X150008620Y-39385247D01*
X150008619Y-39385250D01*
X150005909Y-39392517D01*
X150005079Y-39400227D01*
X150005079Y-39400232D01*
X149999855Y-39448819D01*
X149999854Y-39448831D01*
X149999500Y-39452127D01*
X149999500Y-39455448D01*
X149999500Y-39455449D01*
X149999500Y-42544560D01*
X149999500Y-42544578D01*
X149299736Y-42544578D01*
X149258931Y-42469849D01*
X149254147Y-42462406D01*
X149160800Y-42337710D01*
X149149689Y-42329392D01*
X149137508Y-42336044D01*
X147935095Y-43538456D01*
X147928431Y-43549999D01*
X147211567Y-43549999D01*
X147204903Y-43538456D01*
X145999310Y-42332864D01*
X145990135Y-42326967D01*
X145981894Y-42334108D01*
X145885855Y-42462402D01*
X145881068Y-42469850D01*
X145748212Y-42713158D01*
X145744541Y-42721196D01*
X145647657Y-42980952D01*
X145645171Y-42989421D01*
X145586242Y-43260309D01*
X145584983Y-43269065D01*
X145565207Y-43545582D01*
X145565207Y-43554418D01*
X136434793Y-43554418D01*
X136434793Y-43545582D01*
X136415016Y-43269065D01*
X136413757Y-43260309D01*
X136354828Y-42989421D01*
X136352342Y-42980952D01*
X136255458Y-42721196D01*
X136251787Y-42713158D01*
X136118931Y-42469849D01*
X136114147Y-42462406D01*
X136020800Y-42337710D01*
X136009689Y-42329392D01*
X135997508Y-42336044D01*
X134795095Y-43538456D01*
X134788431Y-43549999D01*
X134071567Y-43549999D01*
X134064903Y-43538456D01*
X132859310Y-42332864D01*
X132850135Y-42326967D01*
X132841894Y-42334108D01*
X132745855Y-42462402D01*
X132741068Y-42469850D01*
X132608212Y-42713158D01*
X132604541Y-42721196D01*
X132507657Y-42980952D01*
X132505171Y-42989421D01*
X132446242Y-43260309D01*
X132444983Y-43269065D01*
X132425207Y-43545582D01*
X132425207Y-43554418D01*
X115080500Y-43554418D01*
X115080500Y-42544578D01*
X117999500Y-42544578D01*
X117999501Y-42547872D01*
X117999853Y-42551150D01*
X117999854Y-42551161D01*
X118005079Y-42599768D01*
X118005080Y-42599773D01*
X118005909Y-42607483D01*
X118008619Y-42614749D01*
X118008620Y-42614753D01*
X118034503Y-42684147D01*
X118056204Y-42742331D01*
X118061518Y-42749430D01*
X118061519Y-42749431D01*
X118080387Y-42774636D01*
X118142454Y-42857546D01*
X118257669Y-42943796D01*
X118392517Y-42994091D01*
X118452127Y-43000500D01*
X121547872Y-43000499D01*
X121607483Y-42994091D01*
X121742331Y-42943796D01*
X121857546Y-42857546D01*
X121943796Y-42742331D01*
X121994091Y-42607483D01*
X122000500Y-42547873D01*
X122000499Y-41000000D01*
X122994390Y-41000000D01*
X122994706Y-41004418D01*
X123014487Y-41281005D01*
X123014488Y-41281014D01*
X123014804Y-41285428D01*
X123015744Y-41289753D01*
X123015746Y-41289761D01*
X123062158Y-41503111D01*
X123075631Y-41565046D01*
X123077175Y-41569185D01*
X123077176Y-41569189D01*
X123174007Y-41828803D01*
X123175633Y-41833161D01*
X123177753Y-41837043D01*
X123177756Y-41837050D01*
X123257173Y-41982490D01*
X123312774Y-42084315D01*
X123484261Y-42313395D01*
X123686605Y-42515739D01*
X123915685Y-42687226D01*
X124166839Y-42824367D01*
X124434954Y-42924369D01*
X124714572Y-42985196D01*
X125000000Y-43005610D01*
X125285428Y-42985196D01*
X125565046Y-42924369D01*
X125833161Y-42824367D01*
X126084315Y-42687226D01*
X126227968Y-42579689D01*
X128779392Y-42579689D01*
X128787710Y-42590800D01*
X128912406Y-42684147D01*
X128919849Y-42688931D01*
X129163158Y-42821787D01*
X129171196Y-42825458D01*
X129430952Y-42922342D01*
X129439421Y-42924828D01*
X129710309Y-42983757D01*
X129719065Y-42985016D01*
X129995582Y-43004793D01*
X130004418Y-43004793D01*
X130280934Y-42985016D01*
X130289690Y-42983757D01*
X130560578Y-42924828D01*
X130569047Y-42922342D01*
X130828803Y-42825458D01*
X130836841Y-42821787D01*
X131080150Y-42688931D01*
X131087593Y-42684147D01*
X131212288Y-42590800D01*
X131220606Y-42579689D01*
X131213954Y-42567508D01*
X130011542Y-41365095D01*
X130000000Y-41358431D01*
X129988457Y-41365095D01*
X128786044Y-42567508D01*
X128779392Y-42579689D01*
X126227968Y-42579689D01*
X126313395Y-42515739D01*
X126515739Y-42313395D01*
X126687226Y-42084315D01*
X126824367Y-41833161D01*
X126924369Y-41565046D01*
X126985196Y-41285428D01*
X127005294Y-41004418D01*
X127995207Y-41004418D01*
X128014983Y-41280934D01*
X128016242Y-41289690D01*
X128075171Y-41560578D01*
X128077657Y-41569047D01*
X128174541Y-41828803D01*
X128178212Y-41836841D01*
X128311068Y-42080150D01*
X128315852Y-42087593D01*
X128409198Y-42212288D01*
X128420309Y-42220606D01*
X128432490Y-42213954D01*
X129634903Y-41011541D01*
X129641567Y-40999999D01*
X130358431Y-40999999D01*
X130365095Y-41011541D01*
X131567508Y-42213954D01*
X131579689Y-42220606D01*
X131590800Y-42212288D01*
X131684147Y-42087593D01*
X131688931Y-42080150D01*
X131749003Y-41970135D01*
X133206967Y-41970135D01*
X133212862Y-41979308D01*
X134418457Y-43184903D01*
X134430000Y-43191567D01*
X134441542Y-43184903D01*
X135643954Y-41982490D01*
X135650606Y-41970309D01*
X135650476Y-41970135D01*
X146346967Y-41970135D01*
X146352862Y-41979308D01*
X147558457Y-43184903D01*
X147570000Y-43191567D01*
X147581542Y-43184903D01*
X148783954Y-41982490D01*
X148790606Y-41970309D01*
X148782288Y-41959198D01*
X148657593Y-41865852D01*
X148650150Y-41861068D01*
X148406841Y-41728212D01*
X148398803Y-41724541D01*
X148139047Y-41627657D01*
X148130578Y-41625171D01*
X147859690Y-41566242D01*
X147850934Y-41564983D01*
X147574418Y-41545207D01*
X147565582Y-41545207D01*
X147289065Y-41564983D01*
X147280309Y-41566242D01*
X147009421Y-41625171D01*
X147000952Y-41627657D01*
X146741196Y-41724541D01*
X146733158Y-41728212D01*
X146489850Y-41861068D01*
X146482402Y-41865855D01*
X146354108Y-41961894D01*
X146346967Y-41970135D01*
X135650476Y-41970135D01*
X135642288Y-41959198D01*
X135517593Y-41865852D01*
X135510150Y-41861068D01*
X135266841Y-41728212D01*
X135258803Y-41724541D01*
X134999047Y-41627657D01*
X134990578Y-41625171D01*
X134719690Y-41566242D01*
X134710934Y-41564983D01*
X134434418Y-41545207D01*
X134425582Y-41545207D01*
X134149065Y-41564983D01*
X134140309Y-41566242D01*
X133869421Y-41625171D01*
X133860952Y-41627657D01*
X133601196Y-41724541D01*
X133593158Y-41728212D01*
X133349850Y-41861068D01*
X133342402Y-41865855D01*
X133214108Y-41961894D01*
X133206967Y-41970135D01*
X131749003Y-41970135D01*
X131821787Y-41836841D01*
X131825458Y-41828803D01*
X131922342Y-41569047D01*
X131924828Y-41560578D01*
X131983757Y-41289690D01*
X131985016Y-41280934D01*
X132004793Y-41004418D01*
X132004793Y-40995582D01*
X131985016Y-40719065D01*
X131983757Y-40710309D01*
X131924828Y-40439421D01*
X131922342Y-40430952D01*
X131825458Y-40171196D01*
X131821787Y-40163158D01*
X131688931Y-39919849D01*
X131684147Y-39912406D01*
X131590800Y-39787710D01*
X131579689Y-39779392D01*
X131567508Y-39786044D01*
X130365095Y-40988456D01*
X130358431Y-40999999D01*
X129641567Y-40999999D01*
X129634903Y-40988456D01*
X128429310Y-39782864D01*
X128420135Y-39776967D01*
X128411894Y-39784108D01*
X128315855Y-39912402D01*
X128311068Y-39919850D01*
X128178212Y-40163158D01*
X128174541Y-40171196D01*
X128077657Y-40430952D01*
X128075171Y-40439421D01*
X128016242Y-40710309D01*
X128014983Y-40719065D01*
X127995207Y-40995582D01*
X127995207Y-41004418D01*
X127005294Y-41004418D01*
X127005610Y-41000000D01*
X126985196Y-40714572D01*
X126924369Y-40434954D01*
X126824367Y-40166839D01*
X126687226Y-39915685D01*
X126515739Y-39686605D01*
X126313395Y-39484261D01*
X126227733Y-39420135D01*
X128776967Y-39420135D01*
X128782862Y-39429308D01*
X129988457Y-40634903D01*
X130000000Y-40641567D01*
X130011542Y-40634903D01*
X131213954Y-39432490D01*
X131220606Y-39420309D01*
X131212288Y-39409198D01*
X131087593Y-39315852D01*
X131080150Y-39311068D01*
X130836841Y-39178212D01*
X130828803Y-39174541D01*
X130569047Y-39077657D01*
X130560578Y-39075171D01*
X130289690Y-39016242D01*
X130280934Y-39014983D01*
X130004418Y-38995207D01*
X129995582Y-38995207D01*
X129719065Y-39014983D01*
X129710309Y-39016242D01*
X129439421Y-39075171D01*
X129430952Y-39077657D01*
X129171196Y-39174541D01*
X129163158Y-39178212D01*
X128919850Y-39311068D01*
X128912402Y-39315855D01*
X128784108Y-39411894D01*
X128776967Y-39420135D01*
X126227733Y-39420135D01*
X126084315Y-39312774D01*
X125998619Y-39265980D01*
X125837050Y-39177756D01*
X125837043Y-39177753D01*
X125833161Y-39175633D01*
X125829017Y-39174087D01*
X125829012Y-39174085D01*
X125569189Y-39077176D01*
X125569185Y-39077175D01*
X125565046Y-39075631D01*
X125500174Y-39061519D01*
X125289761Y-39015746D01*
X125289753Y-39015744D01*
X125285428Y-39014804D01*
X125281014Y-39014488D01*
X125281005Y-39014487D01*
X125004418Y-38994706D01*
X125000000Y-38994390D01*
X124995582Y-38994706D01*
X124718994Y-39014487D01*
X124718983Y-39014488D01*
X124714572Y-39014804D01*
X124710248Y-39015744D01*
X124710238Y-39015746D01*
X124439279Y-39074690D01*
X124439276Y-39074690D01*
X124434954Y-39075631D01*
X124430818Y-39077173D01*
X124430810Y-39077176D01*
X124170987Y-39174085D01*
X124170976Y-39174089D01*
X124166839Y-39175633D01*
X124162961Y-39177750D01*
X124162949Y-39177756D01*
X123919579Y-39310647D01*
X123919571Y-39310651D01*
X123915685Y-39312774D01*
X123912135Y-39315431D01*
X123912131Y-39315434D01*
X123690156Y-39481602D01*
X123690149Y-39481607D01*
X123686605Y-39484261D01*
X123683474Y-39487391D01*
X123683467Y-39487398D01*
X123487398Y-39683467D01*
X123487391Y-39683474D01*
X123484261Y-39686605D01*
X123481607Y-39690149D01*
X123481602Y-39690156D01*
X123335476Y-39885358D01*
X123312774Y-39915685D01*
X123310651Y-39919571D01*
X123310647Y-39919579D01*
X123177756Y-40162949D01*
X123177750Y-40162961D01*
X123175633Y-40166839D01*
X123174089Y-40170976D01*
X123174085Y-40170987D01*
X123077176Y-40430810D01*
X123077173Y-40430818D01*
X123075631Y-40434954D01*
X123074690Y-40439276D01*
X123074690Y-40439279D01*
X123015746Y-40710238D01*
X123015744Y-40710248D01*
X123014804Y-40714572D01*
X123014488Y-40718983D01*
X123014487Y-40718994D01*
X123012270Y-40750000D01*
X122994390Y-41000000D01*
X122000499Y-41000000D01*
X122000499Y-39452128D01*
X121994091Y-39392517D01*
X121943796Y-39257669D01*
X121857546Y-39142454D01*
X121770988Y-39077657D01*
X121749431Y-39061519D01*
X121749430Y-39061518D01*
X121742331Y-39056204D01*
X121671965Y-39029959D01*
X121614752Y-39008620D01*
X121614750Y-39008619D01*
X121607483Y-39005909D01*
X121599770Y-39005079D01*
X121599767Y-39005079D01*
X121551180Y-38999855D01*
X121551169Y-38999854D01*
X121547873Y-38999500D01*
X121544550Y-38999500D01*
X118455439Y-38999500D01*
X118455420Y-38999500D01*
X118452128Y-38999501D01*
X118448850Y-38999853D01*
X118448838Y-38999854D01*
X118400231Y-39005079D01*
X118400225Y-39005080D01*
X118392517Y-39005909D01*
X118385252Y-39008618D01*
X118385246Y-39008620D01*
X118265980Y-39053104D01*
X118265978Y-39053104D01*
X118257669Y-39056204D01*
X118250572Y-39061516D01*
X118250568Y-39061519D01*
X118149550Y-39137141D01*
X118149546Y-39137144D01*
X118142454Y-39142454D01*
X118137144Y-39149546D01*
X118137141Y-39149550D01*
X118061519Y-39250568D01*
X118061516Y-39250572D01*
X118056204Y-39257669D01*
X118053104Y-39265978D01*
X118053104Y-39265980D01*
X118008620Y-39385247D01*
X118008619Y-39385250D01*
X118005909Y-39392517D01*
X118005079Y-39400227D01*
X118005079Y-39400232D01*
X117999855Y-39448819D01*
X117999854Y-39448831D01*
X117999500Y-39452127D01*
X117999500Y-39455448D01*
X117999500Y-39455449D01*
X117999500Y-42544560D01*
X117999500Y-42544578D01*
X115080500Y-42544578D01*
X115080500Y-42177490D01*
X115069999Y-42074702D01*
X115014814Y-41908165D01*
X114922712Y-41758844D01*
X114798656Y-41634788D01*
X114649335Y-41542686D01*
X114642483Y-41540415D01*
X114642480Y-41540414D01*
X114489226Y-41489631D01*
X114489225Y-41489630D01*
X114482798Y-41487501D01*
X114476065Y-41486813D01*
X114476060Y-41486812D01*
X114383141Y-41477319D01*
X114383124Y-41477318D01*
X114380010Y-41477000D01*
X112699990Y-41477000D01*
X112696876Y-41477318D01*
X112696858Y-41477319D01*
X112603939Y-41486812D01*
X112603932Y-41486813D01*
X112597202Y-41487501D01*
X112590776Y-41489630D01*
X112590773Y-41489631D01*
X112437519Y-41540414D01*
X112437513Y-41540416D01*
X112430665Y-41542686D01*
X112424521Y-41546475D01*
X112424520Y-41546476D01*
X112292905Y-41627657D01*
X112281344Y-41634788D01*
X112276236Y-41639895D01*
X112276232Y-41639899D01*
X112162399Y-41753732D01*
X112162395Y-41753736D01*
X112157288Y-41758844D01*
X112153496Y-41764991D01*
X112153495Y-41764993D01*
X112094236Y-41861068D01*
X112065186Y-41908165D01*
X112062916Y-41915013D01*
X112062914Y-41915019D01*
X112012131Y-42068273D01*
X112010001Y-42074702D01*
X112009313Y-42081432D01*
X112009312Y-42081439D01*
X111999819Y-42174358D01*
X111999818Y-42174376D01*
X111999500Y-42177490D01*
X111999500Y-45377510D01*
X109755114Y-45377510D01*
X109762821Y-45367254D01*
X109768151Y-45358825D01*
X109879053Y-45147519D01*
X109882961Y-45138345D01*
X109958532Y-44911985D01*
X109960916Y-44902313D01*
X109999197Y-44666758D01*
X110000000Y-44656822D01*
X110000000Y-44043826D01*
X109996549Y-44030950D01*
X109983674Y-44027500D01*
X108726326Y-44027500D01*
X108713450Y-44030950D01*
X108710000Y-44043826D01*
X108710000Y-46040860D01*
X108210000Y-46040860D01*
X108210000Y-44043826D01*
X108206549Y-44030950D01*
X108193674Y-44027500D01*
X106936326Y-44027500D01*
X106923450Y-44030950D01*
X106920000Y-44043826D01*
X106920000Y-44597076D01*
X84000500Y-44597076D01*
X84000500Y-44233674D01*
X90335000Y-44233674D01*
X90338450Y-44246549D01*
X90351326Y-44250000D01*
X91568674Y-44250000D01*
X91581549Y-44246549D01*
X91585000Y-44233674D01*
X92085000Y-44233674D01*
X92088450Y-44246549D01*
X92101326Y-44250000D01*
X93318674Y-44250000D01*
X93331549Y-44246549D01*
X93335000Y-44233674D01*
X93335000Y-43511174D01*
X106920000Y-43511174D01*
X106923450Y-43524049D01*
X106936326Y-43527500D01*
X108193674Y-43527500D01*
X108206549Y-43524049D01*
X108210000Y-43511174D01*
X108710000Y-43511174D01*
X108713450Y-43524049D01*
X108726326Y-43527500D01*
X109983674Y-43527500D01*
X109996549Y-43524049D01*
X110000000Y-43511174D01*
X110000000Y-42957924D01*
X109999800Y-42952963D01*
X109985404Y-42774636D01*
X109983809Y-42764819D01*
X109926693Y-42533096D01*
X109923537Y-42523643D01*
X109829997Y-42304096D01*
X109825369Y-42295277D01*
X109697816Y-42093568D01*
X109691831Y-42085604D01*
X109533582Y-41906978D01*
X109526392Y-41900072D01*
X109341537Y-41749143D01*
X109333337Y-41743482D01*
X109126669Y-41624162D01*
X109117654Y-41619885D01*
X108894519Y-41535261D01*
X108884954Y-41532490D01*
X108723512Y-41499532D01*
X108712434Y-41499755D01*
X108710000Y-41510564D01*
X108710000Y-43511174D01*
X108210000Y-43511174D01*
X108210000Y-41514140D01*
X108206159Y-41500880D01*
X108192532Y-41498665D01*
X108155924Y-41503111D01*
X108146150Y-41505106D01*
X107916935Y-41571499D01*
X107907615Y-41575033D01*
X107692012Y-41677338D01*
X107683379Y-41682322D01*
X107486977Y-41817890D01*
X107479263Y-41824188D01*
X107307142Y-41989511D01*
X107300544Y-41996959D01*
X107157178Y-42187745D01*
X107151848Y-42196174D01*
X107040946Y-42407480D01*
X107037038Y-42416654D01*
X106961467Y-42643014D01*
X106959083Y-42652686D01*
X106920802Y-42888241D01*
X106920000Y-42898178D01*
X106920000Y-43511174D01*
X93335000Y-43511174D01*
X93335000Y-42455482D01*
X93334646Y-42448885D01*
X93329426Y-42400332D01*
X93325888Y-42385358D01*
X93281452Y-42266222D01*
X93273037Y-42250810D01*
X93197501Y-42149907D01*
X93185092Y-42137498D01*
X93084189Y-42061962D01*
X93068777Y-42053547D01*
X93044570Y-42044518D01*
X94135000Y-42044518D01*
X94135353Y-42051114D01*
X94140573Y-42099667D01*
X94144111Y-42114641D01*
X94188547Y-42233777D01*
X94196962Y-42249189D01*
X94272498Y-42350092D01*
X94284907Y-42362501D01*
X94385810Y-42438037D01*
X94401222Y-42446452D01*
X94520358Y-42490888D01*
X94535332Y-42494426D01*
X94583885Y-42499646D01*
X94590482Y-42500000D01*
X96368674Y-42500000D01*
X96381549Y-42496549D01*
X96385000Y-42483674D01*
X96885000Y-42483674D01*
X96888450Y-42496549D01*
X96901326Y-42500000D01*
X98679518Y-42500000D01*
X98686114Y-42499646D01*
X98734667Y-42494426D01*
X98749641Y-42490888D01*
X98868777Y-42446452D01*
X98884189Y-42438037D01*
X98985092Y-42362501D01*
X98997501Y-42350092D01*
X99073037Y-42249189D01*
X99081452Y-42233777D01*
X99125888Y-42114641D01*
X99129426Y-42099667D01*
X99134646Y-42051114D01*
X99135000Y-42044518D01*
X99135000Y-41266326D01*
X99131549Y-41253450D01*
X99118674Y-41250000D01*
X96901326Y-41250000D01*
X96888450Y-41253450D01*
X96885000Y-41266326D01*
X96885000Y-42483674D01*
X96385000Y-42483674D01*
X96385000Y-41266326D01*
X96381549Y-41253450D01*
X96368674Y-41250000D01*
X94151326Y-41250000D01*
X94138450Y-41253450D01*
X94135000Y-41266326D01*
X94135000Y-42044518D01*
X93044570Y-42044518D01*
X92949641Y-42009111D01*
X92934667Y-42005573D01*
X92886114Y-42000353D01*
X92879518Y-42000000D01*
X92101326Y-42000000D01*
X92088450Y-42003450D01*
X92085000Y-42016326D01*
X92085000Y-44233674D01*
X91585000Y-44233674D01*
X91585000Y-42016326D01*
X91581549Y-42003450D01*
X91568674Y-42000000D01*
X90790482Y-42000000D01*
X90783885Y-42000353D01*
X90735332Y-42005573D01*
X90720358Y-42009111D01*
X90601222Y-42053547D01*
X90585810Y-42061962D01*
X90484907Y-42137498D01*
X90472498Y-42149907D01*
X90396962Y-42250810D01*
X90388547Y-42266222D01*
X90344111Y-42385358D01*
X90340573Y-42400332D01*
X90335353Y-42448885D01*
X90335000Y-42455482D01*
X90335000Y-44233674D01*
X84000500Y-44233674D01*
X84000500Y-43051570D01*
X84009939Y-43004117D01*
X84036819Y-42963889D01*
X86267034Y-40733674D01*
X94135000Y-40733674D01*
X94138450Y-40746549D01*
X94151326Y-40750000D01*
X96368674Y-40750000D01*
X96381549Y-40746549D01*
X96385000Y-40733674D01*
X96885000Y-40733674D01*
X96888450Y-40746549D01*
X96901326Y-40750000D01*
X99118674Y-40750000D01*
X99131549Y-40746549D01*
X99135000Y-40733674D01*
X99135000Y-39955482D01*
X99134646Y-39948885D01*
X99129426Y-39900332D01*
X99125888Y-39885358D01*
X99081452Y-39766222D01*
X99073037Y-39750810D01*
X98997501Y-39649907D01*
X98985092Y-39637498D01*
X98884189Y-39561962D01*
X98868777Y-39553547D01*
X98749641Y-39509111D01*
X98734667Y-39505573D01*
X98686114Y-39500353D01*
X98679518Y-39500000D01*
X96901326Y-39500000D01*
X96888450Y-39503450D01*
X96885000Y-39516326D01*
X96885000Y-40733674D01*
X96385000Y-40733674D01*
X96385000Y-39516326D01*
X96381549Y-39503450D01*
X96368674Y-39500000D01*
X94590482Y-39500000D01*
X94583885Y-39500353D01*
X94535332Y-39505573D01*
X94520358Y-39509111D01*
X94401222Y-39553547D01*
X94385810Y-39561962D01*
X94284907Y-39637498D01*
X94272498Y-39649907D01*
X94196962Y-39750810D01*
X94188547Y-39766222D01*
X94144111Y-39885358D01*
X94140573Y-39900332D01*
X94135353Y-39948885D01*
X94135000Y-39955482D01*
X94135000Y-40733674D01*
X86267034Y-40733674D01*
X88963888Y-38036819D01*
X89004116Y-38009939D01*
X89051569Y-38000500D01*
X188948430Y-38000500D01*
X188995883Y-38009939D01*
G37*
%TD.AperFunction*%
%TD*%
M02*
