%TF.GenerationSoftware,KiCad,Pcbnew,(7.0.0)*%
%TF.CreationDate,2023-06-19T20:16:09-07:00*%
%TF.ProjectId,main_board,6d61696e-5f62-46f6-9172-642e6b696361,B*%
%TF.SameCoordinates,Original*%
%TF.FileFunction,Legend,Bot*%
%TF.FilePolarity,Positive*%
%FSLAX46Y46*%
G04 Gerber Fmt 4.6, Leading zero omitted, Abs format (unit mm)*
G04 Created by KiCad (PCBNEW (7.0.0)) date 2023-06-19 20:16:09*
%MOMM*%
%LPD*%
G01*
G04 APERTURE LIST*
%ADD10C,0.120000*%
G04 APERTURE END LIST*
D10*
%TO.C,TP6*%
X174300000Y-51800000D02*
X174300000Y-54200000D01*
X174300000Y-54200000D02*
X176700000Y-54200000D01*
X176700000Y-51800000D02*
X174300000Y-51800000D01*
X176700000Y-54200000D02*
X176700000Y-51800000D01*
%TO.C,C6*%
X125998854Y-62200091D02*
X127421358Y-62200091D01*
X125998854Y-64920091D02*
X127421358Y-64920091D01*
%TO.C,TP1*%
X110010106Y-64800000D02*
X110010106Y-67200000D01*
X110010106Y-67200000D02*
X112410106Y-67200000D01*
X112410106Y-64800000D02*
X110010106Y-64800000D01*
X112410106Y-67200000D02*
X112410106Y-64800000D01*
%TO.C,R2*%
X124487606Y-60397349D02*
X124487606Y-59922833D01*
X125532606Y-60397349D02*
X125532606Y-59922833D01*
%TO.C,TP10*%
X127800000Y-55800000D02*
X127800000Y-58200000D01*
X127800000Y-58200000D02*
X130200000Y-58200000D01*
X130200000Y-55800000D02*
X127800000Y-55800000D01*
X130200000Y-58200000D02*
X130200000Y-55800000D01*
%TO.C,C7*%
X112770106Y-61048839D02*
X112770106Y-62471343D01*
X110050106Y-61048839D02*
X110050106Y-62471343D01*
%TO.C,R7*%
X129477500Y-72912258D02*
X129477500Y-72437742D01*
X130522500Y-72912258D02*
X130522500Y-72437742D01*
%TO.C,R1*%
X122817500Y-57222349D02*
X122817500Y-56747833D01*
X123862500Y-57222349D02*
X123862500Y-56747833D01*
%TO.C,R3*%
X126162606Y-57237258D02*
X126162606Y-56762742D01*
X127207606Y-57237258D02*
X127207606Y-56762742D01*
%TO.C,D1*%
X94340000Y-56390000D02*
X98750000Y-56390000D01*
X94340000Y-58610000D02*
X94340000Y-56390000D01*
X98750000Y-58610000D02*
X94340000Y-58610000D01*
%TO.C,L1*%
X115650106Y-62200091D02*
X115650106Y-63750091D01*
X115650106Y-62200091D02*
X123170106Y-62200091D01*
X115650106Y-69320091D02*
X115650106Y-67770091D01*
X115650106Y-69320091D02*
X123170106Y-69320091D01*
X123170106Y-62200091D02*
X123170106Y-63750091D01*
X123170106Y-69320091D02*
X123170106Y-67770091D01*
%TO.C,RV1*%
X128120000Y-22080000D02*
X121880000Y-22080000D01*
X128620000Y-32080000D02*
X121380000Y-32080000D01*
X128120000Y-32080000D02*
X128120000Y-22080000D01*
X121880000Y-32080000D02*
X121880000Y-22080000D01*
X134070000Y-37080000D02*
X115930000Y-37080000D01*
X128620000Y-37080000D02*
X128620000Y-32080000D01*
X121380000Y-37080000D02*
X121380000Y-32080000D01*
X134070000Y-47820000D02*
X134070000Y-37080000D01*
X134070000Y-47820000D02*
X115930000Y-47820000D01*
X115930000Y-47820000D02*
X115930000Y-37080000D01*
%TO.C,C12*%
X108240000Y-70711252D02*
X108240000Y-69288748D01*
X110960000Y-70711252D02*
X110960000Y-69288748D01*
%TO.C,R4*%
X119517499Y-54887258D02*
X119517499Y-54412742D01*
X120562499Y-54887258D02*
X120562499Y-54412742D01*
%TO.C,TP5*%
X139200000Y-77200000D02*
X139200000Y-74800000D01*
X139200000Y-74800000D02*
X136800000Y-74800000D01*
X136800000Y-77200000D02*
X139200000Y-77200000D01*
X136800000Y-74800000D02*
X136800000Y-77200000D01*
%TO.C,C9*%
X125998852Y-65900090D02*
X127421356Y-65900090D01*
X125998852Y-68620090D02*
X127421356Y-68620090D01*
%TO.C,C4*%
X118510000Y-54509419D02*
X118510000Y-54790579D01*
X117490000Y-54509419D02*
X117490000Y-54790579D01*
%TO.C,C1*%
X109370106Y-61048839D02*
X109370106Y-62471343D01*
X106650106Y-61048839D02*
X106650106Y-62471343D01*
%TO.C,R5*%
X101062742Y-56977500D02*
X101537258Y-56977500D01*
X101062742Y-58022500D02*
X101537258Y-58022500D01*
%TO.C,C11*%
X114360000Y-69288748D02*
X114360000Y-70711252D01*
X111640000Y-69288748D02*
X111640000Y-70711252D01*
%TO.C,D3*%
X127157499Y-74735000D02*
X124872499Y-74735000D01*
X127157499Y-73265000D02*
X127157499Y-74735000D01*
X124872499Y-73265000D02*
X127157499Y-73265000D01*
%TO.C,D2*%
X109760106Y-52250091D02*
X109760106Y-57760091D01*
X106460106Y-52250091D02*
X109760106Y-52250091D01*
X106460106Y-52250091D02*
X106460106Y-57760091D01*
%TO.C,C10*%
X122500104Y-60300669D02*
X122500104Y-60019509D01*
X123520104Y-60300669D02*
X123520104Y-60019509D01*
%TO.C,C13*%
X104840000Y-70711252D02*
X104840000Y-69288748D01*
X107560000Y-70711252D02*
X107560000Y-69288748D01*
%TO.C,TP4*%
X159700000Y-80200000D02*
X159700000Y-77800000D01*
X159700000Y-77800000D02*
X157300000Y-77800000D01*
X157300000Y-80200000D02*
X159700000Y-80200000D01*
X157300000Y-77800000D02*
X157300000Y-80200000D01*
%TO.C,C8*%
X125998854Y-69200091D02*
X127421358Y-69200091D01*
X125998854Y-71920091D02*
X127421358Y-71920091D01*
%TO.C,U1*%
X117110000Y-56440000D02*
X115160000Y-56440000D01*
X117110000Y-56440000D02*
X119060000Y-56440000D01*
X117110000Y-61560000D02*
X113660000Y-61560000D01*
X117110000Y-61560000D02*
X119060000Y-61560000D01*
%TO.C,TP3*%
X121200000Y-51200000D02*
X121200000Y-48800000D01*
X121200000Y-48800000D02*
X118800000Y-48800000D01*
X118800000Y-51200000D02*
X121200000Y-51200000D01*
X118800000Y-48800000D02*
X118800000Y-51200000D01*
%TO.C,TP7*%
X166700000Y-51700000D02*
X166700000Y-49300000D01*
X166700000Y-49300000D02*
X164300000Y-49300000D01*
X164300000Y-51700000D02*
X166700000Y-51700000D01*
X164300000Y-49300000D02*
X164300000Y-51700000D01*
%TO.C,TP11*%
X97700000Y-65200000D02*
X97700000Y-62800000D01*
X97700000Y-62800000D02*
X95300000Y-62800000D01*
X95300000Y-65200000D02*
X97700000Y-65200000D01*
X95300000Y-62800000D02*
X95300000Y-65200000D01*
%TO.C,TP9*%
X120260000Y-70800000D02*
X120260000Y-73200000D01*
X120260000Y-73200000D02*
X122660000Y-73200000D01*
X122660000Y-70800000D02*
X120260000Y-70800000D01*
X122660000Y-73200000D02*
X122660000Y-70800000D01*
%TO.C,C5*%
X121230000Y-57125671D02*
X121230000Y-56844511D01*
X122250000Y-57125671D02*
X122250000Y-56844511D01*
%TO.C,RV2*%
X160120000Y-22080000D02*
X153880000Y-22080000D01*
X160620000Y-32080000D02*
X153380000Y-32080000D01*
X160120000Y-32080000D02*
X160120000Y-22080000D01*
X153880000Y-32080000D02*
X153880000Y-22080000D01*
X166070000Y-37080000D02*
X147930000Y-37080000D01*
X160620000Y-37080000D02*
X160620000Y-32080000D01*
X153380000Y-37080000D02*
X153380000Y-32080000D01*
X166070000Y-47820000D02*
X166070000Y-37080000D01*
X166070000Y-47820000D02*
X147930000Y-47820000D01*
X147930000Y-47820000D02*
X147930000Y-37080000D01*
%TO.C,C3*%
X114520106Y-63319511D02*
X114520106Y-63600671D01*
X113500106Y-63319511D02*
X113500106Y-63600671D01*
%TO.C,C2*%
X124429999Y-57125671D02*
X124429999Y-56844511D01*
X125449999Y-57125671D02*
X125449999Y-56844511D01*
%TD*%
M02*
